<?xml version="1.0" encoding="UTF-8"?>
<svg width="105.83mm" height="68.202mm" version="1.1" viewBox="0 0 105.83 68.202" xmlns="http://www.w3.org/2000/svg"><g transform="matrix(.98064 0 0 .98064 -22.749 -31.876)"><path d="m69.045 100.85c-1.7419-0.65152-3.2302-1.2502-3.3073-1.3305-0.13877-0.14444 7.19 0.16632 7.3527 0.31177 0.1378 0.12324-0.55104 2.2456-0.72168 2.2235-0.08611-0.0111-1.5818-0.5533-3.3237-1.2048zm28.038 0.71047c-3.263-0.55005-24.327-4.3109-31.942-5.7029-2.7248-0.49813-5.3025-1.0858-5.7281-1.3059-1.6953-0.87669-3.2083-3.4271-3.2083-5.4082 0-0.63832-0.24477-0.7157-3.4396-1.0874-7.1361-0.83029-15.337-3.2949-21.865-6.5707-3.2739-1.6429-4.2299-2.4302-5.0252-4.138-1.0404-2.2342-0.70532-4.3071 1.0918-6.7553 0.51028-0.69514 0.92686-1.4861 0.92572-1.7576-0.0011-0.27154-0.84595-1.6248-1.8774-3.0073s-2.0556-2.8603-2.2759-3.284c-0.68563-1.3188-0.7204-3.4953-0.0947-5.9276 1.3245-5.1488 2.6949-8.1212 5.3434-11.59 0.56886-0.74498 1.5002-2.4447 2.0697-3.7771 1.3709-3.2074 1.9137-4.0402 3.226-4.9497 0.98206-0.68057 1.3857-0.77783 3.7715-0.90888 2.5049-0.13759 2.7956-0.21498 4.6561-1.2392 1.1456-0.63066 2.648-1.2126 3.5543-1.3769 3.482-0.63091 7.3552-0.1258 9.8083 1.2791 2.3354 1.3375 12.897 11.389 13.51 12.858 0.60044 1.437 0.48323 3.5394-0.28134 5.0464-0.36319 0.71589-0.66085 1.4435-0.66146 1.6169-5.29e-4 0.17342 0.9102 2.1363 2.024 4.3618 2.7508 5.4966 4.8817 7.6854 8.8539 9.0944 1.3927 0.49402 5.8988 1.1659 7.8648 1.1726 1.3504 0.0046 1.4864-0.06169 3.0427-1.4836 2.9131-2.6616 3.5179-2.7753 11.038-2.0758 10.649 0.99044 11.195 1.2275 21.17 9.204 4.3358 3.4671 5.7532 4.7644 6.9656 6.3753l1.5221 2.0224-0.97755 1.7784c-1.6204 2.9479-6.7906 10.966-7.7705 12.051-0.50395 0.55781-1.5191 1.3301-2.256 1.7161-1.1232 0.58848-1.6818 0.7023-3.4564 0.70422-1.9455 0.0021-2.3069-0.08843-4.4684-1.1194-1.2934-0.6169-2.4245-1.1212-2.5135-1.1207-0.089 5.3e-4 -0.38168 0.53564-0.65041 1.1891-0.50602 1.2305-2.5147 3.2602-3.9927 4.0346-1.1872 0.62201-4.5437 0.6564-7.9541 0.0815zm7.3241-3.8546c1.5153-1.1806 1.8006-1.8311 1.9919-4.5425 0.0854-1.2104 0.19881-2.2008 0.25198-2.2008 0.0532 0 1.9863 0.89824 4.296 1.9961 4.8092 2.286 5.6276 2.4942 7.2982 1.8562 1.4097-0.53836 1.8643-1.0942 5.2138-6.3745 2.6353-4.1545 3.3898-5.4726 3.3898-5.9221 0-0.61757-2.0221-2.482-7.0115-6.4647-7.9219-6.3235-8.8099-6.8003-13.873-7.4476-4.2802-0.54726-10.502-1.0097-11.183-0.83111-0.33487 0.08787-1.5512 1.0456-2.7028 2.1282l-2.094 1.9684-3.2334-0.24475c-1.7784-0.13461-4.2807-0.42737-5.5606-0.65058-4.531-0.79014-8.7051-3.406-11.041-6.919-1.7258-2.5959-4.6424-8.6888-5.0083-10.463-0.30521-1.4794-0.2954-1.5353 0.39551-2.2565 0.9391-0.98021 1.3771-2.2434 1.0135-2.9229-0.29927-0.55919-8.2402-8.2077-10.609-10.218-2.0469-1.7374-4.2858-2.3991-7.3785-2.1809-2.0497 0.14465-2.5419 0.29407-4.9248 1.4953-2.5409 1.2808-2.7348 1.3344-4.8156 1.3312-2.7754-0.0042-3.124 0.28622-4.6984 3.9148-0.65088 1.5001-1.5257 3.167-1.944 3.7042-2.6766 3.4372-3.5264 5.133-4.8486 9.676-1.161 3.989-1.1041 4.3686 1.0755 7.1757 2.802 3.6088 2.9974 3.9968 2.874 5.7038-0.09568 1.3227-0.29594 1.8189-1.3529 3.3518-2.0264 2.939-1.6791 3.8923 2.1248 5.8338 6.1325 3.1299 14.424 5.6309 21.241 6.4071 4.6359 0.52785 6.0444 1.4767 6.3768 4.2958 0.14788 1.2542 0.34411 1.7785 0.81827 2.1863 0.50666 0.43581 3.5031 1.0523 15.963 3.2844 22.033 3.9471 23.644 4.2173 25.284 4.2391 1.3025 0.0173 1.6196-0.09071 2.6711-0.90997zm-4.1491-2.1756c-0.43656-0.06353-8.8813-1.534-18.766-3.2676-9.8848-1.7337-18.189-3.1521-18.455-3.1521-0.34945 0-0.48276-0.20047-0.48382-0.7276-0.0032-1.57-0.58028-2.844-1.8434-4.0694-1.544-1.4979-3.3689-2.224-6.225-2.4768-3.8142-0.3375-10.882-1.955-14.684-3.3605-3.9897-1.4748-8.2948-3.4257-8.5807-3.8883-0.10315-0.1669 0.17966-0.7671 0.62846-1.3338 1.0856-1.3707 1.5772-2.6115 1.7716-4.4719 0.21096-2.0184-0.317-3.2106-2.9333-6.6238-1.0992-1.434-1.9986-2.7871-1.9986-3.0068 0-0.77198 1.6197-5.8411 2.2948-7.1821 0.37546-0.74576 1.4738-2.4324 2.4406-3.7481 1.0734-1.4606 2.1461-3.3286 2.7547-4.7968l0.99668-2.4046 2.3797-0.11378c2.2255-0.1064 2.5374-0.19607 4.8135-1.384 2.1139-1.1033 2.6986-1.2884 4.4481-1.4083 3.7133-0.25452 4.5612 0.28156 12.548 7.9336l2.9104 2.7884-0.66146 0.7124c-0.59426 0.64002-0.66107 0.93191-0.65766 2.8732 0.0035 2.0031 0.09368 2.3586 1.2352 4.8705 2.418 5.3208 4.3638 8.3963 6.7281 10.634 2.2154 2.097 4.9527 3.7474 7.6433 4.6083 2.0984 0.67139 6.0515 1.2234 9.9219 1.3855l3.5719 0.14959 2.2337-2.1249c2.1587-2.0536 2.2697-2.1208 3.3073-2.0032 0.5905 0.06691 3.1572 0.30374 5.7038 0.52628 4.9838 0.43553 7.0279 0.84042 8.797 1.7425 2.2339 1.1391 13.497 9.9894 13.315 10.463-0.26864 0.70005-5.7688 8.9662-6.1758 9.2814-0.79401 0.61507-1.7501 0.33642-6.5813-1.9182-2.6505-1.2369-4.9526-2.249-5.1158-2.249s-0.63805 0.17652-1.0553 0.39227c-0.92262 0.4771-1.2382 1.4092-1.4227 4.2016-0.21111 3.1959-0.98688 3.7044-4.8039 3.1489zm1.4552-4.7852c0-4.2709 3.7382-7.3356 7.435-6.0954 0.49466 0.16594 2.5899 1.1069 4.656 2.091l3.7566 1.7893 3.4068-5.3315-2.0205-1.6289c-4.0743-3.2847-7.8467-6.0433-8.8888-6.5002-1.0118-0.44354-5.2838-1.0534-10.146-1.4485l-2.1979-0.17857-1.7709 1.7075c-1.0685 1.0303-2.1855 1.8439-2.8163 2.0513-1.9961 0.65644-11.275-0.06593-15.089-1.1747-2.4295-0.70627-5.9043-2.5108-7.9048-4.1051-3.3116-2.6392-4.7801-4.5951-7.5946-10.116-2.8163-5.5241-3.6532-8.5029-3.1321-11.148l0.26925-1.3667-2.7277-2.6043c-1.5003-1.4323-3.3711-3.1588-4.1574-3.8365-1.417-1.2213-1.4463-1.2321-3.3073-1.2187-1.6696 0.01199-2.0754 0.12455-3.6624 1.0158-1.882 1.057-4.0003 1.7404-5.4103 1.7457-0.77841 0.0029-0.90249 0.13111-1.5732 1.6257-0.40048 0.89238-1.6593 2.9365-2.7975 4.5424-1.7153 2.4204-2.2078 3.3568-2.8789 5.4737l-0.80956 2.5538 1.7833 2.3627c2.5526 3.382 2.8768 4.2034 2.8646 7.2574-0.0067 1.6746-0.15757 2.9109-0.45205 3.7042-0.39095 1.0531-0.39626 1.2249-0.04599 1.487 0.2178 0.16303 2.0712 0.91018 4.1187 1.6604 4.0776 1.4939 9.2013 2.6893 14.14 3.2988 1.7523 0.21626 3.8139 0.63178 4.5813 0.92338 2.6144 0.9934 4.9661 3.2177 5.9804 5.6565 0.25854 0.62163 0.63072 1.0364 1.0044 1.1193 0.32653 0.07245 7.797 1.3882 16.601 2.9238s16.186 2.8339 16.404 2.8849c0.21828 0.05105 0.84336 0.10662 1.3891 0.1235l0.99219 0.03069z" stroke-width=".26458"/></g></svg>
