<?xml version="1.0" encoding="UTF-8"?>
<svg width="105.83mm" height="70.465mm" version="1.1" viewBox="0 0 105.83 70.465" xmlns="http://www.w3.org/2000/svg"><g transform="translate(-23.734 -31.059)"><path d="m117.78 101.13c-2.1277-0.74589-2.8423-1.9396-6.5635-10.964l-3.413-8.2768-1.8165-0.18094c-2.2962-0.22873-4.1348-0.91462-6.0525-2.2579l-1.5079-1.0563-1.35 0.44123c-0.7425 0.24267-2.5314 0.91799-3.9754 1.5007-2.3621 0.95322-2.8624 1.0615-4.9883 1.0801-2.0242 0.017643-2.5698-0.077129-3.8068-0.66119-0.79418-0.37498-1.9572-1.1133-2.5844-1.6407l-1.1404-0.95891-3.8478 0.15096c-2.1163 0.08302-4.4976 0.27385-5.2918 0.42405s-6.0515 2.1027-11.683 4.3389c-8.0264 3.1872-10.585 4.0955-11.842 4.2031-2.8474 0.24389-5.0032-0.89236-7.0929-3.7385-0.90936-1.2385-1.3732-1.6676-1.6645-1.5399-0.22212 0.09733-0.99456 0.2926-1.7165 0.43392-0.72198 0.14132-2.2783 0.65544-3.4586 1.1425-3.2146 1.3266-5.3324 1.1647-7.6235-0.58284-2.8288-2.1576-3.516-8.7785-1.3672-13.174 0.99385-2.0332 3.1946-4.4529 4.8804-5.366 0.69736-0.37772 6.289-2.7185 12.426-5.2018 14.867-6.0157 21.353-8.7212 36.493-15.222 12.573-5.3983 23.524-9.8132 29.404-11.854 3.8877-1.3493 5.8861-1.4563 7.6706-0.4105 1.2204 0.71518 2.5668 2.44 3.1382 4.0201 0.23641 0.65378 0.57966 0.9611 1.4407 1.2899 1.851 0.70691 3.003 2.2754 3.9846 5.4257 1.2818 4.1131 1.3947 5.2273 1.3657 13.475-0.031 8.8436-0.45005 24.5-0.6934 25.909-0.1607 0.93032-0.12782 0.98422 0.84899 1.3923 2.3043 0.96258 3.6274 3.031 3.6123 5.6474-9e-3 1.5327-0.18339 2.0854-1.7142 5.4266-1.9378 4.2297-2.587 5.2777-3.773 6.0903-1.6367 1.1215-4.2551 1.4099-6.2979 0.69378zm4.3024-3.7438c0.64178-0.53252 3.9652-7.788 3.9667-8.6597 5.3e-4 -0.32262-0.3277-0.9544-0.72938-1.404-0.64657-0.72364-0.93629-0.83393-2.5258-0.96152l-1.7954-0.14412 0.14942-1.3399c0.6767-6.0683 1.3325-32.104 0.9083-36.063-0.39587-3.6948-1.6829-7.6702-2.6382-8.1486-0.32334-0.16194-1.0772-0.4186-1.6752-0.57037-1.0481-0.26599-1.1174-0.35074-1.924-2.3518-1.0272-2.5483-1.5305-3.0513-2.9965-2.9945-1.9157 0.07414-15.591 5.3209-29.304 11.243-16.516 7.1328-28.294 12.035-46.207 19.235-5.4729 2.1995-5.6932 2.3169-7.2431 3.8572-2.0574 2.0448-2.6094 3.5055-2.5844 6.8395 0.03488 4.643 1.7034 5.8067 5.6753 3.9582 1.1425-0.53172 2.4291-0.93894 2.9666-0.93894 1.7135 0 3.2859-1.2215 3.2859-2.5525 0-0.32886 0.08861-0.59398 0.1969-0.58914 0.1083 0.0049 1.3001 1.5487 2.6485 3.4309 2.5885 3.6133 3.5234 4.4339 5.0529 4.4355 0.59987 5.25e-4 4.6777-1.4812 11.249-4.0877 5.6692-2.2488 11.094-4.2461 12.055-4.4383 0.96087-0.1923 3.9052-0.4298 6.5429-0.52778l4.7959-0.17816 1.5427 1.3364c3.083 2.6708 3.9718 2.7063 10.146 0.40506 5.2746-1.966 5.3858-1.9683 7.7813-0.15968 2.0687 1.5619 3.1307 1.9194 6.1614 2.0745l2.6681 0.13649 3.2124 7.774c4.3776 10.594 4.6641 11.214 5.3218 11.533 0.91769 0.44384 2.678 0.36448 3.2964-0.14861zm-5.6123-11.281c-2.02-4.8659-3.9474-9.1734-4.2832-9.5724-0.77848-0.92517-2.0134-1.2619-4.646-1.2668-2.2072-0.0042-2.9346-0.294-5.6137-2.2373-1.0287-0.74616-2.3844-1.1711-3.7426-1.1732-0.54462-7.88e-4 -2.898 0.73822-5.476 1.7197-3.1865 1.2131-4.7257 1.6758-5.2146 1.5675-0.38154-0.08452-1.4616-0.80493-2.4002-1.6009-0.93858-0.79599-1.9935-1.5195-2.3443-1.6078-0.3508-0.08828-3.0735-0.08467-6.0504 8e-3 -6.621 0.2062-7.3084 0.36556-15.234 3.5316-12.963 5.1785-14.191 5.6218-14.61 5.274-0.21502-0.17844-1.4095-1.7425-2.6544-3.4756-3.2305-4.4975-3.6105-4.8929-4.7017-4.8929-0.49992 0-1.1475 0.12765-1.439 0.28367-0.60798 0.32538-1.2732 1.7503-1.2732 2.7271 0 0.36563-0.08861 0.67156-0.19691 0.67985-1.7807 0.13629-2.7395 0.39748-4.2484 1.1574-2.1062 1.0607-2.1182 1.0513-2.1182-1.6674 0-2.2498 0.90121-4.2135 2.3842-5.1949 0.55381-0.36649 4.3494-2.0198 8.4346-3.674 17.278-6.9963 23.689-9.6613 37.62-15.638 17.961-7.7054 33.41-13.824 33.994-13.464 0.11557 0.07143 0.52821 0.92838 0.91697 1.9043 0.87607 2.1993 1.4835 2.8709 2.7977 3.0929 0.56471 0.09541 1.187 0.33373 1.3829 0.52961 0.66333 0.66333 1.5135 4.5595 1.6534 7.5772 0.2021 4.3595-0.39455 27.507-0.8326 32.301-0.41956 4.5921-0.32101 5.2233 0.91298 5.8474 0.361 0.18259 1.329 0.33373 2.151 0.33586l1.4947 0.0039-1.2873 2.8188c-0.70803 1.5504-1.3806 2.8487-1.4947 2.8853-0.11404 0.03656-1.8601-3.9147-3.8801-8.7805zm-59.225-12.909c4.7039-1.8611 9.3795-3.639 10.39-3.951 2.0195-0.62334 6.5223-1.0328 12.098-1.1002 3.9189-0.04734 4.966 0.26452 7.2177 2.1497l1.2824 1.0737 3.8782-1.522c3.6926-1.4491 3.9912-1.5223 6.241-1.5293 2.1127-0.0065 2.5435 0.07927 4.0694 0.81045 0.93857 0.44976 2.1438 1.1707 2.6782 1.602 0.89318 0.72088 1.1822 0.79585 3.5777 0.92784 2.8546 0.1573 4.6088 0.74278 5.8839 1.9638 0.39558 0.37882 0.76973 0.63828 0.83143 0.57658 0.0617-0.06171 0.15155-5.9012 0.19964-12.977 0.098-14.42 0.0598-14.826-1.4516-15.458-1.1897-0.4971-2.663-1.8415-3.0549-2.7875-0.17971-0.43386-0.48081-0.78883-0.66911-0.78883-0.35521 0-5.5063 1.9476-12.345 4.6676-2.1757 0.86535-9.7368 4.0591-16.803 7.0973-11.803 5.0753-22.555 9.5606-33.766 14.086l-4.3793 1.7678 1.0976 1.3543c0.60366 0.74488 1.7473 2.2671 2.5415 3.3826 0.79418 1.1156 1.5531 2.0302 1.6865 2.0326 0.13342 0.0024 4.0912-1.5184 8.7951-3.3795zm-17.673-17.649c-0.3857-0.88935-0.65563-1.6626-0.59985-1.7184 0.1198-0.1198 8.4978-1.9274 8.9332-1.9274 0.24138 0-3.1682 2.3647-6.947 4.818l-0.68506 0.44477z" stroke-width=".26254"/></g></svg>
