<?xml version="1.0" encoding="UTF-8"?>
<svg width="105.83mm" height="52.556mm" version="1.1" viewBox="0 0 105.83 52.556" xmlns="http://www.w3.org/2000/svg"><g transform="translate(-23.734 -31.059)"><path d="m78.209 82.821c-2.1728-0.47453-3.991-0.87342-4.0404-0.8864-0.13444-0.0354 7.5817-1.415 7.9461-1.4208 0.27486-4e-3 0.31425 0.18502 0.31425 1.5108 0 0.83367-0.06061 1.548-0.13468 1.5875-0.07408 0.0395-1.9124-0.31653-4.0853-0.79108zm-46.689-3.6393c-1.5313-0.48759-2.7577-1.4895-3.4118-2.7874-0.41547-0.82433-2.5356-6.6687-3.5885-9.8921-1.3333-4.0817-1.2546-4.4302 2.4878-11.026 2.8364-4.9994 3.8146-6.2641 5.3636-6.9347 2.4197-1.0476 5.35-0.0557 6.7147 2.2731 0.28266 0.48232 0.85115 2.2726 1.4253 4.4887 0.52534 2.0275 1.0503 3.8011 1.1667 3.9413 0.16697 0.20119 0.83308 0.25487 3.1627 0.25487h2.9512l-1.0804-1.0002c-1.2332-1.1417-5.0093-6.802-5.7329-8.5934-0.36687-0.90829-0.41956-1.2855-0.35145-2.5162 0.17995-3.2517 2.4051-5.5882 5.5252-5.8018 0.82751-0.05664 3.6938 0.26869 9.7896 1.1111 4.7407 0.65518 10.068 1.3902 11.838 1.6334 4.296 0.59029 5.0213 0.58165 6.052-0.07202 0.44596-0.28282 2.2939-2.1212 4.1066-4.0853 5.2704-5.7107 6.698-7.0641 8.2617-7.8327 1.8612-0.91486 3.4787-1.276 5.7463-1.2829 3.7184-0.0113 5.9354 1.2948 6.9922 4.1195 0.30864 0.82493 0.36412 1.6929 0.50556 7.9098 0.17857 7.8493 0.21668 8.0824 1.4624 8.9457 0.65467 0.45368 5.6232 2.818 5.7195 2.7216 0.0265-0.0265-0.72652-1.1968-1.6734-2.6007-0.94685-1.4039-1.9778-3.0934-2.291-3.7546-0.5215-1.1008-0.56947-1.3534-0.56944-2.9978 3e-5 -1.6098 0.0529-1.9035 0.5109-2.8368 0.57428-1.1703 1.8973-2.586 3.038-3.2508 0.41845-0.24386 1.4073-0.66388 2.1974-0.9334 1.9286-0.65786 4.6454-0.70455 6.2728-0.10781 1.4908 0.54662 2.855 1.4038 3.9674 2.4926 0.85635 0.83828 6.54 9.0006 8.7368 12.547 1.0227 1.651 1.8298 3.5509 2.344 5.5177 0.54664 2.0909 0.54303 6.0675-8e-3 8.0812-0.44126 1.6145-1.5309 4.0252-2.3854 5.2775-2.1606 3.1665-5.6043 5.5049-9.823 6.6703l-1.7429 0.48147-41.481 0.0344c-33.176 0.0275-41.625-0.0114-42.199-0.19429zm84.758-3.1327c2.0333-0.57935 4.4783-1.8174 5.7955-2.9347 1.4092-1.1954 2.4091-2.5208 3.2947-4.3675 1.0514-2.1923 1.3144-3.4089 1.3005-6.0157-0.01-1.9009-0.0864-2.4921-0.49838-3.8608-0.59311-1.9704-1.6378-3.9749-3.291-6.3147-0.68629-0.97131-2.3238-3.3798-3.639-5.3522-2.6711-4.0059-3.676-5.1093-5.379-5.9062-0.9975-0.46679-1.3745-0.54534-2.607-0.54327-4.2732 0.0071-7.2 2.8077-6.1976 5.9303 0.24829 0.77351 1.9066 3.3665 4.7803 7.4746 2.0786 2.9715 2.4825 3.7323 2.3218 4.3729-0.18035 0.71857-0.82956 1.1875-1.4974 1.0815-0.62295-0.09887-7.7854-3.2533-10.143-4.4673-1.6702-0.85986-2.8123-2.0443-3.3866-3.5121-0.37855-0.96748-0.4092-1.4095-0.55668-8.0272-0.0947-4.2515-0.23312-7.2002-0.35216-7.5045-0.5006-1.2794-1.3694-1.869-3.1195-2.1169-2.268-0.32119-5.0336 0.33882-6.6951 1.5978-0.4799 0.36362-2.9005 2.8519-5.3792 5.5296-5.5198 5.9628-6.3145 6.5344-9.0852 6.5344-0.70494 0-6.5735-0.72704-13.041-1.6156-6.4678-0.8886-12.017-1.6159-12.332-1.6161-2.3114-0.0021-3.8447 2.7025-2.7493 4.8496 0.85426 1.6745 4.1395 6.4363 4.976 7.2125 0.97863 0.90808 2.2337 1.4052 3.5477 1.4052 0.40582 0 3.5628-0.57476 7.0156-1.2772 5.5726-1.1338 6.5198-1.2797 8.4326-1.2993 2.6435-0.02699 2.8318 0.03085 10.837 3.3284 5.9175 2.4375 7.0319 2.9382 7.0273 3.1574-0.01232 0.58678 0.01316 0.58617-22.456 0.53785-21.8-0.04688-22.175-0.05358-22.769-0.40682-1.1709-0.69591-1.5624-1.5219-2.605-5.4963-0.53391-2.0353-1.0587-3.865-1.1663-4.0659-0.42038-0.78548-1.2679-1.3019-2.1367-1.3019-1.0261 0-1.7787 0.48106-2.5138 1.6068-1.5499 2.3732-5.0928 8.878-5.282 9.6976-0.24683 1.0693-0.29503 0.8861 1.8683 7.1018 1.9985 5.742 2.2645 6.2972 3.2275 6.7363 0.76101 0.34698 1.3745 0.35144 41.894 0.30453l41.122-0.0476zm-83.728-1.5978c-0.35989-0.31347-1.2917-2.751-3.2038-8.3809-0.79558-2.3425-0.94214-2.957-0.81499-3.4175 0.16581-0.60052 3.7695-7.0772 4.8523-8.7207 0.70718-1.0734 1.3007-1.3492 1.6198-0.75289 0.10194 0.19049 0.58331 1.8815 1.0697 3.7578 0.48639 1.8763 1.0318 3.7253 1.2121 4.109 0.18026 0.38364 0.74291 1.1151 1.2503 1.6254 1.5982 1.6074-0.25671 1.4967 25.026 1.4937 17.253-0.0021 22.285-0.05199 22.621-0.22447 1.2154-0.62464 1.6172-2.5128 0.7356-3.4571-0.24691-0.26448-0.73176-0.62554-1.0774-0.80234-1.7231-0.88131-13.238-5.4759-14.725-5.8753-2.611-0.70141-4.3316-0.55743-12.114 1.0137-3.4528 0.69707-6.5058 1.2674-6.7846 1.2674-0.65117 0-1.7165-0.44606-2.272-0.95132-0.23914-0.21751-1.3918-1.8488-2.5614-3.6251-2.3404-3.5544-2.5079-4.0372-1.6858-4.8593 0.24242-0.24242 0.58172-0.44077 0.754-0.44077 0.17228 0 5.6507 0.73683 12.174 1.6374 12.797 1.7666 14.244 1.8827 15.933 1.2778 2.1525-0.77058 2.8854-1.4289 9.2838-8.3381 3.0635-3.3081 3.5734-3.7816 4.6358-4.3046 1.0493-0.51656 1.4075-0.59626 2.9607-0.65864 2.0146-0.08092 2.7166 0.11607 2.9913 0.83933 0.10161 0.26754 0.23348 3.3555 0.2992 7.0056 0.12992 7.216 0.19047 7.6729 1.2952 9.7753 1.0968 2.0872 1.9381 2.636 8.7823 5.7292 4.5418 2.0526 4.8952 2.1818 6.0064 2.1957 1.0373 0.01295 1.2633-0.04828 1.862-0.5045 0.93149-0.70984 1.4316-1.8768 1.2958-3.0236-0.1282-1.0825-0.34375-1.4562-3.2609-5.6546-4.0947-5.8931-4.438-6.5948-3.7751-7.7169 0.6744-1.1417 2.2406-1.8314 4.1851-1.8431 2.4236-0.0146 3.4105 0.79611 6.33 5.1997 1.0149 1.5309 2.6314 3.9147 3.5922 5.2974 2.9576 4.2564 3.8227 6.449 3.826 9.6969 4e-3 4.5791-2.3778 8.4728-6.3468 10.373-3.3962 1.6261 1.2546 1.4679-44.824 1.5244-38.774 0.04753-40.802 0.03436-41.148-0.26728zm82.581-2.9694c3.8587-1.1833 5.9824-3.3921 6.7371-7.0068 0.58102-2.7831-0.13568-5.1713-2.6753-8.9145-0.97616-1.4388-2.8186-4.1692-4.0943-6.0675-1.5658-2.3299-2.492-3.5407-2.8505-3.7261-0.59556-0.30798-2.0844-0.37088-2.2547-0.09527-0.11214 0.18146 1.4373 2.5691 4.3174 6.653 2.2021 3.1225 2.4968 3.809 2.5021 5.8274 3e-3 1.3832-0.0653 1.7642-0.47727 2.6434-0.56726 1.2103-1.7889 2.4606-2.9565 3.0258-1.1611 0.56209-3.1144 0.67409-4.3952 0.25202-1.7323-0.5709-10.718-4.6892-11.872-5.4413-2.5186-1.6409-4.2694-4.1817-4.8706-7.068-0.27013-1.2969-0.46977-5.7376-0.47277-10.516l-0.0015-2.3793-0.58361 4e-3c-1.4369 0.0097-1.7903 0.32107-8.077 7.1151-3.816 4.1239-4.9968 5.0662-7.6485 6.1038-0.35229 0.13784 0.45628 0.5225 5.2076 2.4774 6.4666 2.6606 7.0835 2.9489 7.964 3.722 1.0816 0.94968 1.6021 2.1648 1.603 3.7426 0.0013 2.1392-0.94603 3.7708-2.7136 4.6736l-0.86959 0.44412-22.793 0.04694c-24.932 0.05133-23.94 0.08923-25.777-0.98381-1.825-1.0661-3.4139-3.245-4.0594-5.5668-0.17053-0.61336-0.3712-1.0774-0.44593-1.0312-0.07474 0.04619-0.59084 0.89851-1.1469 1.894-0.72738 1.3022-0.97848 1.9192-0.89498 2.1991 0.15974 0.53545 2.5089 7.2752 2.7498 7.8893l0.19498 0.49693 39.823-0.05234c37.071-0.04872 39.893-0.0737 40.831-0.36137zm-57.932-19.24c2.5679-0.52489 4.5477-0.99815 4.3995-1.0517-0.31364-0.11336-11.248-1.5807-11.723-1.5732-0.2556 4e-3 -0.13357 0.28416 0.60852 1.3967 1.0656 1.5976 1.5778 2.2034 1.8525 2.1911 0.10624-0.0048 2.2942-0.43811 4.862-0.963zm14.725 6.8209c-1.6716-0.75654-3.192-1.0641-4.6216-0.93505-1.2462 0.11253-6.7896 1.1493-6.9458 1.2991-0.04115 0.03946 2.7467 0.06512 6.1952 0.05703l6.2701-0.01471z" stroke-width=".17957"/></g></svg>
