<?xml version="1.0" encoding="UTF-8"?>
<svg width="105.83mm" height="47.603mm" version="1.1" viewBox="0 0 105.83 47.603" xmlns="http://www.w3.org/2000/svg"><g transform="translate(-23.734 -31.059)"><path d="m74.357 78.272c-0.84279-0.22134-3.7542-1.0275-6.4699-1.7915-2.7156-0.764-6.4699-1.8129-8.3427-2.3309-4.1197-1.1394-5.5599-1.7661-6.6415-2.8897-1.044-1.0846-1.3988-1.7114-2.6371-4.6587-0.5701-1.3569-1.2299-2.7605-1.4663-3.119-0.82958-1.2583-1.7909-1.3551-7.8986-0.79533-4.0991 0.37569-7.0303 0.43074-8.3769 0.15733-0.49624-0.10075-1.6301-0.53839-2.5197-0.97253-4.5115-2.2017-6.5978-6.7181-6.2287-13.484 0.14991-2.7482 0.50287-5.2492 0.93746-6.6425 0.79304-2.5426 3.1713-4.9242 5.9172-5.9253 1.2745-0.46472 18.742-4.5706 20.097-4.7239 2.0396-0.23075 4.3814 0.6467 5.7304 2.1471 0.47858 0.53229 1.0691 1.5708 1.7502 3.0778 0.96705 2.1398 1.0585 2.2775 1.5432 2.3262 0.46355 0.0465 3.9309-0.41528 17.064-2.2726 4.8236-0.68214 6.3314-0.73014 7.8673-0.25044 3.3157 1.0355 5.5808 4.0785 5.5904 7.5099 0.0058 2.1134-0.57882 3.4627-2.2532 5.2l-0.84262 0.87426 1.7625 0.11605c2.2243 0.14645 6.26 0.53256 8.9135 0.85279 5.404 0.65217 9.3855 0.71309 21.513 0.32914 3.7464-0.11861 4.8047 0.01615 6.452 0.82152 1.768 0.86435 2.9691 2.4763 3.558 4.775 0.59742 2.332-0.22904 4.9094-2.1152 6.5964-1.81 1.6189-3.5214 2.2667-9.4312 3.5699l-1.6464 0.36305-0.11426 1.3104c-0.28765 3.2994-0.94272 5.0024-2.5399 6.6029-1.2685 1.2711-2.7841 2.0359-4.5434 2.2924-1.3673 0.19938-1.3047 0.20821-12.75-1.7979-2.3879-0.41853-5.9104-1.0349-7.8277-1.3696l-3.4861-0.60867-1.792 1.8728c-0.98557 1.0301-2.1367 2.0628-2.5581 2.2951-1.8791 1.0355-3.7249 1.1967-6.2145 0.5429zm4.1597-2.6254c1.1219-0.4263 1.4935-0.73922 3.2038-2.6983 0.79871-0.91487 1.6139-1.7564 1.8116-1.8702 0.19767-0.11374 0.68484-0.20951 1.0826-0.21282 0.39776-0.0033 5.5694 0.84032 11.493 1.8748 6.3326 1.1059 11.247 1.8837 11.929 1.8879 1.484 9e-3 2.6866-0.54749 3.7581-1.7392 0.94722-1.0535 1.2205-1.8747 1.533-4.6067 0.13539-1.1834 0.36414-2.3798 0.50835-2.6586 0.41213-0.79699 1.2171-1.1001 5.0787-1.9121 3.7219-0.78264 5.1644-1.3435 6.4556-2.51 1.0293-0.9299 1.418-1.7895 1.407-3.1115-0.017-2.0398-1.211-3.6455-3.125-4.2024-1.0103-0.29397-4.0763-0.26113-11.071 0.11858-4.4584 0.24201-9.6271 0.01524-15.664-0.68722-8.2398-0.95882-9.7677-1.0085-36.521-1.188-17.784-0.1193-20.951-0.17748-22.021-0.40455-2.4347-0.51688-4.0205-1.5499-4.7352-3.0846-0.51188-1.0992-0.51106-2.1419 0.0026-3.2362 0.7756-1.6526 2.0149-2.4587 3.7898-2.465 0.94431-0.0034 13.402 2.6828 24.575 5.2991 3.7082 0.86828 3.9918 0.84944 6.9303-0.46009 1.2014-0.53542 2.5292-1.0087 2.9506-1.0517 0.56481-0.05766 1.765 0.17619 4.5667 0.8898 3.6019 0.91742 3.8911 0.965 5.5334 0.9103 2.054-0.06841 2.845-0.38334 4.1004-1.6326 1.0681-1.0629 1.329-1.6019 1.4209-2.9356 0.20378-2.9581-2.1791-5.4497-5.2119-5.4497-0.54186 0-5.6149 0.65595-11.273 1.4577-5.6585 0.80172-10.764 1.4672-11.346 1.4789-0.87306 0.01753-1.1611-0.05228-1.6495-0.39978-0.87699-0.62399-1.155-1.0489-2.216-3.3863-1.3894-3.0612-2.2484-3.8117-4.3559-3.8057-1.5153 0.0043-18.927 4.0923-20.534 4.8212-0.75657 0.34305-1.4336 0.83118-2.1063 1.5186-1.4811 1.5137-1.8567 2.7203-2.2311 7.1689-0.55095 6.5457 0.97514 10.353 4.8961 12.215 1.2346 0.58631 1.4288 0.62682 3.2802 0.68423 1.2043 0.03734 3.7846-0.09994 6.65-0.35382 5.2263-0.46306 6.2662-0.41893 7.8043 0.33117 1.122 0.54718 2.1346 1.8513 2.9192 3.7596 1.9547 4.7543 2.3425 5.3712 3.8343 6.1011 1.3043 0.63815 19.879 5.8433 20.897 5.8561 0.4438 0.0055 1.1864-0.13409 1.6502-0.31032zm-11.651-4.0888c-5.244-1.4758-9.8027-2.8231-10.13-2.994-0.9388-0.48961-1.3431-1.1578-2.6146-4.321-1.4593-3.6304-2.5661-4.9735-4.8336-5.8654-1.6511-0.64945-2.7243-0.67509-8.1458-0.1946-6.1406 0.54422-7.3981 0.51526-8.9392-0.20589-0.60886-0.28492-1.3786-0.75648-1.7105-1.0479-0.75005-0.65855-1.5568-2.1524-1.9477-3.6065-0.52806-1.9643-0.32027-7.6026 0.3693-10.021 0.31595-1.1079 1.4704-2.4197 2.66-3.0226 1.0051-0.50934 18.624-4.6637 19.779-4.6637 1.4398 0 1.6958 0.25331 2.9788 2.9484 1.2912 2.7123 1.8968 3.5112 3.155 4.1616 0.71624 0.37026 1.0882 0.44668 2.1436 0.44041 0.70232-0.0042 5.9451-0.6704 11.651-1.4805 5.7056-0.8101 10.669-1.4729 11.03-1.4729 1.8279 0 3.5254 1.6593 3.5358 3.4562 0.0047 0.82401-0.3245 1.456-1.1244 2.1584-1.562 1.3715-2.885 1.3835-8.0048 0.07275-4.7662-1.2202-5.0391-1.215-8.1436 0.15586-1.2147 0.53639-2.4789 1.0168-2.8093 1.0676-0.37732 0.05804-1.4237-0.10513-2.8141-0.43882-1.2174-0.29217-7.1552-1.6423-13.195-3.0002-12.093-2.7189-12.666-2.8026-14.497-2.1175-2.8781 1.0768-4.4486 4.5346-3.3671 7.4134 0.50282 1.3385 1.8893 2.8078 3.2944 3.4912 1.3505 0.6569 2.6449 0.97709 4.7598 1.1775 0.94763 0.08979 11.147 0.20929 22.665 0.26557 23.526 0.11496 25.86 0.19162 33.882 1.113 6.941 0.79725 11.358 0.96688 17.111 0.65707 2.3879-0.1286 5.5292-0.23381 6.9807-0.23381 2.3417 0 2.7062 0.0389 3.2349 0.34526 1.2293 0.71222 1.6362 2.6154 0.79507 3.7182-0.62397 0.81806-2.4748 1.7051-4.4952 2.1544-5.6931 1.266-6.5429 1.5531-7.3635 2.4876-0.60112 0.68464-0.97126 1.8934-1.114 3.6383-0.16851 2.0592-0.40548 2.9914-0.95235 3.7463-0.6077 0.8389-1.631 1.3526-2.7042 1.3576-0.42139 2e-3 -5.6186-0.83916-11.549-1.8691-6.1994-1.0766-11.25-1.8726-11.882-1.8726-1.5615 0-2.1016 0.34084-4.0539 2.5583-1.7382 1.9742-2.5534 2.5502-3.5868 2.5341-0.28093-0.0044-4.8013-1.2154-10.045-2.6912zm10.373-0.28429c0.14673-0.14673 0.92408-1.0202 1.7275-1.941 1.5009-1.7203 2.654-2.5365 3.9809-2.8176 1.3591-0.28793 3.3784-0.02628 13.772 1.7845 5.9311 1.0334 10.959 1.8788 11.174 1.8788 0.6218 0 0.78292-0.37471 0.96488-2.2439 0.39042-4.0107 1.351-5.8421 3.6745-7.0058 1.1834-0.59264 2.2135-0.89834 4.9862-1.4798 2.6529-0.55628 4.0696-0.95812 4.3416-1.2315 0.17931-0.18017-2.9837-0.09442-7.832 0.21234-5.2224 0.33042-10.239 0.15163-17.026-0.60684-8.8043-0.98389-10.547-1.0508-30.874-1.1849l-14.018-0.09253 1.1761 1.1599c1.429 1.4093 2.2876 2.8359 3.4594 5.7477 0.48989 1.2174 1.0196 2.3512 1.1772 2.5197 0.18788 0.20085 3.4765 1.206 9.5526 2.9198 5.0964 1.4374 9.3181 2.6212 9.3816 2.6307 0.06354 0.0094 0.23558-0.10282 0.38231-0.24955zm-3.8648-10.393c-0.06785-0.06785-0.12336-0.767-0.12336-1.5537 0-1.2806 0.03119-1.4215 0.29796-1.3466 0.16387 0.04604 1.8303 0.29241 3.7032 0.54747 1.8729 0.25506 3.463 0.51404 3.5336 0.5755 0.07065 0.06146-1.4103 0.48026-3.2909 0.93066-1.8806 0.4504-3.5494 0.85291-3.7082 0.89446-0.15888 0.04155-0.34439 0.02002-0.41225-0.04782zm-37.666-5.1778c-0.18729-0.08285-0.76191-0.32514-1.277-0.53843-0.51504-0.21329-1.4208-0.75435-2.0128-1.2024-0.90439-0.68442-1.0577-0.75297-0.95923-0.42904 0.39761 1.3086 2.0262 2.3475 3.6531 2.3303 0.69187-0.0073 0.8475-0.04921 0.59591-0.1605zm47.144-11.895c0.26711-0.29515 0.26822-0.34192 0.01424-0.59591-0.32396-0.32396-0.48284-0.33116-2.2395-0.10152-2.2614 0.29562-2.336 0.34309-1.0764 0.68467 1.5491 0.42008 2.9283 0.42542 3.3018 0.01277zm-30.936-3.9498c-0.69449-1.5205-0.71458-1.5443-1.2209-1.4469-1.4976 0.28811-5.7689 1.353-5.6225 1.4018 0.50088 0.16703 6.8665 1.5652 7.18 1.577 0.35314 0.01333 0.33819-0.05472-0.33656-1.532zm2.4216 9.4807c-0.15034-0.14281-16.293-3.6783-16.794-3.6783-0.76339 0-1.0489 0.14877-1.3305 0.69322-0.36565 0.70708-0.31189 0.98064 0.31611 1.6086 0.77322 0.77322 2.1128 1.1356 4.7129 1.275 2.3367 0.12528 13.21 0.2095 13.096 0.10144z" stroke-width=".17026"/></g></svg>
