<?xml version="1.0" encoding="UTF-8"?>
<svg width="105.83mm" height="80.635mm" version="1.1" viewBox="0 0 105.83 80.635" xmlns="http://www.w3.org/2000/svg"><g transform="translate(-24.895 -36.839)"><path d="m55.302 116.28c-2.7571-0.64328-5.0713-1.228-5.1426-1.2993-0.07134-0.0713 2.2154-0.50056 5.0816-0.95382l5.2113-0.8241v2.1424c0 1.1783-0.03092 2.1339-0.0687 2.1234-0.03778-0.0105-2.3245-0.54534-5.0816-1.1886zm-26.604-8.0969c-2.2257-1.0256-3.8473-3.7971-3.8012-6.4965 0.03083-1.8051 0.64134-3.1486 2.2022-4.8465 0.81231-0.88359 1.4769-1.7188 1.4769-1.8561 0-0.13728-0.45423-1.4059-1.0094-2.8191-0.90342-2.2997-1.0082-2.8291-0.99835-5.0427 0.01237-2.7673 5.3292-42.781 5.9906-45.085 0.59855-2.0847 1.763-3.5047 3.6228-4.418 1.4005-0.68768 1.9087-0.7857 4.0733-0.7857 2.1083 0 2.705 0.10866 4.0445 0.73648 1.9724 0.92449 3.9599 2.7687 5.4522 5.059 0.7381 1.1329 2.4549 2.9587 4.7553 5.0574 3.3423 3.0492 3.7384 3.326 5.5287 3.8637 3.5749 1.0737 5.5518 2.7128 7.0225 5.8226 0.99206 2.0977 1.2375 4.0551 0.84204 6.7143-0.3714 2.4971-0.41747 2.4213 2.8575 4.6997 1.2091 0.84116 3.6205 2.5176 5.3586 3.7253 1.7381 1.2078 3.6387 2.6395 4.2235 3.1817 1.3896 1.2882 2.3655 3.3641 2.369 5.0391l0.0027 1.3053h12.38l-0.3931-0.7557c-0.86683-1.6662-2.0578-2.3639-6.2162-3.6413-3.5146-1.0796-4.7911-1.8022-7.2027-4.0772-2.04-1.9245-3.1513-3.842-4.0457-6.981-0.82416-2.8925-0.93426-4.5027-0.46182-6.7547 0.58165-2.7726 4.3373-11.495 5.8119-13.498 1.3943-1.894 4.0781-3.8942 6.1177-4.5595 1.8277-0.59615 4.6237-0.44269 6.4212 0.35246 2.9435 1.3021 4.4064 3.3496 15.529 21.735 7.0862 11.713 16.292 26.857 18.068 29.722 1.6172 2.6086 2.1978 4.5225 1.9568 6.4509-0.4632 3.7074-2.9309 5.9134-8.8063 7.8726l-1.9236 0.64144-45.067 0.0759c-43.521 0.0733-45.105 0.0582-46.182-0.43774zm93.025-4.6545c3.2777-1.2465 4.3154-1.9923 4.6857-3.3675 0.40433-1.5016 0.11373-2.3009-2.1093-5.8016-2.2854-3.5989-6.0001-9.708-15.763-25.924-8.6493-14.366-12.373-20.179-13.763-21.486-2.3456-2.2055-5.0179-1.923-7.8926 0.83415-1.3067 1.2533-2.714 3.9625-4.8519 9.3406-1.5864 3.9908-1.6976 5.7346-0.57166 8.9696 1.4742 4.2356 3.5027 6.0719 8.3997 7.6037 1.7381 0.54368 3.7209 1.2711 4.4061 1.6164 2.9962 1.5099 5.2112 4.8967 5.2116 7.9685 1.38e-4 1.0547-0.15517 1.8782-0.42756 2.2671l-0.42778 0.61074-22.174 8.24e-4c-19.63 8.25e-4 -27.671-0.18842-30.218-0.71069-0.52557-0.10777-0.57866-0.21341-0.33555-0.66765 0.60516-1.1308 2.3705-2.6937 3.3447-2.9613 1.1191-0.30734 2.9717-0.14684 17.103 1.4817 9.2538 1.0664 10.163 1.0421 11.43-0.30639 0.834-0.88776 0.98426-2.5314 0.32702-3.5773-0.28776-0.45792-2.3037-2.0602-4.4799-3.5607-6.0839-4.1947-8.666-6.1261-9.4738-7.0861-0.72768-0.8648-0.73556-0.91652-0.51104-3.3557 0.38443-4.1765 0.3056-5.0846-0.58312-6.7175-0.93727-1.7221-1.9865-2.4707-4.6556-3.3218-1.058-0.33735-2.5419-1.0751-3.2976-1.6393-2.5-1.8668-7.7909-7.1477-8.7645-8.7478-1.1863-1.9498-2.1568-2.8844-3.7389-3.6005-2.174-0.98408-4.6704-0.56878-5.66 0.94159-0.33584 0.51256-0.79704 2.9515-1.5243 8.0608-2.0994 14.75-4.6766 34.853-4.691 36.592-0.01188 1.4355 0.18656 2.2987 1.0108 4.3968 0.56404 1.4358 1.1887 3.0608 1.388 3.611l0.36249 1.0004-2.1756 2.3701c-2.0487 2.2318-2.1756 2.4427-2.1756 3.6149 0 0.96607 0.15602 1.4009 0.69666 1.9415l0.69666 0.69666 88.878-0.20334zm-87.447-3.8017c1.6675-1.8762 2.2692-2.9302 2.2692-3.975 0-0.29719-0.6183-2.1402-1.374-4.0955-0.81467-2.1079-1.374-3.9958-1.374-4.6377 0-1.724 5.2544-41.34 5.663-42.697 0.08053-0.26738 0.41116-0.48044 0.74463-0.47987 1.083 0.0019 2.3267 1.0351 3.7057 3.0787 1.3187 1.9543 4.392 5.0809 8.302 8.4461 2.2572 1.9427 2.7848 2.2361 5.4372 3.0238 1.6511 0.49033 2.1005 0.75089 2.5409 1.4731 0.6103 1.0009 0.68662 2.678 0.24558 5.3963-0.21173 1.305-0.20046 2.1364 0.04283 3.1602 0.45394 1.9102 2.4791 3.8168 8.3831 7.8927 2.554 1.7632 5.0696 3.5253 5.5902 3.9159l0.94649 0.71014h-1.1345c-0.62396 0-5.5635-0.50721-10.977-1.1271-5.4132-0.61992-10.955-1.1455-12.315-1.1679-2.2912-0.03776-2.5844 0.0216-3.9846 0.80641-1.5186 0.85122-3.8787 3.556-4.8069 5.5089-0.52962 1.1144-0.11142 2.4332 0.94473 2.9794 0.41412 0.21415 2.7616 0.57953 5.2429 0.81605 3.6611 0.34898 8.7889 0.42828 27.693 0.42828h23.2l1.0679-0.60019c1.3428-0.7547 2.0824-2.2338 2.3267-4.6532 0.40995-4.0598-2.3865-8.8265-6.572-11.202-0.78068-0.44312-2.8565-1.2519-4.6129-1.7973-3.2765-1.0174-4.9499-1.9644-5.948-3.366-0.76301-1.0716-1.7131-4.0666-1.7131-5.4003 0-1.0105 1.3878-4.8096 3.3959-9.2959 1.063-2.375 3.0501-4.3553 4.3701-4.3553 1.2123 0 3.5017 3.5015 17.518 26.793 5.1843 8.615 10.157 16.816 11.05 18.224 2.375 3.7439 3.2371 5.2504 3.2371 5.6571 0 0.1987-1.0202 0.76919-2.2671 1.2678l-2.2671 0.90648-86.255 0.2603zm82.966-2.6634c0.0661-0.06607-2.327-4.1445-5.3179-9.0633-2.9909-4.9187-5.4755-8.9057-5.5213-8.8599-0.0458 0.04577 0.0635 0.66583 0.24277 1.3779 0.38745 1.5387 0.18131 4.8784-0.42603 6.9025-0.80039 2.6675-3.0428 4.8685-5.7792 5.6727-0.80928 0.23782-7.3301 0.32522-24.461 0.32784-20.608 0.0031-23.924-0.055-28.167-0.49405-4.9623-0.5135-6.6341-0.97004-7.8971-2.1565-0.77537-0.72842-0.77353-0.67729 0.06528 1.8215 0.3847 1.146 0.687 2.6796 0.687 3.4852v1.4386l38.227-0.16617c21.025-0.09139 38.281-0.22022 38.347-0.28628zm-77.067-16.678c2.3415-3.3483 4.8385-5.1071 8.2737-5.8277 1.2062-0.25299 2.4573-0.223 6.2744 0.15044 2.6223 0.25655 4.9224 0.46497 5.1113 0.46315 0.18892-2e-3 -0.16335-0.51016-0.78284-1.1296-0.61948-0.61948-1.516-1.9488-1.9923-2.9541-0.81415-1.7184-0.86189-1.9922-0.79796-4.5758 0.0374-1.5114 0.09923-3.0332 0.1374-3.3819 0.06023-0.55011-0.18946-0.73523-1.8891-1.4007-1.0772-0.42172-2.6848-1.3296-3.5724-2.0175-1.8161-1.4075-7.1404-6.2712-7.8448-7.1662l-0.46011-0.58463-0.15414 0.68026c-0.08478 0.37414-0.95956 6.8014-1.944 14.283-0.9844 7.4814-1.8646 14.097-1.9559 14.702-0.19274 1.2754-0.12702 1.2244 1.5967-1.2404zm57.901-15.279c-2.2902-3.761-4.7546-7.755-5.4763-8.8756l-1.3122-2.0374-0.56804 1.1135c-0.31242 0.6124-1.0754 2.3718-1.6954 3.9097-1.1743 2.9126-1.2277 3.6124-0.39938 5.2353 0.61698 1.2088 1.3354 1.6206 4.7797 2.7394 3.7051 1.2035 5.6477 2.198 7.4771 3.8276 0.66188 0.58957 1.2384 1.039 1.281 0.99881 0.0427-0.04022-1.7962-3.1503-4.0864-6.9113z" stroke-width=".2748"/></g></svg>
