<?xml version="1.0" encoding="UTF-8"?>
<svg width="105.83mm" height="70.995mm" version="1.1" viewBox="0 0 105.83 70.995" xmlns="http://www.w3.org/2000/svg"><g transform="translate(-24.895 -36.839)"><path d="m39.504 106.54c-1.2376-0.71037-4.2257-2.5487-6.6401-4.0852-2.4144-1.5365-4.7611-2.9845-5.215-3.2177-1.1993-0.61625-2.4465-2.1545-2.6571-3.2773-0.26798-1.4284 0.06867-11.759 0.42374-13.004 1.1037-3.868 3.3875-9.0068 4.7894-10.777 2.125-2.6831 17.07-8.374 20.688-7.8781 1.4895 0.20415 3.0898 1.202 3.6427 2.2713 0.28962 0.56006 0.81709 0.93379 1.8783 1.3308 0.81157 0.30365 1.776 0.7489 2.1431 0.98944 0.84826 0.5558 1.882 2.3262 2.1209 3.6325 0.10154 0.55509 0.27509 0.97412 0.38566 0.93117 0.96168-0.37356 6.6495-4.1467 6.6509-4.412 3e-3 -0.57509 0.97663-2.2837 1.6387-2.8758 0.34348-0.30718 2.3605-1.4922 4.4822-2.6334 2.9486-1.5859 5.3311-2.5934 10.11-4.2753 3.4387-1.2102 6.5804-2.3265 6.9817-2.4806l0.72953-0.28024-0.94916-2.6014c-0.79102-2.1679-0.93293-2.8737-0.85174-4.236 0.11592-1.945 0.99382-3.4214 2.5404-4.2725 0.97143-0.53453 5.3438-2.0145 13.099-4.434 14.111-4.4022 15.093-4.6113 17.16-3.6542 2.0457 0.94713 2.3976 1.5864 5.0906 9.2488 1.3804 3.9275 2.6449 7.9205 2.8101 8.8735 0.28663 1.6533 0.26598 1.8092-0.45138 3.4077-0.48011 1.0698-1.0004 1.8034-1.4401 2.0302-0.6673 0.34427-15.937 5.2347-38.6 12.363-6.0726 1.91-11.679 3.7168-12.459 4.0151-1.2572 0.48109-6.3448 3.5007-12.33 7.3181-1.9361 1.2349-2.0768 1.3918-2.7283 3.0429-1.0456 2.65-2.1442 4.3901-3.4023 5.3889-0.62684 0.49771-2.5165 1.9717-4.1993 3.2755-1.6828 1.3038-3.2078 2.5541-3.389 2.7785-0.18119 0.22432-0.97878 1.7248-1.7724 3.3344-2.0622 4.1823-3.6043 5.454-6.6139 5.454-1.2077 0-1.7481-0.19034-3.6667-1.2916zm5.0133-2.5388c0.51395-0.26578 1.1506-1.2362 2.2333-3.4039 0.83294-1.6677 1.7582-3.342 2.056-3.7206 0.29788-0.37868 2.3698-2.1206 4.6042-3.871s4.2258-3.3793 4.4252-3.6199c0.19942-0.24061 0.8681-1.666 1.486-3.1676l1.1234-2.7301 3.4359-2.1969c6.3215-4.0419 11.099-6.8109 12.842-7.4439 0.95062-0.34506 8.0226-2.6084 15.716-5.0296 25.902-8.1521 33.939-10.762 34.33-11.149 0.69108-0.684 0.35332-2.2503-1.8618-8.6335-3.0344-8.7441-3.0383-8.7518-4.4765-8.7711-0.70268-0.0094-11.788 3.3103-20.523 6.1458-5.9635 1.936-6.6558 2.3165-6.6461 3.6525 0.0028 0.38619 0.65075 2.4381 1.4399 4.5599 0.78911 2.1217 1.3555 3.9384 1.2586 4.0371-0.09687 0.09868-1.5529 0.65459-3.2357 1.2353-9.6339 3.3249-14.006 4.9637-15.492 5.8065-0.91764 0.52066-2.4624 1.348-3.4327 1.8385-2.2701 1.1476-2.6255 1.523-2.6255 2.7732v1.0201l-4.9668 3.0847c-2.7318 1.6966-5.2019 3.0847-5.4891 3.0847-0.28726 0-0.92142 0.24668-1.4092 0.54817l-0.88696 0.54817-0.13969-0.61468c-0.07683-0.33807-0.37913-1.7414-0.67178-3.1185-0.55947-2.6327-1.0446-3.4823-1.9883-3.4823-0.31387 0-0.70849-0.13781-0.87692-0.30625-0.16844-0.16844-0.7474-0.33303-1.2866-0.36577-0.88129-0.0535-1.016-0.16368-1.3333-1.0905-0.38114-1.1134-1.224-1.9622-1.9486-1.9622-2.3254 0-14.224 4.494-16.716 6.3139-1.0277 0.7503-2.8435 4.3301-4.0172 7.9197-0.73986 2.2629-0.78981 2.6996-0.90907 7.9489-0.14493 6.3792-0.42951 5.625 2.8654 7.595 1.1706 0.69992 4.1478 2.5471 6.6161 4.1049 2.523 1.5923 4.7709 2.8323 5.1346 2.8323 0.35584 0 0.97049-0.16729 1.3659-0.37176zm-7.3965-6.117-5.9861-3.8023 0.02551-4.7648 0.02551-4.7648 1.0668-2.7935c1.2024-3.1486 2.2615-5.3461 2.7856-5.7798 0.95788-0.79275 9.4461-4.2018 12.724-5.11l1.8528-0.51343 0.28179 1.0465c0.34093 1.2661 1.3 1.9667 2.6261 1.9182 1.7529-0.06403 2.2662 0.66642 3.0319 4.3148 0.81433 3.88 1.1048 4.6666 1.7893 4.8457 0.29089 0.07607 0.52889 0.18109 0.52889 0.23338 0 0.26514-1.6833 4.3091-1.9948 4.7923-0.19842 0.3078-2.1675 1.9586-4.3757 3.6684-4.4388 3.437-5.262 4.3877-6.9829 8.0649-0.63039 1.347-1.206 2.4486-1.2792 2.448-0.07316-5.3e-4 -2.8268-1.7121-6.1191-3.8034zm6.7453-4.5824c0.63155-0.91285 2.2651-2.3892 4.9656-4.4876 2.6662-2.0718 4.1665-3.4251 4.4453-4.0097 0.39829-0.83522 0.38422-0.99388-0.26254-2.9617-0.37585-1.1436-0.76648-2.6441-0.86806-3.3344-0.20872-1.4185-0.36619-1.5895-1.8562-2.0156-0.58531-0.16741-1.456-0.66294-1.9348-1.1012l-0.87059-0.79683-2.322 0.81719c-1.2771 0.44945-3.5754 1.373-5.1072 2.0523l-2.7853 1.2351-2.411 5.8531-0.07108 3.8577-0.07108 3.8577 7.0371 4.4045 0.58531-1.005c0.32192-0.55278 1.0088-1.6172 1.5265-2.3654zm30.122-22.067c-0.09834-0.39181-0.14304-0.73845-0.09933-0.7703 0.04371-0.03186 1.5161-0.81912 3.272-1.7495 2.3336-1.2364 5.4598-2.489 11.619-4.6552 4.6344-1.63 8.7329-3.1647 9.1079-3.4104 1.2056-0.78993 1.1746-1.5604-0.22101-5.495-0.7007-1.9754-1.3329-3.8501-1.4049-4.1659-0.12088-0.53016 0.21304-0.68703 4.3517-2.0444 5.3345-1.7495 19.335-6.0297 19.426-5.9388 0.11578 0.11579 4.345 12.486 4.345 12.708 0 0.25369-1.8543 0.85869-24.476 7.9861-14.083 4.4371-23.983 7.6035-25.441 8.1376-0.16485 0.06036-0.38019-0.21082-0.47853-0.60264zm37.289-14.773c4.6485-1.476 8.5098-2.7412 8.5806-2.8114 0.27252-0.27033-1.9627-6.211-2.337-6.211-0.31964 0-11.012 3.2593-15.418 4.6998-0.76821 0.25117-1.3953 0.58347-1.3936 0.73845 2e-3 0.15498 0.36093 1.3485 0.79815 2.6522 0.43721 1.3037 0.79494 2.6506 0.79494 2.993 0 0.34244 0.11756 0.62262 0.26126 0.62262 0.14369 0 4.0646-1.2077 8.7131-2.6837zm6.1865 12.651c-0.32877-0.81005-0.55219-1.513-0.49648-1.5621 0.0557-0.04912 2.0506-0.50361 4.4331-1.01 2.3825-0.50636 4.2382-0.83872 4.1238-0.73859-0.68058 0.59548-6.9856 4.7835-7.2015 4.7835-0.14362 0-0.53012-0.66277-0.8589-1.4728z" stroke-width=".26605"/></g></svg>
