<?xml version="1.0" encoding="UTF-8"?>
<svg width="105.83mm" height="40.032mm" version="1.1" viewBox="0 0 105.83 40.032" xmlns="http://www.w3.org/2000/svg"><g transform="translate(-24.895 -36.839)"><path d="m101.14 76.31c-1.7216-0.30716-3.1302-0.62777-3.1302-0.71247 0-0.0847 1.4086-0.43468 3.1302-0.77772 1.7216-0.34304 3.4-0.68141 3.7296-0.75193 0.56568-0.12101 0.59941-0.04403 0.59941 1.368 0 1.7662 0.3149 1.7026-4.329 0.87407zm-58.323-3.4764c-2.0124-0.54611-3.6443-2.0264-4.4392-4.0266-0.17468-0.43956-0.37125-1.6131-0.43682-2.6078-0.06557-0.99474-0.17932-1.9058-0.25276-2.0247-0.07344-0.11883-1.5462-0.79108-3.2727-1.4939-3.8641-1.5729-5.6714-2.7363-7.0148-4.5157-3.4046-4.5094-3.3385-10.072 0.17462-14.7 1.4758-1.9442 3.0878-3.2037 5.7839-4.5191 4.0897-1.9954 4.973-2.1069 16.698-2.1069 10.239 0 10.259 0.0011 11.663 0.63558 6.0838 2.7493 5.9908 11.238-0.16648 15.189-2.4626 1.5802-3.1212 1.7084-9.6245 1.873l-5.9869 0.15148 3.0453 1.9846c4.2151 2.747 5.5282 3.1808 10.245 3.3852l3.7944 0.16441 0.1547-1.8453c0.08509-1.0149 0.38354-2.4476 0.66323-3.1836 0.59285-1.5603 7.8656-12.224 9.4845-13.906 0.60668-0.63058 1.8802-1.5297 2.83-1.998 1.5775-0.77783 1.9463-0.85134 4.2624-0.84956 3.2355 0.0025 3.1646-0.03106 15.682 7.4205 5.326 3.1704 9.7111 5.7644 9.7449 5.7644 0.0337 0-0.30787-0.74508-0.75909-1.6557-2.57-5.187 1.0443-11.12 6.7792-11.129 1.4442-0.0021 2.6628 0.30625 7.1929 1.8205 6.2796 2.099 6.9225 2.3929 7.8118 3.5713 1.0459 1.3858 1.2364 2.5549 0.95873 5.8817-0.2246 2.6909-0.20455 3.002 0.20919 3.2428 1.0997 0.6402 2.1762 1.9762 2.4814 3.0797 0.24723 0.89377 0.26438 2.1915 0.0702 5.312-0.22617 3.6345-0.34354 4.3105-0.97956 5.6419-0.93557 1.9585-3.2948 4.1598-5.3885 5.0277l-1.574 0.65252-39.294 0.05125c-31.061 0.04051-39.556-0.01963-40.541-0.28705zm80.501-2.9855c1.642-0.7633 2.8056-1.7996 3.6683-3.267 0.69912-1.1893 0.73029-1.4029 0.80254-5.4998 0.0414-2.3443-0.035-4.4274-0.16965-4.629-0.13464-0.20159-0.8278-0.51905-1.5404-0.70546-0.71256-0.18642-1.2764-0.44106-1.253-0.56588 0.1796-0.95654 0.3905-8.1824 0.25461-8.7238-0.23005-0.91659-0.98897-1.2733-6.9496-3.2664-5.249-1.7552-6.6512-1.9823-8.2123-1.33-1.9288 0.8059-3.3319 3.3838-2.96 5.4383 0.3917 2.1637 1.5802 3.4461 3.8969 4.2046 4.1134 1.3467 5.7055 2.9528 6.1976 6.2519 0.14889 0.99818 0.0819 1.3269-0.39359 1.9314-0.31516 0.40066-0.77411 0.72825-1.0199 0.72797-0.24577-2.67e-4 -1.4658-0.61485-2.7113-1.3657-14.682-8.8517-29.365-17.433-30.323-17.721-2.3453-0.70583-5.0013-0.21597-6.7727 1.2491-1.123 0.92879-8.5168 11.462-9.3376 13.303-0.32701 0.73325-0.5953 2.0905-0.69671 3.5245-0.23752 3.3589-0.09898 3.2776-5.5622 3.2643-5.0314-0.01222-6.4599-0.26815-9.2315-1.6539-1.8187-0.90929-7.3122-4.4586-9.2723-5.9908-1.0735-0.83915-1.2646-1.6027-0.62136-2.4834 0.35524-0.48644 0.84924-0.52503 8.3251-0.65032 7.505-0.12579 8.019-0.16626 9.234-0.727 1.9056-0.87949 3.1792-1.9985 4.0083-3.5218 1.5599-2.866 1.0316-5.6552-1.3895-7.3361l-1.1562-0.80277-10.166 0.01799c-8.8202 0.01562-10.395 0.0799-11.897 0.4856-4.3181 1.166-7.7076 3.5663-9.3324 6.6086-0.77171 1.4449-0.91222 1.9991-1.0079 3.9745-0.10018 2.0688-0.03826 2.4579 0.62707 3.9405 1.176 2.6205 2.813 3.9199 7.0978 5.634 4.7908 1.9166 5.2795 2.4797 5.2795 6.0836 0 1.1702 0.14968 1.7235 0.67561 2.4975 0.37159 0.54684 0.70126 0.99605 0.73261 0.99826 0.03134 0.0021 0.53652 0.17799 1.1226 0.39063 0.91581 0.33227 6.5332 0.37852 39.96 0.32899 38.844-0.05755 38.896-0.05835 40.094-0.6149zm-60.428-1.4318c-18.181-0.13232-19.559-0.1744-19.875-0.60712-0.18695-0.25572-0.40568-1.4247-0.48608-2.5977-0.11199-1.6339-0.30728-2.4076-0.835-3.3081-0.85101-1.4521-1.5848-1.9094-5.622-3.5035-2.7356-1.0802-3.3913-1.4594-4.5445-2.6288-1.5779-1.6-2.1053-3.0734-1.935-5.4051 0.22-3.0117 2.3462-5.7457 5.6825-7.307 3.2176-1.5057 3.6477-1.5517 14.547-1.5551 9.6458-3e-3 10.046 0.01691 10.703 0.53381 2.1947 1.7264 1.1985 5.3063-1.9633 7.0555l-1.4447 0.79921-7.9921 0.1332c-5.9053 0.09842-8.1523 0.22459-8.6057 0.48321-0.87784 0.50068-1.6488 1.8941-1.6488 2.98 0 1.6573 0.79961 2.4798 5.4014 5.5558 7.3716 4.9275 8.4774 5.3299 15.258 5.5533 4.1988 0.13831 4.6391 0.10789 5.7871-0.39994 1.7096-0.75623 2.3197-1.8197 2.3229-4.0491 0.0013-0.95239 0.13546-2.2111 0.298-2.7972 0.34489-1.2436 7.8742-12.31 9.0466-13.297 1.3801-1.1613 3.5109-1.5083 5.307-0.86433 0.74492 0.26708 17.976 10.412 30.103 17.723 2.5534 1.5394 3.4468 1.6805 4.8224 0.7615 1.3213-0.88266 1.9009-2.1581 1.7248-3.7955-0.4323-4.0208-2.4591-6.4019-6.6875-7.8567-2.1098-0.72589-2.7616-1.1962-3.2381-2.3365-0.8099-1.9384 0.73363-4.3211 2.7992-4.3211 0.53812 0 3.3615 0.79432 6.2742 1.7652l5.2958 1.7651-0.22153 3.8959c-0.12184 2.1427-0.21744 4.3023-0.21243 4.7989 0.0108 1.0653 0.57799 1.5703 2.0237 1.8014l1.006 0.16086v3.3045c0 4.4476-0.56843 5.7667-3.0636 7.1096-1.0629 0.57203-1.1155 0.5735-20.779 0.58245-10.843 0.0049-28.505-0.05501-39.249-0.1332zm-15.088-3.8895c-1.1676-0.66691-2.2973-1.3553-2.5104-1.5298-0.32604-0.26692-0.35964-0.21159-0.21177 0.34874 0.09667 0.3663 0.1774 1.0556 0.1794 1.5318l0.0036 0.86581 4.662-0.0038-2.1229-1.2126zm74.584 0.57453c0.75789-0.60638 0.80391-0.75639 0.8923-2.9086l0.0931-2.2692-1.5924-0.82345-0.28636 1.1372c-0.44175 1.7543-1.6518 3.2122-3.3596 4.0478-1.2746 0.62363-1.7226 0.71051-3.0452 0.59058-1.4619-0.13256-2.3038-0.58987-14.709-7.9898-18.121-10.81-18.57-11.069-19.462-11.266-1.6207-0.35596-2.1552 0.16539-6.2611 6.1069-2.1378 3.0935-3.9913 5.9833-4.119 6.4219-0.12766 0.4386-0.2321 1.5513-0.2321 2.4728 0 1.8875-0.49551 3.3097-1.5292 4.3888l-0.70171 0.73261 53.513-0.0026 0.79912-0.63935zm-86.12-10.882c-0.06389-0.77038 0.02459-1.9234 0.19661-2.5622 0.40503-1.5042 2.3863-3.5196 3.9027-3.9699 0.74233-0.22044 3.3669-0.32611 8.1253-0.32712 3.9498-7.99e-4 7.4568-0.12037 8.0058-0.27287 0.54812-0.15224 1.3376-0.68197 1.7982-1.2066 1.5599-1.7766 1.8648-1.7159-8.6081-1.7159-8.6264 0-9.5734 0.04463-11.122 0.5242-2.3484 0.72708-4.454 2.0608-5.4123 3.4282-0.69526 0.99204-0.80958 1.3937-0.80958 2.8443 0 2.045 0.50061 2.856 2.4194 3.9198 0.72063 0.39951 1.38 0.72918 1.4654 0.73261 0.08531 0.0034 0.10285-0.62409 0.03897-1.3945zm84.299-5.1078c-0.12547-0.32698-7.845-3.082-8.6356-3.082-0.18301 0-0.33274 0.21019-0.33274 0.46709 0 0.33805 0.4968 0.63775 1.7982 1.0848 2.2797 0.78311 4.1774 2.0235 5.68 3.7127l1.1799 1.3264 0.22441-1.574c0.12342-0.86572 0.16208-1.7364 0.0859-1.9349zm-7.0792 6.6711c-0.36146-0.43554-2.6879-1.584-2.86-1.4118-0.13469 0.13469 2.9219 2.0052 3.0734 1.8808 0.0575-0.04724-0.0385-0.25829-0.21337-0.46898z" stroke-width=".2664"/></g></svg>
