<?xml version="1.0" encoding="UTF-8"?>
<svg width="105.83mm" height="68.249mm" version="1.1" viewBox="0 0 105.83 68.249" xmlns="http://www.w3.org/2000/svg"><g transform="translate(-19.048 -30.506)"><path d="m108.99 98.508c-2.1813-0.32245-5.6701-1.4911-7.9099-2.6496-2.6261-1.3583-7.1809-5.0288-9.1797-7.3974-0.87578-1.0378-2.5475-3.3051-3.7149-5.0383-3.7221-5.5261-3.7648-5.5726-6.3032-6.8527-2.3061-1.1629-5.6632-2.2749-7.8312-2.5938-1.0409-0.15313-1.3881-0.05368-3.1399 0.89917-6.5868 3.5828-7.441 3.9047-15.1 5.6894-5.786 1.3483-8.1258 1.5533-9.5298 0.83504l-0.86357-0.44176-4.7826 3.2368c-7.1414 4.8332-13.058 8.5735-14.204 8.9785-2.6169 0.92526-5.2255 0.08127-6.598-2.1348-0.65316-1.0546-0.7866-1.545-0.78058-2.8684 0.0066-1.4372 0.22814-2.0789 2.2245-6.4412 3.3804-7.3865 4.1135-8.4216 10.612-14.982 3.3151-3.3468 5.8956-6.1809 6.3366-6.9592 1.7503-3.0894 4.6312-5.2039 8.0309-5.8945 1.2967-0.26341 2.0825-0.75723 6.4919-4.0798 2.7591-2.0791 5.8431-4.2712 6.8533-4.8713 1.0135-0.60214 3.9301-1.8295 6.5075-2.7384 5.6565-1.9948 12.061-4.4224 21.404-8.1126 8.1568-3.2219 9.2814-3.5847 11.112-3.5847 1.6206 0 2.7878 0.36478 4.1551 1.2986l1.0122 0.6913 1.8765-0.63059c2.2254-0.74784 4.4311-0.69093 6.0936 0.15722 1.9323 0.9858 11.239 11.455 12.425 13.978 2.1084 4.483-0.78113 9.4593-5.7544 9.9103-2.9063 0.26353-4.9398-0.9323-7.9039-4.6479l-0.93466-1.1716-3.8707 1.5175c-2.3654 0.92735-6.1196 2.0912-9.6534 2.9926l-5.7827 1.4751 0.11377 1.5728c0.15927 2.2019 0.89808 2.7848 4.7032 3.7106 4.2722 1.0394 12 3.5023 13.455 4.288 3.0939 1.671 4.5498 5.0128 3.728 8.5565-0.22532 0.9716-0.40969 1.872-0.40969 2.0009 0 0.12886 1.5658 0.99596 3.4796 1.9269 3.9413 1.9171 5.2821 2.9476 6.3223 4.8588 1.5836 2.9096 1.1809 5.2655-1.6268 9.5166-2.6793 4.0568-4.379 5.4129-7.5096 5.9916-0.85246 0.15758-1.6759 0.27211-1.83 0.2545-0.15403-0.01762-0.93001-0.12811-1.7244-0.24554zm4.9244-4.0874c1.8532-1.0744 5.3191-6.3519 5.3162-8.095-2e-3 -0.93926-0.89544-2.5091-1.8556-3.2589-0.37135-0.28998-2.4084-1.3716-4.5268-2.4035-3.6852-1.7952-4.9086-2.6986-4.9086-3.6245 0-0.22243 0.30351-1.2838 0.67448-2.3585 0.50488-1.4628 0.63024-2.2159 0.49854-2.9954-0.19201-1.1366-1.35-2.6435-2.4806-3.2282-0.96397-0.49849-7.8075-2.6171-11.906-3.6857-6.2507-1.6299-7.4317-2.7135-7.7208-7.0843-0.2609-3.944 0.29671-4.4614 6.3876-5.9276 6.5703-1.5816 9.6278-2.5914 15.116-4.9926 0.9631-0.42138 1.942-0.69286 2.1755-0.60329 0.23342 0.08957 1.3167 1.327 2.4073 2.7498 1.0906 1.4228 2.371 2.8267 2.8452 3.1198 1.7106 1.0572 4.0331 0.43818 5.1348-1.3687 1.0991-1.8027 0.52584-3.1206-3.2851-7.5525-4.5968-5.3457-6.7201-7.615-7.5054-8.021-1.1652-0.60255-2.487-0.45592-5.0178 0.55661l-2.3474 0.93918-1.2734-1.1911c-1.4179-1.3263-2.1466-1.5997-3.7636-1.4124-0.60526 0.07011-4.9412 1.634-9.6354 3.4752-10.842 4.2526-17.388 6.7253-20.221 7.638-5.3648 1.7284-6.6736 2.4751-13.866 7.911-4.8093 3.6348-5.2213 3.8834-6.8804 4.1524-2.7337 0.44322-5.0655 2.1786-6.3541 4.7288-0.29468 0.58318-3.129 3.6789-6.3718 6.9592-4.5808 4.6339-6.088 6.3337-6.9859 7.8784-1.5129 2.6027-5.2364 10.747-5.2364 11.453 0 0.30577 0.25533 0.88055 0.56741 1.2773 0.87126 1.1076 2.1688 0.83893 5.1756-1.0718 5.3067-3.3722 13.684-8.9988 15.921-10.694l2.3624-1.7897 0.17085 0.83536c0.41831 2.0453 1.4036 2.1093 8.3663 0.54304 7.2361-1.6277 8.6541-2.1534 13.918-5.1597 2.8254-1.6135 3.8174-1.8566 5.9823-1.4664 2.8965 0.52215 6.0512 1.5798 8.7471 2.9327 2.8119 1.4111 3.8713 2.4469 6.1656 6.0285 5.2095 8.1326 10.279 12.656 16.464 14.692 3.6555 1.203 5.8124 1.2348 7.7456 0.11414zm-5.8435-2.1909c-2.5313-0.67038-4.1198-1.3954-6.1192-2.7931-3.8936-2.7218-6.0957-5.0977-9.4092-10.152-2.6497-4.0416-3.9724-5.6242-5.6199-6.7243-3.4489-2.3031-10.143-4.5439-13.706-4.5881-1.735-0.02154-1.8579 0.02479-7.0905 2.6729l-5.325 2.6948-5.2523 1.1665c-2.8887 0.6416-5.5182 1.2284-5.8431 1.304-0.51514 0.11987-0.59088 0.03328-0.59088-0.67554 0-0.55561-0.25278-1.0658-0.79836-1.6114-1.1462-1.1462-1.8571-0.90217-5.583 1.9165-2.988 2.2604-10.339 7.2213-15.077 10.175-1.4694 0.91589-2.1081 1.1992-2.0044 0.8891 0.0837-0.25033 1.1596-2.5211 2.391-5.0461l2.2388-4.591 6.0967-6.1761c4.2865-4.3423 6.2977-6.573 6.7737-7.5128 0.81923-1.6177 2.1941-2.8795 3.5294-3.2392 0.54403-0.14656 1.6412-0.44264 2.438-0.65794 1.1319-0.30581 2.3098-1.0433 5.3836-3.3703 4.8719-3.6884 7.8031-5.7386 9.2397-6.4628 0.60676-0.30585 2.793-1.1329 4.8583-1.838 4.1109-1.4033 10.983-4.0077 21.793-8.2584 3.8544-1.5157 7.3572-2.8325 7.7839-2.9262 0.6832-0.15006 0.93198-0.01183 2.0827 1.1572 1.2014 1.2205 1.4062 1.3276 2.5381 1.3276 0.78154 0 1.9074-0.28775 3.0826-0.78784 2.6336-1.1207 2.9851-1.067 4.7288 0.72219 2.6986 2.769 8.3599 9.5681 8.3599 10.04 0 0.25614-0.17075 0.60742-0.37946 0.78064-0.82451 0.68428-1.5556 0.17506-3.701-2.5777-1.1663-1.4965-2.4094-2.8809-2.7623-3.0764-0.99113-0.54893-2.7046-0.44426-4.2448 0.25931-4.7559 2.1724-8.5695 3.4392-15.073 5.007-4.5436 1.0953-5.4662 1.4648-6.7278 2.6941-1.3169 1.2832-1.6409 2.3542-1.61 5.3214 0.06003 5.7616 2.1186 7.94 9.3125 9.8541 5.1308 1.3652 11.308 3.2915 11.993 3.7399 0.90259 0.59092 0.98535 1.4623 0.31244 3.2897-0.69713 1.8931-0.75255 3.6871-0.1499 4.8525 0.68935 1.3331 1.8577 2.0755 7.2679 4.6184 2.5165 1.1828 3.3992 1.8751 3.3992 2.6659 0 0.86006-3.0361 5.319-4.0375 5.9296-1.0142 0.61847-2.1245 0.6152-4.4975-0.01323zm3.3834-3.9494c0.52234-0.57817 0.94971-1.0946 0.94971-1.1477 0-0.05309-1.4951-0.83108-3.3224-1.7288-5.5302-2.717-7.1329-4.8615-6.8532-9.1696 0.0716-1.1016 0.2141-2.2029 0.3168-2.4474 0.15863-0.37762-0.32062-0.60396-3.1839-1.5037-1.8539-0.58256-4.7887-1.42-6.522-1.861-6.752-1.718-9.9615-4.2645-11.252-8.9275-1.2935-4.675-0.40272-9.8825 2.0603-12.045 1.8209-1.5988 3.171-2.139 9.2291-3.6927 5.5887-1.4333 9.3864-2.6416 9.8921-3.1472 0.11758-0.11757-0.32761-0.27479-0.9893-0.34937-1.055-0.11891-1.8989-0.54956-3.7029-1.8896-0.22382-0.16625-1.5969 0.25114-4.2289 1.2855-11.401 4.4805-18.599 7.2228-23.143 8.8169-2.7853 0.97719-5.723 2.1728-6.5283 2.6569-0.80531 0.4841-3.5489 2.456-6.0969 4.3819-5.6639 4.2812-6.2509 4.6337-8.7599 5.2607-1.0967 0.27407-2.1122 0.57134-2.2567 0.6606-0.14443 0.08927-0.64192 0.84181-1.1055 1.6723-0.55706 0.99791-2.4581 3.1512-5.6056 6.3494-2.6195 2.6617-4.4081 4.6238-3.9748 4.3604 0.43331-0.26344 2.3663-1.6588 4.2956-3.1009 3.5152-2.6275 4.9641-3.3414 6.7811-3.3414 0.95337 0 2.7808 0.98896 3.6296 1.9643l0.52522 0.60349 4.273-1.0106c3.5974-0.85085 4.7185-1.2421 7.0905-2.4745 7.6946-3.9977 8.5863-4.2557 12.631-3.6539 3.0918 0.45997 8.007 2.0908 11.148 3.6988 3.177 1.6264 5.0917 3.5764 8.3912 8.5453 4.668 7.03 8.7223 10.55 13.697 11.892 0.73264 0.19762 1.4069 0.36709 1.4985 0.3766 0.0915 0.0095 0.59376-0.45576 1.1161-1.0339zm-67.665-2.2454 2.8297-3.2966 0.97715 1.1301c0.53743 0.62153 0.97868 1.2482 0.98055 1.3927 3e-3 0.23037-7.0283 4.0705-7.4531 4.0705-0.09015 0 1.1094-1.4835 2.6657-3.2966z" stroke-width=".26261"/></g></svg>
