<?xml version="1.0" encoding="UTF-8"?>
<svg width="105.83mm" height="72.552mm" version="1.1" viewBox="0 0 105.83 72.552" xmlns="http://www.w3.org/2000/svg"><g transform="translate(-13.958 -32.668)"><path d="m21.015 104.56c-1.6022-0.36909-3.2415-0.93294-3.9241-1.3498-2.1986-1.3426-3.3195-4.1151-2.8247-6.9871 0.17387-1.0092 0.1623-1.8311-0.03694-2.6223-0.47685-1.8937-0.33497-4.992 0.49631-10.838 0.59395-4.1769 0.98642-6.0618 1.6032-7.6997 0.44919-1.1929 1.3203-3.5251 1.9357-5.1827 3.3567-9.0406 4.9283-12.241 7.5533-15.379 1.0626-1.2706 2.1982-2.5461 2.5237-2.8344 0.32545-0.28828 0.76957-0.96831 0.98694-1.5112 0.56057-1.4 2.4805-2.9985 4.2029-3.4992 1.8219-0.52965 3.3193-0.31382 4.8481 0.69879 1.3912 0.92151 4.9524 1.8921 12.425 3.3864 3.8912 0.77814 6.0978 1.3746 8.3644 2.2608 3.0203 1.181 3.157 1.208 7.1916 1.4243 4.2685 0.22881 5.6016 0.48288 9.5421 1.8185 2.2814 0.77331 4.6483 1.0206 6.0833 0.63559 0.90367-0.24244 1.0483-2.0248 0.29653-3.6552-0.48662-1.0554-0.5917-1.7114-0.56452-3.5244 0.05408-3.6068 1.3326-6.1589 4.1597-8.3033 1.565-1.1871 7.017-3.9491 13.759-6.9703 3.8343-1.7183 5.6797-2.0893 7.4637-1.5006 1.23 0.40594 2.6501 1.6481 3.2694 2.8597 0.43902 0.85887 0.68642 1.0046 2.8018 1.6502 3.3651 1.0271 5.0024 2.0969 5.935 3.878 0.65391 1.2488 0.74198 1.669 0.65922 3.1448-0.0618 1.1012-0.31721 2.1591-0.72254 2.9923-1.195 2.4565-10.231 14.057-12.916 16.582-3.7816 3.5558-9.4158 6.0989-15.565 7.0258-3.4707 0.52313-12.199 0.52122-15.679-0.0035-2.8845-0.43475-7.9577-1.5957-9.1338-2.0902-0.60915-0.25613-0.9654-0.24406-1.8437 0.06243-2.0817 0.72645-5.2114-0.01001-6.9852-1.6437-0.84496-0.77822-16.381-6.4148-17.682-6.4148-0.37575 0-2.7357 2.6446-3.2987 3.6966-0.21948 0.41011-0.18969 0.78265 0.1256 1.5706 0.6188 1.5465 0.50947 2.9337-0.51522 6.5367-3.0099 10.583-3.9048 12.568-6.2128 13.777-0.68761 0.36015-0.72069 0.4668-0.72069 2.3234 0 3.0492 0.40093 4.4362 1.7077 5.9075 2.7624 3.1103 1.8467 8.1468-1.7889 9.8395-1.7499 0.81475-3.7875 0.7981-7.5189-0.0614zm6.7272-3.5986c0.46337-0.53869 0.61077-1.026 0.61077-2.0191 0-1.1604-0.10384-1.4043-0.91441-2.1475-1.6384-1.5022-2.7172-6.0178-2.3578-9.8696 0.24306-2.6051 0.47194-3.1549 1.3132-3.1549 1.9517 0 2.5531-1.0091 4.5298-7.6 2.4223-8.0768 2.4931-8.6555 1.1857-9.684-0.60446-0.47547-0.63401-0.59207-0.36023-1.4216 0.66285-2.0084 4.516-6.7096 6.2226-7.5921 0.77336-0.39992 0.93955-0.37206 4.4372 0.74402 1.9985 0.63773 6.3998 2.1692 9.7807 3.4034 4.6028 1.6802 6.3302 2.4312 6.8763 2.9898 0.40111 0.41026 1.2662 0.89627 1.9225 1.08 1.2152 0.34023 1.6351 0.25282 2.8006-0.58305 0.36934-0.26488 0.90852-0.17319 3.0138 0.51248 1.4102 0.45929 4.0971 1.162 5.9709 1.5617 3.2115 0.68494 3.7827 0.72636 9.9586 0.72202 5.3289-0.0038 6.9675-0.09352 8.7793-0.48107 4.3552-0.93158 8.8238-3.0076 11.743-5.4556 1.9245-1.6139 10.883-12.893 12.536-15.782 1.1294-1.9747 0.68933-3.5107-1.2937-4.5156-1.6754-0.84898-4.9838-1.6873-5.9201-1.5-0.71603 0.1432-0.74217 0.10903-0.89338-1.1677-0.0857-0.72336-0.30345-1.5517-0.48395-1.8407-0.36903-0.59092-1.3093-1.0869-2.0605-1.0869-1.2829 0-15.041 6.4978-17.184 8.1158-2.6345 1.9891-3.5169 5.3188-2.2101 8.3398 0.50388 1.1648 0.5741 1.6623 0.43894 3.1098-0.33918 3.6322-1.5471 4.6212-5.8178 4.7637-2.4873 0.08299-2.8083 0.02945-5.9509-0.99296-3.3572-1.0922-6.2443-1.5788-9.3892-1.5824-2.4985-0.0029-4.3432-0.41164-7.1493-1.5841-1.7417-0.72774-3.8412-1.3069-7.0275-1.9385-8.1896-1.6235-13.471-3.0176-14-3.6952-1.0755-1.3796-4.3028-0.42481-4.3028 1.2729 0 0.36776-0.54694 1.1255-1.4586 2.0208-2.0184 1.9822-4.092 4.5674-5.0378 6.2807-0.7049 1.2769-2.0381 4.5502-5.7708 14.169-1.322 3.4065-1.46 4.0154-2.2777 10.047-0.77016 5.6808-0.79297 6.5581-0.23474 9.03 0.32702 1.4481 0.35614 2.0462 0.13103 2.6919-0.6239 1.7897-0.10909 3.57 1.2331 4.2641 0.40006 0.20688 1.4668 0.51022 2.3706 0.67411 0.90374 0.16388 1.9012 0.40831 2.2165 0.54319 0.31531 0.13488 1.2124 0.20543 1.9936 0.1568 1.1581-0.0721 1.533-0.21949 2.031-0.79848zm-3.6323-2.1285c-0.07553-0.07554-1.0092-0.3185-2.0747-0.5399-1.0656-0.22141-2.0265-0.49047-2.1354-0.59791-0.1089-0.10744-0.01259-0.73953 0.21404-1.4046 0.37599-1.1035 0.37497-1.3659-0.01172-2.9992-0.23307-0.98447-0.47647-2.045-0.54089-2.3567-0.12247-0.59269 1.0326-10.1 1.4754-12.144 0.14052-0.64862 0.72093-2.3586 1.2898-3.8 0.56886-1.4414 1.7623-4.5076 2.6521-6.8138 2.792-7.2364 3.7478-8.8313 7.6542-12.773 1.2629-1.2742 2.0099-2.239 2.0099-2.5958 0-0.54276 0.02219-0.5478 0.50156-0.11398 0.27586 0.24964 1.1898 0.6647 2.031 0.92235 1.4776 0.45256 1.5028 0.47515 0.74328 0.666-2.1735 0.54612-5.1279 3.2576-7.4871 6.8715-2.1882 3.352-2.5463 5.4932-1.1079 6.6246l0.66821 0.52561-0.82813 3.0095c-0.45547 1.6552-1.3003 4.4864-1.8773 6.2914l-1.0492 3.2818h-0.87223c-1.1384 0-2.0817 0.76788-2.65 2.1572-0.70116 1.714-0.846 6.8932-0.26669 9.5357 0.52203 2.3812 1.778 5.2149 2.5155 5.6755 0.27862 0.174 0.50658 0.40593 0.50658 0.51539 0 0.22324-1.1468 0.27524-1.3603 0.06169zm52.595-33.833c-3.1215-0.47874-7.9422-1.5915-9.6966-2.2382-2.7192-1.0024-4.0683-1.0754-4.9294-0.26648l-0.64605 0.60694-0.95934-0.84231c-1.0534-0.92493-6.0034-2.8667-15.348-6.0207-2.9548-0.99732-5.2911-1.8151-5.1917-1.8172 0.09937-0.0022 1.6024 0.34326 3.3401 0.76759 1.7377 0.42433 4.8405 1.0805 6.8952 1.4581 2.4416 0.44872 4.5982 1.0337 6.2254 1.6886 3.6592 1.4727 4.1828 1.5829 8.8494 1.8614 3.9964 0.23853 4.4966 0.32958 7.9931 1.4551l3.73 1.2007 3.1448-0.11048c2.6051-0.09151 3.3626-0.21505 4.4135-0.7198 2.7105-1.3019 3.6732-2.9753 4.0154-6.98 0.1413-1.6537 0.08121-2.0351-0.53131-3.3731-0.81687-1.7843-0.84981-2.5106-0.18067-3.9845 0.68975-1.5193 2.0559-2.3611 9.9379-6.1238 4.8666-2.3232 6.7257-3.0957 6.9384-2.883 0.2127 0.21271 0.16341 0.64855-0.18395 1.6266-0.66533 1.8733-0.82725 3.9393-0.43642 5.5684 0.25213 1.051 0.25981 1.5191 0.0319 1.945-0.65466 1.2232 0.51173 2.6682 2.1538 2.6682 0.82889 0 1.912-0.86857 2.1208-1.7008 0.0912-0.36346-0.0135-1.434-0.23262-2.379-0.57815-2.493-0.53332-3.6858 0.1452-3.8633 0.58369-0.15264 2.806 0.35522 4.317 0.98658l0.92729 0.38744-0.44322 0.85708c-1.13 2.1851-9.5962 12.856-11.792 14.863-1.9018 1.7382-5.9624 3.7354-9.4141 4.6303-2.3619 0.6124-3.1842 0.6863-8.5111 0.76499-3.2431 0.0479-6.2504 0.03283-6.6828-0.03348zm16.637-4.7991c3.6279-1.324 5.8266-2.9014 8.1612-5.8549l1.0472-1.3248-0.64521-0.54641c-0.9382-0.79452-1.457-2.7778-1.4299-5.466 0.0128-1.2644-0.0514-2.3735-0.14267-2.4648-0.43341-0.43341-9.1594 3.9963-9.2988 4.7206-0.05064 0.26297 0.16974 1.0867 0.48973 1.8306 0.51472 1.1965 0.56535 1.655 0.43912 3.9756-0.08152 1.4987-0.36534 3.3253-0.66211 4.2611-0.28568 0.90086-0.41725 1.6379-0.29238 1.6379 0.12487 0 1.1751-0.34601 2.3339-0.76891zm-54.293-5.9618c0.18918-0.0757 0.41522-0.06639 0.5023 0.02069 0.08709 0.08709-0.0677 0.14902-0.34397 0.13764-0.3053-0.01258-0.3674-0.07467-0.15833-0.15833zm-23.668 8.7604c-0.72069-0.30173-1.3475-0.57503-1.3929-0.60733-0.04541-0.0323 0.95314-1.7158 2.219-3.7411 1.2659-2.0253 2.3371-3.6468 2.3806-3.6033 0.07011 0.07011-0.48246 3.1924-1.2683 7.1669-0.14963 0.75672-0.35214 1.3663-0.45002 1.3547-0.09788-0.01167-0.76763-0.26808-1.4883-0.56982z" stroke-width=".26207"/></g></svg>
