<?xml version="1.0" encoding="UTF-8"?>
<svg width="105.83mm" height="77.786mm" version="1.1" viewBox="0 0 105.83 77.786" xmlns="http://www.w3.org/2000/svg"><g transform="translate(-15.822 -45.583)"><path d="m56.557 122.86c-0.6664-0.27116-1.6357-0.73759-2.154-1.0365-0.51831-0.29893-8.6363-4.9306-18.04-10.293s-17.615-10.17-18.248-10.685c-2.0271-1.6479-2.7802-4.1565-1.9768-6.5855 0.41658-1.2596 2.2779-2.9893 5.0123-4.6578 1.1847-0.72288 3.9715-2.4923 6.1928-3.9321 4.4565-2.8885 5.5543-3.3572 7.3018-3.1177 2.2952 0.31459 3.4932 1.1282 8.988 6.1043 3.0947 2.8025 3.6906 3.2226 4.5699 3.2213 0.76897-0.0011 2.4307-0.92222 2.4307-1.3473 0-0.15358-1.2038-1.8203-2.675-3.7039-3.6828-4.7147-4.2633-5.7362-4.4798-7.8817l-0.17756-1.7599 1.4449-1.5237c1.104-1.1642 1.7431-1.6029 2.7089-1.8596 1.1706-0.31108 1.2768-0.41126 1.4362-1.3548 0.45158-2.6729 2.3239-3.7956 9.5508-5.7273 7.8369-2.0947 21.55-6.2746 25.636-7.8146 10.091-3.8023 21.545-8.7662 25.791-11.177 5.0016-2.8401 7.7655-2.8576 10.283-0.06526 1.8642 2.0677 1.9901 4.3687 0.40144 7.3381-2.9664 5.5444-9.9166 17.223-10.819 18.18-1.1703 1.2406-4.7914 2.9747-9.9623 4.771-4.178 1.4514-4.8024 1.4818-7.4106 0.3608-0.27702-0.11907-0.56295 0.08271-0.88158 0.62212-0.82713 1.4002-2.9684 3.3205-4.4684 4.0072-1.9661 0.90009-3.7874 0.84543-6.8781-0.20641-1.3236-0.45043-2.6238-0.81897-2.8893-0.81897-0.54843 0-0.66518 0.4073-0.87032 3.0362-0.23767 3.0458-1.4516 5.1018-4.0981 6.9409-0.88204 0.61296-1.1746 1.0293-1.4266 2.0299-0.71976 2.8584-1.9449 4.4453-5.9361 7.6886-2.8656 2.3286-4.3157 3.9409-4.3187 4.8016-8.08e-4 0.22479 0.99082 2.3741 2.2036 4.7763 1.8352 3.6351 2.224 4.63 2.3182 5.9322 0.12856 1.7772-0.25801 2.9443-1.4393 4.3454-1.5519 1.8406-4.5675 2.4299-7.1198 1.3914zm3.601-3.2343c0.84808-0.32244 1.3381-1.2188 1.2948-2.3688-0.01996-0.53068-0.78955-2.3286-1.905-4.4504-1.0294-1.958-2.0739-4.1874-2.3213-4.9543-0.412-1.2774-0.41453-1.5145-0.03013-2.8272 0.52378-1.7887 2.12-3.6523 5.1648-6.0298 3.1001-2.4208 4.3457-3.8988 4.8423-5.7458 0.22244-0.8274 0.49272-1.799 0.60061-2.1591 0.11046-0.36867 0.94865-1.1922 1.9184-1.8848 2.473-1.7663 2.7395-2.2179 3.0325-5.1389 0.29652-2.9562 0.90037-4.2982 2.3724-5.2724 1.3924-0.92147 2.2497-0.87906 5.648 0.2794 1.547 0.52738 3.0979 0.95886 3.4463 0.95886 1.4888 0 3.56-1.8695 5.1473-4.6462 1.406-2.4595 2.3644-2.6809 4.2164-0.97372 1.1138 1.0267 1.2884 1.0982 2.2907 0.93791 1.0997-0.17586 6.1832-2.1111 9.4555-3.5997l1.79-0.81428 2.1321-3.5969c1.1727-1.9783 3.269-5.5961 4.6584-8.0396s2.8656-4.9813 3.2804-5.6397c0.98031-1.5563 1.0069-2.9142 0.0743-3.7904-1.062-0.99765-2.1282-0.80147-5.5719 1.0251-6.1146 3.2433-17.25 8.0647-26.597 11.516-4.5808 1.6913-16.929 5.4652-24.762 7.5678-7.4964 2.0122-7.8046 2.1551-7.8132 3.6222-0.0043 0.72252 1.0521 1.855 3.8448 4.122 0.71005 0.57638 1.8983 1.7748 2.6406 2.6631 1.4948 1.7889 1.4384 2.0585-0.43175 2.0657-1.0064 0.0039-1.1206-0.07717-1.731-1.2277-1.3435-2.5326-3.9255-4.1532-6.6169-4.1532-1.5236 0-1.8661 0.09301-2.434 0.66089-1.2661 1.2661-1.1501 1.4985 4.1657 8.3504 2.3957 3.088 2.4947 3.2693 2.3734 4.3455-0.23267 2.0642-0.96161 3.1069-2.8818 4.1221-2.1447 1.1339-4.0803 1.2445-5.8555 0.3344-0.6234-0.31959-2.8458-2.1259-4.9387-4.0141-2.0929-1.8882-4.2484-3.705-4.7901-4.0375-1.6676-1.0235-2.2981-0.84808-6.2847 1.7488-1.9893 1.2958-4.8042 3.0829-6.2554 3.9715-3.8816 2.3767-4.6634 3.5772-3.321 5.0997 0.6002 0.68068 33.336 19.571 36.947 21.32 2.0555 0.99581 2.2168 1.0287 3.2047 0.65303zm-2.6586-3.3516c-0.29618-0.19175-8.2562-4.751-17.689-10.132-9.4328-5.3807-17.093-9.8768-17.022-9.9913 0.07079-0.11454 1.488-1.0206 3.1494-2.0135 1.6614-0.99287 4.133-2.5735 5.4924-3.5124 1.3594-0.93895 2.5586-1.7072 2.6648-1.7072 0.28168 0 2.0363 1.4847 5.0951 4.3112 1.4809 1.3685 3.2983 2.8926 4.0388 3.387 1.7488 1.1676 4.3148 1.8308 6.1221 1.5822 1.6112-0.22159 4.5583-1.6915 5.8002-2.8928 1.0271-0.99358 1.9448-3.6103 1.9432-5.5409-0.0011-1.5021-0.18398-1.814-3.7301-6.3664-1.8596-2.3873-2.5999-3.5278-2.3282-3.5867 0.71688-0.1555 2.8548 1.6376 3.5217 2.9536 0.9309 1.837 1.7565 2.3846 3.5836 2.3766 5.0342-0.02192 6.4539-1.9707 3.9055-5.3608-0.68269-0.90818-2.2549-2.579-3.4939-3.7129-1.2389-1.1339-2.2216-2.0926-2.1837-2.1305 0.0379-0.03791 2.541-0.7441 5.5625-1.5693 17.999-4.916 30.567-9.3912 44.383-15.804 2.8583-1.3267 5.8815-2.8247 6.7183-3.3288 0.83683-0.5041 1.5582-0.87987 1.603-0.83506 0.0448 0.04482-0.93169 1.8277-2.17 3.962-1.2383 2.1343-3.3895 5.8456-4.7804 8.2474l-2.5289 4.3669-9.3877 3.7602-1.0125-0.91475c-1.2911-1.1664-2.8839-1.6273-4.1638-1.2049-1.3805 0.45562-2.415 1.4485-3.6167 3.4712-0.59091 0.99465-1.4244 2.1438-1.8522 2.5537l-0.77783 0.74521-3.445-1.1208c-3.8056-1.2381-4.3803-1.2491-6.596-0.12637-2.4447 1.2388-3.8814 3.6426-4.1774 6.9893-0.23433 2.649-0.29969 2.784-1.8186 3.7556-2.1431 1.3709-3.0513 2.5464-3.4216 4.4286-0.4409 2.241-0.93645 2.9205-3.7991 5.2087-4.5678 3.6513-6.3882 6.0857-6.8276 9.1309-0.24949 1.7291 0.31214 3.4872 2.4253 7.592 0.96441 1.8734 1.663 3.3997 1.5524 3.392-0.11058-8e-3 -0.44338-0.17101-0.73955-0.36277zm-6.8659-9.7981c0-0.85742 0.18175-2.2567 0.40388-3.1095 0.22213-0.85282 0.40388-1.5901 0.40388-1.6383 0-0.0482-1.0766-0.0263-2.3924 0.0487-4.3809 0.24979-7.0775-1.0109-12.147-5.6787-1.5547-1.4316-2.9017-2.6029-2.9934-2.6029-0.23642 0-3.8596 2.4409-3.937 2.6523-0.06006 0.16413 20.024 11.809 20.46 11.863 0.11107 0.0136 0.20194-0.67669 0.20194-1.5341zm10.813-16.295c0.25026-0.91423 0.42088-1.6964 0.37916-1.7381-0.04172-0.04172-0.27494 5.38e-4 -0.51827 0.09392-0.2855 0.10956-0.44242 0.48186-0.44242 1.0497 0 0.48396-0.07798 1.2888-0.1733 1.7886-0.2811 1.474 0.25788 0.62129 0.75484-1.1942zm5.6139-10.501c0.0068-0.82676 1.4636-3.3085 2.7476-4.6806 0.78277-0.8365 1.2266-1.4494 0.98638-1.362-0.45364 0.16504-3.0108 0.91436-5.6901 1.6673l-1.5496 0.4355 1.3254 1.7293c0.72898 0.9511 1.4047 1.9792 1.5017 2.2846 0.17922 0.56469 0.67383 0.51063 0.67863-0.07418zm17.034-7.9306c0.38392-0.70539 1.009-1.5747 1.3891-1.9317 1.0579-0.99381 0.837-1.1105-0.85718-0.45279-0.85151 0.33056-2.7332 0.94851-4.1814 1.3732l-2.6332 0.77222 2.2224 0.6416c1.2223 0.35288 2.276 0.69523 2.3415 0.76078 0.42258 0.42258 1.1083-0.04155 1.7189-1.1633zm15.335-4.3957c1.5209-0.60552 2.9112-1.2216 3.0896-1.3691 0.43339-0.35827 2.8678-4.5245 2.7264-4.6659-0.10145-0.1015-3.5858 1.2921-10.559 4.2231l-2.6618 1.1188 1.1809 0.30795c0.64948 0.16937 1.6655 0.5677 2.2579 0.88516 0.59236 0.31746 1.1049 0.58256 1.1389 0.5891 0.03405 0.0065 1.3063-0.48353 2.8272-1.0891zm-75.633 42.895-4.3533-1.5238 0.85302-1.5535c0.46916-0.85439 0.94887-1.5549 1.066-1.5566 0.16109-2e-3 4.8157 3.9345 7.0434 5.9573 0.45208 0.41052-0.14693 0.23853-4.6091-1.3234z" stroke-width=".26925"/></g></svg>
