<?xml version="1.0" encoding="UTF-8"?>
<svg width="105.83mm" height="70.099mm" version="1.1" viewBox="0 0 105.83 70.099" xmlns="http://www.w3.org/2000/svg"><path d="m20.838 69.877c-2.5452-0.55375-4.7947-2.3803-6.3979-5.1949-0.39841-0.6995-3.2881-6.7196-6.7419-14.045-0.75046-1.5918-2.7897-5.9087-4.5315-9.5931-2.1472-4.5417-3.1671-6.8827-3.1671-7.2696 0-1.297 0.47848-2.53 2.657-6.847 2.2165-4.3921 2.3397-4.5917 4.4269-7.1733 1.8503-2.2886 7.0901-7.8961 14.81-15.849 1.1361-1.1704 2.3017-2.4019 2.5904-2.7367 0.44701-0.51835 0.72365-0.65403 1.865-0.91471 2.9088-0.66436 5.0877-0.03296 6.9667 2.0188 1.6704 1.8241 2.598 4.177 2.6034 6.6036 0.0024 1.0875 0.0282 1.1596 0.55581 1.5521 0.66603 0.49549 3.5894 2.2221 6.2041 3.6644 4.063 2.2411 10.009 4.2559 14.949 5.0654 2.5632 0.42003 3.3516 0.47532 6.8949 0.48352 3.2625 0.0075 4.2678-0.04825 5.4478-0.3024 1.7982-0.38727 4.1468-1.0352 5.3223-1.4684 0.49038-0.18068 6.2995-2.2444 12.909-4.586l12.018-4.2575 1.0061 0.30561c1.4431 0.43834 1.9061 0.72185 3.0029 1.8387 0.88286 0.89899 1.0088 1.1221 1.3286 2.3538 0.25689 0.98932 0.32351 1.6102 0.24413 2.2751-0.32391 2.7127-1.0584 3.4434-8.1662 8.1241-3.0899 2.0348-7.8398 5.165-10.555 6.9559-6.2491 4.1215-6.7604 4.4344-8.0015 4.8957-1.5581 0.57923-3.7584 0.49594-9.4123-0.35632-2.555-0.38514-4.6822-0.70024-4.7272-0.70024-0.04494 0 0.11174 0.38176 0.34818 0.84837 1.2775 2.521 1.2196 5.2645-0.16884 8.0045-0.9947 1.963-2.9531 4.0779-5.1823 5.5964-0.80146 0.54597-5.1345 3.3189-9.629 6.1621-9.5393 6.0346-9.5394 6.0346-12.768 5.8901-1.03-0.0461-2.0376-0.13578-2.2392-0.19929-0.32596-0.10271-0.39593-0.01411-0.63312 0.8018-0.7122 2.4499-2.6055 4.249-7.4073 7.0391-2.0262 1.1773-4.1396 1.5113-6.4212 1.015zm4.2685-4.1712c1.4931-0.78544 3.7479-2.2988 4.6255-3.1047 1.0196-0.93624 1.4151-1.8058 1.4151-3.1115 0-1.2424-0.30245-1.9541-1.6934-3.9849-1.5209-2.2205-2.4707-3.0388-4.5356-3.9074-0.94872-0.39906-1.8808-0.89333-2.0714-1.0984-0.42164-0.45376-1.7366-4.7321-1.7366-5.6501 0-0.75277 0.52558-1.4479 1.0937-1.4465 0.19436 5.11e-4 0.55558 0.17284 0.80272 0.38305 0.24714 0.21021 2.6088 2.9684 5.248 6.1292 2.6393 3.1609 5.0418 5.9289 5.339 6.1513 1.2233 0.91529 2.8206 1.4605 4.2894 1.4639 2.0104 0.0048 2.5178-0.26128 11.442-5.9998 9.6237-6.1881 9.9662-6.4281 11.074-7.7596 1.1198-1.3455 1.4893-1.9832 1.8266-3.1519 0.47155-1.6338 0.24501-2.509-1.2194-4.7113-0.52742-0.79317-0.81604-1.4616-0.9941-2.3021-0.26642-1.2577-0.34244-3.2409-0.12913-3.3692 0.07023-0.04225 3.4602 0.4117 7.5334 1.0088 8.4769 1.2426 9.619 1.3154 10.936 0.69731 0.49258-0.23111 3.1358-1.9034 5.8739-3.7161 2.738-1.8128 7.7018-5.0883 11.031-7.279 3.3288-2.1907 6.2023-4.1737 6.3856-4.4068 0.40953-0.52063 0.44364-1.7136 0.0697-2.4367-0.33779-0.65321-1.1937-1.1743-1.9303-1.1751-0.33872-3.41e-4 -5.5361 1.8552-12.598 4.4977-16.466 6.1614-15.741 5.9707-22.662 5.9611-4.279-0.0059-4.9269-0.04666-7.5319-0.47322-4.413-0.72264-9.6947-2.3736-13.664-4.271-4.2305-2.0225-10.182-5.6287-10.772-6.5273-0.21744-0.33119-0.31911-0.96098-0.38975-2.4143-0.05747-1.1824-0.21496-2.3205-0.39505-2.8549-0.32489-0.96412-1.537-2.4526-2.3321-2.8637-0.68504-0.35425-1.6284-0.30691-2.3466 0.11776-0.34047 0.20133-2.2249 2.0591-4.1875 4.1284-1.9627 2.0693-5.0321 5.2946-6.821 7.1673-1.7889 1.8727-3.5595 3.7496-3.9348 4.171-1.3202 1.4823-3.7053 4.5243-4.4547 5.6817-1.1173 1.7255-3.8192 7.6492-3.8382 8.415-0.01215 0.48968 0.41915 1.4619 1.9408 4.375 1.076 2.06 2.3507 4.5881 2.8325 5.6181 8.2655 17.668 9.2167 19.587 10.293 20.764 1.2261 1.3416 2.2047 1.7892 3.9163 1.7914 1.1181 0.0014 1.4387-0.07019 2.2687-0.50681zm-3.4019-2.529c-1.0588-0.6457-1.1344-0.78611-6.2901-11.689-1.2398-2.6218-2.9361-6.2225-3.7695-8.0015-0.83343-1.7791-2.3006-4.7069-3.2604-6.5062l-1.7451-3.2715 1.4118-3.0275c0.77648-1.6651 1.7188-3.4872 2.0939-4.049 0.83109-1.2445 3.5282-4.5934 4.7303-5.8735 0.48362-0.51499 3.551-3.7709 6.8165-7.2354 3.2654-3.4645 6.075-6.446 6.2435-6.6256 0.24609-0.26227 0.35531-0.28584 0.55531-0.11985 0.55963 0.46445 0.78752 1.3405 0.85969 3.3046 0.13124 3.572 0.74358 4.3096 6.3156 7.6077 5.0531 2.9909 7.9222 4.3532 12.19 5.7883 3.6631 1.2317 5.8986 1.7796 9.4366 2.3131 2.6511 0.39973 3.6148 0.46335 7.2298 0.47726 4.4698 0.01721 5.4752-0.09493 9.1932-1.0254 1.6725-0.41854 13.385-4.6281 19.111-6.8689 1.4068-0.55048 2.4885-0.93148 2.4036-0.84666-0.43085 0.43085-18.056 11.936-18.434 12.034-0.25546 0.06581-4.0849-0.41095-9.0708-1.1293l-8.6287-1.2432-0.64969 0.31734c-1.178 0.5754-1.7244 2.5829-1.4108 5.1837 0.25331 2.1007 0.72838 3.4822 1.6929 4.9228 0.54118 0.80827 0.85507 1.4602 0.85534 1.7764 7.07e-4 0.79056-0.60365 1.8351-1.6614 2.8716-1.1624 1.139-1.3832 1.2974-5.6587 4.0567-1.8259 1.1784-5.3116 3.4311-7.7462 5.006-2.4345 1.5749-4.6945 2.9615-5.0222 3.0812-0.32772 0.11972-1.0596 0.22104-1.6265 0.22514-1.911 0.01386-2.2273-0.24564-6.4632-5.3026-6.4342-7.6814-6.6229-7.8908-7.4931-8.3121-2.069-1.0016-4.5424-0.0087-5.349 2.1473-0.49854 1.3325-0.44484 1.9561 0.43517 5.0543 1.1547 4.0651 1.5652 4.5855 4.6612 5.9088 0.88312 0.37745 1.8263 0.89601 2.0959 1.1524 0.6233 0.59254 2.4694 3.3363 2.6031 3.8688 0.23093 0.92012-0.33082 1.4927-3.2333 3.2958-1.8539 1.1517-2.5076 1.2919-3.4222 0.7341zm1.8818-4.2957c0.1133-0.18332-0.542-1.0089-0.80082-1.0089-0.0758 0-0.0099 0.26814 0.14633 0.59586 0.29513 0.61889 0.46212 0.72427 0.65448 0.41301zm19.845-11.413c2.939-1.883 5.7267-3.6727 6.1949-3.977 6.2421-4.057 5.9215-3.794 5.4691-4.4869-1.2412-1.9008-1.8616-4.4426-1.8805-7.7042l-0.01344-2.3118-1.5322-0.38925c-2.3222-0.58995-7.0262-2.1482-9.0704-3.0046-3.5399-1.4831-10.45-5.3787-13.15-7.4131-1.3128-0.9892-2.7268-2.5979-2.9773-3.387-0.05847-0.18423-0.17302-0.33496-0.25455-0.33496-0.08153 0-1.8137 1.8195-3.8492 4.0433-2.0355 2.2238-4.4428 4.8477-5.3494 5.8309-3.3808 3.6662-3.7169 4.1323-5.1122 7.0887l-1.0136 2.1478 2.002 3.9777c1.1011 2.1877 2.0405 3.9783 2.0874 3.9791 0.04698 8.36e-4 0.26954-0.34565 0.49458-0.76986 0.53785-1.0138 2.257-2.6024 3.4382-3.177 2.7408-1.3332 5.8182-0.92659 8.2717 1.093 0.48591 0.39997 2.3561 2.4892 4.156 4.6429s3.962 4.7392 4.8046 5.7458c0.84263 1.0066 1.624 1.8301 1.7365 1.8301 0.11242 0 2.6091-1.5407 5.5481-3.4237zm-36.792 15.09c0-0.10485-2.3634-8.9567-2.4694-9.2488-0.04424-0.12191-0.0136-0.18035 0.06808-0.12987 0.22141 0.13684 5.8548 7.7662 5.7829 7.8317-0.10896 0.09932-3.2011 1.6279-3.2931 1.6279-0.04869 0-0.08852-0.03644-0.08852-0.08098z" stroke-width=".17024"/></svg>
