<?xml version="1.0" encoding="UTF-8"?>
<svg width="400" height="250" version="1.1" viewBox="0 0 105.83 66.146" xmlns="http://www.w3.org/2000/svg"><g transform="matrix(.54322 0 0 .54322 5.4355 -17.257)"><path d="m110.41 153.04c-1.2502-0.29423-4.3188-0.96357-6.8192-1.4874-2.5004-0.52384-4.2671-1.0091-3.9262-1.0783 0.34096-0.0692 3.642-0.65545 7.3357-1.3027l6.7158-1.1768v2.8359c0 3.1534 0.1837 3.0307-3.3062 2.2093zm-70.284-9.6022c-4.9305-2.5005-7.1799-8.7125-4.9411-13.645 1.9432-4.2811 11.186-10.798 18.012-12.699 1.5172-0.42259 4.8369-0.77112 8.6981-0.9132l6.2445-0.22977-1.5456-1.3964c-2.1219-1.917-3.1612-4.5875-4.5404-11.667-0.648-3.3261-2.0145-9.86-3.0367-14.52-2.7515-12.543-3.5714-17.238-3.5723-20.457l-8.28e-4 -2.893-5.3612-3.6492c-8.4945-5.782-11.17-9.4473-11.17-15.304 0-6.5095 3.9817-11.464 10.903-13.566 2.5337-0.7696 3.5115-0.83981 8.6845-0.62358 6.3399 0.265 16.263 1.5961 19.32 2.5917 3.0346 0.98819 5.8664 4.1856 6.5292 7.3723 0.18981 0.91258 1.0346 1.7549 3.48 3.4701l3.2293 2.265 1.5136-0.91303c4.2906-2.5882 6.8264-3.5117 9.568-3.4844 6.1737 0.06134 9.6171 3.0932 14.185 12.489 3.2877 6.7631 3.1414 6.6389 9.7903 8.3161 6.9548 1.7543 11.004 4.4205 13.095 8.6216 0.98668 1.9825 1.2335 13.487 0.56439 26.303-0.93679 17.943-1.2119 19.697-3.5177 22.432l-1.1419 1.3543 0.96565 2.1586c1.3987 3.1266 1.3453 7.505-0.13044 10.703-2.1169 4.5877-6.0437 7.6923-10.841 8.5708-1.6564 0.30331-15.481 0.44906-42.597 0.44906h-40.145zm85.931-5.2945c1.9844-0.79402 4.3611-3.3603 5.0527-5.4558 1.2524-3.7947-0.65177-8.1515-4.378-10.017-1.992-0.99735-2.3072-1.0292-9.0806-0.91889-7.6261 0.12424-9.1494-0.1664-9.5657-1.8251-0.64199-2.5579 1.9792-2.908 13.226-1.7664 9.4143 0.95561 10.092 0.88541 11.147-1.1543 0.74082-1.433 1.357-9.0551 1.9643-24.298 0.51644-12.962 0.40191-16.334-0.62205-18.315-1.0508-2.0321-3.8154-3.5378-9.232-5.0283-5.7903-1.5933-8.3827-2.831-9.7411-4.6509-0.55388-0.74205-2.2178-3.8653-3.6975-6.9406-2.9567-6.1449-4.8599-8.3982-7.5139-8.896-2.322-0.43561-3.9137 0.06912-7.8884 2.5013-2.0395 1.248-4.0801 2.2684-4.5347 2.2676-0.95676-0.0016-4.8933-2.4264-9.1955-5.6642-2.8066-2.1122-2.9963-2.3553-2.9963-3.8398 0-2.0548-1.5633-3.9606-3.7266-4.5431-2.1605-0.58175-12.136-1.9465-16.75-2.2916-6.8582-0.51293-11.146 1.2077-13.179 5.2892-1.1882 2.3844-1.2834 3.3829-0.55681 5.8419 0.70976 2.4022 3.6348 5.1461 10.346 9.7053l5.6826 3.8604v3.6738c0 3.9837 0.76263 8.3598 4.3144 24.757 1.2063 5.569 2.5068 11.799 2.89 13.845 0.38319 2.0458 1.0164 4.2775 1.4072 4.9594 0.83193 1.4518 3.6513 2.9763 8.9402 4.8342 4.3358 1.5231 5.5919 2.5661 5.5919 4.643 0 2.5137-0.35987 2.5866-14.148 2.8662-14.079 0.28551-15.863 0.57591-20.79 3.3836-3.3957 1.9352-7.0337 4.7376-8.2869 6.3836-0.98522 1.2941-0.983 4.0797 0.0045 5.5868 1.5819 2.4142-0.30411 2.323 43.464 2.1019 36.262-0.18318 40.291-0.26931 41.854-0.89473zm-81.683-3.5843c-0.45143-0.54597-0.26651-0.86855 1.2398-2.1628 2.9276-2.5154 7.4039-5.0967 10.02-5.778 1.6787-0.43723 4.5087-0.65187 8.8856-0.67391 12.069-0.0608 19.088-0.53756 20.538-1.395 1.8549-1.0969 3.1177-3.5459 3.0986-6.0093-0.03493-4.5059-1.9929-6.1219-11.732-9.6824-3.4831-1.2734-3.4442-1.1952-5.4646-10.984-1.0087-4.8871-2.7858-13.442-3.9493-19.011-1.5255-7.3021-2.088-10.874-2.0173-12.812 0.22568-6.1895 0.26702-6.1305-8.4765-12.111-3.3876-2.3173-6.5399-4.7258-7.0051-5.3524-1.3099-1.7642-1.1259-3.8814 0.46051-5.2988 2.0928-1.8699 4.0602-2.1927 10.015-1.643 6.7879 0.62662 13.719 1.684 14.36 2.1908 0.28163 0.2225 0.42808 0.54041 0.32546 0.70647s-0.0017 0.97116 0.22404 1.7891c0.48234 1.7469 2.5926 3.7184 7.7517 7.2417 7.6284 5.2099 8.7182 5.3376 14.707 1.724 2.2529-1.3593 4.4565-2.4715 4.8969-2.4715 1.3746 0 3.0484 2.3098 5.8177 8.0278 4.068 8.3998 5.8404 9.9158 14.274 12.209 4.9076 1.3344 6.5895 2.0273 7.4564 3.0718 0.9262 1.116 0.57475 20.702-0.63681 35.489l-0.26312 3.2115-1.2891-0.20588c-0.70897-0.11323-4.1717-0.50575-7.6949-0.87226-10.186-1.0596-13.923-0.33972-15.501 2.9858-1.4734 3.1049 0.0233 6.9726 3.2685 8.4463 1.4521 0.65946 2.777 0.77062 9.2777 0.77841l7.5837 9e-3 1.4052 1.4052c1.5632 1.5632 1.776 2.878 0.77824 4.8076-1.3173 2.5474 0.69571 2.418-42.416 2.7279-35.343 0.25412-39.461 0.21717-39.937-0.35834zm57.152-6.982c-2.268-2.5104-3.2186-4.9632-3.198-8.252 0.02963-4.7353 2.1217-8.1601 6.2117-10.169 2.2413-1.1006 2.6424-1.1576 8.1434-1.1576 3.1823 0 6.9948 0.093 8.4723 0.20664l2.6863 0.20664 0.30687-4.5461c0.16877-2.5004 0.35475-9.0022 0.41328-14.448l0.10642-9.9024-4.1328-1.1423c-9.3114-2.5736-12.893-5.5063-17.004-13.923l-2.4199-4.9544-2.6769 1.616c-6.3044 3.806-10.221 3.1664-19.283-3.149-4.7757-3.3282-8.3866-6.6178-9.0764-8.2686-0.51147-1.2241-0.69219-1.3036-3.9673-1.7443-5.8985-0.79383-9.6664-1.0424-9.2174-0.60795 0.2273 0.21991 2.1196 1.5547 4.2052 2.9661 8.5126 5.7612 9.2252 6.8768 9.6598 15.123 0.30596 5.8047 0.62154 7.5828 4.8776 27.483 0.89935 4.2051 1.7482 8.3095 1.8863 9.1207 0.23703 1.392 0.40786 1.5289 3.0361 2.4326 6.8693 2.3618 9.9581 4.5908 12.139 8.7597 0.7568 1.4468 0.94396 2.4829 0.95924 5.3104 0.02232 4.1301-0.85248 6.3535-3.5684 9.0694l-1.6759 1.6759h14.658z" stroke-width=".41328"/></g></svg>
