<?xml version="1.0" encoding="UTF-8"?>
<svg width="105.83mm" height="62.489mm" version="1.1" viewBox="0 0 105.83 62.489" xmlns="http://www.w3.org/2000/svg"><g transform="translate(-22.603 -26.402)"><path d="m27.725 88.842c-1.3635-0.1998-2.4354-0.723-3.4217-1.6701-2.0877-2.0047-2.2758-5.3444-0.4365-7.7478 0.30899-0.40375 1.2012-1.3075 1.9827-2.0084 1.1651-1.0449 4.8352-4.3599 6.5121-5.8819l0.39049-0.35443-0.31056-1.0042c-0.24787-0.80152-0.31048-1.2427-0.31016-2.1856 4.72e-4 -1.4067 0.11662-1.8785 1.1634-4.7257 0.88364-2.4035 3.3867-9.3486 5.1521-14.295 1.4544-4.0754 1.8923-4.9953 2.8906-6.0736 0.88421-0.95503 1.6348-1.4534 3.8937-2.5851l1.6445-0.82389 0.20904-0.8114c0.29363-1.1398 0.69556-1.9491 1.2861-2.5898 1.1391-1.2358 2.0396-1.6151 6.8875-2.9009 1.8458-0.48957 8.0506-1.3777 12.337-1.7658 1.9507-0.17663 5.791-0.08827 7.7527 0.17838 0.77974 0.10599 3.305 0.53988 5.6118 0.96421 2.3067 0.42433 4.513 0.82633 4.9029 0.89332 1.0903 0.18735 14.294-0.11742 16.481-0.3804 0.55232-0.06643 1.4295-0.25974 1.9494-0.42958 0.79802-0.26073 5.1687-2.0484 6.7341-2.7543 0.8184-0.36907 7.5498-3.1611 7.7974-3.2341 0.12996-0.03835 0.62174-0.12389 1.0928-0.19008 1.9321-0.27147 3.6875 0.33479 4.9848 1.7216 0.61915 0.66188 0.9082 1.1419 1.9034 3.1608 1.5363 3.1168 1.8225 4.1958 1.5279 5.7608-0.31895 1.6944-1.4874 3.045-3.4518 3.9899-0.66726 0.32097-2.4878 1.2015-4.0456 1.9567l-2.8323 1.3731-1.364 1.384c-0.75021 0.7612-2.4585 2.5536-3.7961 3.9831-3.7171 3.9724-5.3636 5.4583-7.9422 7.1673-1.5467 1.0251-2.4824 1.5034-6.5746 3.3603-4.6985 2.132-4.9995 2.2586-5.7275 2.4091-1.3668 0.28255-2.9429-0.13048-3.8438-1.0073l-0.41518-0.4041-10.336 0.47458c-10.307 0.47326-11.506 0.48804-12.719 0.15685-0.20852-0.05691-0.31886 0.02684-0.58416 0.44344l-0.32707 0.5136 0.98169 3.8396c1.5022 5.8753 1.4536 5.6235 1.4584 7.5611 0.0049 1.9715-0.12264 2.6711-0.92629 5.0801-0.73152 2.1928-1.8563 4.457-2.7253 5.4859-1.1799 1.397-2.3769 2.0535-4.2332 2.3217-0.98743 0.14267-1.211 0.12143-5.8511-0.55577-4.2886-0.62592-5.365-0.70867-6.8523-0.52675-0.6173 0.0755-4.6312 0.7138-8.9198 1.4184-8.6583 1.4226-8.7319 1.4327-9.5811 1.3082zm8.2444-4.1329c11.942-2.0093 11.168-1.9624 17.404-1.0537 4.4649 0.65069 5.2552 0.68374 6.2049 0.25941 0.97769-0.43682 1.7344-1.4466 2.6489-3.5346 1.1334-2.588 1.5183-4.116 1.5142-6.0109-0.0033-1.523-0.05782-1.7918-1.4012-6.9102-1.1879-4.5261-1.2377-4.84-0.87961-5.542 0.48971-0.9599 2.1592-3.5737 2.3227-3.6365 0.09007-0.03456 0.65567 0.13656 1.2569 0.38027 0.96356 0.39059 1.2402 0.44925 2.3336 0.49494 1.034 0.04319 17.411-0.6201 21.325-0.86368l1.1815-0.07353 0.26473 0.54489c0.15109 0.311 0.42996 0.64563 0.64967 0.77959 0.69138 0.42154 1.2014 0.32334 3.3115-0.63754 1.0545-0.48022 3.2182-1.4657 4.8081-2.1899 5.0663-2.3078 6.8331-3.7414 13.697-11.114 2.0016-2.15 2.7311-2.8642 3.6147-3.5391 0.32488-0.24814 2.1856-1.211 4.135-2.1396 1.9494-0.92865 3.7407-1.8251 3.9807-1.9922 0.49376-0.34365 0.86505-0.93124 0.98013-1.5511 0.10406-0.5602-0.1896-1.4064-1.2786-3.6848-0.90434-1.8922-1.4438-2.6421-2.1375-2.9713-0.49019-0.23261-1.7232-0.24892-2.4416-0.0323-0.50938 0.15359-3.3361 1.3352-9.7217 4.064-5.0455 2.156-5.6945 2.3331-9.1928 2.5084-3.5768 0.17918-13.285 0.39742-14.208 0.31937-0.45807-0.03875-2.8797-0.44195-5.3813-0.896-5.8898-1.069-6.8237-1.1945-9.4765-1.2737-2.4726-0.07381-3.632 0.01127-8.4812 0.62239-4.8893 0.61618-5.9701 0.81376-8.7871 1.6065-3.6156 1.0174-3.9785 1.3045-4.3888 3.4718-0.0978 0.51653-0.27333 1.0688-0.39007 1.2272-0.117 0.15878-1.3199 0.87884-2.6803 1.6045-2.6074 1.3908-3.2992 1.8857-3.778 2.7028-0.27871 0.47558-1.7712 4.4722-3.8429 10.291-0.50899 1.4295-1.407 3.9159-1.9956 5.5254-0.58859 1.6094-1.2836 3.5535-1.5445 4.3201-0.63224 1.8578-0.63179 2.4 0.0038 4.5128 0.26298 0.87424 0.44967 1.703 0.41487 1.8416-0.0348 0.13866-0.79472 0.90987-1.6887 1.7138-7.9475 7.1469-7.99 7.1872-8.3892 7.9595-0.98941 1.9144 0.30812 4.0505 2.4727 4.0707 0.30447 0.0029 3.707-0.5254 7.5611-1.1739zm-8.2382-1.0012c-0.62369-0.62369-0.37419-1.0571 1.6597-2.8829 7.9305-7.1191 8.2567-7.4344 8.4497-8.1676 0.18095-0.68726 0.10721-1.1519-0.47827-3.0139-0.32935-1.0474-0.46147-1.652-0.41542-1.9011 0.08794-0.47557 0.98519-2.994 6.0363-16.943 0.69413-1.9169 1.3862-3.7311 1.538-4.0316 0.33956-0.6723 0.72121-0.93261 3.3774-2.3036 2.5752-1.3292 3.1919-1.8523 3.5142-2.9806 0.12336-0.43194 0.28548-1.0863 0.36026-1.4541 0.16903-0.83138 0.16788-0.83077 3.0875-1.64 1.7544-0.48627 2.8614-0.70221 5.7197-1.1157 5.5195-0.7984 7.9134-1.0475 10.042-1.045 2.3565 0.0028 3.773 0.18519 9.4514 1.2173 2.4692 0.4488 4.9588 0.87792 5.5326 0.9536 1.6681 0.22003 15.971-0.16656 18.057-0.48804 1.2626-0.19465 2.8732-0.75548 6.0055-2.0912 10.476-4.4675 10.357-4.4205 11.094-4.3726l0.54322 0.03528 1.0419 2.1032c0.57304 1.1568 1.0515 2.2466 1.0633 2.4219 0.0242 0.36036-0.0243 0.38724-5.1178 2.8374-3.2897 1.5825-3.6494 1.8611-6.9385 5.3756-3.8629 4.1274-5.7825 6.0498-7.1204 7.1307-2.4316 1.9644-3.0614 2.3074-9.8343 5.3566l-2.5685 1.1564-0.26238-0.46685c-0.27183-0.48366-0.75157-0.84368-1.294-0.97111-0.17259-0.04055-5.0874 0.1387-10.922 0.39832-5.8344 0.25962-11.049 0.47204-11.588 0.47204-0.86166 0-1.1335-0.05846-2.2512-0.48411-1.5535-0.59165-2.2445-0.60046-2.94-0.03752-0.44114 0.35705-2.6585 3.912-3.0349 4.8658-0.30112 0.7629-0.24484 1.4733 0.27461 3.4666 2.0271 7.7784 2.2112 8.7168 2.0105 10.246-0.25411 1.9363-1.6091 5.4096-2.5194 6.4577l-0.41039 0.47257-1.0473-0.0042c-0.62824-0.0026-2.5599-0.23191-4.8278-0.57328-3.6855-0.55476-3.8325-0.5676-5.8481-0.51071-1.9569 0.05522-2.5013 0.13174-10.174 1.4298-4.4585 0.7543-8.3021 1.3715-8.5412 1.3715-0.30406 0-0.52192-0.08717-0.72474-0.28999zm12.174-4.6638c5.473-0.93329 6.0364-0.99419 8.5363-0.92263 1.9753 0.05654 3.2319 0.21098 8.2697 1.0163 0.42137 0.06736 0.65473 0.05745 0.7274-0.03088 0.21251-0.25833 0.9774-2.2435 1.2004-3.1156 0.40464-1.5821 0.35356-1.9551-1.0124-7.3914-1.6043-6.385-1.6163-6.7578-0.29839-9.2435 1.8252-3.4422 3.224-5.1987 4.5659-5.7332 0.57904-0.23064 0.91061-0.27694 1.9941-0.27844 1.2358-0.0017 1.3547 0.02048 2.4219 0.45212l1.1224 0.45392 1.8312-0.06743c1.0072-0.03709 6.1109-0.25953 11.342-0.49431 10.244-0.4598 10.137-0.46098 11.443 0.12522l0.67031 0.30082 2.5974-1.1672c3.1206-1.4024 4.0267-1.8484 4.9602-2.4419 1.8803-1.1954 3.5566-2.7126 6.6422-6.0118 5.1749-5.5331 6.0953-6.3811 8.035-7.4026 0.53497-0.28173 0.95216-0.53276 0.92709-0.55783-0.025-0.02507-0.91468 0.32505-1.9769 0.77804-3.8699 1.6504-6.3206 2.6592-7.1296 2.9347-1.3448 0.45809-2.953 0.73357-5.0244 0.86068-2.4184 0.1484-10.486 0.35936-13.743 0.35936-2.6927 0-3.1409-0.06-9.6669-1.2943-5.4059-1.0225-7.4182-1.1472-11.417-0.70782-5.2009 0.5715-9.6399 1.3317-12.092 2.0706-0.12208 0.03679-0.29089 0.36941-0.44501 0.87682-0.32373 1.0658-1.0775 2.1526-2.0243 2.9187-0.42464 0.34358-1.7376 1.1257-2.975 1.7721l-2.215 1.1571-0.24776 0.64978c-0.13627 0.35738-0.636 1.7396-1.1105 3.0717-0.94443 2.6512-3.3007 9.1819-4.8088 13.328l-0.9588 2.636 0.46147 1.44c0.41399 1.2918 0.46075 1.5615 0.45443 2.6214-0.01282 2.1499-0.51988 2.9559-3.6113 5.7403-1.2264 1.1046-2.2297 2.0368-2.2297 2.0716 0 0.03481 0.1462 0.0335 0.32489-0.0029 0.17869-0.03642 2.1856-0.38352 4.4599-0.77134zm53.991-46.876c-0.12996-0.03075-1.8312-0.39882-3.7806-0.81792-1.9494-0.4191-3.624-0.79386-3.7215-0.83278-0.23776-0.09496 0.14933-0.17608 4.135-0.86658 1.8519-0.32083 3.5398-0.61365 3.751-0.65071l0.38396-0.06738v1.6594c0 1.8273 0.0304 1.7649-0.76793 1.576z" stroke-width=".11814"/></g></svg>
