<?xml version="1.0" encoding="UTF-8"?>
<svg width="105.83mm" height="67.761mm" version="1.1" viewBox="0 0 105.83 67.761" xmlns="http://www.w3.org/2000/svg"><g transform="translate(-24.895 -36.839)"><path d="m43.712 104.26c-4.6375-1.0374-9.1893-4.7949-11.606-9.5811-1.5973-3.1632-1.9281-4.7409-1.9982-9.5299l-0.06456-4.4146-1.1337-0.72036c-2.6517-1.6849-4.0056-4.087-4.0139-7.1218-0.0048-1.7498 0.10179-2.1929 0.91271-3.7942 1.1535-2.2779 3.7996-4.9902 6.8204-6.9911 1.2264-0.81231 11.714-6.5792 23.305-12.815l21.075-11.338 2.0092-0.21498c4.2984-0.45993 14.458-0.85444 22.602-0.87763l8.5256-0.02427 1.7828 0.75415c2.2424 0.94857 6.0356 3.309 7.3536 4.5761 1.2223 1.1751 4.5951 5.7015 6.4119 8.605 1.7746 2.8361 3.7811 6.8903 4.52 9.1328 0.55487 1.684 0.58761 2.1147 0.43876 5.7711-0.18078 4.441-0.64071 6.958-1.6474 9.0156-1.1393 2.3287-4.1124 4.1123-7.3252 4.3944-2.1658 0.19021-5.2282-0.52879-12.124-2.8465l-4.2508-1.4287 1.1734 1.3051c3.6432 4.0521 5.4087 12.89 3.9081 19.563-1.0996 4.8899-3.6179 7.4538-8.2289 8.378-2.8826 0.57775-55.947 0.76218-58.446 0.20315zm53.842-3.8115c2.3085-0.13464 4.668-0.37976 5.2434-0.5447 1.356-0.3887 2.566-1.6931 3.3237-3.5832 0.54876-1.3689 0.60593-1.9287 0.60964-5.9701 3e-3 -3.4668-0.0996-4.8391-0.46175-6.1646-1.0412-3.8109-2.8607-6.161-6.13-7.9177-0.98889-0.53134-4.4337-1.8607-7.6551-2.954-5.856-1.9876-13.611-5.2668-18.525-7.8335-2.1996-1.1489-2.6907-1.5238-3.1308-2.3903-0.71-1.3977-0.66676-3.8027 0.1119-6.2243l0.60266-1.8743 2.3814-1.1197c2.2576-1.0615 8.1254-3.2666 9.6438-3.624l0.70427-0.16579-0.90101 2.6755c-1.3183 3.9147-1.1615 6.0395 0.56401 7.6394 0.8891 0.82442 2.745 1.2624 4.175 0.98533 3.9-0.75579 4.9155-1.647 7.2081-6.3257l1.7109-3.4915 1.844-1.1028c1.9428-1.1619 5.9703-3.2645 6.2529-3.2645 0.41259 0 0.0396 0.89046-1.7037 4.0679-1.0285 1.8746-2.3262 4.2436-2.8837 5.2645-0.55749 1.0209-1.134 2.4911-1.2812 3.2671-0.70411 3.7127 1.7766 8.5949 5.2657 10.363 2.6653 1.3506 14.68 5.1078 16.324 5.1049 2.3787-0.0042 4.3508-1.3244 5.0118-3.3554 0.52895-1.625 0.94523-5.1335 0.93926-7.9162-4e-3 -1.939-0.12382-2.5256-0.89902-4.4075-1.4358-3.4857-4.1617-7.9843-7.5398-12.443-1.7467-2.3055-3.7337-3.8425-7.0262-5.4347l-2.2094-1.0684-4.6046 0.0017c-5.5283 0.002181-17.27 0.41463-22.679 0.79664l-3.9088 0.27612-21.012 11.436c-11.557 6.2899-21.72 11.936-22.586 12.547-3.0785 2.1733-5.6301 5.5609-5.6374 7.4845-0.0014 0.36852 0.33525 1.2027 0.74812 1.8537 0.59855 0.94382 1.1812 1.4077 2.8749 2.2888 1.1683 0.60781 2.185 1.2036 2.2594 1.3239 0.07438 0.12035-0.05018 1.0908-0.2768 2.1565-0.61242 2.88-0.37394 7.6079 0.51294 10.169 1.1666 3.3692 3.5134 6.2839 6.5125 8.0882 2.7649 1.6634 1.9076 1.614 28.158 1.6225 13.129 4e-3 25.76-0.10244 28.069-0.23709zm-52.669-2.9941c-2.6173-0.70393-5.6112-3.4512-6.8839-6.3169-1.2396-2.791-1.5219-6.6156-0.73592-9.9683 0.64355-2.745 0.58182-3.4057-0.41424-4.4334-0.4691-0.48399-1.7046-1.2955-2.7456-1.8033-2.4305-1.1858-2.7004-1.4976-2.2456-2.5955 0.40619-0.98062 2.612-3.2508 4.2223-4.3455 0.62535-0.42513 10.463-5.8619 21.861-12.082l20.724-11.309 3.6623-0.27246c2.0143-0.14985 8.6505-0.41303 14.747-0.58483l11.085-0.31237 2.1783 1.0794c3.2062 1.5887 4.4072 2.6355 6.7777 5.907 4.3228 5.9658 6.7899 10.893 6.7941 13.569 3e-3 1.8956-0.45941 5.9468-0.7978 6.9901-0.45754 1.4107-1.4544 1.6208-4.2692 0.89974-3.4411-0.88146-11.46-3.5543-12.991-4.3302-2.2634-1.1469-3.8769-4.148-3.6569-6.8015 0.0937-1.1287 0.56473-2.1846 2.687-6.0219 3.87-6.9975 4.1395-8.0324 2.5147-9.6572-0.86781-0.86781-2.141-0.99517-3.8656-0.38668-1.3171 0.46469-5.5014 2.7986-7.5312 4.2006-1.4846 1.0255-1.6244 1.2226-3.1791 4.4829-0.89444 1.8756-1.9073 3.6595-2.2508 3.9641-1.2588 1.1164-4.0034 1.5386-4.803 0.73899-0.62087-0.62087-0.5054-1.6985 0.50591-4.7211 1.0239-3.0603 1.0961-3.7299 0.52193-4.8402-0.96199-1.8603-2.8062-1.7483-8.9289 0.54233-2.9769 1.1137-7.2814 3.1057-8.0156 3.7094-1.8292 1.5041-2.9617 7.8073-1.9294 10.739 0.83384 2.3677 1.4965 2.9789 5.3369 4.9221 5.8194 2.9446 12.162 5.6236 17.475 7.3805 2.7413 0.90662 5.8105 2.0274 6.8204 2.4906 4.9327 2.2623 6.2958 4.9024 6.2958 12.194 0 3.3631-0.0667 3.9482-0.57595 5.0508-0.38468 0.83293-0.82027 1.3441-1.3116 1.5392-1.2376 0.4914-12.326 0.72267-34.576 0.72113-16.476-0.0011-21.53-0.07717-22.501-0.33849zm47.497-3.7354c3.9116-0.09515 7.2595-0.26416 7.4398-0.37559 0.40542-0.25056 0.37503-4.0198-0.05317-6.5949-0.57013-3.4286-1.8033-4.3228-9.5272-6.9078-9.186-3.0743-21.374-8.7072-23.551-10.885-2.3318-2.3318-3.5686-5.9928-3.2517-9.6252 0.09126-1.046 0.11657-1.9019 0.05625-1.9019-0.25402 0-24.641 13.415-25.379 13.961l-0.80932 0.59836 0.87454 0.65581c2.1344 1.6006 2.9402 2.8243 3.6273 5.5088l0.43642 1.7051-0.67643 1.0301c-0.62925 0.95829-0.67624 1.2419-0.67371 4.066 0.0024 2.7621 0.06649 3.166 0.70972 4.4787 0.86549 1.7662 2.6682 3.5845 4.0378 4.0726 0.83412 0.29728 4.5526 0.36595 20.325 0.37536 10.617 0.0063 22.504-0.06633 26.416-0.16147zm27.43-27.174c0.091-0.75746 0.16645-1.8276 0.1677-2.3781 2e-3 -1.0875-1.1874-3.8859-2.787-6.5542-1.3432-2.2407-5.11-7.5286-5.3629-7.5286-0.11378 0-0.28708 0.2656-0.3851 0.59023-0.098 0.32463-1.3455 2.7246-2.7721 5.3332-1.4266 2.6086-2.5934 5.0286-2.5929 5.3777 1e-3 0.80382 0.84074 2.1951 1.626 2.6948 0.75141 0.47815 10.778 3.7692 11.649 3.8239 0.16025 0.01001 0.36581-0.60147 0.45679-1.3589zm-21.057 3.8315c-1.3182-1.4975-2.7587-4.3204-3.1914-6.2537-0.33768-1.5089-0.50144-1.6872-0.99901-1.0877-0.49607 0.59772-3.316 1.7419-5.3259 2.161-5.6569 1.1795-10.704-2.5619-10.704-7.9345v-1.1218l-1.7707 0.74976c-2.0042 0.84862-2.4169 1.3911-2.4226 3.1847l-0.0039 1.2022 4.3939 2.117c6.4293 3.0977 8.7513 4.0568 15.018 6.2035 3.102 1.0626 5.7386 1.9468 5.859 1.9649 0.12047 0.0181-0.26353-0.51532-0.85332-1.1854zm-54.13-21.963c1.9858-1.7845 3.7286-3.2734 3.8729-3.3086 0.14428-0.03521 0.69761 0.64774 1.2296 1.5177 0.84524 1.3821 0.91145 1.6035 0.52465 1.7546-1.5901 0.62133-8.9499 3.2808-9.0793 3.2808-0.08718 0 1.4663-1.46 3.4521-3.2445z" stroke-width=".26232"/></g></svg>
