<?xml version="1.0" encoding="UTF-8"?>
<svg width="105.83mm" height="74.705mm" version="1.1" viewBox="0 0 105.83 74.705" xmlns="http://www.w3.org/2000/svg"><g transform="translate(17.631 -33.638)"><path d="m14.589 106.75c0-1.5308 0.01484-1.5888 0.40406-1.5805 0.22223 5e-3 2.1011 0.35249 4.1753 0.77278l3.7712 0.76417-1.0775 0.224c-0.59262 0.1232-2.4715 0.49053-4.1753 0.8163l-3.0978 0.59229zm-25.927-2.9302c-2.4556-0.87531-3.7522-3.8417-2.8257-6.4645 0.20814-0.5892 0.37844-1.1595 0.37844-1.2674s-0.30513-0.33077-0.67808-0.49531c-2.9215-1.2889-4.1273-5.6539-2.3069-8.351 1.0455-1.5491 1.5008-1.7519 10.348-4.6087 16.653-5.3775 30.123-9.7901 31.558-10.338 0.93159-0.35591 1.6345-0.75107 1.9024-1.0694 0.23369-0.27772 1.4391-2.3927 2.6787-4.6999 1.2396-2.3072 4.2088-7.8315 6.5982-12.276 4.8347-8.9931 4.4406-7.8856 3.6106-10.146-1.1923-3.2478 0.59739-6.2822 4.1153-6.9773 1.945-0.38435 4.9447-0.76069 12.427-1.5591 4.1781-0.44582 9.8593-1.0634 12.625-1.3724 7.3669-0.82308 9.2652-0.76508 11.493 0.35118 1.4181 0.71046 1.9963 1.2364 3.3827 3.0769 1.5318 2.0336 2.9427 4.6981 3.7265 7.0376 0.49452 1.476 0.55412 1.8598 0.4821 3.1039-0.07685 1.3274-0.16214 1.5768-1.3123 3.8371-1.3115 2.5773-2.309 3.8686-3.5431 4.5866-1.0484 0.61-5.6434 2.0835-6.9099 2.2159-1.4497 0.15152-2.6986-0.21375-5.7928-1.6942-3.9057-1.8687-10.904-4.8251-11.047-4.6667-0.02583 0.02857 1.2977 1.0665 2.9411 2.3064 13.506 10.191 15.485 11.727 15.994 12.419 1.1532 1.5681 1.3565 2.4224 1.3586 5.7092 2e-3 2.7133-0.03292 3.0388-0.41081 3.861-0.84688 1.8426-2.6442 3.1198-4.6117 3.2772-0.71528 0.05722-1.7394-0.0469-3.027-0.30778-1.0703-0.21684-1.9659-0.36756-1.9903-0.33494-0.0243 0.03265-0.12794 0.71961-0.23027 1.5266-0.23914 1.886-0.9964 3.5195-2.2423 4.8369-2.308 2.4404-5.3203 3.1597-8.8805 2.1207-6.1062-1.782-11.958-1.7356-17.559 0.1394-5.0476 1.6895-5.8007 2.9914-5.0181 8.6757 0.27602 2.0047 0.27599 2.2262-5.38e-4 3.1757-0.33668 1.1562-1.1876 2.3722-2.0817 2.9747-1.3612 0.91731-1.8457 0.96744-10.963 1.1345-33.82 0.6198-33.201 0.61504-34.188 0.26333zm18.474-2.797c24.966-0.44323 24.196-0.41808 24.881-0.81281 0.34073-0.19621 0.7722-0.66717 0.9588-1.0466 0.32716-0.66517 0.32876-0.77435 0.0449-3.0536-0.39679-3.186-0.37797-4.3578 0.09028-5.623 1.0881-2.9398 2.7411-4.2284 7.3055-5.6945 3.2551-1.0456 5.6896-1.4093 9.46-1.4133 3.5814-0.0041 6.0906 0.34434 8.893 1.2339 2.914 0.92495 5.0366 0.50872 6.6286-1.2999 1.0902-1.2385 1.3807-2.2391 1.5301-5.2691 0.0706-1.4321 0.1527-2.6282 0.18245-2.658 0.02973-0.02975 0.71217 0.11393 1.5165 0.31929 4.5376 1.1586 6.2524 1.3187 7.2175 0.67391 1.0225-0.68305 1.2381-1.3509 1.2385-3.8349 3.59e-4 -2.4301-0.23915-3.4117-1.0393-4.2601-0.46486-0.49291-3.9707-3.1805-14.674-11.249-2.6668-2.0104-5.2358-3.9749-5.7089-4.3656-1.7598-1.4532-1.7025-2.3864 0.19865-3.2396 0.824-0.36979 1.3485-0.4782 2.3136-0.4782 1.4454 0 2.3983 0.29651 6.5189 2.0283 3.7043 1.5569 3.9608 1.6703 7.162 3.1674 1.6354 0.76482 3.1029 1.3321 3.5974 1.3907 0.92286 0.1093 2.654-0.31157 5.1236-1.2457 1.8412-0.6964 2.4021-1.2783 3.7364-3.8764 0.91648-1.7845 1.0326-2.1308 1.0326-3.0802 0-2.8396-3.6123-9.0562-5.9576-10.253-0.36782-0.18765-1.235-0.43827-1.927-0.55694-1.1663-0.20001-2.2258-0.11329-14.51 1.1877-14.105 1.4938-18.568 2.0732-19.439 2.5234-1.0293 0.53229-1.374 1.9471-0.80082 3.2877 0.45758 1.0703 0.788 2.2431 0.7901 2.8045 0.0011 0.28629-0.35198 1.1752-0.78455 1.9754-0.43257 0.80018-3.4342 6.3844-6.6703 12.409-3.2361 6.025-6.1918 11.409-6.5683 11.965-1.2185 1.7994 1.994 0.64716-37.508 13.453-6.0694 1.9676-6.4704 2.1713-6.746 3.426-0.19293 0.87842 0.07006 2.077 0.5918 2.697 0.55718 0.66218 1.6929 1.2229 2.4883 1.2284 0.93022 0.0068 1.6836 0.21414 1.6836 0.46395 0 0.12954-0.36366 1.2244-0.80812 2.433-0.44447 1.2086-0.80812 2.4887-0.80812 2.8448 0 0.63934 0.34953 1.3285 0.88968 1.7542 0.35813 0.28221 3.9155 0.29074 17.877 0.0429zm-16.791-1.8924c0-0.15396 0.36366-1.2832 0.80812-2.5093 0.87445-2.4124 0.95949-3.0378 0.52682-3.8745-0.3476-0.67219-1.06-0.98009-2.6604-1.1498-0.83447-0.0885-1.3446-0.24005-1.5714-0.46679-0.3839-0.3839-0.44279-1.1062-0.11126-1.3647 0.12346-0.09627 5.0328-1.7268 10.91-3.6233 18.932-6.1096 29.188-9.5216 30.316-10.085 1.259-0.62912 2.2664-1.6815 3.2551-3.4007 0.36926-0.64201 2.8804-5.2887 5.5804-10.326 2.7-5.0373 5.5792-10.406 6.3982-11.93 0.88614-1.6492 1.5365-3.0869 1.606-3.5504 0.12924-0.86181-0.22211-2.5284-0.8085-3.835-0.27819-0.61989-0.3097-0.84344-0.14134-1.0029 0.3302-0.31278 4.5514-0.85659 16.469-2.1217 15.977-1.696 15.3-1.6386 16.462-1.3949 1.2722 0.26685 1.6741 0.53363 2.6204 1.7396 1.0818 1.3786 1.8588 2.7116 2.6413 4.5319 1.094 2.5445 1.094 2.5247-0.0068 4.6587-0.52424 1.0164-1.1389 2.0482-1.3658 2.293-0.45241 0.4879-4.4815 1.9021-5.4191 1.9021-0.29026 0-1.4049-0.41244-2.4769-0.91652-3.0636-1.4406-7.8221-3.5224-10.569-4.624l-2.5142-1.0082-2.0652-3e-3c-2.0123-0.0029-2.097 0.01324-3.3071 0.63128-1.6827 0.85938-2.3033 1.644-2.4042 3.0399-0.13791 1.9066 0.11983 2.1643 8.4051 8.4029 12.161 9.1573 13.734 10.377 13.957 10.82 0.2325 0.4634 0.32742 4.0282 0.12154 4.5647-0.07362 0.19184-0.3364 0.28406-0.80944 0.28406-0.6403 0-4.4753-0.79035-6.1551-1.2685-0.95568-0.27203-1.7449-0.08621-2.3598 0.55562-0.51016 0.53249-0.51914 0.57877-0.67062 3.4547-0.12352 2.3452-0.22526 3.0652-0.52046 3.6831-0.45026 0.94253-1.2341 1.5632-2.3517 1.8621-0.75965 0.20317-0.98323 0.18483-2.1517-0.17651-2.1461-0.66365-5.1793-1.2435-7.6607-1.4643-5.1824-0.46132-11.594 0.68642-16.153 2.8916-2.5575 1.2371-4.4111 3.4931-5.1493 6.2669-0.33817 1.2708-0.33336 2.3732 0.02325 5.3327 0.15949 1.3236 0.23364 2.463 0.16477 2.532-0.15403 0.15421-6.336 0.29736-24.07 0.55737-7.5066 0.11006-14.355 0.23883-15.22 0.28616-1.3402 0.07339-1.5714 0.04487-1.5714-0.19389zm19.215-2.946c7.4572-0.1013 14.692-0.23302 16.078-0.29272l2.5198-0.10854-0.14437-1.5516c-0.36227-3.8934 0.8306-7.2604 3.5452-10.007 1.8145-1.8356 3.9758-2.954 8.171-4.2281 3.0356-0.92188 5.3364-1.2641 9.1587-1.3623 4.0205-0.10332 6.3932 0.14978 9.8443 1.0501 1.1539 0.30103 2.2596 0.58223 2.4572 0.6249 0.78208 0.16892 0.87756-0.11753 1.006-3.018 0.06696-1.5122 0.21219-3.0413 0.32272-3.3981 0.49446-1.596 1.9218-2.8147 3.7377-3.1911 0.99967-0.20725 1.5701-0.1368 4.0923 0.50541 0.79017 0.20119 1.588 0.36705 1.7729 0.36856 0.65957 0.0054 1.0356 0.30264-12.368-9.7774-7.2042-5.4177-8.8145-6.824-9.5701-8.3577-0.65134-1.3221-0.69453-3.5808-0.09347-4.8878 1.2699-2.7612 5.0193-4.6482 8.7463-4.4017 2.3094 0.15272 5.705 1.4059 13.704 5.0573l3.448 1.574 3.3402-1.1161 0.60826-1.1452c0.47137-0.88751 0.57938-1.2604 0.4799-1.6567-0.24054-0.95843-1.3092-3.0286-2.237-4.3334l-0.92575-1.302h-1.1359c-1.0594 0-8.276 0.73568-22.201 2.2632-3.21 0.35214-5.8529 0.65671-5.8731 0.67682-0.02016 0.02012 0.03151 0.51882 0.11482 1.1082 0.19527 1.3815-0.02276 2.7176-0.66863 4.0976-0.44614 0.95326-8.7801 16.541-12.207 22.832-2.1224 3.896-3.2157 5.1806-5.4001 6.3449-1.1757 0.62664-7.0621 2.6093-24.633 8.2966-6.1732 1.9982-11.284 3.6672-11.357 3.7089-0.073096 0.04167 0.07531 0.48672 0.32979 0.98892 0.61024 1.2042 0.73507 2.5009 0.36374 3.7782-0.16019 0.55103-0.29125 1.0382-0.29125 1.0826 0 0.04439 0.38386 0.05376 0.85302 0.02084 0.46916-0.03292 6.9544-0.14271 14.412-0.24401z" stroke-width=".17958"/></g></svg>
