<?xml version="1.0" encoding="UTF-8"?>
<svg width="159.68mm" height="97.41mm" version="1.1" viewBox="0 0 159.68 97.41" xmlns="http://www.w3.org/2000/svg"><g transform="translate(-26.497 -48.898)"><path d="m33.808 146.16c-2.8484-0.5868-5.3603-2.576-6.6044-5.2301-0.60162-1.2835-0.70649-1.8607-0.70649-3.8884 0-2.0532 0.09861-2.5817 0.71576-3.8365 1.4287-2.9046 2.5092-3.6485 10.424-7.1769 16.155-7.202 18.974-8.169 23.814-8.169 1.2335 0 3.1605-0.20836 4.2822-0.46302 3.0669-0.69631 5.3956-0.60509 7.331 0.28718 0.87312 0.40252 2.0819 1.2155 2.6862 1.8066l1.0987 1.0747 1.3202-0.43851c1.2229-0.40619 1.3414-0.5227 1.6078-1.5805 0.58092-2.307 3.4619-5.3964 6.6683-7.1506 2.5259-1.3819 5.7195-1.8059 8.3422-1.1075 1.8843 0.50176 2.2198 0.25535 2.2271-1.6358 7e-3 -1.7076 0.68974-3.4733 1.7957-4.6415 0.39161-0.4136 1.724-1.2576 2.961-1.8755s4.4944-2.4648 7.2388-4.104c5.8771-3.5105 7.8036-4.4521 9.9399-4.8581 1.53-0.29076 1.5927-0.33564 2.0157-1.4433 0.24012-0.62874 0.74315-1.5075 1.1178-1.9528 0.65819-0.7822 19.927-17.109 26.747-22.663 1.8394-1.498 5.3994-4.0579 7.911-5.6885 2.5116-1.6307 7.4527-4.8593 10.98-7.1747 3.5275-2.3154 6.8898-4.419 7.4719-4.6745 1.734-0.7612 3.3302-0.88071 5.0573-0.37865 3.6485 1.0606 5.9229 4.0484 5.9229 7.7805 0 1.6224-2.4194 10.989-3.6292 14.05-3.4544 8.7411-8.8662 14.965-18.464 21.235-5.545 3.6223-10.845 4.9237-17.066 4.1905-1.3824-0.16294-3.7252-0.43266-5.2061-0.59938l-2.6925-0.30314-1.6103 1.0339c-1.3394 0.85998-1.6589 1.2117-1.8991 2.0908-1.0837 3.9649-3.7816 6.4465-7.642 7.0293-5.0834 0.76744-7.5792 1.5513-10.627 3.3378-2.2291 1.3064-3.2401 2.2657-5.2492 4.9803-3.8232 5.1657-7.2949 7.7335-13.228 9.7835-1.528 0.52797-3.3011 1.2663-3.9403 1.6408s-2.7823 2.2501-4.7625 4.1681c-4.0338 3.9071-5.2036 4.7852-8.3218 6.2464-6.2286 2.9188-11.272 2.9034-15.003-0.046l-1.335-1.0552-1.4204 0.29487c-0.84169 0.17473-3.3967 0.26216-6.2712 0.21458-4.7532-0.0787-4.8804-0.0664-6.3181 0.60791-1.8623 0.87348-3.1038 1.9662-4.5752 4.0269-1.3972 1.9567-3.3181 3.7998-4.9416 4.7414-2.2264 1.2912-5.9198 1.9763-8.1634 1.5141zm4.2092-4.3837c1.9624-0.58278 3.5109-1.7149 4.972-3.6351 2.3865-3.1362 3.9963-4.6304 6.151-5.7088 2.8355-1.4192 5.0801-1.7709 8.6233-1.351 3.0053 0.35616 4.7358 0.2146 7.0456-0.57636 1.884-0.64513 2.5092-0.5044 3.3599 0.7563 0.8483 1.2571 2.6575 2.4025 4.148 2.626 2.3332 0.34989 7.0543-1.0903 10.165-3.1009 0.91797-0.59332 3.3416-2.7038 5.3857-4.6899 4.1276-4.0103 5.522-4.9014 9.9474-6.3565 4.5348-1.4911 7.8457-3.9591 10.803-8.0529 3.4942-4.8368 7.6862-7.6367 13.673-9.1322 1.1561-0.28881 2.7568-0.60441 3.5572-0.70134 0.80037-0.0969 1.8889-0.28694 2.4189-0.42224 1.3634-0.34803 2.7494-1.9778 3.2894-3.868 0.24075-0.84276 0.71096-1.8971 1.0449-2.3431 0.87879-1.1735 4.6533-3.5747 5.865-3.7311 0.55431-0.0716 2.9447 0.11742 5.312 0.41995 2.3673 0.30254 5.3546 0.55007 6.6384 0.55007 5.3917 0 10.095-2.1809 17.569-8.1476 5.0942-4.0663 9.4449-10.554 11.42-17.031 0.38402-1.259 1.1606-4.0879 1.7257-6.2864 0.84091-3.2715 0.98165-4.1632 0.77511-4.9113-0.54596-1.9773-2.4625-3.2832-4.3098-2.9366-0.47757 0.08959-2.7022 1.3826-4.9437 2.8734s-5.9208 3.8903-8.1764 5.3323c-9.9759 6.3776-10.431 6.7173-21.299 15.889-3.638 3.0703-9.1606 7.7143-12.272 10.32-6.0145 5.0363-6.6384 5.7732-6.0961 7.1997 0.1547 0.40688 0.47069 0.94908 0.7022 1.2049s0.33947 0.5466 0.2399 0.64617c-0.0996 0.0996-1.5177 0.26975-3.1513 0.37818-4.2977 0.28526-4.059 0.18737-11.878 4.8715-2.8133 1.6853-5.9867 3.4795-7.052 3.987-2.085 0.99326-2.7811 1.9068-2.5147 3.3004 0.35165 1.8395-1.3976 4.6684-3.2684 5.2858-0.56692 0.1871-1.5286 0.24229-2.43 0.13944-4.1282-0.47105-4.515-0.47592-5.701-0.0718-1.5921 0.54249-4.5171 2.6536-5.326 3.844-0.35618 0.52417-0.78253 1.6389-0.94744 2.4771s-0.45588 1.6536-0.6466 1.8118c-0.56966 0.47277-5.749 2.3672-6.472 2.3672-0.80564 0-1.6167-0.53901-2.8271-1.8788-1.0431-1.1546-2.8081-2.0915-3.9305-2.0865-0.427 2e-3 -1.9075 0.23847-3.2899 0.52569-1.3853 0.28782-3.5824 0.52581-4.8948 0.53022-4.2692 0.0144-5.8982 0.57162-20.241 6.9243-8.2502 3.6542-9.4274 4.3292-10.229 5.8642-0.63432 1.2148-0.50495 3.4434 0.27736 4.7784 1.3582 2.3176 3.6755 3.04 6.7873 2.1159zm-3.8853-3.113c-0.54008-0.46456-0.72913-0.86975-0.72913-1.5628 0-1.176 0.45224-1.727 1.9579-2.3856 0.65484-0.28646 4.7768-2.1055 9.1599-4.0422 11.229-4.9616 12.53-5.39 17.298-5.6953 2.1101-0.13512 4.5307-0.42275 5.3792-0.63917 2.5616-0.65338 2.9091-0.57167 4.4406 1.0442 1.7081 1.8022 3.5319 2.6529 5.2505 2.4494 0.66246-0.0785 2.5135-0.64661 4.1134-1.2626 3.6804-1.4169 4.6845-2.3157 5.1526-4.6121 0.27803-1.3639 0.50271-1.7547 1.6152-2.809 2.1316-2.0201 3.7089-2.4761 6.1858-1.7885l1.0488 0.29119-1.4696 0.59791c-2.3002 0.93582-3.8453 2.1152-7.8435 5.9872-3.1452 3.046-4.0752 3.784-6.0554 4.8055-2.4856 1.2822-4.9486 2.047-6.5926 2.047-0.88539 0-1.1909-0.19689-2.6331-1.697-2.2224-2.3116-3.129-2.5839-5.8943-1.7704-2.7976 0.82307-4.0856 0.93296-6.7613 0.57688-5.2016-0.6922-10.495 1.0304-14.03 4.5659-0.60643 0.60648-1.773 2.0092-2.5924 3.1172-1.1597 1.5682-1.7999 2.1691-2.8893 2.712-1.7737 0.88389-3.139 0.90722-4.112 0.0703zm69.329-25.831c0.10191-0.36381 0.3164-1.4032 0.47664-2.3098l0.29136-1.6484 2.6331-1.4496c2.5508-1.4043 2.6114-1.4231 1.9383-0.60062-0.38216 0.46696-1.5072 1.9206-2.5001 3.2303-0.99291 1.3097-2.0796 2.6194-2.4149 2.9104l-0.60964 0.52917zm24.876-18.061-0.55405-0.85662 6.4741-5.424c3.5608-2.9832 8.9298-7.4993 11.931-10.036 7.8435-6.6286 10.103-8.3685 14.856-11.439 2.3283-1.5041 7.0852-4.6099 10.571-6.9019 3.4857-2.292 6.5161-4.1672 6.7343-4.1672 1.0297 0 0.95552 0.89679-0.52324 6.3248-1.6646 6.1103-2.8387 9.0266-4.9124 12.202-2.9523 4.5212-5.6059 7.0836-11.479 11.085-3.3234 2.264-4.356 2.7859-6.8823 3.479-2.4098 0.66112-5.5202 0.62632-12.035-0.13465-4.9553-0.57878-5.3481-0.50292-8.662 1.6731-2.657 1.7447-3.8979 2.94-4.3586 4.1985-0.17316 0.47294-0.38021 0.85842-0.46011 0.85662-0.0799-2e-3 -0.39461-0.38875-0.69935-0.85989zm25.992-10.016c2.5576-0.78996 7.7887-4.4257 11.302-7.8551 2.002-1.9542 3.5734-4.0489 5.0006-6.6661 0.93519-1.7148 2.4196-5.5376 2.2257-5.7316-0.0562-0.0562-2.173 1.2256-4.7039 2.8485-9.6882 6.2123-9.8262 6.3139-18.084 13.314-2.7584 2.3382-4.842 4.2817-4.6302 4.319 3.743 0.65821 6.2258 0.59448 8.8893-0.22819zm-16.839-12.84c0-0.17727 7.6957-9.2161 7.8937-9.2714 0.30656-0.08561 2.9795 3.4375 2.7636 3.6427-0.3105 0.29513-10.657 5.7598-10.657 5.6287z" stroke-width=".26458"/></g></svg>
