<?xml version="1.0" encoding="UTF-8"?>
<svg width="105.83mm" height="83.757mm" version="1.1" viewBox="0 0 105.83 83.757" xmlns="http://www.w3.org/2000/svg"><g transform="translate(-41.032 -87.107)"><path d="m92.273 169.91c-2.1703-0.51434-3.9966-0.9858-4.0584-1.0477-0.06189-0.0619 1.9154-0.41631 4.394-0.78761s4.56-0.62159 4.6254-0.55619c0.06539 0.0654 0.0552 0.84911-0.02265 1.7416-0.12944 1.4838-0.17795 1.6211-0.56695 1.6039-0.23397-0.0103-2.2011-0.43963-4.3713-0.95397zm-2.1717-4.4325c-25.428-0.0825-34.567-0.17254-35.042-0.34524-1.4668-0.53312-3.1482-1.601-3.9833-2.5298-3.3034-3.6742-3.0766-9.3234 0.50766-12.642 0.91522-0.84734 2.5158-1.8222 6.8203-4.154 3.0934-1.6758 5.6781-3.1336 5.7436-3.2397 0.17501-0.28317-0.07012-0.42628-5.5957-3.2669-4.433-2.2789-5.2065-2.7486-6.2766-3.811-1.5723-1.561-1.9478-2.371-4.7-10.137-1.2315-3.475-3.1213-8.8003-4.1996-11.834-2.5795-7.2571-2.7804-8.5246-1.8021-11.368 0.70687-2.0546 1.9953-3.4685 4.1511-4.5557 1.453-0.73273 7.2829-2.6919 8.6533-2.908 3.1222-0.4923 6.3949 1.0842 8.2174 3.9585 0.32538 0.51316 1.2431 2.7833 2.0393 5.0448 0.79626 2.2615 1.5059 4.1768 1.5769 4.2563 0.07103 0.0794 0.42747-2.493 0.79208-5.7165 1.0982-9.7094 1.2522-10.29 3.3227-12.526 2.0266-2.1889 4.6147-2.9926 7.7713-2.413 3.1024 0.56967 5.173 1.9623 6.2692 4.2164 0.28107 0.578 0.74266 2.2243 1.0258 3.6584 0.81728 4.1402 1.2875 4.934 5.257 8.8742 3.7095 3.6822 4.3728 4.7091 4.5978 7.1194 0.15346 1.6434-0.06229 2.7869-1.5237 8.0757-0.85178 3.0826-1.0951 4.2286-0.90739 4.2734 0.47255 0.11294 3.3881-0.97866 4.7289-1.7705 2.5082-1.4813 5.2572-3.9105 6.6911-5.9127 1.6369-2.2858 3.4983-6.5254 6.8276-15.551 1.2534-3.3978 2.0036-4.9537 2.9312-6.079 0.87181-1.0577 2.913-2.452 4.5122-3.0824 1.3575-0.53506 1.4657-0.54494 6.789-0.61979 5.9625-0.08384 7.1046 0.03932 8.9354 0.96354 1.9947 1.0069 3.1779 2.5462 6.2568 8.1394 3.758 6.8272 3.6678 6.6081 3.668 8.9078 1.9e-4 3.1304 0.20203 2.8138-9.1626 14.376-2.5172 3.1079-4.5768 5.7526-4.5768 5.8773 0 0.20113 2.5681 4.0663 11.731 17.656 4.3517 6.4541 4.7162 7.2224 4.7162 9.9438 0 4.0841-2.4707 7.453-6.4185 8.7521-1.6042 0.52789-1.5621 0.52758-50.345 0.36927zm49.77-3.4812c2.6393-1.0278 4.3668-4.0586 3.7873-6.6446-0.31906-1.4238-0.75101-2.1647-4.5098-7.736-12.994-19.26-12.647-18.666-11.769-20.155 0.23265-0.39432 2.7034-3.5349 5.4905-6.9792 2.7871-3.4442 5.5044-6.8038 6.0384-7.4657 1.969-2.4407 2.491-3.8413 2.0562-5.5175-0.30029-1.1576-5.5555-10.734-6.5031-11.85-0.36779-0.43325-1.0899-1.0353-1.6046-1.3379l-0.9359-0.55017h-11.633l-1.3038 0.62575c-1.6922 0.81221-3.0415 2.1861-3.6945 3.7618-0.28002 0.67573-1.4679 3.7559-2.6397 6.8448-2.1836 5.756-4.3424 10.553-5.5182 12.262-1.8658 2.7118-6.2082 6.407-9.2719 7.8899-2.949 1.4274-6.1015 1.9735-7.6523 1.3256-0.5329-0.22265-0.73729-0.46695-0.93065-1.1123-0.23066-0.76989-0.17426-1.1 0.81649-4.7793 1.9222-7.1381 2.0134-7.5308 2.0134-8.666 0-1.6516-0.68412-2.876-2.463-4.4081-1.9862-1.7108-4.5239-4.5483-5.4243-6.0654-0.89452-1.5072-1.6046-3.6569-2.0435-6.1868-0.38335-2.2095-0.6265-2.7304-1.7059-3.6542-1.0254-0.87768-2.2855-1.2491-4.209-1.2407-2.3383 0.01024-3.6953 0.90805-4.689 3.1024-0.44001 0.97162-0.65262 2.4284-1.7829 12.216-1.2182 10.549-1.3066 11.132-1.7403 11.483-0.61259 0.49605-1.2552 0.46651-1.7681-0.0813-0.2485-0.26539-1.544-3.6258-3.1447-8.1573-1.4972-4.2383-2.9474-8.0903-3.2226-8.5599-0.89496-1.5271-2.7811-2.6886-4.3659-2.6886-0.82565 0-7.2331 2.1271-8.6395 2.8682-0.64462 0.33963-1.3812 0.89379-1.6368 1.2315-0.75844 1.002-1.1749 2.574-1.0354 3.9086 0.12879 1.2322 8.0304 23.835 9.086 25.991 0.30817 0.62937 0.91194 1.4453 1.3417 1.8132 0.42977 0.36786 3.0436 1.8251 5.8085 3.2383 5.4377 2.7793 6.3823 3.4619 6.7667 4.8896 0.24649 0.91541 0.0081 2.3787-0.49832 3.0589-0.1493 0.20054-2.9055 1.7906-6.1249 3.5334-3.2194 1.7428-6.2437 3.495-6.7207 3.8937-1.9797 1.6548-2.5909 4.6393-1.4342 7.0035 0.80183 1.6389 2.3164 2.7712 4.2129 3.1497 0.45851 0.0915 19.156 0.15305 41.551 0.13676 38.728-0.0281 40.763-0.0473 41.647-0.3915zm-83.318-2.0298c-1.193-0.42731-1.8406-1.0537-2.2895-2.2144-0.53515-1.3839-0.20011-2.7523 0.94745-3.8698 0.36904-0.35936 3.3628-2.1053 6.6528-3.8799 6.2005-3.3445 6.594-3.6285 7.2712-5.2492 0.48425-1.159 0.40231-3.4432-0.16741-4.6667-0.74076-1.5908-1.8585-2.3841-7.2929-5.1762-2.7579-1.417-5.2526-2.7972-5.5436-3.067-0.29103-0.26986-0.71065-0.84643-0.9325-1.2813-0.22184-0.43485-2.2589-6.0047-4.5267-12.377-2.7567-7.7463-4.1562-11.952-4.2224-12.69-0.11929-1.3294 0.29659-2.2778 1.2898-2.9411 0.75152-0.50192 7.1146-2.675 7.8327-2.675 0.78803 0 1.8448 0.62437 2.3446 1.3852 0.26043 0.39645 1.6918 4.1793 3.1808 8.4064 1.489 4.2271 2.8749 7.9726 3.0797 8.3233 0.45783 0.78391 1.4713 1.4891 2.3869 1.6608 1.4695 0.27567 3.4004-0.76116 3.9091-2.099 0.10662-0.28044 0.77016-5.4934 1.4745-11.584 1.3948-12.061 1.4484-12.315 2.7676-13.12 1.1117-0.67783 3.4257-0.43504 4.4581 0.46776 0.41156 0.3599 0.57912 0.83302 0.90239 2.548 0.64319 3.4122 1.4419 5.5302 2.8719 7.6159 0.9994 1.4576 3.2608 3.9286 4.8085 5.2544 0.79348 0.67965 1.6001 1.4692 1.7924 1.7546 0.62099 0.92134 0.44036 2.2171-1.0656 7.6442-1.6316 5.8799-1.7556 6.9639-0.97593 8.5367 1.0235 2.0647 3.2883 2.7288 6.792 1.9918 6.4834-1.3638 13.25-6.8716 16.514-13.442 0.85015-1.7112 2.9686-6.9781 5.0817-12.634 1.7486-4.6804 2.2238-5.4243 3.9924-6.2496 0.96973-0.45254 1.176-0.46807 6.238-0.46997l5.2351-2e-3 0.78225 0.56695c0.63793 0.46234 1.3329 1.5567 3.7669 5.9315 3.3154 5.9591 3.4216 6.2839 2.5053 7.6632-0.28548 0.42975-3.259 4.1661-6.6079 8.303-3.3489 4.1369-6.2582 7.8578-6.4652 8.2686-0.52437 1.0407-0.63881 2.1939-0.32885 3.3139 0.16694 0.60316 1.2327 2.3909 2.9002 4.8648 10.409 15.443 13.33 19.893 13.556 20.646 0.47854 1.5972-0.41686 3.5798-1.9638 4.3482-0.74037 0.36775-1.9968 0.38052-41.481 0.42158-33.704 0.035-40.847-5e-3 -41.471-0.22774zm81.756-3.361c0.17463-0.27685-1.2252-2.4847-7.8211-12.336-5.4726-8.1732-8.1521-12.35-8.4049-13.101-0.53019-1.576-0.48572-3.7767 0.10718-5.3038 0.45838-1.1806 1.0375-1.9318 11.114-14.416 2.3857-2.9557 2.3971-2.9749 2.0895-3.5101-0.1701-0.29601-1.3173-2.3574-2.5494-4.581s-2.3652-4.1466-2.518-4.2735c-0.19572-0.16244-1.5538-0.21251-4.5923-0.16932-3.9573 0.05625-4.3592 0.09476-4.8549 0.46529-0.43267 0.32339-0.98965 1.5835-2.7926 6.3182-3.5476 9.3162-4.494 11.427-6.43 14.338-2.4913 3.7471-6.9761 7.6378-11.333 9.8321-8.6307 4.3464-16.059 2.1104-16.402-4.937-0.07982-1.6402-0.01458-1.9769 1.3432-6.931 0.7849-2.8639 1.4271-5.3485 1.4271-5.5214 0-0.17291-1.1142-1.4316-2.4759-2.797-1.3617-1.3654-2.906-3.0693-3.4318-3.7864-1.7795-2.4272-3.1189-5.6254-3.7169-8.8755-0.3065-1.6657-0.70686-1.8023-0.88218-0.30087-0.06763 0.57917-0.62438 5.4306-1.2372 10.781-0.61284 5.3504-1.2073 10.089-1.3211 10.53-0.96999 3.762-5.507 5.8528-9.1514 4.2173-1.3645-0.61235-2.5644-1.7568-3.2492-3.0993-0.23214-0.45502-1.5924-4.1421-3.0228-8.1935s-2.6411-7.4738-2.6904-7.6054c-0.10937-0.29176-5.76 1.5411-5.8823 1.908-0.04357 0.13069 0.64358 2.2908 1.527 4.8003 4.5988 13.064 6.668 18.799 6.9205 19.182 0.15402 0.23334 2.5696 1.5976 5.368 3.0318 4.369 2.2391 5.275 2.7837 6.4119 3.8545 0.99243 0.93473 1.4955 1.6129 2.0086 2.7078 0.65529 1.3982 0.6846 1.56 0.6846 3.7781 0 2.2753-0.0137 2.345-0.75535 3.8454-0.5093 1.0303-1.0737 1.8109-1.7327 2.3962-0.59557 0.52903-3.2151 2.0697-6.7057 3.944-3.1506 1.6917-5.8334 3.2024-5.9618 3.3571-0.12841 0.15473-0.181 0.41809-0.11686 0.58524 0.10374 0.27032 4.5745 0.29831 40.467 0.25327 37.548-0.0472 40.365-0.0741 40.563-0.38783z" stroke-width=".20058"/></g></svg>
