<?xml version="1.0" encoding="UTF-8"?>
<svg width="105.83mm" height="63.328mm" version="1.1" viewBox="0 0 105.83 63.328" xmlns="http://www.w3.org/2000/svg"><g transform="translate(31.225 -40.973)"><path d="m-13.176 103.93c-1.5349-0.56238-2.6346-1.5176-3.6638-3.1824-0.52242-0.84512-2.174-2.669-3.7837-4.1784-2.4126-2.2623-2.9406-2.9032-3.3972-4.1235-0.29733-0.79467-0.54202-1.8812-0.54377-2.4145-3e-3 -0.8956-0.15424-1.0881-1.9815-2.5203-3.8794-3.0409-5.2617-5.6025-4.4603-8.2654 0.193-0.64128 1.6423-3.1025 3.2206-5.4694 1.5783-2.3669 4.6766-7.1696 6.885-10.673 4.2983-6.8181 5.6551-8.4458 7.9951-9.5906 2.7858-1.3629 5.3272-0.56628 9.1234 2.86 0.94371 0.85173 1.8074 1.4444 1.9193 1.317 0.1119-0.12738 1.1645-1.3679 2.339-2.7568 3.1517-3.7268 5.0097-4.7651 7.3829-4.1261 0.62553 0.16844 3.4785 1.9094 6.7294 4.1064 3.1039 2.0977 6.76 4.568 8.1247 5.4895 3.3777 2.2809 4.261 2.6972 6.2529 2.9473 3.5111 0.44078 20.391 2.3354 20.807 2.3354 0.6628 0 0.30428-1.9562-1.223-6.6733-0.71731-2.2154-1.3715-4.7642-1.4538-5.6641-0.17606-1.9259 0.42075-5.7263 1.2454-7.9303 1.2118-3.2388 3.9814-4.9739 6.8745-4.3068 1.6242 0.37453 3.0129 1.3078 3.943 2.6499 0.53562 0.7729 0.93348 1.0547 1.6534 1.1711 2.7273 0.44083 4.6842 1.7494 5.3724 3.5927 0.5973 1.5996 3.3102 34.267 3.0049 36.183-0.25395 1.5933-0.90031 2.7653-3.044 5.5194-1.9991 2.5683-3.4732 3.4896-5.7906 3.6189-2.0089 0.11211-16.424-1.5981-18.544-2.2-1.6808-0.47723-3.9462-2.5611-4.4528-4.0961-0.17604-0.53339-0.47112-0.96981-0.65573-0.96981-0.18462 0-0.70456 0.73458-1.1554 1.6324-0.96407 1.9198-2.2235 2.9734-3.8448 3.2165-1.3086 0.19623-11.742-0.79413-13.69-1.2995-0.70619-0.18318-1.6924-0.61292-2.1916-0.95496-1.1159-0.76463-2.7051-3.1256-3.1015-4.6078-0.24641-0.9213-0.42554-1.1302-1.092-1.2734-1.99-0.42768-4.0263-1.693-7.1622-4.4504-1.7769-1.5625-3.3049-2.8675-3.3954-2.9-0.2682-0.09642-2.6358 5.8515-3.1847 8.0008-0.27862 1.0909-1.0352 4.3341-1.6814 7.2072-1.6683 7.4181-1.9475 8.4576-2.6663 9.925-0.83013 1.6948-1.287 2.1903-2.5573 2.7736-1.237 0.56804-2.7446 0.59717-4.1553 0.0803zm3.3505-3.8333c0.47472-0.72923 1.0656-2.9697 2.6347-9.9903 0.67423-3.0167 1.4569-6.3663 1.7392-7.4435 0.44865-1.7118 3.781-10.053 4.8321-12.095l0.37742-0.7333 2.3703 2.1698c4.3571 3.9886 7.3846 6.502 8.5705 7.1152 1.0795 0.55815 3.0881 1.0954 4.7013 1.2575 0.62458 0.06276 0.65296 0.14124 0.65296 1.8055 0 1.5164 0.10212 1.8855 0.79487 2.873 0.43718 0.62323 1.084 1.2726 1.4373 1.443 0.70452 0.33976 9.6847 1.3879 11.891 1.3879 1.1785 0 1.4581-0.10005 1.9199-0.68706 0.29724-0.37788 0.66498-1.1712 0.8172-1.763 0.15222-0.59177 0.39811-1.4619 0.54641-1.9336l0.26965-0.85764 2.001 0.17861c1.1006 0.09823 2.5887 0.24911 3.307 0.33527l1.3059 0.15667 0.13059 1.4483c0.15122 1.6771 0.71973 2.6797 1.8512 3.2648 0.4995 0.2583 3.5743 0.75565 8.1596 1.3198 8.7038 1.0709 10.035 1.1488 10.984 0.64252 1.103-0.58867 4.104-4.7882 4.2554-5.9549 0.11926-0.9193-1.1533-17.516-2.2347-29.147-0.57619-6.1965-0.53846-6.1262-3.4607-6.4439-1.7625-0.19161-1.9799-0.28187-2.5778-1.0704-1.4479-1.9096-2.5355-2.8456-3.3066-2.8456-1.6148 0-2.4254 1.1202-3.0704 4.2429-0.6587 3.189-0.54944 4.9173 0.50875 8.0468 1.9314 5.7121 2.4716 8.6954 2.0434 11.286-0.12792 0.77394-0.30551 1.0191-0.83444 1.1518-0.86043 0.21596-5.3688-0.20299-17.358-1.613l-9.6111-1.1303-1.881-1.1172c-1.0346-0.61444-2.9976-1.8812-4.3623-2.8151-9.4552-6.4703-12.429-8.3881-13.005-8.3881-0.39583 0-0.99888 0.37336-1.5871 0.9826-2.0209 2.0931-4.3089 4.9798-5.4759 6.909-0.6704 1.1082-1.2777 2.0163-1.3495 2.018-0.071825 0.0016-0.65949-0.77305-1.3059-1.7216-1.294-1.8988-3.3191-3.867-5.4012-5.2497-1.0921-0.72522-1.5061-0.8647-2.1479-0.72373-1.6401 0.36023-3.2064 2.2372-7.3581 8.8175-2.1989 3.4852-5.2684 8.2541-6.8211 10.597-1.5527 2.3434-2.823 4.4487-2.823 4.6784 0 1.3259 3.1471 4.5628 5.5507 5.709l0.97893 0.46682 0.0057 1.7146c0.0084 2.5187 0.52868 3.4058 3.7374 6.3728 1.7237 1.5939 3.047 3.063 3.4869 3.8712 0.78287 1.4384 1.6093 2.0223 2.8848 2.0381 0.59395 7e-3 0.9558-0.16308 1.2254-0.57721zm-2.46-3.8943c-0.35913-0.57772-1.8433-2.0993-3.2983-3.3813-2.9304-2.5821-2.9702-2.6609-2.9702-5.8816 0-2.1262-0.46998-2.971-1.6529-2.971-0.72972 0-2.5891-1.1931-3.781-2.4262l-0.86314-0.89296 3.2317-4.9353c1.7775-2.7144 4.6742-7.2449 6.4372-10.068 1.763-2.8228 3.5407-5.4536 3.9506-5.8463l0.74513-0.71388 0.81272 0.51458c1.3673 0.86573 3.6336 3.2237 5.005 5.2076 0.85354 1.2347 1.5631 1.9754 2.0576 2.1477l0.75481 0.26313-0.62114 1.1268c-1.159 2.1026-4.8508 11.176-5.4806 13.471-0.34464 1.2554-1.1768 4.7508-1.8493 7.7675-0.67245 3.0167-1.3583 5.9763-1.524 6.5769l-0.30137 1.092zm-0.43758-9.8179c1.2318-5.5637 1.9377-7.7889 4.1249-13.004l2.0979-5.0021-1.1728-1.6777c-1.1647-1.6662-2.1776-2.7643-2.3601-2.5588-0.05238 0.05897-1.0099 1.5764-2.1277 3.372s-3.3662 5.3379-4.9963 7.8717c-1.6301 2.5338-2.9638 4.6788-2.9638 4.7666s0.3622 0.15972 0.8049 0.15972c1.0402 0 2.956 1.546 3.6988 2.9849 0.38418 0.74418 0.58533 1.726 0.66999 3.2704 0.10078 1.8382 0.21324 2.284 0.67316 2.6685 0.3037 0.25383 0.61104 0.46542 0.68299 0.4702 0.07195 0.0047 0.46261-1.4899 0.86812-3.3214zm63.329 0.32629c-3.6931-0.46738-6.8959-0.9193-7.1173-1.0043-0.3132-0.12019-0.40259-0.58992-0.40259-2.1156 0-2.4482-0.20555-2.6176-3.6566-3.0145-1.3647-0.15696-3.2858-0.39025-4.269-0.51843-2.8252-0.36829-3.4956 0.11436-4.372 3.1473-0.33805 1.1699-0.74053 2.0691-0.92612 2.0691-0.18053 0-2.5877-0.23946-5.3492-0.53214-6.1314-0.64983-5.8329-0.44392-5.7266-3.9504 0.05682-1.8735 0.01941-2.0284-0.586-2.4251-0.35568-0.23305-1.5132-0.52617-2.5722-0.65137-3.5737-0.42248-3.5107-0.3798-13.129-8.898-1.1339-1.0043-2.2309-1.826-2.4377-1.826-0.4515 0-0.49885 0.11449 1.0326-2.4963 1.2593-2.1469 5.2587-7.1676 5.7095-7.1676 0.34358 0 1.2687 0.60333 8.5965 5.6063 9.11 6.2197 8.6515 6.0228 16.16 6.939 19.116 2.3322 21.725 2.469 23.357 1.2243 1.1604-0.88505 1.485-1.9359 1.487-4.8127 0.0016-2.3111-1.1572-7.4231-2.461-10.856-0.73105-1.9251-0.82021-3.1773-0.396-5.5616 0.46669-2.6229 0.45663-2.6111 1.2769-1.4948 1.4809 2.0155 2.6642 2.6875 4.7324 2.6875h0.93415l0.70453 8.0314c0.38749 4.4173 1.0009 11.776 1.363 16.353l0.65852 8.3212-2.9057 3.8605-1.4956-0.03228c-0.82258-0.01776-4.5172-0.41468-8.2103-0.88206zm8.5384-3.4248c0.40487-0.61791 0.41978-1.0198 0.1575-4.2443-0.15935-1.9589-0.35896-4.2405-0.44358-5.0701l-0.15386-1.5084-1.0393 0.93896c-1.3264 1.1983-3.0917 1.9625-4.9151 2.1276-1.627 0.14732-8.6538-0.53799-20.472-1.9966l-8.0656-0.99546-2.1206-1.0865c-1.1663-0.59758-4.9414-3.0115-8.3891-5.3642l-6.2684-4.2777-0.78356 0.93145c-0.43096 0.5123-1.0977 1.3886-1.4816 1.9474l-0.69807 1.0159 1.7428 1.6246c0.95855 0.89355 2.9926 2.7075 4.5201 4.031 2.8567 2.4752 3.762 2.9229 5.9422 2.9386 1.7022 0.0123 2.9912 0.59914 4.4068 2.0063 1.3711 1.363 1.3728 1.3667 1.3369 2.9564-0.01979 0.87543 0.0089 1.6343 0.06366 1.6863 0.05481 0.05206 1.2296 0.17824 2.6108 0.28041l2.5111 0.18576 0.30525-0.87565c0.56139-1.6104 1.6036-2.8041 3.0783-3.5256 1.5437-0.75528 1.7367-0.7576 7.9183-0.09522 5.2557 0.56317 7.1404 1.7302 7.7116 4.7751 0.10013 0.53373 0.31589 0.97581 0.47947 0.9824 0.16358 0.0066 2.3542 0.28684 4.8682 0.62276 6.2489 0.83504 6.6238 0.83444 7.178-0.01136zm12.018-6.1523c0.0765-0.76589 0.25879-2.797 0.40508-4.5135 0.14629-1.7165 0.2935-3.1485 0.32712-3.1821 0.03362-0.03362 0.66892 1.8972 1.4118 4.2908 0.74286 2.3935 1.3286 4.3693 1.3016 4.3906-0.02699 0.02128-0.84457 0.1215-1.8169 0.22273l-1.7678 0.18406z" stroke-width=".26118"/></g></svg>
