<?xml version="1.0" encoding="UTF-8"?>
<svg width="105.83mm" height="44.728mm" version="1.1" viewBox="0 0 105.83 44.728" xmlns="http://www.w3.org/2000/svg"><g transform="translate(-49.561 -138.7)"><path d="m102.99 183.24c-2.6105-0.38218-6.5242-1.537-8.4454-2.4921-1.2598-0.62629-3.1671-1.3584-4.3045-1.6523-0.94868-0.24512-1.1611-0.24673-11.291-0.0852-9.5046 0.15154-10.726 0.0756-14.546-0.90436-3.8101-0.9774-4.0085-1.0036-5.8751-0.7764-2.2032 0.26819-3.6891 0.0594-5.3435-0.75058-2.1626-1.0589-3.2154-2.6044-3.5524-5.2149-0.33024-2.5583 0.4428-5.0517 2.1429-6.912 1.2321-1.3481 3.5551-2.8514 5.3404-3.4559 1.2409-0.42017 1.8279-0.51069 3.7257-0.57451 1.986-0.0668 2.3861-0.0307 3.3791 0.30452 1.375 0.46423 3.0125 1.5435 4.4832 2.9548 1.2969 1.2445 1.3977 1.2474 3.1415 0.0905 1.637-1.0862 2.8076-1.636 4.2899-2.0151 1.5995-0.40908 2.7886-0.42351 4.4269-0.0537 1.5996 0.36107 1.7638 0.44657 9.3779 4.8846 3.5261 2.0552 6.9748 3.9556 7.6639 4.2232 1.6975 0.65914 3.2794 0.86559 4.9026 0.63981 1.8432-0.25635 3.8068-0.97379 4.2936-1.5687 0.10362-0.12667 0.2163-1.1986 0.25174-2.3954 0.0561-1.8926 0.12138-2.2891 0.51738-3.14 0.24928-0.53562 0.73536-1.2862 1.0802-1.6678 0.47798-0.52906 0.57536-0.73462 0.4098-0.86498-0.11945-0.094-1.8158-1.1061-3.7696-2.2491-1.9538-1.143-6.5141-3.8181-10.134-5.9447-3.6198-2.1266-6.934-3.9775-7.3647-4.113-1.0911-0.34332-3.9749-0.32798-5.3663 0.0285-0.6146 0.15748-1.6673 0.57114-2.3394 0.91923-0.67205 0.3481-1.7288 0.89278-2.3483 1.2104-1.3786 0.70684-3.1018 1.086-4.9387 1.0865-2.6487 8.7e-4 -4.2305-0.60987-7.538-2.9103-2.1655-1.5062-3.0516-2.3413-3.6096-3.4021-0.39833-0.75722-0.45944-1.0808-0.45944-2.433 0-1.3582 0.06029-1.6742 0.46674-2.4474 0.5994-1.1402 1.8282-2.2177 2.9663-2.6012 1.0942-0.36876 1.1236-0.36838 15.365 0.1966 5.9567 0.23631 12.858 0.50769 15.336 0.60306 2.478 0.0954 5.4022 0.21445 6.4982 0.26459 1.096 0.0501 5.034 0.20553 8.751 0.34527 3.717 0.13975 7.6549 0.29344 8.751 0.34152 2.2676 0.0994 4.7471 0.19714 11.177 0.44025 2.478 0.0937 5.2463 0.2083 6.1517 0.25468 0.90543 0.0464 4.1026 0.16704 7.1048 0.26812 8.177 0.27532 8.7855 0.39494 10.204 2.006 1.2167 1.3822 1.5001 3.1056 0.90887 5.5271-0.29554 1.2105-0.2953 1.2147 0.11161 2.0096 0.31168 0.60887 0.40777 1.078 0.40777 1.991 0 1.054-0.083 1.3576-0.70522 2.5825-1.4559 2.8656-3.1679 4.5528-5.3029 5.2258-0.51974 0.16383-0.94497 0.34802-0.94497 0.40931 0 0.0613 0.20254 0.30047 0.45008 0.53154 0.72014 0.67216 1.1539 1.7016 1.2436 2.9516 0.13681 1.9059-0.5011 3.2524-2.1714 4.5832-1.0289 0.81978-7.739 4.2347-11.912 6.0624-4.9924 2.1864-18.168 6.7249-21.055 7.2528-3.2622 0.59644-9.3865 0.8189-12.002 0.43598zm7.7569-3.1101c3.1258-0.26433 4.6733-0.60117 8.4846-1.8468 3.3628-1.099 10.975-3.7821 12.916-4.5529 3.398-1.3488 11.966-5.457 13.407-6.4287 2.2435-1.5123 1.9597-2.8287-1.0249-4.7541-1.8349-1.1837-2.2188-1.6688-2.1078-2.663 0.0568-0.50902 0.23389-0.90623 0.54058-1.213 0.44357-0.44369 0.51942-0.45696 2.78-0.48625 3.3666-0.0437 4.1582-0.48087 5.7428-3.1721 0.97091-1.6489 0.99729-2.2114 0.13692-2.9206l-0.62619-0.51615 0.54587-2.257c0.34841-1.4406 0.50401-2.4338 0.43016-2.7456-0.15273-0.64492-0.69772-1.227-1.2617-1.3476-0.39931-0.0853-82.487-3.3865-84.21-3.3865-0.92747 0-1.7853 0.61096-2.0915 1.4897-0.29143 0.83615-0.1731 1.4167 0.43636 2.141 0.60961 0.72448 4.9073 3.5797 5.7328 3.8087 2.3418 0.64958 4.4742 0.3145 6.9657-1.0946 0.91558-0.51781 2.218-1.1375 2.8942-1.377 2.6518-0.93941 6.1658-1.0461 8.4826-0.25752 0.79407 0.27028 5.0163 2.6454 12.382 6.9651 6.1474 3.6052 11.55 6.7906 12.006 7.0787 1.5308 0.96777 1.4644 1.4502-0.36223 2.6334-2.3956 1.5517-2.8057 2.3138-2.8057 5.2133 0 1.643-0.0608 2.1244-0.33637 2.6646-0.67232 1.3179-2.5493 2.5075-5.0106 3.1759-1.0038 0.27254-1.8701 0.36281-3.5772 0.37271-2.1122 0.0122-2.3554-0.0223-3.899-0.55453-1.9317-0.66603-2.4193-0.92676-10.049-5.3728-3.1939-1.8613-6.197-3.5334-6.6736-3.7159-0.68888-0.26375-1.186-0.31762-2.426-0.26282-1.7621 0.0778-2.7399 0.44086-4.612 1.7122-1.3855 0.94091-2.5264 1.3728-3.6265 1.3728-1.2407 0-1.7861-0.29288-3.5327-1.897-0.85102-0.7816-1.9427-1.6298-2.426-1.8848-0.80278-0.42365-1.0434-0.46296-2.7849-0.45491-2.2759 0.0105-3.5205 0.37895-5.3213 1.5753-2.2514 1.4957-3.0831 2.8898-3.0831 5.1683 0 2.0281 0.86937 3.2657 2.6265 3.7388 0.41612 0.11204 1.6639 0.13794 3.3096 0.0687 1.6244-0.0683 2.9085-0.0427 3.3348 0.0668 0.38123 0.0979 1.7586 0.45316 3.0608 0.7896 3.744 0.96732 5.5131 1.059 15.654 0.81097l8.6643-0.21188 1.6462 0.42798c0.90542 0.2354 2.387 0.75649 3.2924 1.158 3.8183 1.6931 6.6574 2.588 9.2708 2.9221 1.705 0.21796 4.6619 0.22606 7.1048 0.0194zm-7.6246-2.0034c-1.9677-0.34858-4.7508-1.1909-6.3496-1.9217-1.4002-0.64006-1.7669-0.96893-0.56022-0.50243 2.7787 1.0742 5.8673 1.1943 9.182 0.35712 1.558-0.39349 4.0804-1.7046 5.0012-2.5995 1.2664-1.2308 1.5312-2.0024 1.6427-4.7866 0.10897-2.721 0.0727-2.6479 1.918-3.8637 1.3662-0.90005 2.0028-1.608 2.2408-2.4922 0.24401-0.90616-0.0262-1.7327-0.81289-2.4859-0.70524-0.67527-23.602-14.163-25.172-14.827l-0.95308-0.40363 2.5993 0.10535c1.4296 0.058 15.101 0.59928 30.381 1.203 15.28 0.60368 27.809 1.1246 27.842 1.1576 0.033 0.033-0.16776 0.99381-0.44615 2.1351-0.64929 2.6617-0.6472 3.041 0.0205 3.7087l0.52669 0.52669-0.35447 0.69483c-0.93183 1.8266-1.9503 2.3824-3.99 2.1775-3.3572-0.33714-5.2873 1.0921-5.2861 3.9143 6.9e-4 1.5828 0.50125 2.27 2.7185 3.7319 0.93491 0.61645 1.6998 1.1895 1.6998 1.2734 0 0.32552-1.0644 0.95176-4.41 2.5946-5.4743 2.6882-8.9594 4.1567-14.738 6.2103-6.2378 2.2168-9.9075 3.4028-11.612 3.7531-3.0115 0.61874-8.5538 0.78843-11.088 0.33949zm15.076-4.8391c7.5618-2.4934 12.274-4.2613 16.289-6.1114 4.2704-1.9677 4.5921-2.1308 4.5921-2.3285 0-0.10909-0.15012-0.35934-0.33361-0.5561-0.18349-0.19675-0.55388-0.78663-0.82311-1.3108-0.44972-0.87561-0.4895-1.108-0.4895-2.8592 0-1.7818 0.0358-1.9819 0.55008-3.0673 1.2352-2.6073 3.5054-3.9439 6.7068-3.9488l1.3651-2e-3 -0.10749-0.67215c-0.0591-0.36968-0.0391-1.0384 0.0446-1.486 0.10737-0.57469 0.0942-0.83172-0.0446-0.87457-0.10817-0.0334-4.4465-0.22424-9.6408-0.42413-15.837-0.60944-31.213-1.2096-32.465-1.2672-1.0924-0.0503-1.1601-0.0334-0.85279 0.21198 0.18358 0.1466 3.2809 1.9821 6.883 4.0789 7.1526 4.1635 8.2261 4.9508 9.056 6.6408 0.41452 0.84412 0.48282 1.1931 0.48085 2.4568-2e-3 1.2452-0.0745 1.6203-0.46913 2.426-0.51058 1.0425-1.7081 2.3193-2.8806 3.0714l-0.74996 0.48103-0.0604 1.6462c-0.0637 1.7349-0.49359 3.4494-1.12 4.4663-0.19219 0.31205-0.34945 0.61067-0.34945 0.66359 0 0.16951 1.0488-0.12358 4.4188-1.2348zm-25.213 1.3747c-2.7414-0.95051-3.2468-0.98371-11.437-0.75144-11.073 0.31403-12.897 0.18248-18.368-1.324-1.5578-0.42898-1.7916-0.44758-4.3528-0.34653-3.7338 0.1473-4.1383-0.0398-4.1383-1.914 0-1.4648 0.39621-2.2276 1.648-3.1727 1.5577-1.1761 2.6695-1.6062 4.4077-1.7053 1.9665-0.11212 2.6073 0.16965 4.5522 2.0016 2.0792 1.9584 2.5914 2.2014 4.6413 2.202 1.8544 5.2e-4 2.6817-0.28957 4.6634-1.6353 1.997-1.3561 3.4563-1.7544 4.954-1.3521 0.50763 0.13637 3.3063 1.659 6.7582 3.6769 3.2405 1.8943 6.5156 3.78 7.278 4.1906 1.6271 0.87617 1.5762 0.88711-0.6065 0.13031zm-12.477-3.9537c0-0.19186-1.5929-0.96955-1.9859-0.96955-0.51142 0-1.3982 0.35032-1.9131 0.75579-0.32057 0.25244-0.1873 0.27333 1.7762 0.27843 1.1675 3e-3 2.1228-0.0261 2.1228-0.0647zm-18.455-1.9064c-0.38122-0.29167-0.79644-0.3335-1.6385-0.16508-0.77972 0.15595-0.40218 0.31657 0.88851 0.37801 1.0147 0.0484 1.0707 0.0324 0.75003-0.21293zm9.0976-21.334c-0.98345-0.33108-4.9175-3.0304-4.9938-3.4264-0.05001-0.25968 0.11849-0.29533 1.3854-0.29323 0.79328 1e-3 2.9629 0.0743 4.8214 0.16221 1.8585 0.0879 4.8217 0.21396 6.5849 0.28015l3.2058 0.12035-1.7329 0.54921c-0.95308 0.30205-2.2787 0.84933-2.9459 1.2162-2.6358 1.4493-2.7258 1.4833-4.1624 1.5703-0.97058 0.0588-1.6153 5e-3 -2.1626-0.17874zm27.211 11.945c-2.0466-0.8123-3.758-1.5139-3.8032-1.5591-0.08143-0.0815 0.14873-0.51718 1.0189-1.929l0.45064-0.73114 2.9407 2.6938c3.3809 3.0971 3.2948 3.0159 3.1919 3.0082-0.0429-3e-3 -1.7524-0.67042-3.799-1.4827z" stroke-width=".17329"/></g></svg>
