<?xml version="1.0" encoding="UTF-8"?>
<svg width="105.83mm" height="61.094mm" version="1.1" viewBox="0 0 105.83 61.094" xmlns="http://www.w3.org/2000/svg"><g transform="translate(-24.895 -36.839)"><path d="m107.38 97.051c-2.1198-0.47095-3.9032-0.90538-3.9632-0.96539-0.06-0.06001 1.5571-0.37581 3.5936-0.70178 2.0365-0.32597 3.9665-0.65518 4.2888-0.73157 0.56263-0.13335 0.58603-0.07016 0.58603 1.5823 0 1.2163-0.0955 1.7141-0.32557 1.697-0.17906-0.01334-2.0599-0.40958-4.1797-0.88054zm-58.443-3.9014c-2.1845-0.49262-3.635-1.1686-5.968-2.7814-5.3256-3.6816-7.1577-7.7152-9.4588-20.825-1.0127-5.7699-1.0497-5.9005-1.9158-6.7719-0.53935-0.54268-1.1693-1.6489-1.6183-2.842-0.40435-1.0744-1.4366-3.3599-2.2939-5.0789-2.3476-4.7075-2.7901-6.0426-2.7901-8.4197 0-1.658 0.1226-2.2726 0.67413-3.3794 0.73905-1.4831 2.2172-2.8929 3.8642-3.6857 1.627-0.78317 12.297-2.7294 13.76-2.51 1.9651 0.29469 3.2748 1.3964 5.675 4.7741 1.1971 1.6846 3.0498 4.2935 4.1172 5.7976 3.3281 4.6901 4.8724 6.3154 13.562 14.274l8.4447 7.7343 2.0306 0.0423c2.1336 0.04445 4.4109 0.82872 5.5711 1.9186 0.51194 0.48094 1.2573 0.50087 21.358 0.57098 20.648 0.07203 20.838 0.07744 22.032 0.62933 1.8173 0.84028 3.1869 2.2258 4.0166 4.0634 0.61752 1.3676 0.73491 1.971 0.7269 3.7366-0.012 2.6548-0.81837 4.572-2.7695 6.5847-4.4001 4.5391-8.3055 5.3403-28.052 5.755-29.895 0.62786-33.138 0.64245-34.685 0.15603-1.3622-0.42845-1.5074-0.42842-2.8447 5.21e-4 -1.928 0.61851-11.059 0.79273-13.438 0.25638zm13.909-3.9701c2.1894-0.7298 2.4138-0.76079 2.5438-0.35131 0.35749 1.1263 0.43174 1.1296 19.057 0.82498 9.7194-0.15894 19.606-0.35308 21.969-0.43142 5.0916-0.16874 11.256-0.76658 13.344-1.2941 2.9588-0.74748 5.6099-2.5634 6.8623-4.7005 1.4553-2.4833 0.62469-6.1859-1.6402-7.3112-0.93337-0.46374-2.105-0.4966-22.105-0.61992l-21.119-0.13023-0.93254-0.81892c-1.3307-1.1686-2.529-1.4944-4.7928-1.303l-1.9054 0.16107-1.3719-1.2102c-0.75456-0.6656-4.0091-3.6221-7.2322-6.57-11.19-10.235-11.753-10.853-17.954-19.744-1.772-2.5407-3.4253-4.6283-3.9438-4.9797-1.0428-0.70681-0.98595-0.71126-7.7038 0.60275-4.806 0.94006-5.53 1.2057-6.7327 2.4705-0.72911 0.76677-0.78137 0.95559-0.78137 2.8232 0 1.9771 0.02729 2.0585 2.2431 6.6897 1.2337 2.5785 2.3954 5.0985 2.5816 5.5998 0.39177 1.0549 1.2394 2.0837 1.7168 2.0837 0.18145 0 0.39796 0.1101 0.48112 0.24466 0.08316 0.13456 0.67851 3.2694 1.323 6.9663 1.9373 11.113 2.9915 14.281 5.7401 17.25 1.3889 1.5002 3.8169 3.231 5.4486 3.884 1.5953 0.63845 3.2417 0.79207 7.8137 0.7291 4.451-0.06131 4.8097-0.10508 7.0895-0.86499zm-12.864-1.8819c-2.0566-0.51495-5.0608-2.5801-6.3357-4.3553-1.8709-2.6052-2.7803-5.8043-4.4315-15.59-0.60431-3.5813-1.2228-6.8482-1.3744-7.2597-0.1671-0.45367-0.60253-0.88488-1.1059-1.0952-0.53226-0.22239-0.95159-0.65496-1.1683-1.2051-0.1859-0.47202-1.3025-2.9093-2.4815-5.4162-2.6529-5.6413-2.7319-5.9547-1.7623-6.9855 0.67854-0.72128 1.0984-0.84846 5.7348-1.7371 2.7514-0.52739 5.1196-0.88662 5.2625-0.7983 0.14291 0.08832 1.6326 2.1202 3.3103 4.5152 6.419 9.1632 6.7612 9.5362 18.852 20.554 9.3455 8.5164 8.6326 7.9925 10.549 7.752 2.3815-0.299 2.9734-0.24086 3.7309 0.36644 1.4455 1.1589 1.9202 1.4169 2.9865 1.6233 0.60298 0.11671 10.143 0.2173 21.2 0.22354 11.856 0.0067 20.367 0.11158 20.746 0.25565 0.90573 0.34436 1.374 1.8427 0.98342 3.1464-0.32475 1.0839-1.7932 2.5537-3.3399 3.3427-3.3329 1.7003-7.4444 1.9446-42.66 2.5346l-10.939 0.18329-0.29851-0.80706c-0.46124-1.247-1.1918-1.2697-4.4214-0.13701l-2.8334 0.9937-4.6882 0.0514c-2.5785 0.02827-5.0598-0.04163-5.5139-0.15533zm10.338-3.6384c0.92804-0.27076 2.3583-0.73958 3.1785-1.0418 0.82012-0.30225 1.908-0.54954 2.4176-0.54954 1.1041 0 2.6366 0.60004 3.4256 1.3413 0.5687 0.53427 0.59243 0.53463 16.673 0.2502 20.791-0.36774 23.976-0.47458 28.196-0.94568 3.5454-0.39577 5.0412-0.69831 5.7484-1.1626 0.25838-0.16967-5.9966-0.25789-18.471-0.26053-12.645-0.0027-19.41-0.09938-20.524-0.29343-1.1239-0.19571-2.0715-0.57103-2.9262-1.159-1.2126-0.83415-1.3375-0.86343-3.064-0.71869-2.168 0.18176-3.4243-0.28087-5.4132-1.9934-3.4261-2.9501-16.381-14.9-18.185-16.774-2.1999-2.2855-5.1822-6.1268-8.3612-10.769-1.101-1.6079-2.0834-2.9685-2.1832-3.0236-0.25354-0.13999-5.7054 0.95491-5.9368 1.1923-0.10403 0.10672 0.112 0.75135 0.48007 1.4325 0.36807 0.68116 1.205 2.4352 1.8599 3.8979 0.8954 1.9998 1.4795 2.9255 2.3549 3.7324 0.64027 0.59018 1.2863 1.4446 1.4357 1.8986 0.14937 0.45407 0.80221 3.8715 1.4508 7.5943 1.951 11.199 2.5776 13.287 4.5918 15.301 0.6953 0.6953 1.8799 1.5508 2.6324 1.9012 1.2525 0.58311 1.688 0.6372 5.1505 0.63953 2.9459 0.0021 4.1554-0.10632 5.4696-0.48974z" stroke-width=".26046"/></g></svg>
