<?xml version="1.0" encoding="UTF-8"?>
<svg width="105.83mm" height="50.335mm" version="1.1" viewBox="0 0 105.83 50.335" xmlns="http://www.w3.org/2000/svg"><g transform="translate(59.797 -71.572)"><path d="m-56.27 121.52c-2.8405-1.3556-4.1491-4.292-3.2427-7.2762 0.6754-2.2236 2.4304-3.671 4.947-4.0802 0.6285-0.10217 4.149-0.5032 7.8232-0.89118 3.7772-0.39884 6.9186-0.81175 7.2284-0.9501 0.45346-0.20252 0.65899-0.51227 1.1924-1.797 0.87562-2.1091 2.0025-3.7131 3.4135-4.8588 0.64634-0.52481 4.595-3.2311 8.7748-6.014l7.5996-5.0598-1.4632-2.8306c-1.7319-3.3503-2.032-4.4775-1.6999-6.3846 0.49176-2.8239 2.5559-5.0351 5.3726-5.7555 2.5805-0.65993 17.894-3.8105 19.29-3.9686 1.7008-0.19267 3.0851-0.04597 4.825 0.51127 0.56143 0.17982 4.9515 2.0764 9.7558 4.2146l8.735 3.8876 0.93418-0.4349c1.1551-0.53775 2.335-0.56443 4.2744-0.09667 2.639 0.63647 4.745 1.4432 8.2686 3.1676 3.2322 1.5817 3.6034 1.8115 4.512 2.7929 1.2683 1.3699 1.7595 2.5999 1.7657 4.4218 0.0061 1.7879-0.48697 3.0406-1.722 4.3746-1.6749 1.8091-1.5394 1.7762-13.114 3.1876-5.5453 0.67618-13.682 1.6814-18.081 2.2339-7.8693 0.98824-8.0717 1.0045-12.482 1.0023-6.6871-3e-3 -8.4462-0.33308-9.8541-1.8471l-0.62441-0.67152-1.661 1.502c-1.0405 0.9409-3.4178 2.6797-6.3638 4.6546-2.5865 1.7339-4.7027 3.1783-4.7027 3.2098 0 0.0314 0.49331 1.0777 1.0962 2.3251l1.0962 2.268 0.0025 1.6701c0.0022 1.4763-0.05462 1.7865-0.48979 2.6727-0.96129 1.9576-3.0761 3.3054-5.1839 3.3039-0.55235-3.5e-4 -2.1909-0.23359-3.6413-0.51821-3.719-0.72982-5.2206-0.88765-8.4339-0.88647-4.4655 1e-3 -7.2525 0.53475-11.69 2.2362-2.2155 0.8494-2.7524 0.98866-4.0486 1.0501-1.3142 0.0623-1.6044 0.0183-2.4075-0.36501zm5.2204-3.3374c4.7449-1.8579 7.7973-2.4484 12.746-2.4656 3.75-0.013 5.0493 0.12091 9.3796 0.96695 1.6905 0.3303 2.9058 0.48367 3.2524 0.41047 1.4306-0.30218 2.4441-1.5676 2.4344-3.0397-0.0042-0.6399-0.24782-1.3188-1.114-3.1044-0.94908-1.9566-1.1093-2.4266-1.1137-3.266-0.0041-0.79243 0.08355-1.0968 0.45664-1.5859 0.27031-0.3544 2.4929-1.9666 5.362-3.8895 4.3549-2.9187 5.2329-3.5905 7.889-6.0362 5.4826-5.0486 5.8131-5.4078 5.9052-6.4196 0.093886-1.0307-0.042465-1.2879-1.4438-2.7236-1.2422-1.2727-1.4131-1.5222-1.3137-1.9183 0.29189-1.163 1.8888-0.97139 5.1187 0.61415 3.2849 1.6125 4.1315 2.5479 3.7688 4.1639-0.20957 0.93372-0.93935 1.5114-2.6141 2.0691-1.7328 0.57707-4.4416 2.2914-4.841 3.0637-0.36355 0.70302-0.34578 1.6474 0.039954 2.1238 0.18808 0.23227 0.63635 0.44698 1.123 0.5379 1.5316 0.28613 6.7411 0.54936 8.5847 0.43377 1.0153-0.06365 7.6606-0.81872 14.767-1.6779 23.301-2.817 23.221-2.8065 23.933-3.1694 1.0876-0.55482 1.9126-1.9479 1.9086-3.2226-0.0025-0.80788-0.75651-2.2811-1.4297-2.7938-0.32465-0.2472-1.8956-1.0903-3.491-1.8735-2.9671-1.4567-6.19-2.6266-8.3109-3.0169-1.11-0.20425-1.2235-0.19504-1.6701 0.13549-0.26358 0.19505-0.58243 0.56507-0.70858 0.82228-0.12614 0.25721-0.29574 0.46765-0.37689 0.46765-0.08115 0-4.5887-1.9801-10.017-4.4001-5.428-2.4201-10.361-4.5266-10.962-4.6811-1.8402-0.47298-3.4571-0.2564-12.608 1.6889-4.5929 0.97629-8.8025 1.9014-9.3547 2.0558-1.9544 0.54652-3.1846 2.1021-3.1902 4.0341-0.0029 1.0163 0.09466 1.2639 1.9141 4.8565 1.7346 3.4252 1.8978 3.8281 1.7137 4.2321-0.13789 0.30262-2.9921 2.3018-8.8575 6.2043-9.7525 6.4885-10.315 6.9464-11.226 9.1435-1.0135 2.4428-1.3623 3.0088-2.2161 3.5963-0.44387 0.30539-1.0579 0.62205-1.3645 0.70368-0.47164 0.12559-6.5765 0.83265-13.636 1.5794-1.0051 0.10631-2.1314 0.31491-2.503 0.46356-1.9479 0.77941-2.475 3.1617-1.0691 4.8325 1.0547 1.2534 2.1065 1.2708 5.1358 0.0846zm-3.6278-1.0712c-0.76713-0.53843-0.65102-1.8821 0.19028-2.202 0.24004-0.0913 1.6457-0.2906 3.1237-0.44299 4.6111-0.47544 11.98-1.3136 12.532-1.4254 0.9288-0.18814 2.5536-1.1628 3.2419-1.9448 0.39019-0.44328 1.0142-1.5601 1.5011-2.6865 0.68396-1.5824 0.9961-2.0818 1.742-2.7873 0.49981-0.4727 4.7038-3.3929 9.3423-6.4894 4.6385-3.0965 8.6134-5.8252 8.8333-6.064 0.43733-0.4748 0.74296-1.3506 0.74296-2.129 0-0.28714-0.7822-2.0226-1.8459-4.0955-1.6076-3.1327-1.8459-3.7091-1.8459-4.4635 0-0.75245 0.07932-0.94557 0.60383-1.4701 0.71225-0.71225 0.38294-0.62676 11.256-2.9224 8.1116-1.7126 9.6021-1.9305 10.924-1.5977 0.46095 0.11607 5.4508 2.2631 11.089 4.7712 6.9457 3.09 10.445 4.5602 10.855 4.5602 0.44331 0 0.70119-0.12334 0.96854-0.46322 0.2004-0.25477 0.36436-0.55539 0.36436-0.66805 0-0.70775 1.427-0.4971 4.7467 0.70069 1.8442 0.66541 6.688 3.12 7.1613 3.629 0.49608 0.53347 0.64907 1.3362 0.35886 1.8829-0.53673 1.0112-0.37203 0.97894-12.618 2.4686-6.3333 0.77037-14.521 1.7685-18.196 2.218-6.6666 0.81562-6.6895 0.81714-10.988 0.73132-4.5161-0.09017-5.0825-0.16173-4.7216-0.59663 0.39272-0.4732 2.5324-1.6338 3.8188-2.0713 2.3499-0.79926 3.1862-1.6131 3.5575-3.4622 0.50314-2.5053-0.90067-4.1851-5.2132-6.238-3.5565-1.693-5.5707-1.6922-6.8362 0.0028-0.27032 0.36207-0.36247 0.7493-0.36247 1.5233v1.0378l1.3625 1.3705c0.84499 0.84997 1.3625 1.5129 1.3625 1.7454 0 0.2608-0.94957 1.2479-3.1205 3.2438-1.7163 1.5779-3.6224 3.3301-4.2357 3.8938s-3.2291 2.4356-5.8127 4.1597c-5.9451 3.9674-6.521 4.589-6.521 7.0384 0 0.76843 0.18984 1.3241 1.1427 3.3449 1.2149 2.5765 1.3588 3.266 0.78884 3.7818-0.46332 0.4193-0.78395 0.40087-4.217-0.24236-3.5319-0.66174-5.8553-0.90242-8.7119-0.90242-4.5516 0-9.3327 0.97704-13.814 2.823-1.625 0.66935-2.1026 0.75129-2.5498 0.43743zm25.603-5.2602c0-0.0363-0.20637-0.53076-0.45859-1.0988-0.25222-0.56801-0.50055-1.4876-0.55182-2.0436-0.14154-1.5346-0.36206-1.3775-1.3657 0.97282-0.36265 0.84929-0.62906 1.5744-0.59202 1.6113 0.03704 0.037 0.66068 0.18305 1.3859 0.32475 1.6486 0.32214 1.5822 0.31234 1.5822 0.23352zm38.942-19.184c8.4884-1.0429 14.706-1.8005 20.435-2.4902 3.0216-0.36376 5.4938-0.71231 5.4938-0.77456 0-0.13878-3.5386-1.6508-4.4086-1.8837-0.55551-0.14874-0.70545-0.11123-1.2861 0.3217-0.77691 0.57928-2.1582 0.9489-3.0827 0.8249-0.36325-0.048724-5.2416-2.1274-10.841-4.6193-5.5992-2.4919-10.507-4.6306-10.907-4.7526-0.87497-0.2671-1.8775-0.15617-5.6021 0.6199-1.4504 0.3022-2.7162 0.57277-2.8128 0.60125-0.096692 0.02848 0.50298 0.36993 1.3326 0.75878 2.095 0.98194 4.2499 2.4008 5.0823 3.3465 0.3858 0.43829 0.91984 1.2416 1.1868 1.7851 0.44057 0.89712 0.48531 1.1665 0.48531 2.922 0 1.7327-0.049269 2.039-0.47373 2.9447l-0.47373 1.0109h0.43181c0.2375 0 2.6856-0.27689 5.4402-0.61531zm-22.513-10.076c-0.1054-0.13271-1.3105 0.19995-1.3105 0.36176 0 0.09869 0.16939 0.45352 0.37643 0.78851l0.37642 0.60907 0.30076-0.85203c0.16542-0.46861 0.281-0.8769 0.25685-0.90731zm38.181 19.112c-1.8241-0.0769-3.348-0.1713-3.3864-0.20977-0.08045-0.0804 6.9237-2.6225 7.31-2.653 0.18253-0.01442 0.31747 0.33111 0.47265 1.2104 0.33146 1.8781 0.33796 1.85-0.42046 1.8191-0.36259-0.0147-2.1517-0.0898-3.9758-0.16669z" stroke-width=".1758"/></g></svg>
