<?xml version="1.0" encoding="UTF-8"?>
<svg width="105.83mm" height="71.513mm" version="1.1" viewBox="0 0 105.83 71.513" xmlns="http://www.w3.org/2000/svg"><g transform="translate(88.49 -53.616)"><path d="m-47.029 124.53c-1.2349-0.57498-1.4528-0.82036-2.6038-2.932-0.69089-1.2675-2.4447-3.9005-3.8973-5.8512-5.3414-7.1726-5.8807-8.0939-12.569-21.468l-6.4737-12.946-5.016-5.7579c-2.7588-3.1668-6.1029-7.0041-7.4314-8.5274-2.9264-3.3555-3.4787-4.4103-3.4709-6.6292 0.0072-2.0718 0.62361-3.4667 2.0841-4.7169 1.9224-1.6455 2.685-1.7835 10.742-1.9441l7.2013-0.14353 10.617 1.9891c11.106 2.0806 9.9188 1.9331 29.842 3.7104 5.133 0.45792 6.2052 0.67525 7.7546 1.5719 2.0196 1.1687 3.2863 3.0607 3.6434 5.4419 0.21885 1.4594-0.43558 4.1198-1.3641 5.5451-3.1851 4.8895-7.5965 8.251-12.617 9.614-3.6058 0.97892-10.276 0.61796-16.009-0.86639-3.8006-0.98392-5.4992-0.93205-5.4992 0.16792 0 0.51533 5.4161 10.435 5.7601 10.55 0.16466 0.05488 1.9115-1.4828 3.8818-3.4171 3.2824-3.2223 3.7548-3.5882 5.6413-4.3685 3.85-1.5926 3.783-1.5881 23.621-1.5931 11.921-3e-3 18.611 0.09247 19.626 0.28006 2.9847 0.55175 5.4518 2.2392 6.7223 4.5978 0.3767 0.69931 1.4859 4.2764 2.465 7.9491 2.2664 8.5021 2.278 9.5435 0.13858 12.487-0.95447 1.313-1.932 1.9074-7.019 4.2679l-3.887 1.8036-23.63 5.9092c-25.86 6.467-25.743 6.445-28.252 5.2766zm27.209-8.9386 23.631-5.9051 4.0177-1.8784c4.3163-2.0181 5.3786-2.8582 5.686-4.4969 0.23917-1.2749-3.0532-13.742-3.995-15.128-0.39284-0.57808-1.202-1.2427-1.9926-1.6367l-1.3311-0.66334h-19.017c-20.839 0-20.087-0.05108-23.331 1.5861-1.0801 0.54513-2.2597 1.5802-4.4521 3.9068-3.2718 3.472-4.3541 4.1246-6.2964 3.7964-1.9816-0.33478-2.4592-0.92229-5.7861-7.117-1.8625-3.468-3.178-6.2266-3.2597-6.8354-0.18621-1.3883 0.63292-3.1718 1.9004-4.1378 0.94687-0.72164 1.1174-0.75664 3.6318-0.74537 1.8355 0.0082 3.3332 0.18916 4.9223 0.59461 1.2562 0.32053 3.4952 0.75495 4.9755 0.96538 7.5834 1.078 12.028-0.15753 16.453-4.574 4.1106-4.1021 4.8102-7.407 1.943-9.179-0.83315-0.51492-1.7786-0.64644-8.5825-1.1939-12.859-1.0348-16.86-1.5503-28.072-3.6175l-10.737-1.9795-6.1539 0.14254c-6.9533 0.16105-8.1058 0.38796-8.8013 1.7328-0.82883 1.6028-0.59005 1.9622 7.394 11.131l7.4757 8.5846 6.5539 13.093c6.7522 13.489 7.2664 14.368 12.473 21.317 1.4467 1.9307 3.1383 4.427 3.7592 5.5474 1.1331 2.0446 1.6701 2.5447 2.7678 2.5776 0.32529 0.01 11.225-2.6396 24.223-5.8873zm-24.938 1.1724c-0.60517-1.0186-2.3048-3.4638-3.777-5.4337-1.4722-1.9699-3.2341-4.3691-3.9154-5.3316-0.68128-0.96246-4.2881-7.7905-8.0152-15.174l-6.7765-13.424-7.2479-8.3478c-3.9863-4.5913-7.2072-8.3866-7.1575-8.434 0.0497-0.04743 2.7418-0.17048 5.9824-0.27345l5.892-0.18722 10.764 1.9939c11.215 2.0775 16.84 2.7941 29.17 3.7167 3.2406 0.24246 6.0393 0.55785 6.2193 0.70085 0.6073 0.48239 0.33332 1.4454-0.86464 3.039-1.9648 2.6138-4.6082 4.461-7.6935 5.3765-2.751 0.81622-7.5958 0.457-13.664-1.0131-4.884-1.1832-7.9958-0.81328-10.313 1.2261-2.1964 1.9333-3.1488 4.8721-2.3886 7.3699 0.21241 0.69786 1.7551 3.8206 3.4281 6.9395 3.3005 6.1526 4.1862 7.2699 6.3468 8.0061 1.5593 0.53129 3.5647 0.52742 5.1999-0.01003 1.0831-0.35599 1.8166-0.96459 4.5638-3.7864 2.5975-2.6681 3.5977-3.5131 4.8445-4.093l1.5712-0.73081 38.602-0.14394 0.77186 0.72664c0.68081 0.64093 0.96382 1.4594 2.3992 6.9383 0.89502 3.4164 1.5623 6.3812 1.4828 6.5883-0.07949 0.20714-1.758 1.1525-3.7299 2.1007l-3.5854 1.7241-23.436 5.8938c-12.89 3.2416-23.467 5.8938-23.505 5.8938-0.03785 0-0.56396-0.83344-1.1691-1.8521zm25.024-8.0684c17.903-4.5094 22.108-5.653 23.97-6.5194l2.258-1.0506-0.893-3.3661c-0.49115-1.8514-1.011-3.808-1.1552-4.3481l-0.26219-0.982h-17.502c-15.04 0-17.662 0.05636-18.638 0.40062-0.8479 0.29916-2.0666 1.3148-4.812 4.01-3.2751 3.2153-3.8624 3.6791-5.3786 4.2475-2.0946 0.78526-5.7068 0.85821-7.5695 0.15288-0.63458-0.24029-1.203-0.38766-1.2632-0.32749-0.19685 0.19685 0.64617 1.5515 2.7272 4.3823 1.1256 1.5312 3.048 4.1531 4.272 5.8265 1.224 1.6734 2.2948 3.0426 2.3796 3.0426 0.08479 0 9.9246-2.4609 21.866-5.4687zm-41.597-32.976c1.3384-2.8819 4.6309-5.3648 8.0549-6.0744 2.019-0.4184 5.0695-0.18911 8.2747 0.62197 3.7487 0.9486 6.1441 1.3064 8.8775 1.3261 2.2855 0.01647 2.6346-0.05161 4.2944-0.83768 0.99369-0.47058 1.7534-0.90895 1.6882-0.97416-0.0652-0.0652-4.4134-0.53051-9.6627-1.034-8.3915-0.80491-10.738-1.1379-19.43-2.7574-7.3549-1.3704-10.461-1.842-12.133-1.842h-2.2475l0.78374 0.982c0.43106 0.5401 2.7169 3.2414 5.0796 6.0029s4.5189 5.5155 4.7915 6.1201c0.47783 1.0596 0.50445 1.0769 0.73931 0.47834 0.134-0.34148 0.53432-1.2468 0.8896-2.0117zm45.371 46.706c2.3764-1.2296 4.405-2.2361 4.5078-2.2367 0.34886-2e-3 1.1867 3.2596 0.88148 3.4315-0.1556 0.0876-2.0505 0.29923-4.2109 0.47025-2.1604 0.17104-4.2815 0.36938-4.7136 0.44076-0.43208 0.0714 1.1588-0.87621 3.5352-2.1058z" stroke-width=".26187"/></g></svg>
