<?xml version="1.0" encoding="UTF-8"?>
<svg width="105.83mm" height="49.094mm" version="1.1" viewBox="0 0 105.83 49.094" xmlns="http://www.w3.org/2000/svg"><g transform="translate(-13.133 -47.842)"><path d="m108.9 96.695c-4.228-1.404-6.1353-4.1385-5.3923-7.7312 0.17425-0.84257 0.54428-2.1105 0.82228-2.8177 0.27801-0.70716 0.45898-1.3322 0.40215-1.3891-0.0569-0.05682-0.86147 0.0754-1.7881 0.29383-3.2529 0.76678-6.7768 0.34102-9.7711-1.1806l-1.5304-0.77772v1.4061c0 2.5607-1.8434 4.3823-4.4348 4.3823-1.392 0-2.0611-0.31158-14.65-6.822-7.2551-3.7521-15.116-7.7834-17.47-8.9583l-4.2788-2.1363-1.1766 0.89814c-1.5763 1.2032-2.7976 1.5726-4.5975 1.3905-1.966-0.1989-5.2412-1.4753-7.2361-2.82-2.5199-1.6986-5.5901-3.0676-8.468-3.7758-5.8684-1.4441-8.9275-3.0404-9.6487-5.0348-0.28503-0.78824-0.32356-0.80306-2.085-0.80216-2.0033 9.96e-4 -2.8149-0.41189-3.877-1.9725-0.67814-0.9964-0.74839-2.189-0.29984-5.0899 0.35918-2.323 0.96739-3.5678 2.2682-4.6423 3.3729-2.786 9.2823-0.81884 12.408 4.1306 0.50493 0.79945 0.93315 1.1608 1.4976 1.2636 0.43473 0.07919 9.973 1.8449 21.196 3.9239l20.406 3.7799 0.71582-0.76629c1.9488-2.0862 5.2646-2.0497 7.3956 0.08131 0.63623 0.63623 1.9882 1.4955 3.3422 2.1242 2.1131 0.98118 3.1539 1.2198 14.729 3.3771 13.652 2.5444 14.389 2.7602 16.652 4.8769 2.1744 2.0339 2.7819 3.6163 4.0012 10.421 0.74735 4.1712 1.0156 6.3077 0.91764 7.3084-0.27447 2.8034-2.2312 5.5212-4.79 6.6531-1.4957 0.6616-3.9253 0.84894-5.2604 0.40561zm4.0008-2.8237c1.2934-0.48681 2.7052-2.0996 3.1365-3.583 0.43426-1.4938 0.39312-1.8594-1.1071-9.8384-0.92325-4.9103-1.8887-6.5281-4.7776-8.006-0.47036-0.24064-6.5171-1.4888-13.437-2.7737-11.864-2.2029-12.725-2.4005-15.085-3.4643-1.6519-0.7445-2.9299-1.5362-3.7585-2.3283-1.0755-1.0281-1.4114-1.2002-2.3434-1.2002-0.96688 0-1.2098 0.13853-2.1835 1.245l-1.0955 1.245-22.118-4.0944c-12.165-2.2519-22.314-4.1532-22.555-4.2251-0.24016-0.07187-0.93574-0.89669-1.5457-1.833-1.3255-2.0345-2.5246-3.1367-4.3237-3.9745-1.576-0.73384-2.5071-0.78256-3.7435-0.19586-1.1335 0.5379-1.5263 1.2961-1.9326 3.7303-0.57523 3.4466-0.03551 4.0371 3.0604 3.3484 2.2214-0.49421 2.7302-0.32375 2.7302 0.91469 0 1.1029 0.50432 2.3036 1.1395 2.7129 0.96759 0.62357 4.2054 1.7654 7.3326 2.5858 3.216 0.84377 6.1924 2.1724 8.9399 3.9908 0.95443 0.63167 2.748 1.4923 3.9857 1.9125 2.8177 0.95668 3.6759 0.7789 5.582-1.1563l1.2885-1.3082 5.824 2.9089c3.2032 1.5999 11.406 5.8008 18.228 9.3353 7.1286 3.6933 12.703 6.4264 13.108 6.4264 1.5418 0 2.064-1.3821 1.4796-3.9165-0.33809-1.4663-0.14493-2.0473 0.85204-2.5629 0.99115-0.51254 1.6308-0.36107 3.344 0.79183 4.5864 3.0864 9.8371 2.84 14.472-0.67906 0.89919-0.6827 1.225-0.80209 1.5808-0.57924 0.85896 0.53793 0.69377 1.9887-0.49575 4.354-1.608 3.1974-2.3502 5.3343-2.3436 6.7476 7e-3 1.4839 0.45569 2.1396 2.1019 3.0712 1.2947 0.73266 3.3126 0.90509 4.6595 0.39815zm-3.2105-2.1835c-1.295-0.58124-1.5246-1.0207-1.1872-2.2735 0.1611-0.59826 0.99804-2.5205 1.8599-4.2717 1.7585-3.5731 1.9467-4.7599 1.0374-6.5422-0.96051-1.8827-2.8741-2.3495-4.6373-1.1311-0.56364 0.38949-1.5871 1.0923-2.2744 1.5618-1.5015 1.0256-3.7 1.5328-5.8137 1.3412-1.5818-0.14343-2.9353-0.71745-5.4039-2.2918-2.3712-1.5122-4.8612-1.0926-6.3271 1.0662-0.52924 0.77939-0.60271 1.1601-0.51907 2.6893 0.05359 0.97975 0.02691 1.7504-0.05931 1.7126-0.086217-0.03784-6.6111-3.4082-14.5-7.4896-16.767-8.6752-20.807-10.627-21.995-10.627-0.68911 0-1.1132 0.26404-2.1326 1.3277-0.69984 0.73025-1.5161 1.3889-1.8139 1.4636-0.77424 0.19432-4.1907-1.1027-5.6318-2.138-2.1621-1.5533-6.5725-3.4971-9.7761-4.3086-1.6665-0.42214-3.7413-1.0539-4.6108-1.4038-1.5502-0.62397-1.5836-0.65901-1.7247-1.8065-0.3303-2.6875-1.8466-3.6308-4.9056-3.0518l-1.0973 0.2077 0.14484-1.1391c0.194-1.5257 0.51533-1.8806 1.5507-1.7126 1.3845 0.22468 2.9384 1.4609 4.1757 3.322 1.4292 2.1498 1.836 2.521 3.1736 2.8965 1.1661 0.32728 44.96 8.4508 45.558 8.4508 0.35538 0 1.5122-1.0887 2.3796-2.2395 0.38776-0.51446 0.41762-0.50344 1.2596 0.46484 0.64099 0.73712 1.6743 1.3554 4.0241 2.4078l3.1617 1.416 12.361 2.2918c6.7983 1.2605 12.631 2.3948 12.962 2.5206 0.33094 0.12582 1.0815 0.66222 1.6679 1.192 1.3119 1.1852 1.5194 1.8463 2.6616 8.4824 0.83459 4.8485 0.85428 5.1153 0.44137 5.9811-0.75204 1.577-2.5242 2.2979-4.01 1.6311zm-25.118-13.837c0.78408-1.4222 2.5658-2.7642 4.288-3.2298 2.1109-0.5706 4.6794 0.09946 6.9199 1.8052 1.2086 0.92018 3.1333 1.4494 4.5568 1.2529 1.2184-0.16812 3.4252-1.081 3.4252-1.417 0-0.10369-4.4165-1.0003-9.8144-1.9925-5.3979-0.99219-10.378-1.9686-11.067-2.1699-0.68917-0.20125-2.5957-0.99678-4.2367-1.7678l-2.9837-1.4019-0.72031 0.52471c-1.1252 0.81964-2.6037 0.83471-6.7068 0.06837-2.0772-0.38797-3.8302-0.65204-3.8954-0.58682-0.10286 0.10287 19.05 10.151 19.401 10.178 0.07245 0.0056 0.44783-0.56317 0.83417-1.2639zm-17.667 6.5078c-1.6193-1.4644-2.8962-2.7107-2.8374-2.7694 0.09141-0.09141 7.258 2.4813 7.5078 2.6952 0.11387 0.0975-1.2582 2.4476-1.5254 2.6128-0.11042 0.06824-1.5257-1.0741-3.145-2.5385z" stroke-width=".26347"/></g></svg>
