<?xml version="1.0" encoding="UTF-8"?>
<svg width="105.83mm" height="71.331mm" version="1.1" viewBox="0 0 105.83 71.331" xmlns="http://www.w3.org/2000/svg"><path d="m85.56 71.301c-0.092921-0.037994-16.249-0.11825-35.902-0.17829-19.653-0.060024-37.861-0.1615-40.463-0.22547l-4.7306-0.11632-1.0982-0.5272c-3.5409-1.6999-4.4234-5.4586-2.0011-8.523 0.87781-1.1105 2.2724-1.9994 4.5092-2.8742 2.8591-1.1181 4.1607-1.3216 9.6562-1.5096 5.0305-0.17209 11.708-0.48442 11.744-0.54932 0.02132-0.03847 1.5778-4.4293 3.4571-9.7523 3.2166-9.1109 4.7748-13.199 9.4343-24.751 1.5742-3.9027 3.6792-9.2246 4.6778-11.826 0.99866-2.6018 1.9693-5.0347 2.1569-5.4064 0.50006-0.9907 2.5771-2.9776 3.8405-3.6739 2.0641-1.1375 4.4158-1.5797 6.9817-1.3125 2.8902 0.30088 4.9179 1.224 6.7148 3.0571 2.0305 2.0713 2.976 4.5299 2.805 7.2934-0.05032 0.81306-0.04452 1.4783 0.01289 1.4783s2.0482-0.27977 4.4239-0.62171c3.1555-0.45416 4.9114-0.62361 6.5159-0.62878 2.0747-0.0067 2.374 0.0377 5.4063 0.80163 6.3892 1.6096 12.492 3.3483 13.5 3.8461 2.6393 1.3035 4.0332 3.9798 3.4764 6.6749-0.57102 2.7639-2.275 4.249-6.3374 5.5233-3.4999 1.0979-6.3867 1.2154-14.947 0.60844-7.8425-0.55607-8.8802-0.39634-9.771 1.5041-0.37869 0.80785-0.44977 1.1893-0.44666 2.3968 0.0043 1.672 0.0461 1.7694 2.1129 4.9238 2.6631 4.0643 3.3064 5.85 3.1564 8.761-0.16769 3.2542-1.4298 5.5585-4.1303 7.5411l-1.1151 0.81865 0.74642 0.11341c0.59879 0.09098 9.0982 0.47729 15.26 0.69357l1.1664 0.04094 0.21677-1.0557c0.28114-1.3692 0.96877-2.6343 1.9672-3.6191 1.5452-1.5241 3.486-2.1004 6.5982-1.9593 1.6166 0.07333 2.1168 0.16999 3.4146 0.65984 2.6055 0.98346 4.8294 2.7307 5.8894 4.6272 1.9185 3.4326 1.8257 7.3861-0.25417 10.826-1.643 2.7176-3.3047 4.3346-5.6352 5.4841-2.4117 1.1895-3.4459 1.3658-8.4474 1.4403-2.416 0.03595-4.4687 0.03429-4.5616-0.0038zm8.7008-3.6304c3.2543-0.53698 5.6854-2.4818 7.3979-5.9181 0.59199-1.1879 0.62711-1.3487 0.62695-2.8721-1.7e-4 -1.9102-0.29895-2.9181-1.2254-4.1339-0.81161-1.0652-2.1578-1.991-3.7585-2.585-1.0774-0.3998-1.5212-0.46991-2.9647-0.46835-2.1323 0.0023-3.0898 0.41164-3.8539 1.6476-0.66144 1.0699-0.7404 1.9837-0.28082 3.2501 0.20234 0.55753 0.43554 1.2328 0.51823 1.5006l0.15035 0.48686-3.1624-0.11699c-1.7393-0.064346-7.1918-0.30593-12.117-0.53685-4.9248-0.23092-10.802-0.46592-13.06-0.52222l-4.1059-0.10236-0.22292-0.43897c-0.52483-1.0335-1.63-4.518-1.5836-4.9926 0.04656-0.47574 0.10502-0.51874 0.77054-0.56685 0.42794-0.03093 1.5591 0.16896 2.7876 0.49262 2.9105 0.76677 4.2048 0.75616 5.8872-0.04825 2.2308-1.0666 3.988-2.6611 4.5544-4.1327 0.37654-0.97828 0.50661-2.398 0.32427-3.5394-0.22059-1.3808-0.78724-2.5167-2.802-5.6167-1.7358-2.6708-2.2155-3.7435-2.4729-5.5303-0.1388-0.96346-0.11744-1.4636 0.1106-2.589 0.6487-3.2014 1.7819-4.5897 4.5889-5.6217 0.85848-0.31562 1.3353-0.36596 3.3655-0.35526 1.3009 0.0069 3.9516 0.13478 5.8904 0.28429 5.4754 0.42223 8.7709 0.5108 10.498 0.28215 1.8151-0.24036 5.3332-1.3741 6.1156-1.9709 1.5261-1.164 1.4116-3.2812-0.23754-4.3925-0.63756-0.42965-4.4183-1.5177-11.176-3.2164-4.2935-1.0792-5.1598-1.2468-6.4459-1.2468-1.4687 0-5.5996 0.51746-14.763 1.8493-2.5918 0.37671-5.1007 0.68422-5.5753 0.68334-1.5742-0.0029-3.2847-1.3805-4.0813-3.2871-0.30137-0.72128-0.22785-1.0714 0.33625-1.6014 0.39265-0.36888 0.42301-0.37208 0.89336-0.09423 0.2678 0.15819 0.66717 0.62743 0.8875 1.0428 0.54747 1.032 1.6883 1.9993 2.6409 2.2392 1.7281 0.43515 3.7705-0.84086 4.7419-2.9625 0.38421-0.83922 0.4236-1.1043 0.35738-2.4051-0.089482-1.7577-0.57224-2.8452-1.8144-4.0873-0.98665-0.98665-1.8921-1.4649-3.364-1.7769-2.038-0.43197-4.0459-0.25782-5.6717 0.49195-0.9741 0.44921-2.5265 1.7821-2.8866 2.4783-0.13281 0.25682-1.1599 2.8474-2.2825 5.7569-1.1226 2.9095-3.6036 9.1708-5.5134 13.914-1.9098 4.7432-3.928 9.8404-4.4848 11.327-1.7029 4.5468-7.2426 20.166-7.5801 21.372-0.11701 0.41815-0.29817 0.85541-0.40258 0.97169-0.13765 0.15331-1.9528 0.28028-6.6036 0.46195-11.776 0.46-12.669 0.52271-14.318 1.0056-1.7644 0.51684-3.508 1.2838-4.3108 1.8961-0.687 0.524-1.2878 1.7552-1.1225 2.3004 0.3162 1.0433 1.2867 1.5959 3.0547 1.7394 3.2365 0.26273 86.237 0.50376 87.746 0.25481zm-46.376-2.5671c-19.328-0.080622-36.358-0.20431-37.844-0.27487l-2.7032-0.12828 1.0137-0.367c2.2178-0.80294 1.1277-0.71025 15.543-1.3215 3.2523-0.13791 6.2023-0.33229 6.5558-0.43193 1.2154-0.34272 1.5509-0.84216 2.5476-3.7927 0.83874-2.483 3.8707-11.088 5.4767-15.543 1.3613-3.7763 2.9295-7.8722 4.431-11.573 2.5308-6.2376 6.0123-15.004 7.7832-19.598 1.8473-4.7922 2.0503-5.0972 3.7855-5.6902 1.0168-0.34746 2.9058-0.38038 4.0055-0.069805 1.9979 0.56427 3.3091 2.7963 2.6576 4.5241-0.28079 0.74477-1.1718 1.5738-1.6916 1.5738-0.5116 0-0.73572-0.22224-1.3391-1.3279-0.48227-0.8837-1.9241-1.9847-2.8189-2.1525-2.0326-0.38132-4.2767 1.8341-4.0672 4.0152 0.18982 1.9754 2.1363 4.585 4.1842 5.6095 1.752 0.87647 2.1737 0.88271 7.4255 0.10987 8.4069-1.2371 14.478-2.0304 15.539-2.0304 0.74979 0 2.5318 0.37845 6.3146 1.341 5.4498 1.3868 9.6641 2.5744 9.8716 2.7819 0.17812 0.17812-0.21184 0.36891-1.8944 0.92682-2.8658 0.95026-4.4481 1.0054-12.337 0.42959-6.0048-0.43823-8.131-0.47802-9.5456-0.17864-1.8112 0.38331-3.9401 1.4799-5.0209 2.5862-2.1188 2.169-3.1638 6.1099-2.5204 9.5055 0.33909 1.7897 1.0264 3.2398 2.8069 5.9224 1.9371 2.9185 2.3688 3.8683 2.369 5.2119 7.9e-5 0.64163-0.11049 1.3058-0.27518 1.6528-0.34118 0.71899-1.5315 1.7541-2.7894 2.4256-1.2298 0.65657-2.0219 0.65726-4.6327 4e-3 -4.0404-1.0109-6.0799-0.47869-6.6781 1.7426-0.13476 0.50046-0.13363 0.94788 0.0041 1.6482 0.19795 1.0062 1.4494 4.5887 1.9209 5.499 0.34951 0.67475 1.136 1.3374 1.8446 1.5542 0.30436 0.09313 2.302 0.20994 4.4392 0.25958 2.1372 0.04965 7.9152 0.28106 12.84 0.51425 4.9248 0.23319 10.665 0.47109 12.756 0.52865 3.6497 0.10048 3.8233 0.0907 4.352-0.24514 0.72402-0.45995 1.2219-1.3022 1.2227-2.0684 3.39e-4 -0.33956-0.19506-1.1758-0.43423-1.8584-0.23918-0.68258-0.4723-1.3595-0.51804-1.5042-0.04572-0.14472 0.06639-0.44782 0.24919-0.67357 0.30278-0.37391 0.45041-0.40935 1.6584-0.39803 3.6733 0.03441 6.1068 2.6741 5.2337 5.6773-0.34349 1.1816-1.7611 3.1921-2.7739 3.9339-0.43773 0.32064-1.252 0.74896-1.8096 0.95182-0.95443 0.34729-1.3347 0.37107-6.5045 0.40677-3.02 0.02088-21.304-0.02803-40.632-0.10867zm6.3356-3.4642c0-0.05742-0.22822-0.36434-0.50716-0.68203-0.73601-0.83827-1.1995-1.8451-2.2047-4.7889-0.67486-1.9765-0.91267-2.933-0.96968-3.9002-0.2537-4.3039 3.0382-7.359 7.5673-7.0229 0.69691 0.05171 2.2068 0.32366 3.3554 0.60433l2.0883 0.51031 0.74161-0.51024c0.40788-0.28063 0.74161-0.61929 0.74161-0.75257 0-0.26626-0.73674-1.5061-2.3563-3.9651-2.0152-3.0599-2.7544-4.9608-3.0498-7.8432-0.34468-3.363 0.76872-7.544 2.6802-10.064 0.3872-0.51057 0.63387-0.95168 0.54815-0.98026-0.08572-0.02857-1.0019 0.06605-2.0359 0.21028-3.2747 0.45674-4.6327 0.31501-6.8133-0.71108-0.57906-0.27248-1.4156-0.77389-1.8589-1.1142-0.80339-0.61678-0.80656-0.61757-0.9513-0.23709-0.07987 0.20996-0.73155 1.8263-1.4482 3.5918-5.7202 14.093-6.2898 15.576-10.037 26.133-1.2968 3.6535-2.6584 7.4791-3.0257 8.5012-0.36737 1.0221-0.72147 2.1047-0.7869 2.4056l-0.11896 0.5472 6.9821 0.04605c3.8402 0.02533 7.9895 0.06419 9.2207 0.08636 1.2312 0.02217 2.2386-0.0067 2.2386-0.0641zm-20.865-31.411c-0.74337-0.31236-1.4222-0.59522-1.5084-0.62856-0.08627-0.03335 0.93485-1.7846 2.2692-3.8917 1.3343-2.1071 2.4442-3.8129 2.4664-3.7907 0.02223 0.02223-0.0646 0.57234-0.19296 1.2224-0.12836 0.65011-0.4672 2.4365-0.75296 3.9697-0.71288 3.8247-0.68948 3.7187-0.81635 3.7018-0.06231-0.0083-0.7215-0.27061-1.4649-0.58297z" stroke-width=".16895"/></svg>
