<?xml version="1.0" encoding="UTF-8"?>
<svg width="400" height="300.87" version="1.1" viewBox="0 0 105.83 79.605" xmlns="http://www.w3.org/2000/svg"><g transform="translate(91.123 -44.884)"><path d="m-20.593 124.16c-3.2868-0.71401-4.8719-1.9064-8.8514-6.6583-3.876-4.6284-9.2369-10.696-13.023-14.739-1.7876-1.9091-3.5427-4.0339-3.9004-4.7218-1.3543-2.6049-1.0393-6.0729 0.8202-9.0289 1.075-1.7088 2.968-5.5488 3.2091-6.5095 0.23306-0.92859-1.2845-3.7192-3.6417-6.6965-2.1052-2.659-2.7818-3.8314-3.0566-5.2963-0.10203-0.54386-0.2418-0.98884-0.3106-0.98884-0.21208 0-10.474 7.1914-13.27 9.2993-1.4523 1.095-3.4676 2.7027-4.4785 3.5727l-1.8379 1.5818 1.1868 1.1535c1.4706 1.4292 2.2964 3.0096 2.5502 4.8801 0.22478 1.6564-0.08762 4.0493-0.67761 5.1902-0.68883 1.332-2.2794 2.8985-3.6977 3.6416-1.9276 1.01-4.9782 1.0219-7.0925 0.02774-3.0658-1.4416-9.3514-7.1234-11.678-10.556-3.2469-4.7911-3.3836-6.1787-1.7855-18.123 1.5129-11.308 2.6431-17.069 3.7463-19.096 1.5297-2.8106 4.6634-4.899 8.6739-5.7805 1.4266-0.31356 3.3161-0.43327 6.7835-0.42976 5.6163 0.0057 9.3112 0.4628 14.851 1.8373 4.5616 1.1318 5.6154 1.1805 8.2036 0.37918 3.2845-1.0169 5.123-0.5791 9.0681 2.1594 2.5407 1.7636 2.536 1.7629 5.1243 0.80108 2.7892-1.0365 6.1487-0.55095 8.7955 1.2712 1.9719 1.3575 3.0616 3.0428 4.0577 6.275 1.0071 3.268 0.43364 2.6542 12.635 13.525 13.899 12.384 20.335 18.888 21.825 22.058 1.4491 3.0828 1.4307 6.0092-0.05702 9.0687-1.5913 3.2725-4.7908 5.3704-9.2936 6.0939-2.256 0.36246-2.9177 0.62336-7.0756 2.7898l-4.5868 2.3899-0.18176 1.7954c-0.45392 4.4838-3.8585 8.0513-8.5291 8.937-1.7095 0.32421-2.6366 0.303-4.5058-0.10307zm5.4736-4.2695c2.2279-1.0397 3.8809-3.3408 3.8642-5.3794-0.0024-0.2937-0.24417-1.0625-0.53726-1.7085-0.29309-0.64598-0.50071-1.1998-0.46139-1.2306 0.03932-0.0309 2.9629-1.5171 6.4968-3.3028 5.9913-3.0274 6.5955-3.2739 8.9446-3.6493 4.1983-0.67103 6.3752-2.1266 7.3179-4.8933 1.0204-2.9947 0.28245-4.7998-3.7799-9.2457-3.2914-3.6022-8.523-8.5014-20.243-18.957-4.4055-3.9302-8.4595-7.7008-9.0088-8.3791-0.97162-1.1998-1.3068-1.9901-2.1927-5.1703-0.71162-2.5544-2.5943-4.2073-5.245-4.6048-0.98218-0.14728-1.5318-0.04875-2.8701 0.51452-2.7327 1.1502-3.6153 1.1591-5.7247 0.05803-0.99664-0.52024-2.2582-1.2965-2.8035-1.725-2.3247-1.8268-3.6159-2.0045-7.2619-0.99953-2.1566 0.59442-3.4369 0.47744-8.5596-0.78208-5.7115-1.4043-9.3972-1.8194-14.807-1.6678-3.6377 0.10196-4.8882 0.23933-6.2973 0.69179-2.1 0.67431-3.6867 1.7644-4.5122 3.1002-1.0718 1.7343-3.3934 15.222-4.3352 25.187-0.37543 3.9724-0.18243 4.9251 1.5673 7.7361 2.2501 3.6149 8.5693 9.314 11.176 10.079 2.87 0.84253 5.4719-1.1084 5.4719-4.1029 0-2.4185-1.0892-3.7182-3.9752-4.7438-1.1178-0.39721-2.2553-0.92993-2.5276-1.1838-0.4786-0.4461-0.45613-0.49745 0.66751-1.5256 2.5434-2.3274 6.0945-5.3692 8.3741-7.1731 1.8811-1.4886 14.371-10.353 19.587-13.901 1.4068-0.95697 2.5454-1.176 3.9367-0.75726 2.1104 0.63514 6.1223 3.5531 5.6013 4.074-0.11014 0.11014-1.4223 0.27767-2.9158 0.37229-3.0609 0.19392-4.0543 0.54002-4.6046 1.6043-0.6694 1.2945-0.47601 2.1946 0.83271 3.8761 2.8099 3.6102 3.6669 4.8547 4.475 6.4983 0.71322 1.4506 0.85334 2.0424 0.85334 3.6045 0 1.9799-0.43234 3.0451-3.6109 8.8964-1.2181 2.2423-1.4297 4.1733-0.59262 5.4066 0.25602 0.37723 2.3483 2.7202 4.6496 5.2066 2.3012 2.4864 6.544 7.2798 9.4284 10.652 2.8844 3.3722 5.6437 6.4155 6.1319 6.7628 2.1335 1.518 5.2014 1.8302 7.4899 0.76226zm-5.3621-2.8127c-0.85723-0.52273-1.6122-1.3516-7.0804-7.7732-3.3889-3.9799-10.642-12-11.71-12.949-0.3302-0.29336-0.77442-0.86994-0.98714-1.2813-0.35574-0.68792-0.33218-0.85936 0.29359-2.1367 0.3742-0.7638 1.1608-2.2298 1.748-3.2577 0.58721-1.028 1.4422-2.8302 1.8999-4.005 0.7175-1.8415 0.81404-2.3754 0.70005-3.8715-0.07272-0.95454-0.39338-2.4213-0.71257-3.2594-0.66582-1.7483-2.759-5.0569-4.4594-7.049-0.64028-0.75009-1.1641-1.501-1.1641-1.6688 0-0.1971 0.60919-0.30497 1.7224-0.30497 7.5186 0 8.2719-4.1637 1.5332-8.4746-3.0996-1.9829-5.7314-2.4389-8.0376-1.3925-1.3818 0.62692-17.029 11.527-21.152 14.734-4.486 3.4901-10.066 8.527-10.535 9.5102-1.0038 2.1028 0.391 4.0273 3.7885 5.2271 1.16 0.40967 2.2593 0.86686 2.4429 1.016 0.51607 0.41924 0.40493 1.9276-0.18112 2.458-0.87822 0.79477-1.6899 0.35116-5.7597-3.148-2.6134-2.247-4.367-4.2777-5.4525-6.3143-1.0047-1.8851-1.0318-2.7409-0.2787-8.8255 1.3065-10.557 2.8373-19.216 3.6036-20.386 0.51932-0.79258 2.3695-1.6932 4.1863-2.0377 2.0905-0.39646 9.2836-0.30642 12.392 0.15513 1.5241 0.22631 4.4181 0.82628 6.4311 1.3333 5.1696 1.302 6.3896 1.3868 9.3008 0.64634 1.3155-0.33458 2.6143-0.59546 2.8862-0.57974 0.27195 0.01573 1.3533 0.62034 2.403 1.3436 3.3069 2.2784 4.6078 2.8361 6.5811 2.8212 1.2587-0.0095 2.2401-0.21749 3.572-0.7571 1.6136-0.65373 1.9567-0.70802 2.8268-0.44732 1.4172 0.42459 1.7725 0.94534 2.6431 3.8739 0.48862 1.6435 1.1429 3.1413 1.7699 4.0517 0.55608 0.8074 3.011 3.2419 5.5673 5.5209 15.237 13.584 19.959 17.972 24.044 22.343 3.0655 3.2797 3.6297 4.1044 3.6311 5.3075 0.00133 1.2128-0.85378 2.7649-1.8408 3.3409-0.45355 0.26471-2.1171 0.70347-3.6967 0.97502-2.7968 0.48078-3.0609 0.59063-10.075 4.1912-6.9056 3.5447-7.219 3.739-7.5798 4.7007-0.35388 0.9432-0.33428 1.0843 0.32808 2.3609 0.38744 0.74678 0.70445 1.5708 0.70445 1.8312 0 0.64737-0.95372 1.8076-1.8793 2.2862-1.0897 0.56353-3.4084 0.50647-4.4172-0.1087zm1.9543-8.4407c0.30542-0.58741 0.89673-1.3805 1.314-1.7624 1.0071-0.92168 15.111-8.0851 16.645-8.4543 0.66083-0.159 1.8924-0.37221 2.7368-0.47379 0.8444-0.10158 1.5353-0.26558 1.5353-0.36443 0-0.36217-4.2587-5.0358-6.8358-7.5018-1.4579-1.3951-5.6528-5.2359-9.3219-8.5352-3.6691-3.2993-8.3948-7.5528-10.502-9.4522-5.2092-4.6965-6.6036-6.5401-7.638-10.098-0.36826-1.2668-0.51571-1.4749-0.96222-1.3581-0.83427 0.21817-0.8642 0.54054-0.13851 1.492 2.5759 3.3772 1.6398 8.0935-1.9694 9.9225l-1.2888 0.6531 1.3201 2.6138c0.90073 1.7835 1.4568 3.3173 1.7503 4.8283 0.39739 2.0455 0.3966 2.3715-0.01033 4.272-0.29547 1.3799-1.0503 3.284-2.2919 5.7815-2.1552 4.3352-2.3818 3.3375 1.774 7.8095 2.8186 3.033 9.6213 10.828 11.76 13.475l1.258 1.5572 0.15449-1.6682c0.08496-0.91754 0.40437-2.1488 0.70979-2.7362zm-58.049-32.031c5.104-4.4897 7.839-6.5813 16.536-12.646 4.0704-2.8384 7.4625-5.2609 7.5381-5.3831 0.07558-0.12228-0.37374-0.30545-0.99849-0.40703-0.62474-0.10158-2.7625-0.58075-4.7505-1.0648-5.3695-1.3074-7.4003-1.5669-12.406-1.585-5.0113-0.0181-6.4578 0.25855-6.6541 1.2726-1.3078 6.757-3.5381 23.142-3.15 23.142 0.05545 0 1.8035-1.4977 3.8845-3.3282zm40.617 43.689c-0.44124-0.83162-1.5141-2.8313-2.3841-4.4437-1.4893-2.76-1.5335-2.8929-0.75585-2.2695 0.45431 0.36415 2.2219 1.8035 3.928 3.1986l3.102 2.5365-1.1376 1.0071c-1.8808 1.665-1.8534 1.6654-2.7524-0.0291z" stroke-width=".267"/></g></svg>
