<?xml version="1.0" encoding="UTF-8"?>
<svg width="400" height="248.06" version="1.1" viewBox="0 0 105.83 65.632" xmlns="http://www.w3.org/2000/svg"><g transform="translate(87.488 -61.437)"><path d="m-80.027 126.44c-1.8762-0.87353-2.5322-1.8819-5.1113-7.8564-2.6862-6.2226-2.7988-7.0302-1.6844-12.088 0.39668-1.8004 0.89676-3.6293 1.1113-4.0643 0.52162-1.0577 1.6026-2.1947 2.5709-2.7043 0.44226-0.23271 3.7264-0.84297 7.4497-1.3843 3.6623-0.53245 6.7372-1.0465 6.833-1.1424 0.09585-0.09585-0.45215-1.7337-1.2178-3.6397-1.9495-4.8532-2.9156-7.8121-2.9088-8.909 0.0068-1.0922 0.8289-3.041 1.6584-3.9309 0.31726-0.34037 0.99208-0.83017 1.4996-1.0884 1.2941-0.65856 7.2763-2.5724 9.5083-3.0419 4.2942-0.90331 12.167-0.09072 19.419 2.0045 2.4502 0.70781 4.3659 1.4414 12.287 4.7052 5.5463 2.2852 8.1901 2.4901 12.403 0.96123 3.031-1.1001 3.8035-1.1488 5.8427-0.36848 1.2856 0.49198 1.569 0.72676 1.9445 1.6108 0.37144 0.87459 0.48971 0.97443 0.76352 0.64451 0.26243-0.31621 0.19859-0.60975-0.33599-1.5449-0.50738-0.88756-0.66071-1.5323-0.66316-2.7881-0.00414-2.1358 0.97296-4.0446 5.2005-10.159 1.7315-2.5043 3.6298-5.2652 4.2186-6.1352 1.9866-2.9356 3.6717-4.0865 5.9831-4.0865 1.0051 0 4.8686 1.2787 9.9479 3.2925 0.24127 0.09565 0.71583 0.84733 1.0546 1.6704 0.82303 1.9997 0.79721 3.8072-0.07841 5.488-0.36715 0.70477-3.811 6.027-7.6531 11.827-5.1167 7.7245-7.384 10.919-8.4748 11.939-2.7314 2.5557-4.0131 2.994-22.489 7.691-9.1508 2.3263-17.04 4.2271-17.532 4.2239-1.1614-8e-3 -2.818-0.78394-3.7139-1.7406-0.39057-0.41705-1.0157-1.4264-1.3891-2.2429-0.52949-1.1577-1.1203-1.8497-2.6834-3.1426-1.1024-0.91189-2.4303-1.8751-2.9509-2.1405-1.804-0.91974-4.5888-0.47252-6.0296 0.96832-0.77052 0.77052-0.86922 1.0324-0.86922 2.3059 0 1.2074 0.2484 1.9599 1.5563 4.7146 0.85595 1.8029 1.6915 3.78 1.8567 4.3938 0.52239 1.94-0.20291 4.1743-1.8739 5.7725-0.7973 0.76258-17.823 9.2276-20.621 10.253-1.5247 0.55856-3.2603 0.46224-4.8286-0.26794zm10.195-6.1177c10.043-4.7867 12.56-6.0725 13.172-6.7301 0.92716-0.99519 0.70374-2.13-1.1941-6.0655-1.5338-3.1806-1.7435-3.8014-1.7804-5.2729-0.11001-4.3755 2.1936-7.0022 6.8871-7.8532 1.3701-0.24841 1.9392-0.22794 3.2956 0.11853 1.904 0.48638 2.9809 1.1444 5.7888 3.5372 1.6461 1.4027 2.2228 2.1032 2.9856 3.6262 0.66024 1.3181 1.1583 1.9745 1.6509 2.1757 0.60124 0.24553 3.1522-0.33481 17.277-3.9304 17.504-4.4561 18.996-4.9432 20.952-6.8418 1.0776-1.0458 3.9456-5.2258 11.564-16.854 4.1591-6.3485 4.5272-7.1718 3.7072-8.2932-0.18156-0.2483-1.9259-1.0508-3.8763-1.7834-4.0769-1.5313-4.8752-1.5532-5.8943-0.16182-2.0548 2.8055-8.2077 11.982-8.9973 13.418-1.2184 2.2166-1.2094 2.9157 0.052991 4.1343 0.54562 0.52671 1.193 1.0763 1.4386 1.2213 0.39152 0.23115 0.21817 0.57237-1.4064 2.7683-1.5807 2.1366-2.0729 2.611-3.35 3.2288-2.1175 1.0244-2.2897 0.97803-2.9365-0.79012-0.99943-2.7321-1.1038-2.9185-1.72-3.0732-0.37109-0.09314-1.6052 0.20722-3.152 0.76716-5.3841 1.949-8.4569 1.5337-17.557-2.3725-7.5384-3.2357-12.257-4.5388-19.253-5.3166-5.1167-0.56887-6.6036-0.40056-12.112 1.3709-5.4194 1.743-5.7123 2.0948-4.5793 5.4999 0.39084 1.1746 1.4073 3.8438 2.2588 5.9316l1.5482 3.796-0.42768 1.9224c-0.38398 1.7259-0.49943 1.9369-1.1298 2.0643-0.38616 0.078-3.7274 0.56182-7.4251 1.0751-3.6976 0.51324-7.0334 1.0576-7.4128 1.2096-0.37938 0.15206-0.82132 0.53557-0.98209 0.85228-0.43365 0.85424-1.6237 6.3179-1.6237 7.4545 0 1.0248 3.5629 9.8337 4.5573 11.267 0.53791 0.7756 1.2684 1.1865 2.1601 1.2151 0.28696 9e-3 3.6682-1.483 7.5139-3.3159zm-7.6402 0.62596c0-0.0386-0.8898-2.1347-1.9773-4.658-1.0875-2.5233-1.9785-4.8349-1.98-5.1368-0.0014-0.30199 0.25451-1.7598 0.56878-3.2396 0.52925-2.4921 0.62179-2.7005 1.2549-2.8257 0.37595-0.0743 3.7541-0.55919 7.5069-1.0775 3.7528-0.51829 7.1594-1.1161 7.5701-1.3285 0.8044-0.41597 1.1859-1.3837 1.8226-4.6233l0.34118-1.736-2.1711-5.464c-1.1941-3.0052-2.1145-5.6115-2.0453-5.7919 0.15693-0.40896 5.8535-2.2059 8.2541-2.6037 1.3499-0.22369 2.5894-0.21596 5.095 0.03178 6.8872 0.68096 11.571 1.9471 19.144 5.1746 7.8906 3.3629 11.265 4.1479 15.365 3.5744 1.2245-0.1713 2.8327-0.5419 3.5737-0.82356 0.74106-0.28166 1.4352-0.51218 1.5425-0.51225 0.10731-7.1e-5 0.53458 0.74855 0.94949 1.6636 0.4149 0.91506 1.0682 1.9106 1.4518 2.2123l0.69744 0.5486-2.0424 0.54135c-3.6465 0.96653-25.024 6.3707-25.201 6.3707-0.09444 0-0.43622-0.56354-0.75951-1.2523-1.2297-2.6198-6.9022-7.1748-9.9297-7.9733-1.7321-0.45685-4.701-0.35663-6.5581 0.22137-4.2383 1.3191-6.5045 3.837-7.1629 7.9585-0.41485 2.5969-0.01629 4.3806 1.851 8.2842 0.88441 1.8489 1.5075 3.4602 1.3846 3.5807-0.19962 0.19585-18.259 8.9543-18.463 8.9543-0.04598 0-0.08358-0.0316-0.08358-0.0701zm8.2153-7.707 5.9744-2.8552-0.95281-1.9256c-0.79099-1.5986-1.0445-1.9054-1.4924-1.8066-0.29676 0.0655-2.7937 0.41875-5.5488 0.7851-6.6161 0.87977-6.0529 0.68861-6.3916 2.1691-0.27212 1.1892-0.22998 1.3938 0.77484 3.7634 1.2389 2.9216 1.2478 2.9385 1.4826 2.8175 0.09874-0.0508 2.868-1.3773 6.1539-2.9477zm38.921-17.452 4.8477-1.213-3.0397-0.99769c-1.6719-0.54873-4.6779-1.7079-6.6802-2.5759-4.6696-2.0244-8.3059-3.2789-11.527-3.9768-3.4214-0.74128-9.2373-1.403-10.559-1.2014-1.508 0.22993-4.8863 1.2254-4.8863 1.4398 0 0.19809 1.32 3.5127 1.4557 3.6554 0.04662 0.04904 0.59831-0.21015 1.226-0.57597 1.7871-1.0416 5.0479-2.0211 7.2777-2.1861 2.4796-0.18351 4.8993 0.32704 7.3705 1.5551 1.9161 0.95219 5.8996 4.1471 7.7165 6.1889 0.68513 0.76992 1.348 1.2841 1.5688 1.2169 0.2103-0.06397 2.5638-0.66215 5.2301-1.3293zm24.575-2.8364c0-0.05127 0.34551-0.31248 0.76779-0.58048 0.7009-0.44482 3.6226-4.107 4.8059-6.0238 0.93821-1.5199 0.51312-2.8353-1.263-3.908l-1.1896-0.71852 0.7205-1.2459c0.39628-0.68526 2.3931-3.6939 4.4374-6.6859 2.0443-2.992 3.8355-5.6378 3.9805-5.8796 0.23885-0.3983 0.50624-0.34687 2.8431 0.54682 1.7003 0.65023 2.536 1.0997 2.452 1.3188-0.1841 0.47976-12.431 19.001-13.424 20.302-0.45907 0.60122-1.2399 1.3724-1.7352 1.7137-0.88796 0.61191-2.3951 1.3425-2.3951 1.161zm16.082-2.4441c6.8e-5 -0.25313 2.5979-7.7074 2.8-8.0344 0.12683-0.20522 2.1932 0.80371 2.8345 1.384 0.12639 0.11436-1.0897 1.7037-2.7024 3.5319-1.6127 1.8282-2.9321 3.2315-2.9321 3.1185z" stroke-width=".26364"/></g></svg>
