<?xml version="1.0" encoding="UTF-8"?>
<svg width="400" height="241.22" version="1.1" viewBox="0 0 105.83 63.822" xmlns="http://www.w3.org/2000/svg"><g transform="translate(104.99 -88.968)"><path d="m-72.202 152.13c-1.9405-0.35-3.7046-0.70801-3.9202-0.79557-0.33152-0.13464 1.2034-0.50089 7.2524-1.7306l0.84939-0.17266v1.6922c0 1.1927-0.09644 1.685-0.32669 1.6676-0.17968-0.0135-1.9144-0.31103-3.8549-0.66103zm-25.482-4.1237c-2.7272-0.86474-5.1436-2.9486-6.5707-5.6662-0.65149-1.2406-0.74222-1.6907-0.73327-3.6373 0.0121-2.6156 0.49711-3.7812 2.2221-5.3396 2.3214-2.0973 3.8944-2.3703 9.8607-1.7114l2.8576 0.31557 1.1718-1.1718c1.373-1.373 3.5358-2.2854 5.4176-2.2854 1.2747 0 4.0442 0.74717 5.2229 1.4091 0.59651 0.33498 0.70522 0.27957 1.9601-0.99918 1.8339-1.8688 3.399-2.5729 6.0221-2.7096 2.5438-0.13253 3.9384 0.21023 5.4228 1.3328 0.98756 0.74686 3.0791 3.4565 3.4054 4.4119 0.091 0.26641 0.3881 0.21473 1.3093-0.22776 1.8491-0.88826 3.0715-2.8772 3.0715-4.9978 0-0.50522-0.42218-2.809-0.93818-5.1195-1.0296-4.6105-1.0294-5.3976 0.0024-7.4304 0.83569-1.6466 4.1307-6.599 4.7608-7.1555 1.53-1.3514 4.3284-1.6861 6.4283-0.76886l1.2366 0.54016 5.0358-3.2074c7.678-4.8903 14.455-8.9071 17.198-10.193 4.9072-2.3012 12.488-4.3893 16.064-4.4247 3.4485-0.03413 6.0213 1.4283 7.491 4.2579 0.50821 0.97846 0.61085 1.5723 0.61085 3.5343 0 2.1356-0.080692 2.5221-0.85483 4.094-1.7328 3.5186-4.4483 5.6578-7.4727 5.8869-1.3596 0.10297-2.2402-0.0649-5.7853-1.1031-5.1324-1.503-6.6652-1.5212-9.4413-0.11215-1.98 1.005-5.0667 3.7462-5.6846 5.0484-0.47808 1.0075-0.55084 2.4544-0.16854 3.3513 1.3196 3.0959 2.619 6.9092 2.619 7.686 0 3.225-2.5205 5.8482-5.619 5.8482-2.527 0-4.2872-1.3638-5.9314-4.5955l-1.125-2.2113-2.837-1.4549c-2.079-1.0661-2.9145-1.3774-3.1271-1.1648-0.50483 0.50484-0.52941 5.3788-0.04833 9.5843 0.46844 4.095 0.4374 4.7334-0.42683 8.7807-0.24064 1.127-0.34914 1.2549-1.3465 1.5873-0.93963 0.31322-1.1116 0.49066-1.2852 1.3265-0.51624 2.4847-2.7581 5.4052-5.0873 6.6273-1.9808 1.0394-4.4672 1.8351-6.7498 2.1604-2.8583 0.40723-36.84 0.32223-38.157-0.0954zm38.233-3.3155c5.486-0.8587 8.6791-3.7397 8.6791-7.8306v-1.2268l1.0409-0.16645c0.67651-0.10818 1.1794-0.37779 1.4365-0.77015 0.63856-0.97456 0.73829-3.4472 0.29169-7.232-0.61982-5.2528-0.55679-7.8935 0.24931-10.445 0.58361-1.8474 0.79297-2.193 1.6875-2.785l1.0213-0.67584 4.1275 2.1403c2.2701 1.1772 4.2741 2.262 4.4532 2.4106 0.17914 0.14865 0.9213 1.3718 1.6492 2.7182 0.72794 1.3463 1.5778 2.626 1.8886 2.8437 0.87139 0.61033 2.1981 0.49957 2.9434-0.24573 0.86376-0.86376 0.82944-1.9983-0.12853-4.2495-1.3226-3.108-2.1048-5.7356-2.1048-7.0701 0-4.6815 7.0659-10.617 13.07-10.979 1.7651-0.10644 2.3827 6e-3 6.1417 1.1144 4.8342 1.4259 6.0221 1.4681 7.5933 0.2697 1.2004-0.91559 2.3709-2.7419 2.883-4.4983 0.71102-2.4385-0.37535-4.6267-2.6883-5.4148-1.6353-0.5572-2.2507-0.52937-5.7988 0.26217-4.155 0.92696-8.7218 2.486-11.785 4.0231-2.8279 1.4191-10.992 6.3408-18.017 10.862l-4.5498 2.9281-1.9176-0.91068c-2.1718-1.0314-2.9116-1.0047-3.9551 0.14278-1.1154 1.2266-4.2342 6.4275-4.2355 7.0632-7.85e-4 0.3361 0.42112 2.453 0.93742 4.7043 1.3292 5.7959 1.0294 8.2369-1.3449 10.951-1.1885 1.3586-4.3012 3.204-5.4044 3.204-1.2432 0-2.2027-0.80286-3.4347-2.874-0.67818-1.1401-1.5369-2.3119-1.9083-2.6041-1.0782-0.84813-2.5368-1.1335-4.0905-0.8003-1.6945 0.3634-2.3078 0.76116-4.1015 2.6599-1.7582 1.8612-2.222 1.916-5.1856 0.61299-3.2929-1.4478-5.7765-1.0832-7.0891 1.0406-1.0109 1.6356-1.4334 1.696-7.1332 1.0205-3.3373-0.39555-3.6845-0.39539-4.7252 2e-3 -3.5839 1.3687-3.7156 5.4581-0.27324 8.4882 1.0902 0.95962 1.8061 1.2888 3.6347 1.671 1.0632 0.22226 34.557-0.10577 36.142-0.35398zm-37.206-2.5528c-1.1129-0.51555-2.7259-2.5747-2.7259-3.4801 0-0.78326 0.95084-1.5233 1.9572-1.5233 0.5015 0 2.5628 0.1889 4.5806 0.41979 4.8292 0.55258 5.2394 0.46419 7.1273-1.5357 1.8147-1.9224 2.2826-1.992 5.0745-0.75527 2.4649 1.0919 3.2289 1.2232 4.7192 0.81065 0.95037-0.26307 1.6037-0.71973 2.8068-1.9618 1.8009-1.8592 2.3644-2.2047 3.5962-2.2047 1.0528 0 1.5874 0.51137 2.9113 2.7845 0.51519 0.8846 1.2875 1.9036 1.7163 2.2644 3.781 3.1815 11.208-0.54724 13.09-6.5724 0.7939-2.5408 0.72857-4.9511-0.24812-9.1544-0.44613-1.92-0.81115-3.6682-0.81115-3.8848 0-0.29016 2.8184-5.2801 3.2524-5.7583 0.0332-0.0366 0.43226 0.0631 0.88679 0.22159 0.90598 0.31582 1.0629 0.68531 0.39921 0.93999-0.60506 0.23219-1.784 2.9809-2.3227 5.4156-0.41451 1.8733-0.42614 2.4508-0.12368 6.1417 0.18362 2.2407 0.38714 5.0863 0.45227 6.3236l0.11842 2.2496-1.1924 0.30025c-0.65581 0.16514-1.2977 0.5053-1.4264 0.75593-0.1287 0.25063-0.30126 1.2995-0.38348 2.3309-0.253 3.1739-1.2661 4.3709-4.5712 5.4013l-2.015 0.62817-17.902 0.16782c-17.184 0.16107-17.945 0.14803-18.966-0.32493zm16.007-3.0838c-0.09416-0.0941-0.63597-0.37929-1.204-0.63361-1.0475-0.469-1.1705-0.43426-1.6921 0.47811-0.14087 0.24637 0.21324 0.32669 1.4403 0.32669 0.89489 0 1.55-0.077 1.4559-0.17119zm11.929-1.4622c-0.52831-0.75465-1.0463-1.4728-1.1512-1.5959-0.10484-0.12311-0.63402 0.26695-1.176 0.86682-0.54194 0.59986-1.4056 1.3128-1.9192 1.5844l-0.93389 0.4937 3.0704 0.0115 3.0704 0.0116zm34.654-20.501c-0.5121-0.7824-1.3903-1.3576-4.6343-3.0352l-4.0025-2.0699 0.96122-0.65317c1.081-0.73458 7.5687-4.8765 9.0596-5.7839l0.97044-0.59064-1.0361 1.5516c-0.56987 0.85338-1.2284 2.0658-1.4635 2.6942-0.63141 1.6881-0.53394 4.3948 0.24586 6.8269 0.35717 1.114 0.62279 2.0255 0.59027 2.0255-0.03252 0-0.34345-0.4344-0.69095-0.96533zm21.844-17.243c-3.2376-0.98088-4.3145-1.1942-6.1846-1.2248-1.2454-0.0204-2.2411-0.06062-2.2127-0.08938 0.32714-0.33154 5.6414-2.0789 8.5319-2.8054 4.498-1.1304 5.7767-1.1861 6.6724-0.29042 0.73834 0.73834 0.79786 1.3532 0.25643 2.649-0.66386 1.5888-2.0203 2.9802-2.8818 2.956-0.14374-4e-3 -2.0255-0.54182-4.1816-1.1951z" stroke-width=".26135"/></g></svg>
