<?xml version="1.0" encoding="UTF-8"?>
<svg width="105.66mm" height="65.283mm" version="1.1" viewBox="0 0 105.66 65.283" xmlns="http://www.w3.org/2000/svg"><g transform="translate(-3.452 -3.0094)"><path d="m41.715 68.184c-0.21828-0.0428-1.2786-0.22168-2.3564-0.39759-5.712-0.9323-15.734-5.6504-25.293-11.907-4.7474-3.1073-5.4932-3.5201-7.8685-4.3553-1.4018-0.49288-2.1748-1.3152-2.6138-2.7806-0.25454-0.84957-0.17702-1.4606 0.55763-4.3957 1.2102-4.835 1.6975-5.9908 3.1579-7.4901 1.318-1.3531 3.3239-2.476 7.1108-3.9806 2.6228-1.0421 5.1282-2.6075 5.7904-3.618 0.43278-0.66038 0.50153-1.752 0.69673-11.063 0.24615-11.742 0.19212-11.459 2.398-12.556 1.2405-0.61703 1.3515-0.62687 3.3708-0.29894 1.9592 0.31816 2.1686 0.30447 3.3921-0.22185 2.432-1.0462 6.879-0.60017 9.5402 0.95696 1.959 1.1463 3.9024 3.1772 4.816 5.033 0.78112 1.5867 0.85674 1.992 1.1028 5.9106l0.26424 4.2072 2.0017-0.0066c1.1009-0.0036 10.957-0.17487 21.903-0.38051 18.504-0.34764 19.98-0.40918 21.034-0.87643 1.9659-0.8716 1.9736-0.99696 0.2194-3.5917-1.8236-2.6975-2.1286-3.7987-2.1286-7.6864 0-2.3914 0.0731-2.8333 0.59532-3.6007 0.83467-1.2264 1.7878-1.8645 3.0348-2.0318 1.5114-0.20272 2.7767 0.29831 4.0037 1.5854 1.543 1.6186 10.28 13.477 11.155 15.139 1.3797 2.6228 1.383 2.6913 1.144 23.297l-0.22117 19.07-0.78782 1.1709c-0.4333 0.644-0.92799 1.5657-1.0993 2.0483-0.42131 1.1867-1.0838 1.8818-2.3462 2.4614-1.0086 0.46316-2.4942 0.48482-31.618 0.46111-16.808-0.0137-30.738-0.0599-30.956-0.10264zm61.854-2.9186c0.42354-0.29666 0.58804-0.67985 0.58804-1.3698 0-0.75712 0.18024-1.1083 0.8599-1.6756l0.85989-0.71764 0.20511-16.235c0.27712-21.935 0.27828-21.9-0.80041-24.048-1.1248-2.2397-10.568-14.825-11.509-15.338-0.64844-0.3537-0.80677-0.3527-1.4552 0.0092-0.68577 0.38272-0.73233 0.52721-0.80993 2.5135-0.1248 3.1951 0.1005 4.147 1.4548 6.1468 1.4406 2.1272 2.1856 3.6673 2.1935 4.5346 9e-3 0.99353-1.1708 2.2957-2.8041 3.0948-1.3936 0.68184-1.8058 0.74312-6.286 0.93463-4.9049 0.20966-33.978 0.76633-39.744 0.76098l-3.1993-3e-3 -0.16807-4.8299c-0.19627-5.6402-0.4733-6.7269-2.2062-8.6542-1.6587-1.8449-4.0034-2.962-6.5616-3.1261-2.3997-0.154-3.2055 0.02986-3.6427 0.83121l-0.33742 0.61839-2.5135-0.49324c-2.7962-0.54871-3.586-0.48093-3.8434 0.32982-0.096 0.30233-0.26347 5.0348-0.37224 10.517-0.22347 11.261-0.2015 11.136-2.2834 12.969-1.6775 1.4766-3.0407 2.2361-6.528 3.6369-3.7608 1.5107-5.3311 2.514-6.1668 3.9401-0.36133 0.61656-1.0767 2.7442-1.5897 4.728-1.0686 4.1322-1.0168 4.4778 0.74147 4.9513 1.6673 0.44895 3.3787 1.3868 7.2101 3.9511 9.2604 6.1978 20.444 11.427 25.946 12.133 1.0095 0.12944 15.412 0.25041 32.005 0.26882 26.913 0.0299 30.233-0.011 30.758-0.37841zm-62.393-1.7123c-5.1828-0.60678-16.795-6.0825-25.606-12.074-3.3038-2.2468-6.0654-3.7936-6.7727-3.7936-0.21384 0-0.46128-0.11726-0.54985-0.26057-0.24738-0.40027 1.3742-6.2943 1.9568-7.1125 0.63742-0.89518 2.2531-1.784 5.8228-3.2033 4.6264-1.8394 7.3731-3.9284 8.5324-6.4892 0.57468-1.2695 0.60586-1.7106 0.77214-10.923 0.0953-5.28 0.24373-9.6705 0.32984-9.7566 0.0861-0.08611 1.283 0.04626 2.6598 0.29416 2.7173 0.48926 3.4153 0.36218 3.7468-0.68213 0.16435-0.51783 0.31957-0.55281 1.9362-0.43629 2.0359 0.14674 3.9521 1.0097 5.2498 2.3641 1.4764 1.5409 1.6675 2.3755 1.8511 8.0824 0.14628 4.5471 0.22724 5.2509 0.65294 5.6766 0.61563 0.61563 2.7718 0.62244 29.061 0.09177 20.987-0.42364 20.778-0.40524 23.389-2.0632 0.71926-0.45684 1.6318-1.3526 2.0505-2.0128 1.2665-1.997 0.95042-3.709-1.2898-6.9865-1.4279-2.089-1.4873-2.2451-1.6053-4.2198-0.0674-1.1278-0.0578-2.0505 0.0214-2.0505 0.25668 0 9.6368 12.795 10.28 14.023l0.62396 1.1906-0.0907 18.653-0.0907 18.653-0.77581 0.66146c-0.50047 0.4267-0.8327 1.0136-0.93611 1.6536l-0.1603 0.99218-29.665-0.0348c-16.316-0.0191-30.443-0.1259-31.395-0.23728zm59.454-3.366 0.79523-0.99219 0.17344-17.409c0.18877-18.947 0.24004-18.148-1.293-20.158l-0.70307-0.92177-0.65559 1.3156c-1.157 2.3217-3.9843 4.3564-7.1637 5.1554-1.6735 0.42056-14.196 0.78632-37.236 1.0876l-12.965 0.16952-0.92201-0.6351c-1.7999-1.2398-2.0167-2.0035-2.2103-7.7843-0.18534-5.5339-0.33593-6.1897-1.6607-7.2317-0.38641-0.30395-1.1642-0.69096-1.7285-0.86002-0.91839-0.27516-1.088-0.24926-1.6178 0.24707-0.94893 0.8889-2.0308 1.1811-3.6926 0.99724-1.4256-0.15771-1.5212-0.13221-1.6499 0.44013-0.0751 0.33414-0.1716 4.0603-0.21432 8.2804-0.0852 8.4183-0.16901 8.9472-1.834 11.575-1.3995 2.2086-4.9692 4.5158-10.347 6.6874-2.803 1.132-3.409 1.6417-3.9311 3.3067-0.64657 2.0619-0.61431 2.2085 0.63749 2.8967 0.61846 0.34002 2.97 1.8335 5.2255 3.3189 9.0706 5.9733 19.148 10.699 23.945 11.23 1.0186 0.11258 14.542 0.22086 30.052 0.24062l28.2 0.0359zm4.0358-49.848c-1.8292-3.649-2.067-3.5784 2.1803-0.64679l2.2633 1.5622-1.2946 1.1498c-0.71202 0.63237-1.3492 1.1498-1.416 1.1498-0.0668 0-0.84665-1.4467-1.733-3.215z" stroke-width=".26458"/></g></svg>
