<?xml version="1.0" encoding="UTF-8"?>
<svg width="105.83mm" height="62.329mm" version="1.1" viewBox="0 0 105.83 62.329" xmlns="http://www.w3.org/2000/svg"><g transform="translate(-13.246 -47.584)"><path d="m110.54 109.39c-0.716-0.27958-1.7287-0.8504-2.2505-1.2685-1.4206-1.1382-1.7595-1.269-4.9051-1.8921-3.9953-0.79148-16.862-5.0676-20.138-6.6926-1.4562-0.7224-7.6131-3.731-13.682-6.6857-10.674-5.1968-16.811-8.5094-18.257-9.8548-0.38316-0.35635-0.90476-1.1094-1.1591-1.6735-0.27978-0.62044-0.73674-1.1283-1.1567-1.2855-0.38184-0.14293-3.1368-1.3862-6.122-2.7629-13.737-6.3348-15.579-7.359-18.891-10.505l-1.9858-1.8863-1.5426 0.31305c-3.7547 0.762-6.8917-1.806-7.1866-5.8831-0.20191-2.7914 1.8004-5.7931 4.8075-7.2071 2.9965-1.409 5.9777-2.5303 8.1177-3.0532 3.5748-0.8735 8.3835-1.6187 9.3274-1.4454 1.1452 0.21016 3.0361 1.3028 3.386 1.9565 0.23497 0.43906 0.55938 0.52123 2.0577 0.52123 1.0093 0 2.5801-0.23382 3.6313-0.54052 2.179-0.63576 5.1949-0.7099 7.1955-0.17689 1.6748 0.44623 3.6881 1.6399 6.469 3.8356l2.105 1.662 0.87043-0.66391c1.9791-1.5095 4.9168-1.8725 7.8262-0.96704 3.4196 1.0643 14.294 8.9312 18.478 13.368 2.2772 2.4146 7.3738 9.1108 7.9264 10.414 0.44477 1.0491 0.47257 3.6103 0.04658 4.2924-0.38625 0.61849 0.1526 1.4971 3.0617 4.9924 5.9453 7.1432 9.0228 9.586 15.652 12.424 2.6748 1.1451 3.7699 1.9814 4.394 3.3558 0.65252 1.4369 0.62182 2.8832-0.099 4.6625-0.5013 1.2374-0.80462 1.5832-2.0321 2.3167-1.2144 0.7257-1.6962 0.86024-3.0432 0.84982-0.92118-7e-3 -2.1528-0.22811-2.9021-0.52071zm4.367-3.4181c0.55386-0.55384 0.77394-1.0316 0.77394-1.68 0-1.1219-0.4351-1.5243-2.6477-2.4486-2.7387-1.144-5.273-2.481-7.4135-3.9108-3.9435-2.6342-11.74-11.337-13.871-15.483-0.43217-0.84092-0.42545-0.89656 0.24691-2.0439 0.4871-0.83117 0.63507-1.3577 0.50116-1.7832-0.28353-0.90099-5.1621-7.3456-7.2036-9.5161-0.97997-1.0419-2.9732-2.9011-4.4295-4.1316-2.6997-2.2812-10.932-7.8819-12.535-8.5277-0.4869-0.19618-1.57-0.36599-2.407-0.37736-1.2315-0.01673-1.7278 0.11568-2.602 0.69421-0.59414 0.39318-1.2941 1.0769-1.5554 1.5193-0.26134 0.44242-0.64899 0.8044-0.86144 0.8044-0.21245 0-2.0633-1.2698-4.113-2.8218-2.0497-1.552-4.222-3.042-4.8274-3.3111-1.8031-0.80163-3.9076-0.8943-6.1847-0.27237-2.3011 0.62849-5.8551 0.97532-7.3704 0.7193-0.83782-0.14155-1.1936-0.38976-1.7381-1.2126-0.38534-0.58229-0.98354-1.1097-1.3682-1.2062-0.96864-0.24311-8.0448 1.0956-10.568 1.9993-6.7362 2.4126-8.0755 3.4483-8.0755 6.2451 0 1.0009 0.14157 1.3666 0.77394 1.9989 0.98506 0.98506 2.1785 1.023 3.5192 0.11202 0.53576-0.36406 1.0861-0.66192 1.2231-0.66192 0.13692 0 1.3858 1.082 2.7752 2.4045s3.1603 2.8779 3.9352 3.4566c1.3885 1.0368 6.3183 3.542 13.059 6.6362 11.731 5.3852 10.988 4.9961 10.988 5.7505 0 0.38381 0.18015 0.95504 0.40034 1.2694 0.7251 1.0352 6.7343 4.3359 16.545 9.0876 5.3152 2.5744 11.354 5.5285 13.419 6.5648 4.3683 2.1916 15.526 6.0119 20.674 7.0783 3.4284 0.71027 4.4632 1.1056 5.9255 2.2638 1.0616 0.84082 2.6357 1.5098 3.6228 1.5397 0.34656 0.0105 0.95469-0.31994 1.39-0.75529zm-11.801-5.7436c-0.87312-0.21106-4.6278-1.3778-8.3437-2.5927-5.4054-1.7673-7.629-2.6463-11.121-4.3964-2.4009-1.2031-8.4758-4.1781-13.5-6.611-5.024-2.433-10.325-5.1311-11.779-5.9958-2.4103-1.4329-2.658-1.6543-2.7953-2.4993-0.082879-0.5099-0.24207-1.0749-0.35376-1.2557-0.25566-0.41366-2.7554-1.6751-7.7669-3.9194-6.677-2.9901-14.873-6.9519-16.392-7.9234-0.79777-0.51033-2.7448-2.1755-4.3268-3.7004-1.582-1.5249-3.1684-2.8836-3.5253-3.0193-0.83366-0.31696-2.3054 0.01635-3.3469 0.75801-0.77166 0.54947-0.81456 0.55361-0.81456 0.07861 0-1.0182 1.9502-2.1464 6.6192-3.8292 1.4725-0.53071 7.321-1.7775 8.3915-1.7889 0.36775-0.0039 0.75193 0.28357 1.0474 0.78384 0.84279 1.4267 1.8186 1.6738 6.0254 1.5257 2.5045-0.08818 4.1125-0.27287 4.8901-0.56164 1.6083-0.59729 3.8497-0.55435 5.1785 0.0992 0.59206 0.2912 2.1488 1.3791 3.4594 2.4175 5.8355 4.6236 7.1085 4.9247 9.1134 2.1555 1.5396-2.1266 2.7138-1.9154 7.88 1.4173 7.2 4.6447 11.447 8.4727 15.754 14.2l2.5401 3.3779-0.49994 0.9806c-0.65564 1.286-0.62753 2.0458 0.13501 3.6487 1.8842 3.9608 10.249 13.446 14.209 16.113 1.5882 1.0696 1.574 1.0808-0.67811 0.53641zm-12.253-8.9053c-3.6004-4.4214-5.1669-7.3489-5.1465-9.6183 7e-3 -0.77581 0.08368-1.6343 0.17045-1.9077 0.11072-0.34885-0.34401-1.162-1.5247-2.7265-3.6355-4.8173-6.9205-7.7853-13.533-12.228l-4.2418-2.8496-0.83088 0.90696c-1.2728 1.3894-2.8438 2.0783-4.7392 2.0783-1.9303 0-3.0922-0.52698-5.9573-2.7019-1.0922-0.82908-2.7092-2.0569-3.5935-2.7286s-1.9015-1.2949-2.2605-1.385c-0.36495-0.09159-1.5824 0.09216-2.761 0.41671-1.6843 0.46384-2.88 0.58654-5.9473 0.61033-4.2319 0.03282-5.3111-0.19722-6.7172-1.4317l-0.84683-0.74353-1.9767 0.38994c-1.0872 0.21447-2.147 0.44697-2.3551 0.51666-0.45698 0.15306 1.8934 2.645 3.6471 3.8667 1.4918 1.0393 7.717 4.1185 14.729 7.2854 8.7609 3.9568 10.135 4.7205 11.028 6.1286 0.4182 0.65943 0.76036 1.3283 0.76036 1.4863 0 0.36796 3.9678 2.7123 6.884 4.0674 1.2378 0.57517 6.7781 3.2777 12.312 6.0056 9.6022 4.7335 13.35 6.4521 14.116 6.4721 0.19138 5e-3 -0.35545-0.8547-1.2152-1.9105zm-66.8-17.833c-1.8439-1.8547-2.7679-2.9465-2.3647-2.794 0.36406 0.13767 1.7938 0.75024 3.1772 1.3613 1.3834 0.61104 2.9116 1.2766 3.3959 1.479l0.88062 0.36804-0.87495 1.2183c-0.48122 0.67009-0.9453 1.2618-1.0313 1.315-0.08598 0.05314-1.5183-1.2733-3.1829-2.9477z" stroke-width=".26477"/></g></svg>
