<?xml version="1.0" encoding="UTF-8"?>
<svg width="400" height="269.09" version="1.1" viewBox="0 0 105.83 71.196" xmlns="http://www.w3.org/2000/svg"><g transform="translate(102.79 -89.518)"><path d="m-92.391 160.6c-1.0937-0.27983-2.2811-0.92704-2.846-1.5512-0.30456-0.33653-0.97952-0.58808-1.8798-0.70055-2.1333-0.26655-4.0284-1.5207-4.9385-3.2684-0.69628-1.3371-0.73542-1.5966-0.73456-4.8707 9.4e-4 -3.5761 0.3502-8.341 0.81318-11.094 0.46802-2.7827 3.1255-12.479 4.8346-17.64 3.4374-10.38 6.7606-16.352 11.658-20.952l2.1244-1.9953-0.27318-1.1938c-0.58009-2.535 0.64504-4.9505 3.1296-6.1705l1.5401-0.75622 8.6884-0.16378c4.7786-0.09008 9.8731-0.30274 11.321-0.47258 1.8959-0.22237 10.26-0.28707 29.883-0.23115 25.582 0.07291 27.314 0.10667 28.303 0.55175 2.4186 1.0888 3.8022 3.2155 3.8118 5.8588 0.013288 3.663-2.7911 6.4363-6.5085 6.4363-1.0175 0-1.1648 0.0674-1.056 0.48334 0.10496 0.40138-1.1573 1.163-7.4444 4.4913-4.1639 2.2044-8.3241 4.2376-9.2448 4.5183-2.3863 0.72749-5.8472 1.2973-7.9928 1.3159-2.8246 0.0246-3.813 0.27422-4.4474 1.1234-0.49391 0.66108-0.57074 1.2113-0.69858 5.0024-0.13302 3.9446-0.19521 4.359-0.84111 5.6044-0.38361 0.73961-1.2778 1.8651-1.9871 2.5012-1.0767 0.96549-6.1509 3.8259-12.284 6.9245-1.6527 0.835-3.7701 0.87016-5.4723 0.0908-2.8148-1.2886-2.7608-1.2041-10.715-16.771-2.7709-5.4226-5.0914-9.9128-5.1567-9.9781-0.1752-0.1752-2.211 2.141-2.2237 2.5299-6e-3 0.18281 1.1758 2.6259 2.626 5.429 2.1277 4.1125 2.7366 5.548 3.1537 7.4345 0.90043 4.0728 0.57289 6.0703-1.3029 7.9462-1.1217 1.1217-1.8279 1.469-5.7848 2.8442-5.2042 1.8089-7.1247 1.566-9.5514-1.208l-1.1639-1.3305-0.91589 3.885 3.7436 7.5186c3.5292 7.088 3.7436 7.6065 3.7434 9.0545-3.16e-4 3.6102-1.8633 5.3854-8.118 7.7351-2.8513 1.0712-4.5531 1.385-5.792 1.068zm4.5595-4.616c4.457-1.7008 5.577-2.5057 5.577-4.008 0-0.58296-1.2503-3.3731-3.8566-8.6062l-3.8566-7.7436 1.8172-7.3002 4.7114-2.4836 1.1078 2.1986c1.1992 2.3801 2.1079 3.3076 3.2406 3.3076 1.0741 0 7.056-2.2322 7.7637-2.8972 0.90019-0.84569 0.99092-1.6226 0.48635-4.1645-0.391-1.9698-0.87998-3.1019-3.5455-8.2088-1.7006-3.2581-3.1299-6.0542-3.1764-6.2135-0.11663-0.40023 5.5175-6.8681 6.5288-7.495 0.45151-0.27986 0.98466-0.50754 1.1848-0.50594 0.2144 2e-3 3.1756 5.5275 7.2092 13.453 7.6605 15.052 8.2142 15.916 10.173 15.878 0.91625-0.0176 2.0267-0.49089 5.4926-2.3412 6.3883-3.4104 7.1058-3.8556 8.0033-4.9666l0.81672-1.011 0.14077-4.2547c0.15565-4.7042 0.41198-5.6742 1.913-7.2391 1.4027-1.4623 2.056-1.6648 6.1512-1.9063 6.0057-0.35425 7.3571-0.7805 14.785-4.6632l6.4028-3.347-0.16608-1.361-0.16608-1.361 6.9225-0.17414 0.7676-0.85982c1.0334-1.1576 1.047-2.4556 0.036315-3.4663l-0.73129-0.73128-27.111-0.12415c-14.911-0.06828-27.94-0.03228-28.954 0.08002-1.0136 0.11229-5.9765 0.32576-11.029 0.47438-9.8812 0.29067-10.1 0.32609-10.743 1.738-0.23984 0.52639-0.16573 0.91507 0.4258 2.2332 0.3939 0.87772 0.67806 1.6946 0.63147 1.8153-0.04659 0.12069-0.9912 0.9461-2.0991 1.8342-6.8327 5.4772-10.689 13.103-15.387 30.427-0.78513 2.8952-1.6022 6.2158-1.8157 7.3791-0.47167 2.5698-0.92383 8.0674-0.92383 11.233 0 2.1882 0.04495 2.3775 0.75262 3.1695 0.72107 0.80701 0.83135 0.84086 2.6308 0.80749 1.6872-0.0312 1.9085 0.0241 2.1764 0.54408 1.0519 2.0419 2.1746 2.211 5.7134 0.86049zm-4.0899-3.2365-1.1101-1.2028-3.2579 0.3405 0.16332-4.2785c0.20789-5.4463 0.63046-8.0855 2.2869-14.283 2.0073-7.5107 4.5172-14.761 6.5626-18.956 2.7119-5.563 5.019-8.4223 9.3784-11.623 2.1915-1.6091 2.4907-2.3201 1.7393-4.133-0.31172-0.75208-0.56676-1.454-0.56676-1.5598 0-0.10581 2.8138-0.19484 6.253-0.19784 3.548-0.0031 7.8475-0.17057 9.939-0.38713 2.9121-0.30153 8.5071-0.3833 26.649-0.38946l22.963-0.0078-0.5386 0.91286c-0.35561 0.60271-0.50913 1.2512-0.45187 1.9088l0.08673 0.99594-2.8961 1.5277c-8.9555 4.7239-9.1843 4.8032-15.007 5.2051-5.1362 0.3545-6.1214 0.68181-8.1826 2.7183-2.3695 2.3411-2.8024 3.6282-2.9486 8.7656-0.09575 3.3646-0.18621 4.0649-0.56993 4.4122-0.25086 0.22703-2.8092 1.6586-5.6851 3.1813-4.9847 2.6391-5.25 2.7467-5.6782 2.3016-0.24704-0.25682-3.5652-6.5686-7.3737-14.026-3.8085-7.4575-7.2465-13.885-7.6401-14.283-0.93766-0.94882-2.1699-0.95039-4.1001-0.0053-1.2171 0.59597-2.0743 1.4126-5.0156 4.7782l-3.5476 4.0594 0.118 1.228c0.08837 0.91973 0.91112 2.7442 3.277 7.267 2.3394 4.4721 3.2434 6.4725 3.4843 7.71 0.17892 0.91911 0.2844 1.712 0.2344 1.762-0.05 0.0499-1.0724 0.4528-2.2721 0.89512s-2.4049 0.92397-2.6784 1.0703c-0.44107 0.23605-0.63579-2e-3 -1.7237-2.1086-1.3053-2.5273-2.1477-3.4216-3.2232-3.4216-0.78411 0-5.971 2.6704-6.8416 3.5223-0.44313 0.43363-0.87358 1.6712-1.6362 4.704-1.0228 4.0676-1.0301 4.1318-0.62723 5.514 0.22418 0.76919 1.9422 4.4119 3.8178 8.0949 1.8756 3.683 3.3582 6.8319 3.2947 6.9975-0.10245 0.26697-4.9742 2.2659-5.3969 2.2144-0.09201-0.0112-0.66684-0.56165-1.2774-1.2232zm0.39699-5.4682c-0.38525-0.79294-0.64312-1.075-0.7824-0.85566-0.41294 0.65023-0.2266 1.5245 0.37658 1.767 0.9742 0.39158 1.0051 0.32218 0.40582-0.91132zm43.766-25.475 3.1426-1.6455 0.0055-2.775c0.0095-4.7453 1.2684-8.1221 4.0342-10.82 2.7218-2.655 5.5091-3.6192 10.529-3.642 2.6516-0.012 5.5988-0.69132 7.7863-1.7945l1.9393-0.97808-5.362-0.16118c-2.9491-0.08864-11.049-0.16867-18-0.17783-13.527-0.01783-19.032 0.27648-18.874 1.0091 0.09943 0.4598 11.426 22.631 11.562 22.631 0.05194 0 1.5086-0.74048 3.237-1.6455zm-33.31-4.3442c-0.8209-1.5567-1.5987-2.9403-1.7285-3.0748-0.14156-0.14667-0.71235 0.76105-1.4264 2.2684-0.6547 1.3821-1.1904 2.5607-1.1904 2.6192 0 0.0584 0.85896 0.0684 1.9088 0.0221 1.5544-0.0686 2.0554 0.0124 2.6987 0.43639 0.43442 0.28634 0.88897 0.52928 1.0101 0.53985 0.12114 0.0105-0.45138-1.2544-1.2723-2.811zm5.5247 30.949c-0.57578-1.5356-2.9651-8.8988-2.8876-8.8988 0.05439 0 1.4698 1.6226 3.1453 3.6059 3.3592 3.9761 3.2935 3.6886 1.1245 4.922-0.93049 0.52913-1.2869 0.6248-1.3821 0.37092z" stroke-width=".26328"/></g></svg>
