<?xml version="1.0" encoding="UTF-8"?>
<svg width="105.83mm" height="91.08mm" version="1.1" viewBox="0 0 105.83 91.08" xmlns="http://www.w3.org/2000/svg"><g transform="translate(-13.491 -35.548)"><path d="m28.166 126.38c-4.0597-0.71264-6.9491-2.3108-10.068-5.5687-2.3723-2.4783-3.3177-4.1526-4.107-7.2738-0.72456-2.8652-0.66274-5.8226 0.19051-9.1155 0.25992-1.0031 3.8536-10.047 7.9859-20.097 4.1323-10.05 9.7498-23.773 12.483-30.495 2.7335-6.7221 5.28-12.879 5.6588-13.682 1.3432-2.8464 4.4394-4.6068 8.0997-4.6054 4.373 0.0016 7.9021 3.4278 8.324 8.0812 0.18615 2.0529-0.16038 3.2064-2.8588 9.5163-2.6168 6.119-2.856 7.0437-3.1489 12.171-0.19927 3.4882-0.39588 4.7733-0.90715 5.9291-0.35901 0.8116-0.61284 1.5155-0.56407 1.5643 0.04877 0.04877 0.62128-0.03145 1.2722-0.17827 4.1045-0.92571 8.1624-0.64049 15.272 1.0734 6.9437 1.674 8.3794 1.4554 14.082-2.1436 1.8486-1.1666 4.5986-2.6072 6.111-3.2014l2.75-1.0804 8.0971 0.05078c9.0337 0.05666 11.36 0.36562 14.55 1.9323 5.2408 2.5742 8.7232 9.3297 7.7815 15.095-0.47349 2.8987-1.5767 5.1435-4.5866 9.3332-3.1111 4.3305-4.679 6.9007-6.8491 11.228-2.6972 5.3782-5.0084 6.9287-10.271 6.8906-5.0495-0.0366-10.021-1.5792-14.289-4.4338-5.114-3.4204-6.9318-7.9013-4.7968-11.824 1.6831-3.0924 5.2725-5.1624 10.364-5.9768 3.2539-0.52049 7.8346-1.9292 7.9031-2.4305 0.07297-0.53394-2.8752-0.82703-8.667-0.86163-11.776-0.07034-21.474 2.1843-32.709 7.6038-5.9567 2.8735-7.3702 3.1945-9.4136 2.1379-0.97041-0.50182-0.97731-0.50019-0.82354 0.19391 1.1967 5.4015 3.2808 17.966 3.2837 19.797 0.0077 4.8447-2.362 8.4766-6.5361 10.018-1.5484 0.57162-10.975 0.8154-13.615 0.35206zm13.216-3.546c3.8587-2.0735 4.5846-5.2004 3.0383-13.088-1.1945-6.0925-3.191-17.599-3.191-18.391 0-1.0715 1.0789-1.9823 2.2154-1.8702 0.78428 0.07735 1.1822 0.42554 2.203 1.9277 1.7778 2.6161 2.1466 2.6044 8.111-0.25764 10.217-4.9026 18.187-7.0485 29.326-7.8954 5.0721-0.38567 12.113-0.04377 14.396 0.69908 1.581 0.51437 2.4146 1.5971 2.4146 3.1361 0 2.5008-2.4887 3.8459-9.8986 5.3502-5.1847 1.0526-6.9446 1.8902-8.6708 4.1269-0.75595 0.97948-0.92575 3.1087-0.33944 4.2566 0.60173 1.1782 3.1216 3.5772 4.8934 4.6587 4.7234 2.8832 11.964 4.1252 15.341 2.6313 1.6284-0.72032 2.3887-1.7128 4.4737-5.8404 2.0492-4.0566 3.2853-6.0676 6.331-10.3 2.8437-3.9514 3.622-5.4379 4.1042-7.8391 0.89325-4.4478-2.0087-10.14-6.2194-12.2-2.3235-1.1364-4.2129-1.3963-11.904-1.6374-7.6404-0.23952-8.7243-0.10404-12.32 1.5398-1.1764 0.53787-3.3623 1.7682-4.8576 2.734-3.5652 2.3028-5.3 2.9641-8.2835 3.1576-2.103 0.13636-3.0688 0.0065-6.8749-0.92466-9.9389-2.4315-11.62-2.3334-22.806 1.3296-3.0496 0.99864-5.9027 1.8157-6.3402 1.8157-0.98116 0-2.0177-0.98539-2.0177-1.9181 0-1.4203 0.79149-1.962 4.8119-3.2931 4.8302-1.5992 5.9541-2.1562 6.8963-3.4178 1.085-1.4528 1.3597-2.6906 1.5435-6.9541 0.19711-4.5737 0.53314-5.8891 2.9715-11.632 3.2768-7.7181 3.4767-8.6023 2.4473-10.826-1.5047-3.2499-4.6656-4.2522-8.0481-2.5519-0.62774 0.31555-1.3658 0.91635-1.6402 1.3351-0.27439 0.41876-2.6925 6.1575-5.3735 12.753-2.6811 6.5953-8.3243 20.379-12.54 30.63-4.2162 10.251-7.9123 19.421-8.2135 20.376-0.8574 2.7204-1.039 5.8853-0.46605 8.1218 0.71803 2.8028 1.5788 4.2675 3.8321 6.5211 3.7026 3.7031 6.4499 4.5535 14.39 4.4544 4.5046-0.0562 5.1718-0.13286 6.2638-0.71965zm-13.241-1.7798c-1.0645-0.23806-2.5082-0.76862-3.2083-1.179-1.766-1.0353-4.6915-4.1834-5.4219-5.8344-0.86095-1.9463-1.045-4.7635-0.48385-7.4048 0.28533-1.343 3.6035-9.8154 8.5564-21.847 4.4497-10.809 9.4236-22.953 11.053-26.986 5.861-14.506 6.547-16.017 7.498-16.508 1.4711-0.76073 3.2569-0.58437 4.2622 0.42091 1.5032 1.5032 1.4792 2.5824-0.14509 6.5188-0.78469 1.9017-1.9815 4.8158-2.6597 6.4757-1.429 3.4981-2.0587 6.6141-2.0762 10.273-0.0155 3.2543-0.39534 4.6454-1.5289 5.5992-0.50524 0.42514-2.5865 1.2957-4.8074 2.0108-4.625 1.4893-5.6182 2.0372-6.3011 3.4763-1.4393 3.033 0.49457 6.0245 3.8945 6.0245 0.58484 0 4.0611-0.99228 7.725-2.2051l6.6617-2.2051 4.4305-0.01016c4.1316-0.0095 4.75 0.06902 9.1666 1.164 4.2447 1.0523 5.0372 1.1602 7.6388 1.0398 3.6162-0.1674 5.1353-0.6931 9.0203-3.1215 6.9165-4.3234 7.9053-4.5863 16.184-4.3026 7.0118 0.24025 9.5177 0.55489 11.182 1.4041 3.0274 1.5445 4.8588 4.2902 5.0988 7.6443 0.21965 3.07-0.0682 3.9805-2.2908 7.2439-4.9992 7.3407-6.0077 8.9544-7.7639 12.423-1.0274 2.0291-2.1443 3.9926-2.4821 4.3635-2.9222 3.2084-16.112-0.77039-18.377-5.5435-0.50622-1.0668-0.50438-1.1576 0.04226-2.0935 0.84324-1.4438 3.3144-2.5611 7.1971-3.254 8.1232-1.4496 11.824-3.7439 11.827-7.3324 2e-3 -2.7312-1.597-4.7182-4.4125-5.4821-2.6081-0.70766-9.9875-1.0509-14.573-0.67776-11.894 0.96788-20.018 3.1557-30.161 8.1228-5.1038 2.4994-4.6854 2.4945-6.1369 0.0721-0.91538-1.5277-2.1872-2.1659-3.9258-1.9699-1.7627 0.19868-2.8612 1.0374-3.4161 2.6081-0.40638 1.1503-0.38323 1.6517 0.25968 5.625 0.3882 2.3992 1.3184 7.5934 2.0671 11.543 1.8672 9.8485 1.749 11.577-0.92809 13.578-0.76021 0.56815-1.3283 0.63635-5.7866 0.69483-3.3699 0.0442-5.5598-0.073-6.8791-0.36801zm11.187-3.0752c0.96475-0.67573 0.89466-2.351-0.37255-8.9047-2.0111-10.401-2.9791-16.686-2.8203-18.309 0.27572-2.8187 1.6409-4.7452 4.1775-5.8952 2.807-1.2726 6.4046-0.54576 8.1546 1.6474l0.7929 0.99372 3.3942-1.5931c2.8442-1.3349 5.1929-2.2897 9.8108-3.9884 0.5099-0.18756 0.3834-0.30199-0.76388-0.69101-0.97402-0.33027-2.667-0.46989-5.8055-0.47878l-4.4305-0.01255-6.7221 2.2311c-6.1454 2.0397-6.8844 2.2186-8.6129 2.0852-1.235-0.09531-2.3673-0.41222-3.2646-0.91374-0.91042-0.50884-1.4208-0.65005-1.5133-0.41864-0.07673 0.19205-2.0832 5.0617-4.4588 10.821-2.3756 5.7597-4.5378 11.325-4.805 12.368-0.87864 3.4297-0.2425 5.9355 2.1394 8.4274 2.4103 2.5216 4.0887 3.023 10.288 3.0732 3.2865 0.0266 4.2725-0.064 4.8124-0.44218zm59.829-14.6c3.5633-6.9297 4.9492-9.213 9.7665-16.091l1.8192-2.5972v-2.3417c0-2.1056-0.0926-2.4753-0.91868-3.6666-0.57259-0.82577-1.4705-1.5989-2.3835-2.0523-1.341-0.66589-2.049-0.75287-8.3793-1.0293-7.6003-0.33195-8.7863-0.20848-11.693 1.2172l-1.6805 0.82423 1.2222 0.08324c10.336 0.70389 11.989 0.97604 14.355 2.3622 4.585 2.687 5.1705 9.433 1.1344 13.071-2.3099 2.0823-6.4845 3.6837-11.823 4.5354-2.5351 0.40444-4.4305 1.03-4.4305 1.4623 0 0.32368 2.2528 1.9301 3.8211 2.7248 2.2354 1.1327 6.2024 1.9643 8.0954 1.6971 0.58819-0.083 1.0808-0.17309 1.0947-0.20012zm-58.76-34.424c2.0315-0.76008 1.9562-0.56926 2.1709-5.4994 0.19712-4.5268 0.82182-6.8241 3.6796-13.532 1.2735-2.9893 2.3155-5.5674 2.3155-5.7291 0-0.58332-0.93816-0.27831-1.2101 0.39342-0.15308 0.37812-2.5421 6.2362-5.3089 13.018-5.668 13.893-5.5085 12.794-1.6469 11.349zm-17.348 3.3089c-0.67221-0.34933-1.2778-0.68493-1.3457-0.74577-0.11227-0.10055 5.1335-7.1459 5.3206-7.1459 0.04413 0-0.31893 1.4781-0.80679 3.2847-0.48786 1.8066-0.9941 3.6878-1.125 4.1806-0.30475 1.1474-0.55521 1.1997-2.0432 0.42646z" stroke-width=".30555"/></g></svg>
