<?xml version="1.0" encoding="UTF-8" standalone="no"?>
<!-- Created with Inkscape (http://www.inkscape.org/) -->
<svg xmlns:dc="http://purl.org/dc/elements/1.1/" xmlns:cc="http://creativecommons.org/ns#" xmlns:rdf="http://www.w3.org/1999/02/22-rdf-syntax-ns#" xmlns:svg="http://www.w3.org/2000/svg" xmlns="http://www.w3.org/2000/svg" xmlns:xlink="http://www.w3.org/1999/xlink" xmlns:sodipodi="http://sodipodi.sourceforge.net/DTD/sodipodi-0.dtd" xmlns:inkscape="http://www.inkscape.org/namespaces/inkscape" width="847.63971" height="893.18469" id="svg2383" sodipodi:version="0.32" inkscape:version="0.48.4 r9939" version="1.0" sodipodi:docname="Hungaroring.svg" inkscape:output_extension="org.inkscape.output.svg.inkscape" inkscape:export-filename="D:\Images\Race Tracks\Hungaroring.png" inkscape:export-xdpi="90.015755" inkscape:export-ydpi="90.015755">
  <defs id="defs2385">
    <clipPath clipPathUnits="userSpaceOnUse" id="clipPath9724">
      <path id="path9726" d="M 727.23942,720.30758 C 1333.36,720.30758 1939.4804,720.30758 2545.601,720.30758 C 2545.601,974.89282 2545.601,1229.4779 2545.601,1484.0631 C 1939.4804,1484.0631 1333.36,1484.0631 727.23942,1484.0631 C 727.23942,1229.4779 727.23942,974.89282 727.23942,720.30758 L 727.23942,720.30758 z" style="fill:#6a6a6a;fill-opacity:1;fill-rule:nonzero;stroke:#010101;stroke-width:0.94262564;stroke-linecap:round;stroke-linejoin:round;stroke-miterlimit:4;stroke-dasharray:none;stroke-dashoffset:0;stroke-opacity:1"/>
    </clipPath>
    <clipPath clipPathUnits="userSpaceOnUse" id="clipPath3490">
      <rect style="opacity:1;fill:#006a00;fill-opacity:1;fill-rule:nonzero;stroke:none" id="rect3492" width="1511.7875" height="1003.7479" x="683.1405" y="104.1039" transform="matrix(-0.7183395,0.6956928,-0.6956928,-0.7183395,0,0)"/>
    </clipPath>
    <pattern patternUnits="userSpaceOnUse" width="18.181098" height="18.137641" patternTransform="matrix(0.1737876,0,0,0.1737876,763.47719,1693.9071)" id="pattern4912">
      <g id="g4907" transform="translate(-1025.5348,-1215.2814)">
        <rect style="opacity:1;fill:#000000;fill-opacity:1;stroke:none;stroke-width:0.5;stroke-linecap:round;stroke-linejoin:round;stroke-miterlimit:4;stroke-dasharray:none;stroke-dashoffset:0;stroke-opacity:1" id="rect4899" width="18.172573" height="18.095789" x="1025.5348" y="1215.2814"/>
        <rect style="opacity:1;fill:#ffffff;fill-opacity:1;stroke:none;stroke-width:0.5;stroke-linecap:round;stroke-linejoin:round;stroke-miterlimit:4;stroke-dasharray:none;stroke-dashoffset:0;stroke-opacity:1" id="rect4903" width="9.0746527" height="9.0746527" x="1025.5348" y="1215.2814"/>
        <rect style="opacity:1;fill:#ffffff;fill-opacity:1;stroke:none;stroke-width:0.5;stroke-linecap:round;stroke-linejoin:round;stroke-miterlimit:4;stroke-dasharray:none;stroke-dashoffset:0;stroke-opacity:1" id="rect4905" width="9.0746527" height="9.0746527" x="1034.6412" y="1224.3444"/>
      </g>
    </pattern>
    <pattern inkscape:collect="always" xlink:href="#pattern4912" id="pattern4166" patternTransform="matrix(0.4562459,1.6264824e-8,-1.6264824e-8,0.4562459,-1778.2267,454.6431)"/>
    <clipPath clipPathUnits="userSpaceOnUse" id="clipPath3494">
      <rect style="opacity:1;fill:#006a00;fill-opacity:1;fill-rule:nonzero;stroke:none" id="rect3496" width="2168.1926" height="1468.4177" x="-4232.8457" y="-2372.1296" transform="matrix(-0.9472965,-0.3203582,0.9519016,-0.3064038,0,0)"/>
    </clipPath>
    <clipPath clipPathUnits="userSpaceOnUse" id="clipPath9716">
      <path id="path9718" d="M 871.13547,932.36346 C 1314.8756,1345.252 1758.6155,1758.1404 2202.3556,2171.029 C 2375.7787,1984.6474 2549.2018,1798.266 2722.6249,1611.8845 C 2278.8848,1198.996 1835.1448,786.10758 1391.4047,373.21904 C 1217.9816,559.60052 1044.5586,745.98194 871.13547,932.36346 z" style="fill:#6a6a6a;fill-opacity:1;fill-rule:nonzero;stroke:#010101;stroke-width:0.9426257;stroke-linecap:round;stroke-linejoin:round;stroke-miterlimit:4;stroke-dasharray:none;stroke-dashoffset:0;stroke-opacity:1"/>
    </clipPath>
    <inkscape:perspective sodipodi:type="inkscape:persp3d" inkscape:vp_x="0 : 526.18109 : 1" inkscape:vp_y="0 : 1000 : 0" inkscape:vp_z="744.09448 : 526.18109 : 1" inkscape:persp3d-origin="372.04724 : 350.78739 : 1" id="perspective2391"/>
    <inkscape:perspective id="perspective2400" inkscape:persp3d-origin="372.04724 : 350.78739 : 1" inkscape:vp_z="744.09448 : 526.18109 : 1" inkscape:vp_y="0 : 1000 : 0" inkscape:vp_x="0 : 526.18109 : 1" sodipodi:type="inkscape:persp3d"/>
    <inkscape:perspective id="perspective3200" inkscape:persp3d-origin="372.04724 : 350.78739 : 1" inkscape:vp_z="744.09448 : 526.18109 : 1" inkscape:vp_y="0 : 1000 : 0" inkscape:vp_x="0 : 526.18109 : 1" sodipodi:type="inkscape:persp3d"/>
  </defs>
  <sodipodi:namedview id="base" pagecolor="#ffffff" bordercolor="#ffffff" borderopacity="0.0" inkscape:pageopacity="0.0" inkscape:pageshadow="0" inkscape:zoom="0.94711919" inkscape:cx="369.48188" inkscape:cy="671.75833" inkscape:document-units="px" inkscape:current-layer="layer1" showgrid="false" showborder="false" inkscape:window-width="1422" inkscape:window-height="822" inkscape:window-x="7" inkscape:window-y="0" inkscape:window-maximized="0"/>
  <metadata id="metadata2388">
    <rdf:RDF>
      <cc:Work rdf:about="">
        <dc:format>image/svg+xml</dc:format>
        <dc:type rdf:resource="http://purl.org/dc/dcmitype/StillImage"/>
        <dc:title>Track map for Hungaroring</dc:title>
        <dc:date>7-30-2008</dc:date>
        <dc:creator>
          <cc:Agent>
            <dc:title>Will Pittenger</dc:title>
          </cc:Agent>
        </dc:creator>
        <dc:publisher>
          <cc:Agent>
            <dc:title>Will Pittenger</dc:title>
          </cc:Agent>
        </dc:publisher>
        <dc:subject>
          <rdf:Bag>
            <rdf:li>Hungaroing</rdf:li>
            <rdf:li>Hungary</rdf:li>
            <rdf:li>Budapest</rdf:li>
            <rdf:li>Formula 1</rdf:li>
            <rdf:li>road course</rdf:li>
            <rdf:li>racing</rdf:li>
          </rdf:Bag>
        </dc:subject>
        <dc:description>Create in Inkscape with data from Google Earth</dc:description>
        <cc:license rdf:resource="http://creativecommons.org/licenses/by-sa/3.0/"/>
      </cc:Work>
      <cc:License rdf:about="http://creativecommons.org/licenses/by-sa/3.0/">
        <cc:permits rdf:resource="http://creativecommons.org/ns#Reproduction"/>
        <cc:permits rdf:resource="http://creativecommons.org/ns#Distribution"/>
        <cc:requires rdf:resource="http://creativecommons.org/ns#Notice"/>
        <cc:requires rdf:resource="http://creativecommons.org/ns#Attribution"/>
        <cc:permits rdf:resource="http://creativecommons.org/ns#DerivativeWorks"/>
        <cc:requires rdf:resource="http://creativecommons.org/ns#ShareAlike"/>
      </cc:License>
    </rdf:RDF>
  </metadata>
  <g inkscape:label="Layer 1" inkscape:groupmode="layer" id="layer1" transform="translate(-927.10531,-159.74818)">
    <path sodipodi:nodetypes="cc" id="path3185" d="M 1201.1491,758.35582 C 1200.85,757.15945 1180.5119,652.17855 1180.5119,652.17855" style="fill:none;fill-rule:evenodd;stroke:#ffffff;stroke-width:12;stroke-linecap:butt;stroke-linejoin:round;stroke-miterlimit:4;stroke-dasharray:none;stroke-opacity:1"/>
    <path style="fill:none;stroke:#c8c8c8;stroke-width:10;stroke-linecap:butt;stroke-linejoin:round;stroke-miterlimit:4;stroke-opacity:1;stroke-dasharray:none" d="m 1201.4197,757.54383 c 0.9088,-6.18854 6.0251,-16.75734 9.9354,-19.94274 4.0621,-2.78537 10.5102,-10.9443 13.4656,-14.23129 2.9307,-3.25959 4.4989,-7.26577 6.06,-11.164 0.7962,-4.66045 -0.5869,-14.08904 -2.4839,-18.14012 -4.0864,-6.77265 -17.0829,-15.76973 -23.8183,-16.92629 -4.5414,-1.69156 -16.1178,-3.62509 -20.5467,-11.42774" id="path3183" sodipodi:nodetypes="ccscccc" inkscape:connector-curvature="0"/>
    <path sodipodi:nodetypes="css" id="path3189" d="M 1615.0161,1001.8158 C 1597.0707,1002.3143 1578.8499,1001.438 1560.9555,1002.7131 C 1536.8775,1004.4289 1512.9763,1007.3241 1488.9493,1009.8165" style="fill:none;fill-rule:evenodd;stroke:#ffffff;stroke-width:4;stroke-linecap:butt;stroke-linejoin:round;stroke-miterlimit:4;stroke-dasharray:none;stroke-opacity:1"/>
    <path sodipodi:nodetypes="cssssssssssssssss" id="path3191" d="M 1588.5646,911.82317 C 1606.3732,910.94589 1624.1912,913.10655 1641.9905,914.45498 C 1653.1412,915.29973 1664.7973,915.8391 1675.1514,918.92907 C 1681.5532,920.83955 1687.8406,924.34975 1692.2582,929.45634 C 1697.4029,935.40338 1702.2602,943.00809 1704.1014,950.51087 C 1705.7693,957.30763 1704.337,965.32711 1702.7854,972.35495 C 1701.3543,978.8371 1697.5903,984.92885 1693.3109,989.59335 C 1688.8176,994.49113 1683.3725,1000.7092 1676.4673,1001.0418 C 1656.1254,1002.0215 1632.2915,1001.7258 1613.5669,1001.8313 C 1608.3165,1001.8609 1606.9649,992.21337 1602.7764,988.9354 C 1600.9117,987.4761 1597.8482,987.16296 1595.4073,987.61949 C 1562.6696,993.7425 1530.071,1002.3175 1497.2406,1008.674 C 1488.8392,1010.3006 1480.007,1010.2773 1471.4487,1010.2531 C 1386.8407,1010.0141 1302.9605,1009.0562 1218.1364,1009.2004 C 1191.2816,1009.2461 1164.3267,1015.5613 1137.4712,1015.7799 C 1096.2301,1016.1156 1054.3008,1015.9127 1012.7231,1016.0431 C 989.29215,1016.1162 977.85152,1017.9293 960.74471,1018.5434" style="fill:none;fill-rule:evenodd;stroke:#ffffff;stroke-width:4;stroke-linecap:butt;stroke-linejoin:round;stroke-miterlimit:4;stroke-dasharray:none;stroke-opacity:1"/>
    <path style="fill:none;stroke:#000000;stroke-width:11.80000019;stroke-linecap:butt;stroke-linejoin:round;stroke-miterlimit:4;stroke-opacity:1;stroke-dasharray:none" d="m 1249.0036,1023.6494 c -96.1061,-0.6697 -181.092,1.1582 -276.37821,-0.4497 -9.20299,-0.1553 -15.99536,-5.7889 -19.82106,-13.0882 -1.59465,-3.0425 -3.73133,-10.14768 -2.6176,-17.94991 0.75661,-5.3004 8.95292,-14.60894 13.38489,-18.17034 17.90015,-14.38405 28.03372,-23.76958 48.08398,-35.29273 14.6443,-8.41624 25.7279,-16.00767 41.8054,-21.08477 14.2304,-4.49381 35.2699,-9.05202 50.2382,-9.49443 65.9856,-1.95031 119.1026,-0.45118 184.7844,-2.90986 8.8915,-0.33284 22.6503,-1.84869 29.9765,-6.21127 6.4019,-3.8122 16.569,-13.42473 19.0653,-28.63625 1.5284,-9.31363 -0.4669,-22.87846 -4.3357,-28.78921 -9.0287,-13.79424 -15.5154,-18.54994 -23.1715,-22.50146 -29.4312,-15.19025 -67.4166,-22.31072 -95.1829,-39.03022 -9.321,-5.61262 -12.2985,-17.58624 -14.2844,-26.17159 -7.1979,-31.1179 -5.6551,-28.3884 -9.7189,-50.70919 -5.8627,-29.69674 -7.5413,-38.57357 -13.012,-62.34718 -15.5854,-67.5368 -29.6477,-136.05043 -42.4709,-204.57818 -4.3097,-23.03122 2.7002,-50.15102 -1.7945,-71.78181 -1.8859,-9.07588 -9.5404,-14.33842 -17.3473,-20.33819 -35.2622,-27.09963 -76.3507,-48.61983 -108.8691,-77.76364 -9.75317,-8.74104 -15.94658,-23.45338 -17.94547,-35.89091 -1.5902,-9.89459 1.77976,-22.54245 7.17818,-31.10545 6.16649,-9.78124 16.74989,-19.21691 27.51639,-23.92727 14.7559,-6.4557 32.558,-10.39555 49.0509,-9.57091 55.2889,2.76445 112.2509,10.38278 166.2945,20.33818 6.5721,1.21066 12.9584,7.57214 15.5528,13.16 2.5899,5.5782 -1.004,13.712 0,20.33818 0.99,6.53382 1.4173,10.0323 6.3551,14.28901 29.7567,25.65238 67.1574,52.10626 101.4614,71.70533 7.3261,4.18562 21.1063,5.84498 27.3817,4.86194 11.4657,-1.79609 50.3614,-31.47019 74.6152,-41.57592 9.2444,-3.85184 22.4955,-2.36198 31.1054,1.94296 10.5319,5.26597 20.5134,19.3781 27.0666,30.12941 18.9693,31.12142 29.5534,68.69467 50.2473,98.10182 9.614,13.66194 25.2851,24.22322 40.6763,31.10545 33.6597,15.05111 74.4902,18.2613 106.4764,34.69455 11.4817,5.89887 23.6768,19.19213 23.9273,32.30182 2.1422,112.1097 -3.8553,214.5369 -12.6429,329.9178 -0.6925,9.09322 -4.8554,20.99604 -16.1645,19.87928 -29.8914,-2.95174 -74.2122,-8.23567 -105.1853,-11.22618 -26.8511,-2.59252 -51.5462,-3.43664 -76.8733,1.19637 -7.3735,1.34881 -15.0182,8.09858 -18.9934,14.65774 -4.0005,6.60084 -4.4852,18.27376 -3.1393,25.19555 1.4457,7.43457 6.5759,15.44592 13.0116,20.71148 6.7243,5.50171 13.8232,9.68042 22.5871,10.02069 44.4751,1.72677 67.979,-1.3799 110.0655,-0.59819 8.9239,0.16575 28.8602,2.86243 38.36,12.18853 14.4796,14.21473 19.1124,22.57583 21.9079,34.61806 2.3887,10.28989 -0.286,23.04361 -5.2352,32.75159 -5.4193,10.63018 -14.8607,21.43452 -25.1237,27.51632 -11.2715,6.6794 -26.7869,7.5789 -40.3841,7.556 -132.361,-0.2229 -264.6869,2.9403 -397.485,2.0149 z" id="path2406" sodipodi:nodetypes="sssssssssssssssccssssssssssssssssssssssssssssssssssss" inkscape:connector-curvature="0"/>
    <path style="fill:none;stroke:#c8c8c8;stroke-width:3.9000001;stroke-linecap:butt;stroke-linejoin:round;stroke-miterlimit:4;stroke-opacity:1;stroke-dasharray:none" d="m 1627.9865,1004.7927 c -6.2599,-5.88613 -17.718,-15.80766 -20.4553,-17.5808 -3.1445,-2.03691 -16.4224,-0.0972 -28.1127,2.95054 -4.8434,1.26272 -10.141,2.92155 -17.5667,5.33588 -5.3589,1.74236 -20.9103,7.54608 -26.2258,9.23478 -5.067,1.6096 -11.413,3.3092 -20.0721,3.7153" id="path3181" sodipodi:nodetypes="csssss" inkscape:connector-curvature="0"/>
    <path style="fill:none;stroke:#000000;stroke-width:5.80000019;stroke-linecap:butt;stroke-linejoin:round;stroke-miterlimit:4;stroke-opacity:1;stroke-dasharray:none" d="m 1582.9652,909.9567 c 17.8086,-0.87728 41.226,3.14985 59.0253,4.49828 11.1507,0.84475 23.9267,3.25059 34.2808,6.34056 6.4018,1.91048 14.9289,8.78032 19.3465,13.88691 5.1447,5.94704 7.7623,10.93869 9.6035,18.44147 1.6679,6.79676 0.9822,12.94978 -0.5694,19.97762 -1.4311,6.48215 -4.4485,12.5739 -8.7279,17.2384 -4.4933,4.89778 -14.0261,9.23862 -20.5766,11.44846 -11.7561,3.966 -20.285,4.7902 -39.0096,4.8957 -16.6561,-0.2554 -20.5811,-0.1449 -28.1893,-0.04 -38.631,1.5865 -56.6084,1.7217 -87.0171,1.283 -8.5565,-0.1234 -39.2579,3.8431 -47.8162,3.8189 -84.608,-0.239 -170.728,-0.4503 -255.5521,-0.3061 -26.8548,0.046 -80.2919,4.3397 -80.2919,4.3397 -19.6439,1.4801 -24.2599,2.3298 -28.0651,2.503 -14.1078,0.6421 -19.1933,2.2595 -36.3001,2.8736" id="path3179" sodipodi:nodetypes="csssssssccssssss" inkscape:connector-curvature="0"/>
    <g style="display:inline" id="g3804" transform="translate(-664.94355,-385.71941)" clip-path="url(#clipPath9724)">
      <text id="text3180" y="964.98792" x="2073.4658" style="font-size:64px;font-style:normal;font-weight:normal;fill:#000000;fill-opacity:1;stroke:#ffffff;stroke-width:1px;stroke-linecap:butt;stroke-linejoin:miter;stroke-opacity:1;font-family:Times New Roman" xml:space="preserve"><tspan y="964.98792" x="2073.4658" id="tspan3182" sodipodi:role="line">N</tspan></text>
      <path id="path2745" d="M 2136.2939,921.48874 L 2175.9448,959.26515 L 2175.1001,959.85677 L 2160.5455,956.12347 L 2159.0754,971.07737 L 2158.2307,971.66868 L 2136.2939,921.48874 z" style="fill:#ff0000;fill-opacity:1;fill-rule:nonzero;stroke:#ffffff;stroke-width:1;stroke-linecap:round;stroke-linejoin:round;stroke-miterlimit:4;stroke-dasharray:none;stroke-dashoffset:0;stroke-opacity:1"/>
    </g>
    <g style="display:inline" transform="matrix(-0.7363955,0.6765512,-0.6765512,-0.7363955,3126.8985,656.59998)" id="g4801" clip-path="url(#clipPath9716)">
      <path clip-path="url(#clipPath3494)" transform="matrix(-0.358939,0.3679125,-1.1151124,-1.0879142,3587.0721,1686.6577)" d="m 1695.937,1398.5206 -24.4812,0 12.2406,-21.2013 z" inkscape:randomized="0" inkscape:rounded="0" inkscape:flatsided="true" sodipodi:arg2="1.5707963" sodipodi:arg1="0.52359878" sodipodi:r2="7.0671172" sodipodi:r1="14.134234" sodipodi:cy="1391.4535" sodipodi:cx="1683.6964" sodipodi:sides="3" id="path3463" style="fill:#ff0000;fill-opacity:1;stroke:#ffffff;stroke-width:0.83812821;stroke-linecap:round;stroke-linejoin:miter;stroke-miterlimit:4;stroke-opacity:1;stroke-dasharray:none;stroke-dashoffset:0;display:inline" sodipodi:type="star"/>
      <rect clip-path="url(#clipPath3490)" ry="0" transform="matrix(-0.7183395,-0.6956928,0.6956928,-0.7183395,0,0)" y="376.01733" x="-1620.8837" height="53.588943" width="13.041035" id="rect3457" style="fill:url(#pattern4166);fill-opacity:1;stroke:#000000;stroke-width:0.74999946;stroke-linecap:round;stroke-linejoin:round;stroke-miterlimit:4;stroke-opacity:1;stroke-dasharray:none;stroke-dashoffset:0;display:inline"/>
    </g>
    <g id="g3571" transform="translate(21.075646,18.147535)">
      <path transform="matrix(0.9,0,0,0.9,-610.77106,105.47882)" d="m 1796.9381,962.63489 c 0,13.21467 -10.7126,23.92727 -23.9272,23.92727 -13.2147,0 -23.9273,-10.7126 -23.9273,-23.92727 0,-13.21467 10.7126,-23.92728 23.9273,-23.92728 13.2146,0 23.9272,10.71261 23.9272,23.92728 z" sodipodi:ry="23.927273" sodipodi:rx="23.927273" sodipodi:cy="962.63489" sodipodi:cx="1773.0109" id="path3569" style="fill:#ffffff;fill-opacity:1;fill-rule:nonzero;stroke:#181818;stroke-width:1.11111116;stroke-linecap:round;stroke-linejoin:round;stroke-miterlimit:4;stroke-opacity:1;stroke-dasharray:none;stroke-dashoffset:66;marker:none;visibility:visible;display:inline;overflow:visible;enable-background:accumulate" sodipodi:type="arc"/>
      <text id="text3389" y="985.36584" x="975.03638" style="font-size:40px;font-style:normal;font-weight:normal;writing-mode:lr-tb;fill:#000000;fill-opacity:1;stroke:none;font-family:Times New Roman" xml:space="preserve"><tspan y="985.36584" x="975.03638" id="tspan3391" sodipodi:role="line">1</tspan></text>
    </g>
    <g id="g3564" transform="translate(323.75828,5.1316112)">
      <path transform="matrix(0.9,0,0,0.9,-545.27374,-9.3721313)" d="m 1796.9381,962.63489 c 0,13.21467 -10.7126,23.92727 -23.9272,23.92727 -13.2147,0 -23.9273,-10.7126 -23.9273,-23.92727 0,-13.21467 10.7126,-23.92728 23.9273,-23.92728 13.2146,0 23.9272,10.71261 23.9272,23.92728 z" sodipodi:ry="23.927273" sodipodi:rx="23.927273" sodipodi:cy="962.63489" sodipodi:cx="1773.0109" id="path3562" style="fill:#ffffff;fill-opacity:1;fill-rule:nonzero;stroke:#181818;stroke-width:1.11111116;stroke-linecap:round;stroke-linejoin:round;stroke-miterlimit:4;stroke-opacity:1;stroke-dasharray:none;stroke-dashoffset:66;marker:none;visibility:visible;display:inline;overflow:visible;enable-background:accumulate" sodipodi:type="arc"/>
      <text id="text3393" y="870.51489" x="1040.8364" style="font-size:40px;font-style:normal;font-weight:normal;writing-mode:lr-tb;fill:#000000;fill-opacity:1;stroke:none;font-family:Times New Roman" xml:space="preserve"><tspan y="870.51489" x="1040.8364" id="tspan3395" sodipodi:role="line">2</tspan></text>
    </g>
    <g id="g3539" transform="translate(31.865384,-386.64764)">
      <path transform="matrix(0.9,0,0,0.9,-455.52704,-117.04486)" d="m 1796.9381,962.63489 c 0,13.21467 -10.7126,23.92727 -23.9272,23.92727 -13.2147,0 -23.9273,-10.7126 -23.9273,-23.92727 0,-13.21467 10.7126,-23.92728 23.9273,-23.92728 13.2146,0 23.9272,10.71261 23.9272,23.92728 z" sodipodi:ry="23.927273" sodipodi:rx="23.927273" sodipodi:cy="962.63489" sodipodi:cx="1773.0109" id="path3537" style="fill:#ffffff;fill-opacity:1;fill-rule:nonzero;stroke:#181818;stroke-width:1.11111116;stroke-linecap:round;stroke-linejoin:round;stroke-miterlimit:4;stroke-opacity:1;stroke-dasharray:none;stroke-dashoffset:66;marker:none;visibility:visible;display:inline;overflow:visible;enable-background:accumulate" sodipodi:type="arc"/>
      <text id="text3401" y="762.84216" x="1130.5636" style="font-size:40px;font-style:normal;font-weight:normal;writing-mode:lr-tb;fill:#000000;fill-opacity:1;stroke:none;font-family:Times New Roman" xml:space="preserve"><tspan y="762.84216" x="1130.5636" id="tspan3403" sodipodi:role="line">4</tspan></text>
    </g>
    <g id="g3532" transform="translate(-76.323331,-187.86621)">
      <path transform="matrix(0.9,0,0,0.9,-491.39838,-449.12613)" d="m 1796.9381,962.63489 c 0,13.21467 -10.7126,23.92727 -23.9272,23.92727 -13.2147,0 -23.9273,-10.7126 -23.9273,-23.92727 0,-13.21467 10.7126,-23.92728 23.9273,-23.92728 13.2146,0 23.9272,10.71261 23.9272,23.92728 z" sodipodi:ry="23.927273" sodipodi:rx="23.927273" sodipodi:cy="962.63489" sodipodi:cx="1773.0109" id="path3530" style="fill:#ffffff;fill-opacity:1;fill-rule:nonzero;stroke:#181818;stroke-width:1.11111116;stroke-linecap:round;stroke-linejoin:round;stroke-miterlimit:4;stroke-opacity:1;stroke-dasharray:none;stroke-dashoffset:66;marker:none;visibility:visible;display:inline;overflow:visible;enable-background:accumulate" sodipodi:type="arc"/>
      <text id="text3405" y="430.25308" x="1094.6727" style="font-size:40px;font-style:normal;font-weight:normal;writing-mode:lr-tb;fill:#000000;fill-opacity:1;stroke:none;font-family:Times New Roman" xml:space="preserve"><tspan y="430.25308" x="1094.6727" id="tspan3407" sodipodi:role="line">5</tspan></text>
    </g>
    <g id="g3525" transform="translate(83.911968,-131.77023)">
      <path transform="matrix(0.9,0,0,0.9,-489.75275,-505.62866)" d="m 1796.9381,962.63489 c 0,13.21467 -10.7126,23.92727 -23.9272,23.92727 -13.2147,0 -23.9273,-10.7126 -23.9273,-23.92727 0,-13.21467 10.7126,-23.92728 23.9273,-23.92728 13.2146,0 23.9272,10.71261 23.9272,23.92728 z" sodipodi:ry="23.927273" sodipodi:rx="23.927273" sodipodi:cy="962.63489" sodipodi:cx="1773.0109" id="path3523" style="fill:#ffffff;fill-opacity:1;fill-rule:nonzero;stroke:#181818;stroke-width:1.11111116;stroke-linecap:round;stroke-linejoin:round;stroke-miterlimit:4;stroke-opacity:1;stroke-dasharray:none;stroke-dashoffset:66;marker:none;visibility:visible;display:inline;overflow:visible;enable-background:accumulate" sodipodi:type="arc"/>
      <text id="text3409" y="374.02399" x="1095.8691" style="font-size:40px;font-style:normal;font-weight:normal;writing-mode:lr-tb;fill:#000000;fill-opacity:1;stroke:none;font-family:Times New Roman" xml:space="preserve"><tspan y="374.02399" x="1095.8691" id="tspan3411" sodipodi:role="line">6</tspan></text>
    </g>
    <g id="g3518" transform="translate(291.76318,-0.14424207)">
      <path transform="matrix(0.9,0,0,0.9,-561.76898,-663.23615)" d="m 1796.9381,962.63489 c 0,13.21467 -10.7126,23.92727 -23.9272,23.92727 -13.2147,0 -23.9273,-10.7126 -23.9273,-23.92727 0,-13.21467 10.7126,-23.92728 23.9273,-23.92728 13.2146,0 23.9272,10.71261 23.9272,23.92728 z" sodipodi:ry="23.927273" sodipodi:rx="23.927273" sodipodi:cy="962.63489" sodipodi:cx="1773.0109" id="path3516" style="fill:#ffffff;fill-opacity:1;fill-rule:nonzero;stroke:#181818;stroke-width:1.11111116;stroke-linecap:round;stroke-linejoin:round;stroke-miterlimit:4;stroke-opacity:1;stroke-dasharray:none;stroke-dashoffset:66;marker:none;visibility:visible;display:inline;overflow:visible;enable-background:accumulate" sodipodi:type="arc"/>
      <text id="text3413" y="216.104" x="1024.0873" style="font-size:40px;font-style:normal;font-weight:normal;writing-mode:lr-tb;fill:#000000;fill-opacity:1;stroke:none;font-family:Times New Roman" xml:space="preserve"><tspan y="216.104" x="1024.0873" id="tspan3415" sodipodi:role="line">7</tspan></text>
    </g>
    <g id="g3511" transform="translate(30.994614,173.70765)">
      <path transform="matrix(0.9,0,0,0.9,-288.79303,-700.63593)" d="m 1796.9381,962.63489 c 0,13.21467 -10.7126,23.92727 -23.9272,23.92727 -13.2147,0 -23.9273,-10.7126 -23.9273,-23.92727 0,-13.21467 10.7126,-23.92728 23.9273,-23.92728 13.2146,0 23.9272,10.71261 23.9272,23.92728 z" sodipodi:ry="23.927273" sodipodi:rx="23.927273" sodipodi:cy="962.63489" sodipodi:cx="1773.0109" id="path3509" style="fill:#ffffff;fill-opacity:1;fill-rule:nonzero;stroke:#181818;stroke-width:1.11111116;stroke-linecap:round;stroke-linejoin:round;stroke-miterlimit:4;stroke-opacity:1;stroke-dasharray:none;stroke-dashoffset:66;marker:none;visibility:visible;display:inline;overflow:visible;enable-background:accumulate" sodipodi:type="arc"/>
      <text id="text3417" y="179.01672" x="1296.8582" style="font-size:40px;font-style:normal;font-weight:normal;writing-mode:lr-tb;fill:#000000;fill-opacity:1;stroke:none;font-family:Times New Roman" xml:space="preserve"><tspan y="179.01672" x="1296.8582" id="tspan3419" sodipodi:role="line">8</tspan></text>
    </g>
    <g id="g3504" transform="translate(170.61969,106.21757)">
      <path transform="matrix(0.9,0,0,0.9,-291.31268,-662.31323)" d="m 1796.9381,962.63489 c 0,13.21467 -10.7126,23.92727 -23.9272,23.92727 -13.2147,0 -23.9273,-10.7126 -23.9273,-23.92727 0,-13.21467 10.7126,-23.92728 23.9273,-23.92728 13.2146,0 23.9272,10.71261 23.9272,23.92728 z" sodipodi:ry="23.927273" sodipodi:rx="23.927273" sodipodi:cy="962.63489" sodipodi:cx="1773.0109" id="path3502" style="fill:#ffffff;fill-opacity:1;fill-rule:nonzero;stroke:#181818;stroke-width:1.11111116;stroke-linecap:round;stroke-linejoin:round;stroke-miterlimit:4;stroke-opacity:1;stroke-dasharray:none;stroke-dashoffset:66;marker:none;visibility:visible;display:inline;overflow:visible;enable-background:accumulate" sodipodi:type="arc"/>
      <text id="text3421" y="217.30035" x="1294.4655" style="font-size:40px;font-style:normal;font-weight:normal;writing-mode:lr-tb;fill:#000000;fill-opacity:1;stroke:none;font-family:Times New Roman" xml:space="preserve"><tspan y="217.30035" x="1294.4655" id="tspan3423" sodipodi:role="line">9</tspan></text>
    </g>
    <g id="g3497" transform="translate(203.21742,19.217651)">
      <path transform="matrix(0.9,0,0,0.9,-186.29706,-509.21774)" d="m 1796.9381,962.63489 c 0,13.21467 -10.7126,23.92727 -23.9272,23.92727 -13.2147,0 -23.9273,-10.7126 -23.9273,-23.92727 0,-13.21467 10.7126,-23.92728 23.9273,-23.92728 13.2146,0 23.9272,10.71261 23.9272,23.92728 z" sodipodi:ry="23.927273" sodipodi:rx="23.927273" sodipodi:cy="962.63489" sodipodi:cx="1773.0109" id="path3495" style="fill:#ffffff;fill-opacity:1;fill-rule:nonzero;stroke:#181818;stroke-width:1.11111116;stroke-linecap:round;stroke-linejoin:round;stroke-miterlimit:4;stroke-opacity:1;stroke-dasharray:none;stroke-dashoffset:66;marker:none;visibility:visible;display:inline;overflow:visible;enable-background:accumulate" sodipodi:type="arc"/>
      <text id="text3425" y="370.43491" x="1387.7819" style="font-size:40px;font-style:normal;font-weight:normal;writing-mode:lr-tb;fill:#000000;fill-opacity:1;stroke:none;font-family:Times New Roman" xml:space="preserve"><tspan y="370.43491" x="1387.7819" id="tspan3427" sodipodi:role="line">10</tspan></text>
    </g>
    <g id="g3490" transform="translate(160.84727,278.94894)">
      <path transform="matrix(0.9,0,0,0.9,-55.229187,-641.05211)" d="m 1796.9381,962.63489 c 0,13.21467 -10.7126,23.92727 -23.9272,23.92727 -13.2147,0 -23.9273,-10.7126 -23.9273,-23.92727 0,-13.21467 10.7126,-23.92728 23.9273,-23.92728 13.2146,0 23.9272,10.71261 23.9272,23.92728 z" sodipodi:ry="23.927273" sodipodi:rx="23.927273" sodipodi:cy="962.63489" sodipodi:cx="1773.0109" id="path3488" style="fill:#ffffff;fill-opacity:1;fill-rule:nonzero;stroke:#181818;stroke-width:1.11111116;stroke-linecap:round;stroke-linejoin:round;stroke-miterlimit:4;stroke-opacity:1;stroke-dasharray:none;stroke-dashoffset:66;marker:none;visibility:visible;display:inline;overflow:visible;enable-background:accumulate" sodipodi:type="arc"/>
      <text id="text3429" y="238.83492" x="1520.5782" style="font-size:40px;font-style:normal;font-weight:normal;writing-mode:lr-tb;fill:#000000;fill-opacity:1;stroke:none;font-family:Times New Roman" xml:space="preserve"><tspan y="238.83492" x="1520.5782" id="tspan3431" sodipodi:role="line">11</tspan></text>
    </g>
    <g id="g3483" transform="translate(74.261514,442.03727)">
      <path transform="matrix(0.9,0,0,0.9,24.145691,-504.66666)" d="m 1796.9381,962.63489 c 0,13.21467 -10.7126,23.92727 -23.9272,23.92727 -13.2147,0 -23.9273,-10.7126 -23.9273,-23.92727 0,-13.21467 10.7126,-23.92728 23.9273,-23.92728 13.2146,0 23.9272,10.71261 23.9272,23.92728 z" sodipodi:ry="23.927273" sodipodi:rx="23.927273" sodipodi:cy="962.63489" sodipodi:cx="1773.0109" id="path3481" style="fill:#ffffff;fill-opacity:1;fill-rule:nonzero;stroke:#181818;stroke-width:1.11111116;stroke-linecap:round;stroke-linejoin:round;stroke-miterlimit:4;stroke-opacity:1;stroke-dasharray:none;stroke-dashoffset:66;marker:none;visibility:visible;display:inline;overflow:visible;enable-background:accumulate" sodipodi:type="arc"/>
      <text id="text3433" y="375.22037" x="1598.3418" style="font-size:40px;font-style:normal;font-weight:normal;writing-mode:lr-tb;fill:#000000;fill-opacity:1;stroke:none;font-family:Times New Roman" xml:space="preserve"><tspan y="375.22037" x="1598.3418" id="tspan3435" sodipodi:role="line">12</tspan></text>
    </g>
    <g id="g3476" transform="translate(-236.13863,412.32969)">
      <path transform="matrix(0.9,0,0,0.9,189.61017,-406.33047)" d="m 1796.9381,962.63489 c 0,13.21467 -10.7126,23.92727 -23.9272,23.92727 -13.2147,0 -23.9273,-10.7126 -23.9273,-23.92727 0,-13.21467 10.7126,-23.92728 23.9273,-23.92728 13.2146,0 23.9272,10.71261 23.9272,23.92728 z" sodipodi:ry="23.927273" sodipodi:rx="23.927273" sodipodi:cy="962.63489" sodipodi:cx="1773.0109" id="path3474" style="fill:#ffffff;fill-opacity:1;fill-rule:nonzero;stroke:#181818;stroke-width:1.11111116;stroke-linecap:round;stroke-linejoin:round;stroke-miterlimit:4;stroke-opacity:1;stroke-dasharray:none;stroke-dashoffset:66;marker:none;visibility:visible;display:inline;overflow:visible;enable-background:accumulate" sodipodi:type="arc"/>
      <text id="text3437" y="473.32217" x="1764.6364" style="font-size:40px;font-style:normal;font-weight:normal;writing-mode:lr-tb;fill:#000000;fill-opacity:1;stroke:none;font-family:Times New Roman" xml:space="preserve"><tspan y="473.32217" x="1764.6364" id="tspan3439" sodipodi:role="line">13</tspan></text>
    </g>
    <g id="g3469" transform="translate(-98.952424,132.47288)">
      <path transform="matrix(0.9,0,0,0.9,171.43512,-39.281189)" d="m 1796.9381,962.63489 c 0,13.21467 -10.7126,23.92727 -23.9272,23.92727 -13.2147,0 -23.9273,-10.7126 -23.9273,-23.92727 0,-13.21467 10.7126,-23.92728 23.9273,-23.92728 13.2146,0 23.9272,10.71261 23.9272,23.92728 z" sodipodi:ry="23.927273" sodipodi:rx="23.927273" sodipodi:cy="962.63489" sodipodi:cx="1773.0109" id="path3467" style="fill:#ffffff;fill-opacity:1;fill-rule:nonzero;stroke:#181818;stroke-width:1.11111116;stroke-linecap:round;stroke-linejoin:round;stroke-miterlimit:4;stroke-opacity:1;stroke-dasharray:none;stroke-dashoffset:66;marker:none;visibility:visible;display:inline;overflow:visible;enable-background:accumulate" sodipodi:type="arc"/>
      <text id="text3441" y="840.60583" x="1745.4945" style="font-size:40px;font-style:normal;font-weight:normal;writing-mode:lr-tb;fill:#000000;fill-opacity:1;stroke:none;font-family:Times New Roman" xml:space="preserve"><tspan y="840.60583" x="1745.4945" id="tspan3443" sodipodi:role="line">14</tspan></text>
    </g>
    <g id="g3557" transform="translate(-102.56007,-52.935909)">
      <path sodipodi:type="arc" style="fill:#ffffff;fill-opacity:1;fill-rule:nonzero;stroke:#181818;stroke-width:1.11111116;stroke-linecap:round;stroke-linejoin:round;stroke-miterlimit:4;stroke-opacity:1;stroke-dasharray:none;stroke-dashoffset:66;marker:none;visibility:visible;display:inline;overflow:visible;enable-background:accumulate" id="path3546" sodipodi:cx="1773.0109" sodipodi:cy="962.63489" sodipodi:rx="23.927273" sodipodi:ry="23.927273" d="m 1796.9381,962.63489 c 0,13.21467 -10.7126,23.92727 -23.9272,23.92727 -13.2147,0 -23.9273,-10.7126 -23.9273,-23.92727 0,-13.21467 10.7126,-23.92728 23.9273,-23.92728 13.2146,0 23.9272,10.71261 23.9272,23.92728 z" transform="matrix(0.9,0,0,0.9,-319.61029,-24.690491)"/>
      <text xml:space="preserve" style="font-size:40px;font-style:normal;font-weight:normal;writing-mode:lr-tb;fill:#000000;fill-opacity:1;stroke:none;font-family:Times New Roman" x="1266.9491" y="854.96216" id="text3548"><tspan sodipodi:role="line" id="tspan3550" x="1266.9491" y="854.96216">3</tspan></text>
    </g>
    <path clip-path="url(#clipPath3494)" transform="matrix(-0.2210219,-0.464054,1.4065091,-0.6698991,-298.99292,1931.5844)" d="m 1695.937,1398.5206 -24.4812,0 12.2406,-21.2013 z" inkscape:randomized="0" inkscape:rounded="0" inkscape:flatsided="true" sodipodi:arg2="1.5707963" sodipodi:arg1="0.52359878" sodipodi:r2="7.0671172" sodipodi:r1="14.134234" sodipodi:cy="1391.4535" sodipodi:cx="1683.6964" sodipodi:sides="3" id="path3582" style="opacity:1;fill:#000000;fill-opacity:1;stroke:#ffffff;stroke-width:0.83812821;stroke-linecap:round;stroke-linejoin:miter;stroke-miterlimit:4;stroke-dasharray:none;stroke-dashoffset:0;stroke-opacity:1;display:inline" sodipodi:type="star"/>
    <path sodipodi:type="star" style="opacity:1;fill:#000000;fill-opacity:1;stroke:#ffffff;stroke-width:0.83812821;stroke-linecap:round;stroke-linejoin:miter;stroke-miterlimit:4;stroke-dasharray:none;stroke-dashoffset:0;stroke-opacity:1;display:inline" id="path3584" sodipodi:sides="3" sodipodi:cx="1683.6964" sodipodi:cy="1391.4535" sodipodi:r1="14.134234" sodipodi:r2="7.0671172" sodipodi:arg1="0.52359878" sodipodi:arg2="1.5707963" inkscape:flatsided="true" inkscape:rounded="0" inkscape:randomized="0" d="m 1695.937,1398.5206 -24.4812,0 12.2406,-21.2013 z" transform="matrix(0.2210219,0.464054,-1.4065091,0.6698991,2812.2454,-1504.6551)" clip-path="url(#clipPath3494)"/>
    <path style="fill:none;stroke:#00fefe;stroke-width:4;stroke-linecap:round;stroke-linejoin:round;stroke-miterlimit:4;stroke-opacity:1;stroke-dasharray:4, 8;stroke-dashoffset:0" d="m 1744.0686,583.66254 c -0.6212,56.0766 -5.9664,184.13445 -12.4133,239.02519 -1.0638,9.0573 -4.1088,24.35569 -13.1782,23.98551 -30.0118,-1.22497 -77.1985,-7.86237 -108.1716,-10.85288 -26.8511,-2.59252 -53.7859,-3.43664 -79.113,1.19637 -7.3735,1.34881 -13.8984,10.71163 -17.8736,17.27079 -4.0005,6.60084 -2.992,13.79425 -1.6461,20.71604 1.4457,7.43457 5.0828,16.56579 11.5185,21.83135 6.7243,5.50171 14.943,10.42701 23.7069,10.76728 44.4751,1.72677 67.979,-1.3799 110.0655,-0.59819 8.9239,0.16575 33.3156,6.23525 39.4799,12.56182 8.9896,9.22616 18.7391,21.45595 21.5346,33.49818 2.3887,10.28989 -1.0326,23.7902 -5.9818,33.49818 -5.4193,10.63018 -14.8607,21.43452 -25.1237,27.51632 -11.2715,6.6794 -29.0266,7.9566 -42.6238,7.9293 -54.2169,-0.1115 -85.6847,0.3433 -132.8457,0.3373" id="path3594" sodipodi:nodetypes="cssssssssssssscc" inkscape:connector-curvature="0"/>
    <path style="fill:none;stroke:#fe0000;stroke-width:4;stroke-linecap:round;stroke-linejoin:round;stroke-miterlimit:4;stroke-opacity:1;stroke-dasharray:4, 8;stroke-dashoffset:0" d="m 1147.1742,499.41561 c -3.1374,-15.38968 -5.4135,-28.91683 -11.8251,-63.1807 -4.3097,-23.03122 2.7002,-50.15102 -1.7945,-71.78181 -1.8859,-9.07588 -9.5404,-14.33842 -17.3473,-20.33819 -35.2622,-27.09963 -76.3507,-48.61983 -108.8691,-77.76364 -9.75317,-8.74104 -15.94658,-23.45338 -17.94547,-35.89091 -1.5902,-9.89459 1.77976,-22.54245 7.17818,-31.10545 6.16649,-9.78124 16.74989,-19.21691 27.51639,-23.92727 14.7559,-6.4557 32.558,-10.39555 49.0509,-9.57091 55.2889,2.76445 112.2509,10.38278 166.2945,20.33818 6.5721,1.21066 12.9584,7.57214 15.5528,13.16 2.5899,5.5782 -1.004,13.712 0,20.33818 0.99,6.53382 1.7906,10.40559 6.7284,14.6623 29.7567,25.65238 63.3911,48.07649 96.6086,69.46557 8.8192,5.67879 25.9051,9.13017 37.0873,5.23523 24.3099,-8.46749 45.5086,-29.97701 69.7624,-40.08274 9.2444,-3.85184 22.8688,-1.6154 31.4787,2.68954 10.5319,5.26597 19.7668,18.63152 26.32,29.38283 18.9693,31.12142 29.5534,68.69467 50.2473,98.10182 9.614,13.66194 25.2851,24.22322 40.6763,31.10545 33.6597,15.05111 74.4902,18.2613 106.4764,34.69455 11.4817,5.89887 23.6768,19.19213 23.9273,32.30182 1.0711,56.05485 0.1688,68.87944 0.3117,86.41308" id="path3592" sodipodi:nodetypes="csssssssssssssssssssssc" inkscape:connector-curvature="0"/>
    <path style="fill:none;stroke:#fcff00;stroke-width:4;stroke-linecap:round;stroke-linejoin:round;stroke-miterlimit:4;stroke-opacity:1;stroke-dasharray:4, 8;stroke-dashoffset:0" d="m 1507.6703,1022.3454 c -65.1065,-0.01 -192.2676,1.7665 -258.6667,1.304 -96.1061,-0.6697 -178.1057,1.1582 -273.39186,-0.4497 -9.203,-0.1553 -15.20446,-4.218 -20.56766,-10.4751 -4.2077,-4.909 -6.71766,-13.13407 -5.60396,-19.81643 0.8802,-5.28128 8.57962,-15.72882 13.01162,-19.29022 17.9001,-14.38405 35.49952,-27.50251 55.54976,-39.02566 14.6443,-8.41624 20.8751,-13.02132 36.9526,-18.09842 14.2304,-4.49381 26.6842,-7.93214 41.6525,-8.37455 65.9856,-1.95031 126.1952,-0.45118 191.877,-2.90986 8.8915,-0.33284 27.2481,-4.00703 33.7094,-9.57091 7.8951,-6.79855 12.8361,-16.41108 15.3324,-26.39649 2.2891,-9.15641 -1.9924,-21.54366 -5.8289,-30.28238 -3.3417,-7.61158 -14.0222,-15.93689 -21.6783,-19.88841 -29.4312,-15.1903 -65.5501,-21.56413 -93.3164,-38.28363 -9.321,-5.61262 -15.1592,-20.63382 -16.6922,-29.08348 -7.7932,-42.95597 -14.7465,-74.22188 -22.7309,-113.05637 -6.9758,-33.92911 -23.3198,-105.95126 -30.1045,-139.23218" id="path3616" sodipodi:nodetypes="cssssssssssssssssc" inkscape:connector-curvature="0"/>
  </g>
</svg>