<?xml version="1.0" encoding="UTF-8" standalone="no"?>
<!DOCTYPE svg PUBLIC "-//W3C//DTD SVG 1.1//EN" "http://www.w3.org/Graphics/SVG/1.1/DTD/svg11.dtd">
<svg width="100%" height="100%" viewBox="0 0 750 460" version="1.1" xmlns="http://www.w3.org/2000/svg" xmlns:xlink="http://www.w3.org/1999/xlink" xml:space="preserve" xmlns:serif="http://www.serif.com/" style="fill-rule:evenodd;clip-rule:evenodd;stroke-miterlimit:10;">
    <g transform="matrix(0.958888,-0.420796,0.420796,0.958888,-37.6914,122.23)">
        <g id="corners">
            <g transform="matrix(0.87447,0.38375,-0.38375,0.87447,376.094,-226.153)">
                <circle cx="485" cy="430" r="11"/>
            </g>
            <g transform="matrix(0.87447,0.38375,-0.38375,0.87447,334.552,-338.242)">
                <circle cx="485" cy="430" r="11"/>
            </g>
            <g transform="matrix(0.87447,0.38375,-0.38375,0.87447,74.534,-330.332)">
                <circle cx="485" cy="430" r="11"/>
            </g>
            <g transform="matrix(0.87447,0.38375,-0.38375,0.87447,9.32633,-255.703)">
                <circle cx="485" cy="430" r="11"/>
            </g>
            <g transform="matrix(0.87447,0.38375,-0.38375,0.87447,-50.837,-389.521)">
                <circle cx="485" cy="430" r="11"/>
            </g>
            <g transform="matrix(0.87447,0.38375,-0.38375,0.87447,104.038,-404.986)">
                <circle cx="485" cy="430" r="11"/>
            </g>
            <g transform="matrix(0.87447,0.38375,-0.38375,0.87447,175.097,-452.018)">
                <circle cx="485" cy="430" r="11"/>
            </g>
            <g transform="matrix(0.87447,0.38375,-0.38375,0.87447,-212.436,-481.482)">
                <circle cx="485" cy="430" r="11"/>
            </g>
            <g transform="matrix(0.87447,0.38375,-0.38375,0.87447,-124.85,-372.131)">
                <circle cx="485" cy="430" r="11"/>
            </g>
            <g transform="matrix(0.87447,0.38375,-0.38375,0.87447,24.6923,-118.789)">
                <circle cx="485" cy="430" r="11"/>
            </g>
        </g>
        <g id="corners-number">
            <g transform="matrix(0.87447,0.38375,-0.38375,0.87447,380.531,-224.06)">
                <g transform="matrix(12,0,0,12,473,434)">
                    <path d="M0.08,0L0.08,-0.13L0.233,-0.13L0.233,-0.56L0.105,-0.56L0.105,-0.638L0.172,-0.69L0.377,-0.69L0.377,-0.13L0.514,-0.13L0.514,0L0.08,0Z" style="fill:white;fill-rule:nonzero;"/>
                </g>
                <g transform="matrix(12,0,0,12,479.936,434)">
                    <path d="M0.052,-0.168L0.052,-0.522C0.052,-0.634 0.108,-0.69 0.22,-0.69L0.358,-0.69C0.47,-0.69 0.526,-0.634 0.526,-0.522L0.526,-0.168C0.526,-0.056 0.47,0 0.358,0L0.22,0C0.108,0 0.052,-0.056 0.052,-0.168ZM0.196,-0.16C0.196,-0.14 0.206,-0.13 0.226,-0.13L0.352,-0.13C0.372,-0.13 0.382,-0.14 0.382,-0.16L0.382,-0.53C0.382,-0.55 0.372,-0.56 0.352,-0.56L0.226,-0.56C0.206,-0.56 0.196,-0.55 0.196,-0.53L0.196,-0.16Z" style="fill:white;fill-rule:nonzero;"/>
                </g>
            </g>
            <g transform="matrix(0.87447,0.38375,-0.38375,0.87447,338.99,-336.149)">
                <g transform="matrix(12,0,0,12,473,434)">
                    <path d="M0.052,-0.168L0.052,-0.522C0.052,-0.634 0.108,-0.69 0.22,-0.69L0.358,-0.69C0.47,-0.69 0.526,-0.634 0.526,-0.522L0.526,-0.168C0.526,-0.056 0.47,0 0.358,0L0.22,0C0.108,0 0.052,-0.056 0.052,-0.168ZM0.196,-0.16C0.196,-0.14 0.206,-0.13 0.226,-0.13L0.352,-0.13C0.372,-0.13 0.382,-0.14 0.382,-0.16L0.382,-0.53C0.382,-0.55 0.372,-0.56 0.352,-0.56L0.226,-0.56C0.206,-0.56 0.196,-0.55 0.196,-0.53L0.196,-0.16Z" style="fill:white;fill-rule:nonzero;"/>
                </g>
                <g transform="matrix(12,0,0,12,479.936,434)">
                    <path d="M0.052,-0.428L0.052,-0.522C0.052,-0.634 0.108,-0.69 0.22,-0.69L0.358,-0.69C0.47,-0.69 0.526,-0.634 0.526,-0.522L0.526,-0.202C0.526,-0.067 0.459,0 0.324,0L0.149,0L0.082,-0.052L0.082,-0.13L0.328,-0.13C0.364,-0.13 0.382,-0.148 0.382,-0.184L0.382,-0.26L0.22,-0.26C0.108,-0.26 0.052,-0.316 0.052,-0.428ZM0.196,-0.42C0.196,-0.4 0.206,-0.39 0.226,-0.39L0.382,-0.39L0.382,-0.53C0.382,-0.55 0.372,-0.56 0.352,-0.56L0.226,-0.56C0.206,-0.56 0.196,-0.55 0.196,-0.53L0.196,-0.42Z" style="fill:white;fill-rule:nonzero;"/>
                </g>
            </g>
            <g transform="matrix(0.87447,0.38375,-0.38375,0.87447,78.9715,-328.238)">
                <g transform="matrix(12,0,0,12,473,434)">
                    <path d="M0.052,-0.168L0.052,-0.522C0.052,-0.634 0.108,-0.69 0.22,-0.69L0.358,-0.69C0.47,-0.69 0.526,-0.634 0.526,-0.522L0.526,-0.168C0.526,-0.056 0.47,0 0.358,0L0.22,0C0.108,0 0.052,-0.056 0.052,-0.168ZM0.196,-0.16C0.196,-0.14 0.206,-0.13 0.226,-0.13L0.352,-0.13C0.372,-0.13 0.382,-0.14 0.382,-0.16L0.382,-0.53C0.382,-0.55 0.372,-0.56 0.352,-0.56L0.226,-0.56C0.206,-0.56 0.196,-0.55 0.196,-0.53L0.196,-0.16Z" style="fill:white;fill-rule:nonzero;"/>
                </g>
                <g transform="matrix(12,0,0,12,479.936,434)">
                    <path d="M0.052,-0.168L0.052,-0.257C0.052,-0.284 0.06,-0.305 0.077,-0.322L0.112,-0.357L0.077,-0.392C0.06,-0.409 0.052,-0.43 0.052,-0.457L0.052,-0.522C0.052,-0.634 0.108,-0.69 0.22,-0.69L0.358,-0.69C0.47,-0.69 0.526,-0.634 0.526,-0.522L0.526,-0.457C0.526,-0.43 0.518,-0.409 0.501,-0.392L0.466,-0.357L0.501,-0.322C0.518,-0.305 0.526,-0.284 0.526,-0.257L0.526,-0.168C0.526,-0.056 0.47,0 0.358,0L0.22,0C0.108,0 0.052,-0.056 0.052,-0.168ZM0.196,-0.16C0.196,-0.14 0.206,-0.13 0.226,-0.13L0.352,-0.13C0.372,-0.13 0.382,-0.14 0.382,-0.16L0.382,-0.26C0.382,-0.28 0.372,-0.29 0.352,-0.29L0.226,-0.29C0.206,-0.29 0.196,-0.28 0.196,-0.26L0.196,-0.16ZM0.196,-0.45C0.196,-0.43 0.206,-0.42 0.226,-0.42L0.352,-0.42C0.372,-0.42 0.382,-0.43 0.382,-0.45L0.382,-0.53C0.382,-0.55 0.372,-0.56 0.352,-0.56L0.226,-0.56C0.206,-0.56 0.196,-0.55 0.196,-0.53L0.196,-0.45Z" style="fill:white;fill-rule:nonzero;"/>
                </g>
            </g>
            <g transform="matrix(0.87447,0.38375,-0.38375,0.87447,13.7639,-253.609)">
                <g transform="matrix(12,0,0,12,473,434)">
                    <path d="M0.052,-0.168L0.052,-0.522C0.052,-0.634 0.108,-0.69 0.22,-0.69L0.358,-0.69C0.47,-0.69 0.526,-0.634 0.526,-0.522L0.526,-0.168C0.526,-0.056 0.47,0 0.358,0L0.22,0C0.108,0 0.052,-0.056 0.052,-0.168ZM0.196,-0.16C0.196,-0.14 0.206,-0.13 0.226,-0.13L0.352,-0.13C0.372,-0.13 0.382,-0.14 0.382,-0.16L0.382,-0.53C0.382,-0.55 0.372,-0.56 0.352,-0.56L0.226,-0.56C0.206,-0.56 0.196,-0.55 0.196,-0.53L0.196,-0.16Z" style="fill:white;fill-rule:nonzero;"/>
                </g>
                <g transform="matrix(12,0,0,12,479.936,434)">
                    <path d="M0.052,-0.56L0.052,-0.69L0.526,-0.69L0.526,-0.475L0.277,0L0.148,0L0.131,-0.03L0.382,-0.505L0.382,-0.56L0.052,-0.56Z" style="fill:white;fill-rule:nonzero;"/>
                </g>
            </g>
            <g transform="matrix(0.87447,0.38375,-0.38375,0.87447,-46.3994,-387.427)">
                <g transform="matrix(12,0,0,12,473,434)">
                    <path d="M0.052,-0.168L0.052,-0.522C0.052,-0.634 0.108,-0.69 0.22,-0.69L0.358,-0.69C0.47,-0.69 0.526,-0.634 0.526,-0.522L0.526,-0.168C0.526,-0.056 0.47,0 0.358,0L0.22,0C0.108,0 0.052,-0.056 0.052,-0.168ZM0.196,-0.16C0.196,-0.14 0.206,-0.13 0.226,-0.13L0.352,-0.13C0.372,-0.13 0.382,-0.14 0.382,-0.16L0.382,-0.53C0.382,-0.55 0.372,-0.56 0.352,-0.56L0.226,-0.56C0.206,-0.56 0.196,-0.55 0.196,-0.53L0.196,-0.16Z" style="fill:white;fill-rule:nonzero;"/>
                </g>
                <g transform="matrix(12,0,0,12,479.936,434)">
                    <path d="M0.052,-0.168L0.052,-0.488C0.052,-0.623 0.119,-0.69 0.254,-0.69L0.419,-0.69L0.486,-0.638L0.486,-0.56L0.25,-0.56C0.214,-0.56 0.196,-0.542 0.196,-0.506L0.196,-0.43L0.358,-0.43C0.47,-0.43 0.526,-0.374 0.526,-0.262L0.526,-0.168C0.526,-0.056 0.47,0 0.358,0L0.22,0C0.108,0 0.052,-0.056 0.052,-0.168ZM0.196,-0.16C0.196,-0.14 0.206,-0.13 0.226,-0.13L0.352,-0.13C0.372,-0.13 0.382,-0.14 0.382,-0.16L0.382,-0.27C0.382,-0.29 0.372,-0.3 0.352,-0.3L0.196,-0.3L0.196,-0.16Z" style="fill:white;fill-rule:nonzero;"/>
                </g>
            </g>
            <g transform="matrix(0.87447,0.38375,-0.38375,0.87447,108.475,-402.892)">
                <g transform="matrix(12,0,0,12,473,434)">
                    <path d="M0.052,-0.168L0.052,-0.522C0.052,-0.634 0.108,-0.69 0.22,-0.69L0.358,-0.69C0.47,-0.69 0.526,-0.634 0.526,-0.522L0.526,-0.168C0.526,-0.056 0.47,0 0.358,0L0.22,0C0.108,0 0.052,-0.056 0.052,-0.168ZM0.196,-0.16C0.196,-0.14 0.206,-0.13 0.226,-0.13L0.352,-0.13C0.372,-0.13 0.382,-0.14 0.382,-0.16L0.382,-0.53C0.382,-0.55 0.372,-0.56 0.352,-0.56L0.226,-0.56C0.206,-0.56 0.196,-0.55 0.196,-0.53L0.196,-0.16Z" style="fill:white;fill-rule:nonzero;"/>
                </g>
                <g transform="matrix(12,0,0,12,479.936,434)">
                    <path d="M0.042,-0.052L0.042,-0.13L0.352,-0.13C0.372,-0.13 0.382,-0.14 0.382,-0.16L0.382,-0.27C0.382,-0.29 0.372,-0.3 0.352,-0.3L0.052,-0.3L0.052,-0.69L0.496,-0.69L0.496,-0.56L0.196,-0.56L0.196,-0.43L0.358,-0.43C0.47,-0.43 0.526,-0.374 0.526,-0.262L0.526,-0.168C0.526,-0.056 0.47,0 0.358,0L0.109,0L0.042,-0.052Z" style="fill:white;fill-rule:nonzero;"/>
                </g>
            </g>
            <g transform="matrix(0.87447,0.38375,-0.38375,0.87447,179.535,-449.924)">
                <g transform="matrix(12,0,0,12,473,434)">
                    <path d="M0.052,-0.168L0.052,-0.522C0.052,-0.634 0.108,-0.69 0.22,-0.69L0.358,-0.69C0.47,-0.69 0.526,-0.634 0.526,-0.522L0.526,-0.168C0.526,-0.056 0.47,0 0.358,0L0.22,0C0.108,0 0.052,-0.056 0.052,-0.168ZM0.196,-0.16C0.196,-0.14 0.206,-0.13 0.226,-0.13L0.352,-0.13C0.372,-0.13 0.382,-0.14 0.382,-0.16L0.382,-0.53C0.382,-0.55 0.372,-0.56 0.352,-0.56L0.226,-0.56C0.206,-0.56 0.196,-0.55 0.196,-0.53L0.196,-0.16Z" style="fill:white;fill-rule:nonzero;"/>
                </g>
                <g transform="matrix(12,0,0,12,479.936,434)">
                    <path d="M0.052,-0.102L0.052,-0.22L0.263,-0.69L0.385,-0.69L0.402,-0.66L0.21,-0.232L0.382,-0.232L0.382,-0.43L0.526,-0.43L0.526,0L0.382,0L0.382,-0.102L0.052,-0.102Z" style="fill:white;fill-rule:nonzero;"/>
                </g>
            </g>
            <g transform="matrix(0.87447,0.38375,-0.38375,0.87447,-207.999,-479.389)">
                <g transform="matrix(12,0,0,12,473,434)">
                    <path d="M0.052,-0.168L0.052,-0.522C0.052,-0.634 0.108,-0.69 0.22,-0.69L0.358,-0.69C0.47,-0.69 0.526,-0.634 0.526,-0.522L0.526,-0.168C0.526,-0.056 0.47,0 0.358,0L0.22,0C0.108,0 0.052,-0.056 0.052,-0.168ZM0.196,-0.16C0.196,-0.14 0.206,-0.13 0.226,-0.13L0.352,-0.13C0.372,-0.13 0.382,-0.14 0.382,-0.16L0.382,-0.53C0.382,-0.55 0.372,-0.56 0.352,-0.56L0.226,-0.56C0.206,-0.56 0.196,-0.55 0.196,-0.53L0.196,-0.16Z" style="fill:white;fill-rule:nonzero;"/>
                </g>
                <g transform="matrix(12,0,0,12,479.936,434)">
                    <path d="M0.062,-0.052L0.062,-0.13L0.352,-0.13C0.372,-0.13 0.382,-0.14 0.382,-0.16L0.382,-0.26C0.382,-0.28 0.372,-0.29 0.352,-0.29L0.136,-0.29L0.136,-0.42L0.352,-0.42C0.372,-0.42 0.382,-0.43 0.382,-0.45L0.382,-0.53C0.382,-0.55 0.372,-0.56 0.352,-0.56L0.072,-0.56L0.072,-0.638L0.139,-0.69L0.358,-0.69C0.47,-0.69 0.526,-0.634 0.526,-0.522L0.526,-0.458C0.526,-0.431 0.518,-0.41 0.501,-0.393L0.466,-0.358L0.501,-0.323C0.518,-0.306 0.526,-0.285 0.526,-0.258L0.526,-0.168C0.526,-0.056 0.47,0 0.358,0L0.129,0L0.062,-0.052Z" style="fill:white;fill-rule:nonzero;"/>
                </g>
            </g>
            <g transform="matrix(0.87447,0.38375,-0.38375,0.87447,-120.413,-370.037)">
                <g transform="matrix(12,0,0,12,473,434)">
                    <path d="M0.052,-0.168L0.052,-0.522C0.052,-0.634 0.108,-0.69 0.22,-0.69L0.358,-0.69C0.47,-0.69 0.526,-0.634 0.526,-0.522L0.526,-0.168C0.526,-0.056 0.47,0 0.358,0L0.22,0C0.108,0 0.052,-0.056 0.052,-0.168ZM0.196,-0.16C0.196,-0.14 0.206,-0.13 0.226,-0.13L0.352,-0.13C0.372,-0.13 0.382,-0.14 0.382,-0.16L0.382,-0.53C0.382,-0.55 0.372,-0.56 0.352,-0.56L0.226,-0.56C0.206,-0.56 0.196,-0.55 0.196,-0.53L0.196,-0.16Z" style="fill:white;fill-rule:nonzero;"/>
                </g>
                <g transform="matrix(12,0,0,12,479.936,434)">
                    <path d="M0.052,0L0.052,-0.225C0.052,-0.316 0.092,-0.37 0.172,-0.386L0.357,-0.423C0.374,-0.426 0.382,-0.437 0.382,-0.456L0.382,-0.53C0.382,-0.55 0.372,-0.56 0.352,-0.56L0.072,-0.56L0.072,-0.638L0.139,-0.69L0.358,-0.69C0.47,-0.69 0.526,-0.634 0.526,-0.522L0.526,-0.457C0.526,-0.366 0.486,-0.312 0.406,-0.296L0.221,-0.259C0.204,-0.256 0.196,-0.245 0.196,-0.226L0.196,-0.13L0.526,-0.13L0.526,0L0.052,0Z" style="fill:white;fill-rule:nonzero;"/>
                </g>
            </g>
            <g transform="matrix(0.87447,0.38375,-0.38375,0.87447,29.1299,-116.695)">
                <g transform="matrix(12,0,0,12,473,434)">
                    <path d="M0.052,-0.168L0.052,-0.522C0.052,-0.634 0.108,-0.69 0.22,-0.69L0.358,-0.69C0.47,-0.69 0.526,-0.634 0.526,-0.522L0.526,-0.168C0.526,-0.056 0.47,0 0.358,0L0.22,0C0.108,0 0.052,-0.056 0.052,-0.168ZM0.196,-0.16C0.196,-0.14 0.206,-0.13 0.226,-0.13L0.352,-0.13C0.372,-0.13 0.382,-0.14 0.382,-0.16L0.382,-0.53C0.382,-0.55 0.372,-0.56 0.352,-0.56L0.226,-0.56C0.206,-0.56 0.196,-0.55 0.196,-0.53L0.196,-0.16Z" style="fill:white;fill-rule:nonzero;"/>
                </g>
                <g transform="matrix(12,0,0,12,479.936,434)">
                    <path d="M0.08,0L0.08,-0.13L0.233,-0.13L0.233,-0.56L0.105,-0.56L0.105,-0.638L0.172,-0.69L0.377,-0.69L0.377,-0.13L0.514,-0.13L0.514,0L0.08,0Z" style="fill:white;fill-rule:nonzero;"/>
                </g>
            </g>
        </g>
        <g id="circuit" transform="matrix(1,0,0,1,3.88163,0.660532)">
            <path d="M589.85,346.496C558.972,362.473 525.163,365.039 446.883,387.519C411.243,396.359 336,417.02 300.37,425.86C296.23,426.75 291.43,428.5 287.54,426.58C287.54,426.58 286.086,426.866 278.95,410.86C278.95,410.86 268.781,396.082 250.654,370.576C250.654,370.576 232.282,346.35 223.698,333.52C184.594,275.071 174.608,226.959 149.646,185.934C127.677,149.828 66.974,93.705 66.974,93.705C66.974,93.705 50.118,80.941 72.094,78.255C72.094,78.255 98.746,73.295 142.629,74.833C159.893,75.439 193.99,81.75 193.99,81.75L269.975,97.012C269.975,97.012 297.84,103.535 323.013,105.535C346.007,107.362 404.676,110.47 404.676,110.47C404.676,110.47 422.479,112.108 415.19,131.096C415.19,131.096 394.497,169.859 350.24,176.57C350.24,176.57 338.336,181.554 288.07,170.79C288.07,170.79 245.748,160.145 235.61,167.04C235.61,167.04 211.98,176.52 213.37,202.51C213.37,202.51 213.92,208.65 217.61,216.24C217.61,216.24 241.666,259.684 249.737,274.487C257.227,288.225 283.415,297.981 303.605,279.666C307.613,276.031 313.831,262.345 332.46,250.24C341.142,244.598 353.76,238.64 370.571,238.298L537.772,236.045L572.158,236.769C572.158,236.769 587.828,237.119 593.868,251.489C593.868,251.489 607.589,298.417 613.126,313.761C618.388,328.343 617.608,332.134 589.85,346.496Z" style="fill:none;fill-rule:nonzero;stroke:black;stroke-width:18.14px;"/>
        </g>
        <g id="sector-3" serif:id="sector 3" transform="matrix(1,0,0,1,3.88163,0.660532)">
            <path d="M249.737,274.487C257.227,288.225 283.415,297.981 303.605,279.666C307.613,276.031 313.831,262.345 332.46,250.24C341.142,244.598 353.76,238.64 370.571,238.298L537.772,236.045L572.158,236.769C572.158,236.769 587.828,237.119 593.868,251.489C593.868,251.489 609.105,297.952 613.126,313.761C616.639,327.576 620.34,331.598 592.75,344.64C554.014,362.951 511.216,368.304 432.935,390.784" style="fill:none;fill-rule:nonzero;stroke:rgb(255,210,0);stroke-width:3.34px;"/>
        </g>
        <g id="sector-2" serif:id="sector 2" transform="matrix(1,0,0,1,3.88163,0.660532)">
            <path d="M110.631,137.416C88.55,113.654 66.974,93.705 66.974,93.705C66.974,93.705 50.118,80.941 72.094,78.255C72.094,78.255 98.746,73.295 142.629,74.833C159.893,75.439 193.99,81.75 193.99,81.75L269.975,97.012C269.975,97.012 297.84,103.535 323.013,105.535C346.007,107.362 404.676,110.47 404.676,110.47C404.676,110.47 422.479,112.108 415.19,131.096C415.19,131.096 394.497,169.859 350.24,176.57C350.24,176.57 338.336,181.554 288.07,170.79C288.07,170.79 245.748,160.145 235.61,167.04C235.61,167.04 211.98,176.52 213.37,202.51C213.37,202.51 213.92,208.65 217.61,216.24C217.61,216.24 241.666,259.684 249.737,274.487" style="fill:none;fill-rule:nonzero;stroke:rgb(0,176,225);stroke-width:3.34px;"/>
        </g>
        <g id="sector-1" serif:id="sector 1" transform="matrix(1,0,0,1,3.88163,0.660532)">
            <path d="M432.935,390.784C397.295,399.624 336,417.02 300.37,425.86C296.23,426.75 291.43,428.5 287.54,426.58C287.54,426.58 286.086,426.866 278.95,410.86C278.95,410.86 268.781,396.082 250.654,370.576C250.654,370.576 232.282,346.35 223.698,333.52C184.594,275.071 174.608,226.959 149.646,185.934C140.494,170.893 125.986,154.02 110.579,137.536" style="fill:none;fill-rule:nonzero;stroke:rgb(255,0,0);stroke-width:3.34px;"/>
        </g>
        <g id="start" transform="matrix(0.87447,0.38375,-0.38375,0.87447,23.8179,-119.172)">
            <path d="M601,303L622,330" style="fill:none;stroke:black;stroke-width:16px;stroke-linecap:square;stroke-linejoin:round;stroke-miterlimit:1.5;"/>
        </g>
    </g>
</svg>
