<svg xmlns="http://www.w3.org/2000/svg" xmlns:xlink="http://www.w3.org/1999/xlink" width="512" height="512" viewBox="0 0 512 512"><defs><clipPath id="b"><rect width="512" height="512"/></clipPath></defs><g id="a" clip-path="url(#b)"><g transform="translate(31.367 23.079)"><circle cx="200" cy="200" r="200" transform="translate(24.633 32.921)" fill="#fff"/><g transform="translate(-38.526 -35.412)"><path d="M193.239,408.13a159.438,159.438,0,0,1-32.507-21.84l-2.391-2.068V285.267H107.183l-.141-.84c-1.175-6.983-1.315-24.228-.277-34.081.216-2.053.394-3.937.394-4.186,0-.428,1.392-.453,25.592-.453h25.591V148.245l3.554-3.006a161.7,161.7,0,0,1,27.917-18.96c2.94-1.581,7.694-3.906,7.985-3.906.051,0,.093,27.75.093,61.667v61.667h24.169c13.321,0,24.169.1,24.169.222a21.64,21.64,0,0,1-1.023,2.437,51.341,51.341,0,0,0-2.6,34.7c.285,1,.519,1.9.519,2s-10.178.195-22.618.195H197.893l-.065,62.577-.065,62.577Z" transform="translate(-3 1.203)" fill="#b72332"/><path d="M295.155,415.54c4.134-4.307,5.637-7.317,5.649-11.313.028-8.191-3.82-13.551-11.109-15.482-2.077-.55-9.313-.881-19.775-.9-8.306-.018-10.637-.266-14.67-1.559a31.973,31.973,0,0,1-13.468-8.546,31.58,31.58,0,0,1-9.126-21.325,32.781,32.781,0,0,1,29.115-34.252c1.36-.165,11.36-.267,26.367-.268,23.793,0,24.19-.009,25.032-.523a3.771,3.771,0,0,0,1.6-2.894,4.165,4.165,0,0,0-1.72-2.709c-.67-.439-2.21-.474-26.573-.6-25.682-.132-25.881-.137-28.653-.723a44.509,44.509,0,0,1-23.115-12.5,41.1,41.1,0,0,1-8.322-11.55,43.2,43.2,0,0,1-4.6-21.864,41.821,41.821,0,0,1,4.856-18.766,44.247,44.247,0,0,1,14.941-16.85,46.633,46.633,0,0,1,15.925-6.72c2.533-.567,3.026-.582,24.557-.727,24.055-.162,22.874-.082,25.209-1.7a8.249,8.249,0,0,0,3-9.361,9.629,9.629,0,0,0-4.144-4.676l-1.32-.7-36.64-.068c-23.288-.043-36.644-.159-36.644-.317a30.687,30.687,0,0,1,2.187-5.411,35.617,35.617,0,0,1,11.672-13.358l2.1-1.4,19.746-.006c10.861,0,20.2-.111,20.744-.238a3.681,3.681,0,0,0,2.775-4.464,4.875,4.875,0,0,0-1.082-1.649l-.786-.754-40.442-.258-2.317-1.8c-5.805-4.522-10.607-10.027-13.142-15.066l-.943-1.875,16.741,0c17.514,0,19.105-.086,21.394-1.134,1.95-.892,2.789-1.736,4.866-4.9,2.875-4.373,5.062-6.128,9.093-7.3,1.346-.391,3.29-.471,14.734-.609,14.651-.177,13.893-.086,16.874-2.035a11.772,11.772,0,0,0,4.726-6.862,13.716,13.716,0,0,0-.487-6.726c-.309-.7-.417-1.207-.257-1.207.914,0,8.033,4.415,12.49,7.746,15.036,11.238,26.182,25.969,31.7,41.9a84.107,84.107,0,0,1,3.229,13.057,107.9,107.9,0,0,1,.012,21.02,67.835,67.835,0,0,1-4.842,16.6c-8.813,19.577-27.579,32.218-51.039,34.384-1.653.153-11.828.263-24.3.263-19.91,0-21.52.033-22.355.453a4.051,4.051,0,0,0-2.073,2.826,3.77,3.77,0,0,0,1.6,2.92c.842.514,1.238.522,25.359.523,15.445,0,25.431.1,27.013.274A40.878,40.878,0,0,1,352.3,306.447a50.473,50.473,0,0,1,.113,15.056,40.881,40.881,0,0,1-36.353,33.48c-1.429.148-13.019.257-27.728.259l-25.272,0-.934.856a2.648,2.648,0,0,0-1.059,2.156,2.167,2.167,0,0,0,.7,2.24,4.309,4.309,0,0,0,1.774,1.2c.595.165,6.778.265,16.587.268,14.254,0,15.845.048,17.965.488a26.919,26.919,0,0,1,20.8,32.606c-1.931,8.075-8.744,15.355-18.99,20.292a62.008,62.008,0,0,1-7.193,2.979,18.357,18.357,0,0,1,2.441-2.8ZM208.269,219.626c-.213-.042-1.231-.213-2.262-.381-1.1-.179-1.874-.432-1.874-.611a19.719,19.719,0,0,1,2.786-4.573c1.144-1.337,3.391-2.428,4.6-2.232.832.135.972.06,1.66-.89,1.77-2.444,3.254-9.566,3.768-18.081.158-2.617.126-3.042-.258-3.426-.884-.884-2.782-.342-4.694,1.342-4.764,4.195-12.832,3-15.736-2.334a6.768,6.768,0,0,1-.862-3.62c-.152-3.167.345-4.539,2.386-6.58,2.2-2.205,3.774-2.8,7.39-2.813,2.531-.009,2.827.047,4.394.812a14.323,14.323,0,0,1,2.714,1.748c2.073,1.861,4.279,2.117,4.674.543.208-.83-.294-7.466-.822-10.868-.812-5.229-2.02-9.081-3.264-10.4a1.974,1.974,0,0,0-1.65-.584c-1.534,0-2.246-.327-3.723-1.708-1.115-1.043-3.358-4.4-3.358-5.019,0-.549,4.018-1.122,6.768-.965,2.864.163,4.723,1.011,7.26,3.312,2.873,2.605,4.685,5.517,6.908,11.1,3.34,8.385,7.224,13.894,13.38,18.977a15.65,15.65,0,0,1,2.133,1.949,14.052,14.052,0,0,1-2.073,1.821A43.055,43.055,0,0,0,228,198.754c-.642,1.178-1.958,4.061-2.925,6.406-1.861,4.514-3.2,7-4.858,9a21.226,21.226,0,0,1-5.239,4.432,12.7,12.7,0,0,1-6.71,1.03Zm21.945-80.143a3.337,3.337,0,0,1-1.635-3.02,3.206,3.206,0,0,1,1.94-3.123c.822-.419,2.386-.452,21.51-.452,22.383,0,21.737-.041,22.89,1.425a3.016,3.016,0,0,1,.56,2.1,2.616,2.616,0,0,1-.885,2.357l-.885.966L252.3,139.8c-18.129.048-21.514,0-22.084-.312Zm1.186-11.611a5.709,5.709,0,0,1-1.588-1.261,4.963,4.963,0,1,1,8.449-1.892,5.282,5.282,0,0,1-2.777,3.163,6.449,6.449,0,0,1-4.084-.011Zm18.617-.07a4.748,4.748,0,0,1-2.714-4.455,4.969,4.969,0,0,1,8.747-3.268c.989,1.126,1.169,1.783,1.027,3.742a4.449,4.449,0,0,1-2.541,3.9,5.859,5.859,0,0,1-4.519.084Zm18.353,0a4.5,4.5,0,0,1-2.225-2.209,6.373,6.373,0,0,1-.215-4.26,5.787,5.787,0,0,1,2.415-2.588,6.48,6.48,0,0,1,4.445,0,5.114,5.114,0,0,1,.1,8.977,5.859,5.859,0,0,1-4.519.084Z" transform="translate(23.587 0)" fill="#026b43"/></g></g></g></svg>