<svg xmlns="http://www.w3.org/2000/svg" xmlns:xlink="http://www.w3.org/1999/xlink" width="512" height="512" viewBox="0 0 512 512"><defs><clipPath id="b"><rect width="512" height="512"/></clipPath></defs><g id="a" clip-path="url(#b)"><g transform="translate(6.367 -1.921)"><circle cx="225" cy="225" r="225" transform="translate(24.633 32.921)" fill="#9d2337"/><g transform="translate(69.529 89.171)"><path d="M204.136,443.85a179.367,179.367,0,0,1-36.57-24.57l-2.69-2.327V305.628H107.323l-.159-.945c-1.322-7.856-1.479-27.257-.311-38.342.244-2.31.443-4.429.443-4.709,0-.481,1.566-.509,28.791-.509h28.79V151.479l4-3.382a181.916,181.916,0,0,1,31.407-21.33c3.308-1.779,8.655-4.394,8.984-4.394.058,0,.1,31.219.1,69.375v69.375h27.191c14.986,0,27.191.112,27.191.25a24.35,24.35,0,0,1-1.151,2.741,57.759,57.759,0,0,0-2.923,39.039c.321,1.119.584,2.134.584,2.254s-11.45.219-25.445.219H209.372l-.073,70.4-.073,70.4Z" transform="translate(-106.066 -116.475)" fill="#fff"/><path d="M307.629,452.691c4.65-4.845,6.341-8.231,6.356-12.727.031-9.215-4.3-15.245-12.5-17.417-2.337-.619-10.477-.991-22.247-1.018-9.344-.021-11.967-.3-16.5-1.754a35.97,35.97,0,0,1-15.151-9.614,35.528,35.528,0,0,1-10.267-23.991,36.878,36.878,0,0,1,32.755-38.534c1.53-.186,12.78-.3,29.663-.3,26.767,0,27.214-.01,28.161-.588a4.242,4.242,0,0,0,1.8-3.256,4.685,4.685,0,0,0-1.935-3.048c-.754-.494-2.487-.534-29.895-.675-28.893-.149-29.116-.154-32.235-.813a50.073,50.073,0,0,1-26-14.063,46.236,46.236,0,0,1-9.363-12.994,48.605,48.605,0,0,1-5.17-24.6,47.049,47.049,0,0,1,5.463-21.111,49.778,49.778,0,0,1,16.808-18.956,52.462,52.462,0,0,1,17.916-7.56c2.85-.638,3.4-.654,27.627-.818,27.061-.182,25.733-.093,28.36-1.914a9.28,9.28,0,0,0,3.378-10.531,10.833,10.833,0,0,0-4.662-5.261l-1.485-.784-41.22-.077c-26.2-.049-41.224-.179-41.224-.357a34.522,34.522,0,0,1,2.46-6.088,40.069,40.069,0,0,1,13.131-15.028L254,197.242l22.215-.007c12.218,0,22.72-.124,23.337-.268a4.141,4.141,0,0,0,3.122-5.021,5.485,5.485,0,0,0-1.217-1.855l-.885-.848-45.5-.291-2.607-2.03c-6.531-5.087-11.932-11.28-14.785-16.95l-1.061-2.109,18.833,0c19.7,0,21.493-.1,24.068-1.276,2.194-1,3.137-1.953,5.475-5.509,3.234-4.919,5.695-6.894,10.229-8.21,1.515-.439,3.7-.53,16.576-.686,16.482-.2,15.63-.1,18.984-2.289a13.243,13.243,0,0,0,5.317-7.72,15.431,15.431,0,0,0-.548-7.566c-.347-.785-.469-1.358-.289-1.358,1.028,0,9.037,4.967,14.051,8.715,16.916,12.643,29.455,29.215,35.663,47.133a94.617,94.617,0,0,1,3.633,14.69c.772,4.964.781,18.86.014,23.648a76.315,76.315,0,0,1-5.447,18.675c-9.914,22.024-31.026,36.246-57.419,38.682-1.859.172-13.306.3-27.336.3-22.4,0-24.21.037-25.149.509a4.558,4.558,0,0,0-2.332,3.179,4.242,4.242,0,0,0,1.8,3.285c.948.578,1.393.587,28.528.588,17.376,0,28.609.115,30.39.309a45.988,45.988,0,0,1,40.249,37.005,56.782,56.782,0,0,1,.127,16.938,45.992,45.992,0,0,1-40.9,37.665c-1.608.167-14.646.289-31.194.291l-28.431,0-1.051.964a2.979,2.979,0,0,0-1.191,2.425,2.438,2.438,0,0,0,.788,2.52,4.848,4.848,0,0,0,2,1.355c.669.186,7.625.3,18.661.3,16.036,0,17.826.054,20.211.549a30.284,30.284,0,0,1,23.4,36.682c-2.173,9.085-9.837,17.274-21.364,22.828a69.758,69.758,0,0,1-8.092,3.351,20.651,20.651,0,0,1,2.746-3.145Zm-97.746-220.4c-.24-.047-1.385-.24-2.545-.429-1.234-.2-2.108-.486-2.108-.687,0-.515,2.046-3.874,3.134-5.145,1.287-1.5,3.815-2.732,5.171-2.511.936.152,1.093.068,1.867-1,1.991-2.75,3.661-10.762,4.239-20.341.178-2.944.142-3.422-.29-3.854-.995-1-3.129-.385-5.281,1.51-5.36,4.719-14.436,3.373-17.7-2.626a7.614,7.614,0,0,1-.97-4.072c-.171-3.563.388-5.106,2.684-7.4,2.481-2.481,4.246-3.153,8.314-3.165,2.848-.01,3.181.053,4.944.913a16.113,16.113,0,0,1,3.054,1.967c2.332,2.093,4.814,2.381,5.258.611.234-.934-.331-8.4-.925-12.226-.914-5.882-2.273-10.216-3.672-11.705a2.221,2.221,0,0,0-1.857-.657c-1.726,0-2.527-.368-4.188-1.922-1.254-1.173-3.777-4.945-3.777-5.647,0-.618,4.52-1.262,7.614-1.086,3.223.184,5.314,1.138,8.167,3.726,3.232,2.931,5.271,6.207,7.771,12.485,3.757,9.434,8.127,15.63,15.052,21.349a17.608,17.608,0,0,1,2.4,2.193,15.809,15.809,0,0,1-2.332,2.049,48.437,48.437,0,0,0-11.82,14.194c-.722,1.325-2.2,4.568-3.291,7.207-2.094,5.079-3.6,7.875-5.465,10.13a23.879,23.879,0,0,1-5.894,4.986,14.291,14.291,0,0,1-7.549,1.159Zm24.688-90.161a3.754,3.754,0,0,1-1.84-3.4,3.606,3.606,0,0,1,2.182-3.514c.925-.472,2.685-.509,24.2-.509,25.181,0,24.454-.046,25.751,1.6a3.393,3.393,0,0,1,.63,2.367,2.944,2.944,0,0,1-1,2.651l-1,1.087-24.087.064c-20.4.054-24.2,0-24.845-.351Zm1.334-13.062a6.423,6.423,0,0,1-1.787-1.418,5.584,5.584,0,1,1,9.505-2.128,5.942,5.942,0,0,1-3.124,3.558,7.255,7.255,0,0,1-4.6-.012Zm20.944-.079a5.341,5.341,0,0,1-3.053-5.012,5.59,5.59,0,0,1,9.84-3.676c1.112,1.267,1.315,2.006,1.156,4.209a5.005,5.005,0,0,1-2.858,4.384,6.592,6.592,0,0,1-5.084.095Zm20.647,0a5.062,5.062,0,0,1-2.5-2.486,7.17,7.17,0,0,1-.241-4.792,6.511,6.511,0,0,1,2.717-2.912,7.29,7.29,0,0,1,5,0c4.017,2.081,4.083,8.072.111,10.1a6.592,6.592,0,0,1-5.084.095Z" transform="translate(-64.994 -118.333)" fill="#fff"/></g></g></g></svg>