<svg xmlns="http://www.w3.org/2000/svg" xmlns:xlink="http://www.w3.org/1999/xlink" width="512" height="512" viewBox="0 0 512 512"><defs><clipPath id="b"><rect width="512" height="512"/></clipPath></defs><g id="a" clip-path="url(#b)"><g transform="translate(31.367 23.079)"><circle cx="200" cy="200" r="200" transform="translate(24.633 32.921)" fill="#fff"/><path d="M216.663,432.785a199.765,199.765,0,0,1-74.707-18.918,202.75,202.75,0,0,1-47.9-31.854c-3.478-3.1-12.61-12.234-15.559-15.568A199.99,199.99,0,0,1,27.83,244.168c-.261-4.42-.262-18,0-22.43A199.868,199.868,0,0,1,216.4,33.117c4.425-.261,18.005-.261,22.425,0a198.394,198.394,0,0,1,77.33,20.32A200.059,200.059,0,0,1,426.9,215.222a214.137,214.137,0,0,1,0,35.466C420.582,323.815,374.1,387.909,306.3,417a199.869,199.869,0,0,1-63.543,15.509c-4.534.37-21.525.549-26.094.274Zm22.011-4.189A195.2,195.2,0,0,0,344.89,389.87a175.039,175.039,0,0,0,21.176-18.435,174.511,174.511,0,0,0,18.314-21.029,194.663,194.663,0,0,0,37.636-92.947,201.824,201.824,0,0,0,.7-42.639,195.6,195.6,0,0,0-47.8-111.079c-3.8-4.362-13.77-14.329-18.122-18.125A195.777,195.777,0,0,0,239.369,37.265c-4.51-.315-19.018-.314-23.5,0A196.019,196.019,0,0,0,47.252,309.57,196.782,196.782,0,0,0,90.4,372.739a195.172,195.172,0,0,0,148.268,55.855Zm-20.118-7.486A188.256,188.256,0,0,1,40.086,250.188a167.974,167.974,0,0,1-.7-17.235,172.835,172.835,0,0,1,1.5-24.507,188.283,188.283,0,0,1,169.3-163.069,171.216,171.216,0,0,1,20.046-.651,155.173,155.173,0,0,1,20.39,1.26A188.272,188.272,0,0,1,414.843,212.73a149.594,149.594,0,0,1,.915,20.223,149.112,149.112,0,0,1-.811,19.227A188.127,188.127,0,0,1,242.262,420.75c-3.6.307-20.041.556-23.7.359Zm17.79-59.655a129.274,129.274,0,0,0,41.769-10.015,165.357,165.357,0,0,0,15.039-7.657,131.225,131.225,0,0,0,49.768-53.647,125.957,125.957,0,0,0,13.342-52.544,128.744,128.744,0,1,0-162.308,119.69,134.89,134.89,0,0,0,24.6,4.163c3.28.242,14.456.247,17.79.009Z" transform="translate(-3)" fill="#19243f"/><path d="M173.24,342.572a122.86,122.86,0,0,1-25.049-16.83l-1.843-1.594V247.9H106.927l-.109-.648c-.905-5.381-1.013-18.67-.213-26.262.167-1.582.3-3.034.3-3.225,0-.33,1.072-.349,19.721-.349h19.72v-75.1l2.739-2.316a124.605,124.605,0,0,1,21.513-14.61c2.266-1.218,5.928-3.01,6.153-3.01.039,0,.072,21.384.072,47.519v47.519H195.45c10.265,0,18.624.077,18.624.171a16.675,16.675,0,0,1-.788,1.878,39.562,39.562,0,0,0-2,26.74c.22.767.4,1.462.4,1.544s-7.843.15-17.429.15H176.826l-.05,48.221-.05,48.221Z" transform="translate(-3)" fill="#b72332"/><path d="M272.262,347.355c3.185-3.319,4.344-5.638,4.353-8.717.021-6.312-2.943-10.442-8.56-11.93-1.6-.424-7.176-.679-15.238-.7-6.4-.014-8.2-.205-11.3-1.2a24.638,24.638,0,0,1-10.378-6.585,24.335,24.335,0,0,1-7.033-16.433A25.26,25.26,0,0,1,246.537,275.4c1.048-.128,8.754-.206,20.318-.206,18.334,0,18.64-.007,19.289-.4a2.906,2.906,0,0,0,1.232-2.23,3.209,3.209,0,0,0-1.325-2.088c-.517-.339-1.7-.365-20.477-.462-19.79-.1-19.943-.106-22.079-.557a34.3,34.3,0,0,1-17.812-9.633,31.669,31.669,0,0,1-6.413-8.9,33.293,33.293,0,0,1-3.541-16.848,32.226,32.226,0,0,1,3.742-14.46,34.1,34.1,0,0,1,11.513-12.984,35.935,35.935,0,0,1,12.272-5.179c1.952-.437,2.332-.448,18.923-.56,18.536-.125,17.626-.064,19.426-1.311a6.356,6.356,0,0,0,2.314-7.213,7.42,7.42,0,0,0-3.194-3.6l-1.017-.537-28.234-.052c-17.945-.033-28.237-.122-28.237-.244a23.646,23.646,0,0,1,1.685-4.17,27.446,27.446,0,0,1,8.994-10.294l1.616-1.079,15.216,0c8.369,0,15.562-.085,15.985-.183a2.836,2.836,0,0,0,2.138-3.44,3.756,3.756,0,0,0-.834-1.271l-.606-.581-31.164-.2-1.785-1.391a36.862,36.862,0,0,1-10.127-11.61l-.727-1.445,12.9,0c13.5,0,14.722-.067,16.486-.874,1.5-.688,2.149-1.338,3.75-3.773,2.215-3.37,3.9-4.722,7.007-5.623,1.037-.3,2.535-.363,11.354-.47,11.29-.136,10.706-.066,13-1.568a9.071,9.071,0,0,0,3.642-5.288,10.569,10.569,0,0,0-.375-5.183c-.238-.538-.321-.93-.2-.93.7,0,6.19,3.4,9.624,5.969,11.587,8.66,20.175,20.011,24.428,32.284a64.809,64.809,0,0,1,2.488,10.062,83.148,83.148,0,0,1,.009,16.2,52.274,52.274,0,0,1-3.731,12.791c-6.791,15.086-21.251,24.827-39.33,26.5-1.274.118-9.114.2-18.724.2-15.342,0-16.583.026-17.226.349a3.122,3.122,0,0,0-1.6,2.177,2.905,2.905,0,0,0,1.233,2.25c.649.4.954.4,19.541.4,11.9,0,19.6.079,20.816.211A31.5,31.5,0,0,1,316.3,263.29a38.893,38.893,0,0,1,.087,11.6,31.5,31.5,0,0,1-28.013,25.8c-1.1.114-10.032.2-21.367.2l-19.474,0-.72.66a2.041,2.041,0,0,0-.816,1.661,1.67,1.67,0,0,0,.54,1.726,3.321,3.321,0,0,0,1.367.928c.458.127,5.223.2,12.782.207,10.984,0,12.21.037,13.844.376a20.743,20.743,0,0,1,16.028,25.126c-1.488,6.223-6.738,11.832-14.634,15.636a47.788,47.788,0,0,1-5.542,2.3,14.147,14.147,0,0,1,1.881-2.154ZM205.309,196.387c-.164-.032-.949-.164-1.743-.294-.845-.138-1.444-.333-1.444-.471a15.2,15.2,0,0,1,2.146-3.524,4.94,4.94,0,0,1,3.542-1.72c.641.1.749.047,1.279-.686,1.364-1.883,2.507-7.371,2.9-13.933.122-2.017.1-2.344-.2-2.64-.681-.682-2.143-.264-3.617,1.034-3.671,3.232-9.888,2.31-12.126-1.8a5.215,5.215,0,0,1-.664-2.789c-.117-2.441.266-3.5,1.839-5.07,1.7-1.7,2.908-2.16,5.695-2.168,1.951-.007,2.179.036,3.386.626A11.037,11.037,0,0,1,208.4,164.3c1.6,1.434,3.3,1.631,3.6.418a54.709,54.709,0,0,0-.634-8.375c-.626-4.029-1.557-7-2.515-8.018a1.521,1.521,0,0,0-1.272-.45,3.526,3.526,0,0,1-2.869-1.316,13.416,13.416,0,0,1-2.587-3.868c0-.423,3.1-.865,5.215-.744a8.14,8.14,0,0,1,5.594,2.552c2.214,2.008,3.61,4.251,5.323,8.552,2.574,6.462,5.566,10.706,10.31,14.623a12.06,12.06,0,0,1,1.643,1.5,10.828,10.828,0,0,1-1.6,1.4,33.178,33.178,0,0,0-8.1,9.722c-.495.908-1.509,3.129-2.254,4.936a25.988,25.988,0,0,1-3.743,6.938,16.358,16.358,0,0,1-4.037,3.415,9.789,9.789,0,0,1-5.171.794Zm16.91-61.757a2.572,2.572,0,0,1-1.26-2.327,2.47,2.47,0,0,1,1.495-2.407c.633-.323,1.839-.348,16.575-.349,17.248,0,16.75-.031,17.638,1.1a2.324,2.324,0,0,1,.432,1.621,2.016,2.016,0,0,1-.682,1.816l-.682.744-16.5.044c-13.97.037-16.578,0-17.018-.24Zm.914-8.947a4.4,4.4,0,0,1-1.224-.971,3.825,3.825,0,1,1,6.511-1.458,4.07,4.07,0,0,1-2.14,2.437,4.969,4.969,0,0,1-3.147-.008Zm14.346-.054a3.658,3.658,0,0,1-2.092-3.433,3.829,3.829,0,0,1,6.74-2.518c.762.868.9,1.374.792,2.883a3.428,3.428,0,0,1-1.958,3,4.515,4.515,0,0,1-3.482.065Zm14.143,0a3.467,3.467,0,0,1-1.714-1.7,4.911,4.911,0,0,1-.165-3.283,4.46,4.46,0,0,1,1.861-1.995,4.994,4.994,0,0,1,3.425,0,3.941,3.941,0,0,1,.076,6.917,4.515,4.515,0,0,1-3.482.065Z" transform="translate(-3)" fill="#026b43"/></g></g></svg>