<svg xmlns="http://www.w3.org/2000/svg" xmlns:xlink="http://www.w3.org/1999/xlink" width="512" height="512" viewBox="0 0 512 512"><defs><clipPath id="b"><rect width="512" height="512"/></clipPath></defs><g id="a" clip-path="url(#b)"><g transform="translate(30.971 -2.429)"><path d="M188.289,339.44q-2.665,2.516-5.48,4.865c-1.893,1.578-3.836,3.072-5.829,4.517a111.591,111.591,0,1,1,0-180.8,126.015,126.015,0,0,0-34.972,61.857,41.581,41.581,0,1,0,11.342,28.545,111.3,111.3,0,0,1,34.939-81.034q2.665-2.516,5.48-4.849c1.893-1.578,3.836-3.072,5.829-4.517a111.134,111.134,0,0,1,65.989-21.189l-.017,68.268a4.831,4.831,0,0,1-1.411.9,18.2,18.2,0,0,1-3.836.963,41.567,41.567,0,0,0-25.755,12.919,42.456,42.456,0,0,0-5.845,7.871,41.556,41.556,0,0,0-5.5,20.674,111.282,111.282,0,0,1-34.939,81.021" transform="translate(0 0)"/><path d="M588.092,328.583a7.412,7.412,0,0,1-1.461-1.511,2.455,2.455,0,0,1-.1-2.757,2.566,2.566,0,0,1,2.408-1.362,3.787,3.787,0,0,1,1.3.216,15.127,15.127,0,0,1,2.64,1.2,27.858,27.858,0,0,1,9.382,9.88,11.785,11.785,0,0,1,1.561,5.38c-.1.681,0,1.544-.913,1.943-.648.266-1.345-.017-1.926-.98-2.474-4.135-6.061-7.091-9.914-9.8-1.013-.714-2.026-1.428-2.972-2.209" transform="translate(-307.109 -92.282)"/><path d="M582.8,146.836v66.149l1.262.233a19.273,19.273,0,0,1,2.342.78,19.675,19.675,0,0,1,2.474,1.295c7.439,4.832,15.527,8.469,23.265,12.753a155.572,155.572,0,0,1,13.7,8.12,55.511,55.511,0,0,1,11.74,10.3,37.389,37.389,0,0,1,6.21,10.163c2.159,5.713,4.235,11.441,6.294,17.187,1.694,4.749,3.221,9.565,5.3,14.165a67.747,67.747,0,0,0,6.36,11.325,36.12,36.12,0,0,0,13.467,11.841s1.677.764,1.378,1.129c-2.674,1.03-3.852,1.046-6.011.381a13.259,13.259,0,0,1-5.1-3.271c-1.279-1.212-2.441-2.557-3.7-3.8-2.026-1.976-4.069-3.935-6.161-5.862a6.576,6.576,0,0,0-2.026-1.213,1.433,1.433,0,0,0-1.976,1.428,5.218,5.218,0,0,0,.631,2.242,43.212,43.212,0,0,0,2.607,3.67c1.544,2.059,3.056,4.135,4.717,6.078a47.964,47.964,0,0,0,4.3,4.317c1.046.946,2.275,1.694,3.388,2.557.4.3.747.681,1.328,1.213a8.059,8.059,0,0,1-1.162.4,14.193,14.193,0,0,1-6.974-1.261,36.908,36.908,0,0,1-6.908-3.936c-1.378-.963-2.74-1.976-4.168-2.856-1.81-1.129-2.989-1.03-4.567.381a26.073,26.073,0,0,0-2.557,2.69,6.643,6.643,0,0,1-5.6,2.508c-1.328-.033-2.657-.033-3.985.066a19.515,19.515,0,0,0-8.934,3.089c-.98.614-1.926,1.278-2.939,1.826a36.541,36.541,0,0,1-4.069,1.943,5.381,5.381,0,0,1-7.023-4.085,16.436,16.436,0,0,1-.133-2.391c-.017-.7.05-1.411,0-2.109-.116-1.744-.6-2.126-2.358-1.91-2.209.282-2.74-.332-1.993-2.524.747-2.159,1.677-4.268,2.474-6.427a50.2,50.2,0,0,1,5.081-9.9,40.633,40.633,0,0,0,2.574-4.633,13.59,13.59,0,0,0,1-3.005,1.645,1.645,0,0,0-.88-2.009,1.687,1.687,0,0,0-1.926.448c-1.428,1.345-2.906,2.623-4.252,4.035a16.794,16.794,0,0,1-10.76,5.148c-1.229.149-2.457.4-3.686.548a17.651,17.651,0,0,1-1.876,0,4.929,4.929,0,0,1,.515-2.657,66.25,66.25,0,0,0,2.674-12.7,31.057,31.057,0,0,0-.8-10.279,6.185,6.185,0,0,0-.814-1.927,1.7,1.7,0,0,0-2.74-.232,2.673,2.673,0,0,0-.78,1.909l-.034,2.923a50.491,50.491,0,0,1-1.029,11.624,37.094,37.094,0,0,1-1.4,4.567,12.239,12.239,0,0,1-3.388,5c-1.113,1.03-2.241,2.026-3.321,3.072-2.507,2.507-2.774,5.513-.7,8.353,2.125,2.939,4.235,5.9,6.509,8.719a12.12,12.12,0,0,1,2.806,7.821,12.938,12.938,0,0,0,.2,2.391,7.322,7.322,0,0,0,.648,1.345c.5-.365,1.03-.581,1.245-.963a15.362,15.362,0,0,0,1.644-10.03,6.027,6.027,0,0,0-1.079-2.374c-1.544-2.275-3.172-4.5-4.766-6.726l-2.009-3.736c2.192-1.976,3.039-1.859,4.65.5,2.325,3.437,4.55,6.957,6.775,10.461a8.181,8.181,0,0,1,1.03,6.376c-.515,2.425-.9,4.883-1.4,7.839-.548,2.707-1.079,3.238-3.936,3.222a4.885,4.885,0,0,0-4.666,2.474A7.9,7.9,0,0,1,584.8,336.3l-1.993.88v32.847l5.464-.083A109.272,109.272,0,0,0,694.727,261.609c.017-1.063-.034-2.125,0-3.188V218.85h33.112l25.954-72.014Z" transform="translate(-303.763 -0.003)"/><path d="M682.394,478.266c1.212-.332,2.026.349,2.209,1.594.066.531.066,1.046.083,1.3,0,3.52-.98,5.2-5.148,5.5-1.744-.1-2.258-.565-2.424-1.461a5.346,5.346,0,0,1,2.159-5.563,9.757,9.757,0,0,1,3.122-1.362" transform="translate(-354.714 -173.616)"/><path d="M683.693,422.306a9.224,9.224,0,0,0-3.338-4.683c-1.345-1-2.674-2.009-4.068-2.956a9.654,9.654,0,0,0-1.926-.88,1.689,1.689,0,0,0-2.109.631c-.482.631-.88,1.328-1.378,1.959a2.019,2.019,0,0,1-2.358.714,1.917,1.917,0,0,1-1.345-2.043,4.99,4.99,0,0,1,.083-1.328,21.546,21.546,0,0,1,3.853-8.087,4.933,4.933,0,0,1,.947-.913,1.948,1.948,0,0,1,2.657.033,107.1,107.1,0,0,0,8.768,8.1c3.122,2.524,3.969,6.144,4.517,9.814a8.81,8.81,0,0,1-.266,1.378,1.814,1.814,0,0,1-3.039.415,12.737,12.737,0,0,1-1-2.159" transform="translate(-349.553 -134.859)"/><path d="M558.854,511.672a35.094,35.094,0,0,0-6.791,1.046,13.972,13.972,0,0,0,1.561,5.4c.681,1.461,1.362,1.86,2.939,1.661a7.738,7.738,0,0,0,2.507-.78,3.476,3.476,0,0,0,1.677-4.085,6.75,6.75,0,0,0-1.893-3.238" transform="translate(-289.245 -191.164)"/><path d="M480,510.324a4.627,4.627,0,0,0,5.231,1.3v26.486a28.3,28.3,0,0,0-3.105-.05A111.066,111.066,0,0,1,419.261,516.9,125.836,125.836,0,0,0,445.9,479.919a102.694,102.694,0,0,0,15.709-.714c3.437-.4,5.463-.432,8.9-.565,1.395-.05,3.9-.88,3.52-3.454a27.763,27.763,0,0,0-1.694-5.33,1.565,1.565,0,0,1,2.723-1.528c.565.9,1.793,3.8,2.209,4.766a15.65,15.65,0,0,0,4.6,5.231,17.761,17.761,0,0,0,4.434,2.358,23.98,23.98,0,0,1,8.469,5.347,19.114,19.114,0,0,1,2.076,2.408c2.209,2.889,2.823,4.317-.233,7.788a16.209,16.209,0,0,1-10.212,5.613c-2.757.382-4.882-.515-6.061-3.188-.216-.482-.482-.947-.747-1.411-.515-.913-1.013-1.86-1.611-2.74a3.486,3.486,0,0,0-3.6-1.727c-2.541.382-5.065.78-7.589,1.262-.432.083-1.478.764-1.2,1a37.716,37.716,0,0,0,4.533,6.343,3.657,3.657,0,0,0,3.055,1.3c2.458-.1,2.557,0,3.57,2.225a33.39,33.39,0,0,0,1.528,3.089,13.107,13.107,0,0,0,1.727,2.341" transform="translate(-219.662 -168.078)"/></g></g></svg>