<svg xmlns="http://www.w3.org/2000/svg" xmlns:xlink="http://www.w3.org/1999/xlink" width="512" height="512" viewBox="0 0 512 512" fill="#ffffff"><defs><clipPath id="b"><rect width="512" height="512"/></clipPath></defs><g id="a" clip-path="url(#b)"><g transform="translate(56 10)"><path d="M167.371,318.039q-2.369,2.236-4.871,4.325c-1.683,1.4-3.41,2.731-5.181,4.015a99.192,99.192,0,1,1,0-160.714,112.013,112.013,0,0,0-31.086,54.984,36.961,36.961,0,1,0,10.082,25.373,98.937,98.937,0,0,1,31.057-72.03q2.369-2.236,4.871-4.31c1.683-1.4,3.41-2.731,5.181-4.015a98.786,98.786,0,0,1,58.657-18.835l-.015,60.683a4.294,4.294,0,0,1-1.255.8,16.175,16.175,0,0,1-3.41.856,36.948,36.948,0,0,0-22.894,11.484,37.739,37.739,0,0,0-5.2,7,36.939,36.939,0,0,0-4.886,18.377,98.917,98.917,0,0,1-31.057,72.019" /><path d="M587.877,327.958a6.588,6.588,0,0,1-1.3-1.343,2.182,2.182,0,0,1-.088-2.45,2.281,2.281,0,0,1,2.14-1.21,3.365,3.365,0,0,1,1.151.192,13.445,13.445,0,0,1,2.347,1.063,24.762,24.762,0,0,1,8.34,8.783,10.476,10.476,0,0,1,1.387,4.782c-.088.605,0,1.373-.812,1.727-.576.236-1.2-.015-1.712-.871-2.2-3.675-5.388-6.3-8.812-8.709-.9-.635-1.8-1.269-2.642-1.963" transform="translate(-338.111 -101.598)" /><path d="M582.467,146.836v58.8l1.122.207a17.128,17.128,0,0,1,2.081.694,17.49,17.49,0,0,1,2.2,1.151c6.613,4.3,13.8,7.528,20.68,11.336a138.28,138.28,0,0,1,12.177,7.218,49.342,49.342,0,0,1,10.436,9.152,33.236,33.236,0,0,1,5.52,9.034c1.919,5.078,3.764,10.17,5.595,15.277,1.506,4.222,2.863,8.5,4.708,12.591a60.221,60.221,0,0,0,5.654,10.067,32.106,32.106,0,0,0,11.971,10.525s1.49.679,1.225,1c-2.377.915-3.424.929-5.343.339a11.785,11.785,0,0,1-4.532-2.908c-1.137-1.077-2.17-2.273-3.291-3.38-1.8-1.757-3.616-3.5-5.476-5.21a5.846,5.846,0,0,0-1.8-1.078,1.274,1.274,0,0,0-1.757,1.269,4.638,4.638,0,0,0,.561,1.993,38.424,38.424,0,0,0,2.317,3.262c1.373,1.83,2.717,3.676,4.193,5.4a42.635,42.635,0,0,0,3.823,3.837c.93.841,2.022,1.505,3.011,2.273.354.266.664.606,1.181,1.078a7.163,7.163,0,0,1-1.033.354,12.616,12.616,0,0,1-6.2-1.121,32.808,32.808,0,0,1-6.141-3.5c-1.225-.856-2.435-1.757-3.7-2.539a2.864,2.864,0,0,0-4.059.339,23.18,23.18,0,0,0-2.273,2.391,5.9,5.9,0,0,1-4.974,2.229c-1.181-.03-2.362-.03-3.542.059a17.347,17.347,0,0,0-7.941,2.746c-.871.546-1.712,1.136-2.613,1.623a32.487,32.487,0,0,1-3.617,1.727,4.783,4.783,0,0,1-6.243-3.631,14.612,14.612,0,0,1-.118-2.125c-.015-.62.044-1.254,0-1.874-.1-1.55-.531-1.89-2.1-1.7-1.963.251-2.436-.295-1.772-2.243.664-1.919,1.491-3.794,2.2-5.712a44.619,44.619,0,0,1,4.517-8.8,36.122,36.122,0,0,0,2.288-4.118,12.08,12.08,0,0,0,.886-2.672,1.462,1.462,0,0,0-.782-1.786,1.5,1.5,0,0,0-1.712.4c-1.269,1.2-2.584,2.332-3.779,3.586a14.928,14.928,0,0,1-9.565,4.576c-1.092.133-2.184.354-3.276.487a15.69,15.69,0,0,1-1.668,0,4.382,4.382,0,0,1,.457-2.362,58.887,58.887,0,0,0,2.376-11.292,27.605,27.605,0,0,0-.708-9.136,5.5,5.5,0,0,0-.723-1.713,1.509,1.509,0,0,0-2.435-.206,2.376,2.376,0,0,0-.694,1.7l-.03,2.6a44.88,44.88,0,0,1-.915,10.332,32.975,32.975,0,0,1-1.24,4.059,10.879,10.879,0,0,1-3.011,4.443c-.989.915-1.992,1.8-2.952,2.73a5.3,5.3,0,0,0-.62,7.424c1.889,2.613,3.764,5.241,5.786,7.75a10.773,10.773,0,0,1,2.494,6.952,11.5,11.5,0,0,0,.177,2.125,6.507,6.507,0,0,0,.576,1.2c.443-.325.915-.517,1.107-.856a13.655,13.655,0,0,0,1.462-8.916,5.357,5.357,0,0,0-.96-2.111c-1.373-2.022-2.82-4-4.237-5.978l-1.786-3.321c1.949-1.757,2.7-1.653,4.133.443,2.067,3.055,4.044,6.184,6.022,9.3a7.272,7.272,0,0,1,.916,5.668c-.458,2.155-.8,4.34-1.24,6.968-.487,2.406-.96,2.878-3.5,2.864a4.342,4.342,0,0,0-4.147,2.2,7.025,7.025,0,0,1-3.572,2.923l-1.771.782v29.2l4.856-.074a97.131,97.131,0,0,0,94.63-96.3c.015-.945-.03-1.889,0-2.834V210.848h29.433l23.07-64.012Z" transform="translate(-334.428 -0.003)"/><path d="M681.8,478.257c1.078-.3,1.8.31,1.963,1.417.059.472.059.93.074,1.151,0,3.129-.871,4.62-4.576,4.886-1.55-.089-2.007-.5-2.155-1.3a4.753,4.753,0,0,1,1.919-4.945,8.674,8.674,0,0,1,2.775-1.21" transform="translate(-390.521 -191.142)"/><path d="M681.856,420.3a8.2,8.2,0,0,0-2.967-4.163c-1.2-.886-2.376-1.786-3.616-2.627a8.58,8.58,0,0,0-1.712-.782,1.5,1.5,0,0,0-1.875.561c-.428.561-.782,1.181-1.225,1.742a1.8,1.8,0,0,1-2.1.635,1.7,1.7,0,0,1-1.2-1.816,4.436,4.436,0,0,1,.074-1.181,19.151,19.151,0,0,1,3.424-7.188,4.386,4.386,0,0,1,.841-.812,1.732,1.732,0,0,1,2.362.029,95.2,95.2,0,0,0,7.794,7.2c2.775,2.244,3.528,5.461,4.015,8.724a7.83,7.83,0,0,1-.236,1.225,1.612,1.612,0,0,1-2.7.369,11.32,11.32,0,0,1-.886-1.919" transform="translate(-384.839 -148.473)" /><path d="M558.1,511.672a31.2,31.2,0,0,0-6.037.93,12.419,12.419,0,0,0,1.387,4.8,2.1,2.1,0,0,0,2.613,1.476,6.879,6.879,0,0,0,2.229-.694,3.09,3.09,0,0,0,1.491-3.631,6,6,0,0,0-1.683-2.878" transform="translate(-318.444 -210.461)"/><path d="M473.256,505.578a4.113,4.113,0,0,0,4.65,1.151v23.543a25.165,25.165,0,0,0-2.76-.044,98.726,98.726,0,0,1-55.884-18.805,111.853,111.853,0,0,0,23.676-32.872,91.286,91.286,0,0,0,13.964-.635c3.055-.354,4.856-.384,7.912-.5,1.24-.044,3.469-.782,3.129-3.07a24.675,24.675,0,0,0-1.506-4.738,1.391,1.391,0,0,1,2.421-1.358c.5.8,1.594,3.38,1.963,4.236a13.912,13.912,0,0,0,4.089,4.65,15.787,15.787,0,0,0,3.941,2.1,21.316,21.316,0,0,1,7.528,4.753,16.99,16.99,0,0,1,1.845,2.14c1.963,2.568,2.509,3.838-.207,6.923a14.409,14.409,0,0,1-9.078,4.989c-2.45.34-4.339-.458-5.388-2.834-.192-.428-.428-.841-.664-1.255-.458-.812-.9-1.653-1.432-2.435a3.1,3.1,0,0,0-3.2-1.535c-2.258.339-4.5.694-6.746,1.122-.384.074-1.314.679-1.063.886a33.523,33.523,0,0,0,4.03,5.639,3.25,3.25,0,0,0,2.716,1.151c2.185-.089,2.273,0,3.174,1.978a29.671,29.671,0,0,0,1.358,2.745,11.652,11.652,0,0,0,1.535,2.081" transform="translate(-241.837 -185.046)"/></g></g></svg>