<svg xmlns="http://www.w3.org/2000/svg" xmlns:xlink="http://www.w3.org/1999/xlink" width="512" height="512" viewBox="0 0 512 512"><defs><clipPath id="b"><rect width="512" height="512"/></clipPath></defs><g id="a" clip-path="url(#b)"><rect width="400" height="400" rx="28" transform="translate(56 56)" fill="#015751"/><path d="M189.111,15.938a9.24,9.24,0,0,0-6.7,2.564,9.88,9.88,0,0,0-2.422,4.7.7.7,0,0,1-.142.427h60.428c1-1.71,1.71-2.993,2.422-4.275a9.182,9.182,0,0,1,3-3.418H189.113ZM16.522,16.08c-1.425,0-2,.567-2,1.422a3.775,3.775,0,0,0,.427,1.427c.142.285,2.138,3.706,2.138,3.706.428.855.854,1,2.422,1.138H86.5c-.855-1.283-1.425-2.42-2-3.418,0,0-2.569-4.275-6.7-4.275H16.521Zm122.992,0s-27.362,0-56.437.142a13.79,13.79,0,0,1,2.991,3.418s1.567,2.85,2.422,4.275h60.432l-.284-.569a9.254,9.254,0,0,0-2.422-4.7,8.706,8.706,0,0,0-6.7-2.564Zm111.449,0c-4.275,0-6.7,4.275-6.7,4.275-.569,1-1.14,2.135-2,3.418h66.986c1.711-.143,1.994-.425,2.422-1.138l2.138-3.706c.287-.713.286-1.142.711-1.284,0-.428-.284-.569-.284-.711a2.335,2.335,0,0,0-2-.853H250.962Zm-147.505,9.4v17.1H225.313v-17.1Zm137.671,0c-.569,1-1.281,2-2,3.138L296,32.324a18.339,18.339,0,0,0,4.844,0,3.977,3.977,0,0,0,2.426-1.991l2.28-4.138a2.374,2.374,0,0,0,.284-.711H241.128ZM22.65,25.626A43.949,43.949,0,0,1,25.5,30.475c.168.224.38.5.618.782.116.123.233.244.356.364a4.309,4.309,0,0,0,1.449.849,24.156,24.156,0,0,0,4.56,0l57.01-3.706c-.713-1.14-1.425-2.14-2-3.138H22.651Zm66.983,0c.57,1,1.283,2,2,3l9.977-.715v-2.28H89.633Zm137.391,0v2.28l9.977.715c.712-1,1.424-2.14,2-3H227.024Zm0,3.991v2.422l6.84.858a32.716,32.716,0,0,1,2-2.711l-8.835-.569Zm-125.418.142-8.693.573a32.907,32.907,0,0,0,2,2.707l6.7-1v-2.28Zm-10.83.716S32.483,34.319,32.2,34.319c.285.143.426.573.711.858l2.711,4.844c.142.142.853.858,2.849.573l54.3-7.271a34.54,34.54,0,0,0-2-2.849Zm147.08,0c-.712.855-1.282,1.851-2.138,2.849L290.3,40.594c2,.285,2.712-.431,2.853-.573.428-.855,2.706-4.844,2.706-4.844a3.1,3.1,0,0,1,.573-.711,1.967,1.967,0,0,0-.715-.147l-57.863-3.844Zm-10.83,3.275V36.6a12.4,12.4,0,0,0,3.133.569c.856-.855,1.57-1.851,2.284-2.707l-5.417-.715Zm-125.277.142-5.418.715c.712.855,1.425,1.851,2.28,2.707l3.138-.569V33.892Zm-7.555,1L39.327,42.3c2,.57,6.7,1.854,12.257,3.564,2,.57,5.983-.142,7.551-.427l37.483-7.7c-1-.855-1.567-1.994-2.422-2.849Zm140.529.142c-.856.855-1.571,1.994-2.426,2.849,11.83,2.423,37.487,7.7,37.487,7.7,1.283.142,5.413.854,7.408.284l12.4-3.564-54.867-7.266ZM101.607,38.452a14.672,14.672,0,0,1-1.711.431c.57.57,1.141,1.283,1.711,1.853V38.452Zm125.418.147v2.28c.571-.713,1.142-1.283,1.711-2l-1.711-.284Zm3.849.711c-1.14,1.14-2.283,2.424-3.564,3.706l25.082,7.835s3.562,1.144,6.129.431l12.826-3.849a8.366,8.366,0,0,1-2-.284L230.873,39.31Zm-132.831.142c-11.4,2.28-38.482,7.839-38.482,7.839s-.855.142-2,.284C61.7,48.716,65.978,50,70.253,51.282c2.566.713,5.986-.427,6.271-.284l25.082-7.839a43.8,43.8,0,0,1-3.564-3.706Zm7.271,4.844c1.425,1.283,4.986,4.275,5.129,4.417l9.551-4.417Zm18.812,0c-1,.57-6.414,2.994-12.115,5.7,2.566,1.853,5.274,3.708,7.839,5.275L135.24,44.3H124.125Zm29.642,0C152.2,47,146.212,56.981,141.794,64.535a84.614,84.614,0,0,0,10.119,2L158.042,44.3h-4.275Zm16.959,0,6.129,22.234c3.42-.57,6.841-1.14,10.119-2L175,44.3h-4.28Zm6.417,0,11.684,19.67a70.868,70.868,0,0,0,9.266-3.138L182.129,44.3h-4.986Zm7.408,0c2.993,3.278,9.69,10.121,15.106,15.679a74.075,74.075,0,0,0,7.555-3.706L190.537,44.3h-5.986Zm8.982,0c3.278,2.423,9.547,6.844,15.248,11.119,2.708-1.71,5.275-3.422,7.839-5.417l-12.115-5.7H193.533Zm15.248,0c2.566,1.283,5.987,2.85,9.551,4.417A60.67,60.67,0,0,0,223.46,44.3H208.781Zm-62.139.142c-1.853,1.853-9.55,9.834-15.963,16.532,3.135,1.14,6.126,2.282,9.262,3.138l11.688-19.67Zm12.968,0-6.129,22.376c3.278.285,6.7.573,9.977.573l-.142-22.95H159.61Zm5.7,0v22.95a75.878,75.878,0,0,0,9.835-.573l-6.129-22.376h-3.706Zm60.569,0c-1.852,1.71-3.849,3.423-5.844,5.133,6.983,3.278,13.684,6.413,13.684,6.413.856.428,3.423,1.423,5.275,1l14.11-4.275a3.2,3.2,0,0,1-1.284-.284l-25.94-7.982Zm-123.138.142c-4.846,1.425-25.935,7.982-25.935,7.982s-.572.142-1.284.284c7.7,2.138,13.682,3.991,14.252,4.133,1.853.57,4.42-.568,5.133-.853l13.679-6.413c-2.138-1.71-3.992-3.423-5.844-5.133Zm35.348,0c-1.853,1.283-9.41,6.7-16.679,11.972,2.565,1.283,4.99,2.566,7.555,3.706l15.11-15.679h-5.986Zm-28.078,6.271c-6.984,3.42-14.252,6.7-14.252,6.7a9.521,9.521,0,0,1-3.422,1.138,5.234,5.234,0,0,1,1.427,2.138c.713,2,1.566,3.991,6.84,5.986,2.28.713,4.849-1.137,4.706-1.422l12.684-8.982c-2.708-1.71-5.416-3.564-7.982-5.56Zm108.6.147c-2.564,2-5.274,3.845-7.982,5.555,6.7,4.846,12.684,9.124,12.684,9.124s2.71,1.992,4.849,1.28c5.272-2.138,5.984-3.991,6.84-5.986a6.215,6.215,0,0,1,1.28-2.138A14.51,14.51,0,0,1,233.01,57.7L218.615,51Zm-98.766,6.413c-6.983,5.131-13.257,9.546-13.257,9.546a4.85,4.85,0,0,1-2,1.142l11.261,3.133c1.71.285,3.847-1.283,4.56-2l7.271-7.835a80.992,80.992,0,0,1-7.839-3.991Zm88.932.142c-2.565,1.425-5.274,2.708-7.839,3.991,4.276,4.418,7.413,7.693,7.413,7.693.713.713,2.706,2.423,4.417,2l2-.569s6.41-1.709,9.262-2.422a20.44,20.44,0,0,1-2-1.142ZM129.394,62.4c-4.418,4.418-7.835,8.124-7.835,8.124a6.128,6.128,0,0,1-2.138,1.711l12.11,3.275c1.425.142,2.994-2.136,3.422-2.991l3.991-6.7a58.772,58.772,0,0,1-9.551-3.422Zm69.834,0a54.271,54.271,0,0,1-9.546,3.422l3.991,6.7c.428,1,2.134,3.276,3.56,2.991l11.973-3.275a13.89,13.89,0,0,1-2.138-1.711L199.229,62.4ZM140.655,66.1c-2.423,4.133-4.275,7.266-4.275,7.266a9.4,9.4,0,0,1-2.28,2.853l10.688,2.849a3.407,3.407,0,0,0,2.422-.284,5.358,5.358,0,0,0,2-3.133l2-7.555a86.069,86.069,0,0,1-10.546-2Zm47.458.142a86.063,86.063,0,0,1-10.546,2l2,7.413a5.365,5.365,0,0,0,2,3.133,2.873,2.873,0,0,0,2.422.284l10.688-2.707a11.533,11.533,0,0,1-2.28-2.853l-4.275-7.266Zm-35.2,2.28-2,7.555a8.142,8.142,0,0,1-1.569,3.133,4.68,4.68,0,0,0,2.564-1.422s7.129-6.56,8.982-8.7c-2.708-.142-5.416-.284-7.982-.569Zm22.661,0c-2.565.285-5.274.426-7.982.569,2,1.71,7.7,7.271,7.7,7.271.365.365.506.479.782.755l3.058,2.089s.005,0,.009,0a7.607,7.607,0,0,1-1.569-3.133l-2-7.555Z" transform="translate(91.473 208.421)" fill="#fff"/></g></svg>