<svg xmlns="http://www.w3.org/2000/svg" xmlns:xlink="http://www.w3.org/1999/xlink" width="512" height="512" viewBox="0 0 512 512"><defs><clipPath id="b"><rect width="512" height="512"/></clipPath></defs><g id="a" clip-path="url(#b)"><g transform="translate(56 56)"><g transform="translate(0)"><g transform="translate(81.481 81.481)"><g transform="translate(0 0)"><g transform="translate(0 0)"><path d="M255.545,137.027A118.464,118.464,0,0,1,137.026,255.545V137.027ZM137.026,18.508V137.027H18.508A118.464,118.464,0,0,1,137.026,18.508Z" transform="translate(-18.508 -18.508)" fill="#0166b1"/></g><path d="M58.283,15.479A118.464,118.464,0,0,1,176.8,134H58.283V15.479ZM-60.235,134H58.283V252.516A118.464,118.464,0,0,1-60.235,134Z" transform="translate(60.235 -15.479)" fill="#fff"/></g></g><path d="M200,81.481v6.5h0A112.147,112.147,0,0,1,312.02,200h6.5A118.524,118.524,0,0,0,200,81.481h0m0,230.539A112.147,112.147,0,0,1,87.98,200h-6.5A118.524,118.524,0,0,0,200,318.519M200,0C89.546,0,0,89.546,0,200S89.546,400,200,400s200-89.546,200-200S310.454,0,200,0h0ZM386.994,200c0,103.269-83.714,186.994-186.994,186.994S13.006,303.269,13.006,200,96.731,13.006,200,13.006,386.994,96.731,386.994,200Z" transform="translate(0)"/><g transform="translate(54.873 24.691)"><g transform="translate(0)"><path d="M59.783,78.825c6.391-6.685,10.01-14.409,3.618-21.783-3.478-4-9.316-4.877-14.157-2.905l-.482.187.153-.42a11.553,11.553,0,0,0-4.03-12.157,12.1,12.1,0,0,0-8.94-2.473c-6,.607-10.62,4.679-23.191,18.6C8.96,62.07,3.438,68.7.125,72.991l34.528,32.529C46.1,92.942,50.761,88.263,59.783,78.825ZM14.729,70.867A213.611,213.611,0,0,1,32.422,51.721a9.131,9.131,0,0,1,3.607-2.287,4.279,4.279,0,0,1,5.134,3.29c.529,2.322-.94,4.527-2.573,6.347C34.912,63.19,21.425,77.2,21.425,77.2ZM28.251,83.608s13.135-13.791,17.423-18.2a16.023,16.023,0,0,1,3.971-3.384,4.529,4.529,0,0,1,4.652.093,4.054,4.054,0,0,1,1.762,4.294c-.435,1.972-2.056,3.85-3.4,5.285-1.809,1.925-17.387,18.481-17.411,18.5ZM149.2,40.031l11.055-24.595.7-2.182-.2,2.275L161.923,48.4c3.877.362,7.883.9,11.831,1.552l-1.8-48.676Q163.674.362,155.438,0L144.547,26.847l-.388,2-.388-2L132.893,0q-8.247.35-16.518,1.272l-1.8,48.676c3.947-.653,7.954-1.178,11.831-1.552l1.163-32.867-.2-2.275.7,2.182,11.055,24.595H149.2Zm91.813,50.881c2.714,2.893,6.626,7.56,8.823,10.4L290.3,75.8c-2.021-2.625-5.24-6.615-7.648-9.427L257.026,83.2l-1.75,1.493,1.3-1.89,11.314-22.425-8-7.945L237.3,63.669l-1.9,1.3,1.516-1.738,16.953-25.435c-2.984-2.52-5.851-4.83-9.5-7.63L218.679,70.307c3.254,2.485,7.542,6.137,10.28,8.622l24.178-12.461,1.551-1.132-1.14,1.54L241.013,90.912Z" transform="translate(-0.125)"/></g></g></g></g></g></svg>