<svg xmlns="http://www.w3.org/2000/svg" width="512" height="512" viewBox="0 0 512 512"><defs><clipPath id="a"><path d="M0 0h512v512H0z"/></clipPath></defs><g clip-path="url(#a)"><path d="M255.5 64h1a70.8 70.8 0 0012 3.3c43.3 9 86.4 18.2 129.7 27.3v11.2c-43.2-8.7-85.7-17.6-128.8-26.6-5.5-1-11-3.3-16.6-2-46 10.4-92.6 20.6-138.7 30.4V96.8c44-9.7 88-20.3 131.9-30a72.7 72.7 0 009.5-2.8z" fill="#fff"/><path d="M255.5 56h1a70.8 70.8 0 0012 3.3c43.3 9 86.4 18.2 129.7 27.3V96C355 87.4 312 78 269 69c-5.5-1-11-3.3-16.6-2-46 10.4-92 21-138.2 30.7v-9.5c44-9.7 87.8-19.7 131.8-29.4a72.7 72.7 0 009.5-2.8z" fill="#008537"/><path d="M244 78.7c5.5-1.3 11-3 16.6-1.6 45.8 10 91.7 19.2 137.5 28.8l.2 14.4c-34-14-69.7-24-106.3-27.3A350 350 0 00148 109c-11.5 3.7-22.7 8.5-34 12.8v-14.4c43.3-9.4 86.7-18.7 130-28.7z" fill="#e20714"/><path d="M148.1 109A350 350 0 01292 93a371.1 371.1 0 01106.3 27.3q.4 45.4.5 90.8c.5 25.8-4.2 51.5-11.3 76.4a292.8 292.8 0 01-65 117.7 277.8 277.8 0 01-64.3 50.8H257a267.9 267.9 0 01-88.8-78.9A294 294 0 01113.5 227c-.7-35 .7-70.1.6-105.1 11.3-4.4 22.5-9.2 34-12.9z" fill="#000"/><path d="M121.8 127a330.5 330.5 0 01174.7-27 336.6 336.6 0 0194.2 25.4c.3 26.6.1 53.3.5 79.9.7 32.5-5.8 65-16.3 95.6a284.8 284.8 0 01-52.5 92.6 255.8 255.8 0 01-65 53.3 249.2 249.2 0 01-81.2-72 284 284 0 01-39.4-75 266.3 266.3 0 01-15.9-91.6c.3-27 .9-54.1 1-81.2z" fill="#ffec00"/><path d="M244.6 105.7c2.5 3.2 3.6 7 4.2 11l2.8-10.5c3.7 3 6.4 7.7 11.5 8.2 4.2.5 7.4 3.2 10.6 5.6 5 .3 10.2 0 15.2 1-3.8 1.8-7.8 3-11.7 4.3 4.3 2.7 8.1 6.3 13 8.1 4.2 1.4 6 5.8 8.2 9.2-5.4-3.2-10.7-7.2-17.4-6.5 2.5 6.2 9.6 5.8 14.9 7.5 2.1 1.5 3.5 3.8 5.2 5.8-2.7-1.1-5.1-2.6-7.8-3.6-3.4-.4-6.8.3-10.2.7 5 2.2 10.5 4 14.6 7.8a47 47 0 01-17-4 110 110 0 0113.6 21.1c-3-1.7-5.8-3.7-8.7-5.4 2.4 5.3 6.6 9.6 12.4 11.1-3.2 0-6.8.6-9.7-1.4-3.6-2.2-7.2-4.5-11.4-5.4 2 3.7 5.3 6.1 8.8 8.1 3.6 2.1 5.5 6 7.4 9.5-3.7-2-7.4-4.4-11.2-6.3.1 6.3 6.4 8.1 10.9 10.8l-6.4 1.3 1.4 3.2a45.2 45.2 0 00-12.8-1c4.2 2.8 8.3 6 12.9 8.3a68.1 68.1 0 008-1.2c-2.2 1.6-4.2 3.4-6.7 4.4-5.2-.1-9.7-3-14.7-3.9l8.7 7-4.9 1c1.8 2.3 3.4 4.8 4.9 7.4-3.7-1.5-7-3.8-10.4-5.8-3.8-1.8-8-2.7-11.8-4.4 3.3 12.7 9.2 25.9 20.8 33 12.1 8.1 23.7 18.6 28 33 7.5-2.5 15.4-6.8 18.3-14.7 5-12.5.2-25.9-3.5-38a30.3 30.3 0 0115-34c-2.8 4.3-6.5 8.2-8.3 13.2-1.7 4.3-1.3 9-1.2 13.6a154.6 154.6 0 0115.8-18.4c-2 6-5.4 11.2-8.3 16.7-2.2 4-1.7 8.5-1.4 12.8a178.8 178.8 0 0112.2-14.8c-1 5.2-3.3 9.8-5.4 14.4-4.6 13.6 4.5 27.9-.8 41.3-2.5 6.5-8.6 10.3-14.5 13.2 3.7 7.7.7 16 1 24-3-7-2.1-15.3-6.7-21.6 1 6.2 3.4 12.8.8 19-3 7-9 13-9.4 21.2-.4-4-1.7-8.2-.2-12.1 2.3-6.2 5.9-12.4 4.3-19.2-2.5 4.1-3.2 9-4.6 13.5-3.3-6.6 0-13.8-1-20.8-3.2 4.5-3 10.3-5.6 15.2a46 46 0 01-16.1 17.2c-2.6 2-6 4.3-6.3 8-1.6 7 8.3 13 3.8 19.7a70.6 70.6 0 00-27.6 30.7c-3.5 4.6-9.8 5.5-15.1 5.1-.3-8.6 5.8-14.9 11.7-20.2a80.1 80.1 0 0019.6-21c-6.8-9.7-13.9-20.7-12.9-33.1.4-9.4 9.5-15.7 8.6-25.4-2.4 5.7-3.8 12.4-9.5 15.8-5.3-6-7.9-14.1-13.6-20-3.9-4.4-10.5-4.3-14.8-8.3a65.7 65.7 0 01-21.1-24.6c-3.3-.6-7-.4-10-2.4-6.4-5.1-14-8.8-21-12.8-3.8.2-2 4.1-1.4 6.3 2.2 6.3 2.3 13.2 5.5 19.2 1.2 4 6.2 4.9 7.6 8.7 1.8 5 .3 10.2-1.8 14.8-6.8-3-9.9-10-13.3-16-4.4-6.5-3.8-14.6-5.3-22-3.6 3.7-6.8 8-11.8 9.6.1-5.4.7-10.8 1.1-16.1 0-6.8 3.8-12.7 5.7-19.1 2.9-8 3.6-16.6 7.9-24a8.5 8.5 0 0112-3.2c6.4 4.3 12.5 9.3 19.8 12 5.2-2.8 9.4-7.2 14.3-10.6 3.3-3.4 6-7.4 9.4-10.8a56.2 56.2 0 0013.6-26c-4.7-.5-9.4-1.2-14.1-2-4.4-1-8.5 1-12.8 1.4-2.7-1.4-5-3.3-7.6-5 .2-4 1.3-8.1 4.1-11.2 2.7-4.2 8.5-2.7 12.4-5 5.1-2.9 9.8-6.3 15-9-5.1-3-11-1.8-16.6-2 5-3 10.4-6.7 16.6-5.8l2.3-6.4z" fill="none" stroke="#000" stroke-miterlimit="10" stroke-width=".1"/><path d="M244.6 105.7c2.5 3.2 3.6 7 4.2 11l2.8-10.5c3.7 3 6.4 7.7 11.5 8.2 4.2.5 7.4 3.2 10.6 5.6 5 .3 10.2 0 15.2 1-3.8 1.8-7.8 3-11.7 4.3 4.3 2.7 8.1 6.3 13 8.1 4.2 1.4 6 5.8 8.2 9.2-5.4-3.2-10.7-7.2-17.4-6.5 2.5 6.2 9.6 5.8 14.9 7.5 2.1 1.5 3.5 3.8 5.2 5.8-2.7-1.1-5.1-2.6-7.8-3.6-3.4-.4-6.8.3-10.2.7 5 2.2 10.5 4 14.6 7.8a47 47 0 01-17-4 110 110 0 0113.6 21.1c-3-1.7-5.8-3.7-8.7-5.4 2.4 5.3 6.6 9.6 12.4 11.1-3.2 0-6.8.6-9.7-1.4-3.6-2.2-7.2-4.5-11.4-5.4 2 3.7 5.3 6.1 8.8 8.1 3.6 2.1 5.5 6 7.4 9.5-3.7-2-7.4-4.4-11.2-6.3.1 6.3 6.4 8.1 10.9 10.8l-6.4 1.3 1.4 3.2a45.2 45.2 0 00-12.8-1c4.2 2.8 8.3 6 12.9 8.3a68.1 68.1 0 008-1.2c-2.2 1.6-4.2 3.4-6.7 4.4-5.2-.1-9.7-3-14.7-3.9l8.7 7-4.9 1c1.8 2.3 3.4 4.8 4.9 7.4-3.7-1.5-7-3.8-10.4-5.8-3.8-1.8-8-2.7-11.8-4.4 3.3 12.7 9.2 25.9 20.8 33 12.1 8.1 23.7 18.6 28 33 7.5-2.5 15.4-6.8 18.3-14.7 5-12.5.2-25.9-3.5-38a30.3 30.3 0 0115-34c-2.8 4.3-6.5 8.2-8.3 13.2-1.7 4.3-1.3 9-1.2 13.6a154.6 154.6 0 0115.8-18.4c-2 6-5.4 11.2-8.3 16.7-2.2 4-1.7 8.5-1.4 12.8a178.8 178.8 0 0112.2-14.8c-1 5.2-3.3 9.8-5.4 14.4-4.6 13.6 4.5 27.9-.8 41.3-2.5 6.5-8.6 10.3-14.5 13.2 3.7 7.7.7 16 1 24-3-7-2.1-15.3-6.7-21.6 1 6.2 3.4 12.8.8 19-3 7-9 13-9.4 21.2-.4-4-1.7-8.2-.2-12.1 2.3-6.2 5.9-12.4 4.3-19.2-2.5 4.1-3.2 9-4.6 13.5-3.3-6.6 0-13.8-1-20.8-3.2 4.5-3 10.3-5.6 15.2a46 46 0 01-16.1 17.2c-2.6 2-6 4.3-6.3 8-1.6 7 8.3 13 3.8 19.7a70.6 70.6 0 00-27.6 30.7c-3.5 4.6-9.8 5.5-15.1 5.1-.3-8.6 5.8-14.9 11.7-20.2a80.1 80.1 0 0019.6-21c-6.8-9.7-13.9-20.7-12.9-33.1.4-9.4 9.5-15.7 8.6-25.4-2.4 5.7-3.8 12.4-9.5 15.8-5.3-6-7.9-14.1-13.6-20-3.9-4.4-10.5-4.3-14.8-8.3a65.7 65.7 0 01-21.1-24.6c-3.3-.6-7-.4-10-2.4-6.4-5.1-14-8.8-21-12.8-3.8.2-2 4.1-1.4 6.3 2.2 6.3 2.3 13.2 5.5 19.2 1.2 4 6.2 4.9 7.6 8.7 1.8 5 .3 10.2-1.8 14.8-6.8-3-9.9-10-13.3-16-4.4-6.5-3.8-14.6-5.3-22-3.6 3.7-6.8 8-11.8 9.6.1-5.4.7-10.8 1.1-16.1 0-6.8 3.8-12.7 5.7-19.1 2.9-8 3.6-16.6 7.9-24a8.5 8.5 0 0112-3.2c6.4 4.3 12.5 9.3 19.8 12 5.2-2.8 9.4-7.2 14.3-10.6 3.3-3.4 6-7.4 9.4-10.8a56.2 56.2 0 0013.6-26c-4.7-.5-9.4-1.2-14.1-2-4.4-1-8.5 1-12.8 1.4-2.7-1.4-5-3.3-7.6-5 .2-4 1.3-8.1 4.1-11.2 2.7-4.2 8.5-2.7 12.4-5 5.1-2.9 9.8-6.3 15-9-5.1-3-11-1.8-16.6-2 5-3 10.4-6.7 16.6-5.8l2.3-6.4z" fill="#000"/><path d="M177.2 212c1.8-3.6 3.4-7.3 5-11a118.5 118.5 0 0112.9 13.7c-6-1-11.9-2.3-18-2.7z" fill="#ffec00"/><path d="M239.6 274.4c4.3 1.3 8.8 3 11.3 7 3.8 5.7 6.3 12.2 11.7 16.8-.2 5.1-1 10.3-.2 15.4.6 4.5 3 8.4 4.7 12.6 1.4 3-1.6 5.8-2.6 8.5-7.6-1.6-14.5-5.4-22-7.3-5.3-1.4-11-.6-16.4-2.5-4.8-1.7-9.8 2.5-14.5.2-5-1.5-8.2-5.7-10.5-10 9.7-4.2 20 0 30 .5 8.6 2.4 17.2 6.3 26.4 4.3-1.7-6.3-7-10.8-9.7-16.6-4.4-9-6.8-19-8.2-28.9zM318.3 353.9c6.6.1 12.9-2.3 19.4-3.4a34.2 34.2 0 01-18 7.1c-2 .5-4.3.2-6 1.4-3 3.4-4.3 7.8-6 11.8l8.6-1.5c-2.8 3-6.6 4.7-10.2 6.5-4.3 7-7.7 16.7-16.9 18.6-9.3 2.7-19.5-8.3-15.1-17.2 1.3-3.5 5.2-3 8.2-3.3 0 2.2 2.5 5.5-.7 6.4q-3.2.6-6.5 1c.7 5.1 4.5 9.6 10 9.2 8.7.2 12.4-9 15.2-15.8l-6.4-.3c2.6-1.5 5.3-2.8 7.8-4.5 2.4-4 4.3-8.3 6.6-12.4-5.5-.5-11.3-2.4-16.8-.7-2.3.8-5.4 5-1.9 6.3 3.2.1 6.1-1.3 9.2-2-2.7 3.1-6 7.5-10.7 5.5-3.3-.7-3.3-4.5-2.5-7 1.3-3.9 5.2-6 8.9-6.9 7.9-1.8 15.8 1.3 23.8 1.2zM212.5 354.7c6.1-3.5 13 .5 19.5.3.6 4 1.6 8 2.4 12-3.2-3-5.6-7-9.4-9-3.3-2-7.1-1.3-10.7-1a39.7 39.7 0 00.2 5.5c5.7 4.4 13.5 5.3 18.5 10.7 4.9 4.9 5 14.2-1 18.3-7 5.6-20 5.8-24.8-2.7-3-4.5-1.9-12.1 4-13.6 2.7-.7 3.8 2.6 5.5 4-2.6 1.5-5.4 2.8-8.2 4 2.5 8.6 14.2 11.3 20.7 5.6 3.4-2.5 4-8.2.5-10.9-5.5-4.3-13.1-4.5-18.4-9-4-3.8-3.8-11.4 1.2-14.2z" fill="#000"/></g></svg>