<svg xmlns="http://www.w3.org/2000/svg" xmlns:xlink="http://www.w3.org/1999/xlink" width="512" height="512" viewBox="0 0 512 512"><defs><clipPath id="b"><rect width="512" height="512"/></clipPath></defs><g id="a" clip-path="url(#b)"><g transform="translate(111 56)"><path d="M0,0H144.539a72.721,72.721,0,0,1-9.547,2.839C91.035,12.533,47.133,22.478,3.177,32.176q-.006,4.78,0,9.562c46.168-9.761,92.166-20.309,138.182-30.754,5.6-1.239,11.12,1.079,16.585,2.039,43.062,8.983,86.046,18.345,129.177,27q.011-4.723.029-9.445c-43.219-9.037-86.4-18.28-129.63-27.242A70.762,70.762,0,0,1,145.535,0h144.32V400H147.209a277.832,277.832,0,0,0,64.267-50.8,292.79,292.79,0,0,0,65.063-117.738c7.023-24.82,11.781-50.522,11.29-76.4q-.184-45.378-.5-90.754c-.106-4.816-.146-9.633-.2-14.449C241.294,40.3,195.4,31.02,149.64,21.073c-5.573-1.446-11.175.377-16.6,1.584-43.232,10-86.621,19.308-129.976,28.761q.041,7.215.072,14.43c.081,35.045-1.34,70.088-.607,105.127,3.673,53.829,23.173,106.358,54.581,150.16C79.97,353.947,111.148,380.41,145.857,400H0Z" fill="none" stroke="#fff" stroke-miterlimit="10" stroke-width="0.1"/><path d="M143.555,0h1a70.762,70.762,0,0,0,11.988,3.336c43.235,8.962,86.411,18.205,129.63,27.242q-.019,4.722-.029,9.445c-43.13-8.657-86.114-18.018-129.177-27-5.465-.96-10.981-3.278-16.585-2.039C94.363,21.429,48.365,31.976,2.2,41.737q-.011-4.781,0-9.562c43.957-9.7,87.858-19.643,131.816-29.337A72.721,72.721,0,0,0,143.555,0Z" transform="translate(0.984)" fill="none" stroke="#07611c" stroke-miterlimit="10" stroke-width="0.1"/><path d="M143.555,0h1a70.762,70.762,0,0,0,11.988,3.336c43.235,8.962,86.411,18.205,129.63,27.242q-.019,4.722-.029,9.445c-43.13-8.657-86.114-18.018-129.177-27-5.465-.96-10.981-3.278-16.585-2.039C94.363,21.429,48.365,31.976,2.2,41.737q-.011-4.781,0-9.562c43.957-9.7,87.858-19.643,131.816-29.337A72.721,72.721,0,0,0,143.555,0Z" transform="translate(0.984)" fill="#008537"/><path d="M132.093,16.29c5.421-1.207,11.023-3.03,16.6-1.584,45.756,9.948,91.654,19.226,137.493,28.785.05,4.816.091,9.633.2,14.449C252.409,43.978,216.645,34,180,30.6A350.094,350.094,0,0,0,36.174,46.673C24.616,50.319,13.474,55.1,2.189,59.481q-.027-7.216-.072-14.43C45.472,35.6,88.861,26.294,132.093,16.29Z" transform="translate(0.951 6.367)" fill="none" stroke="#e61900" stroke-miterlimit="10" stroke-width="0.1"/><path d="M132.093,16.29c5.421-1.207,11.023-3.03,16.6-1.584,45.756,9.948,91.654,19.226,137.493,28.785.05,4.816.091,9.633.2,14.449C252.409,43.978,216.645,34,180,30.6A350.094,350.094,0,0,0,36.174,46.673C24.616,50.319,13.474,55.1,2.189,59.481q-.027-7.216-.072-14.43C45.472,35.6,88.861,26.294,132.093,16.29Z" transform="translate(0.951 6.367)" fill="#e20714"/><path d="M36.405,42.089A350.094,350.094,0,0,1,180.233,26.02c36.643,3.4,72.407,13.374,106.377,27.336q.345,45.376.5,90.754c.491,25.878-4.266,51.58-11.29,76.4a292.79,292.79,0,0,1-65.063,117.738,277.832,277.832,0,0,1-64.267,50.8h-1.352C110.428,369.458,79.25,343,56.394,310.185c-31.408-43.8-50.908-96.331-54.581-150.16C1.08,124.985,2.5,89.942,2.42,54.9,13.705,50.515,24.848,45.735,36.405,42.089Z" transform="translate(0.72 10.952)" fill="none" stroke="#000" stroke-miterlimit="10" stroke-width="0.1"/><path d="M36.405,42.089A350.094,350.094,0,0,1,180.233,26.02c36.643,3.4,72.407,13.374,106.377,27.336q.345,45.376.5,90.754c.491,25.878-4.266,51.58-11.29,76.4a292.79,292.79,0,0,1-65.063,117.738,277.832,277.832,0,0,1-64.267,50.8h-1.352C110.428,369.458,79.25,343,56.394,310.185c-31.408-43.8-50.908-96.331-54.581-150.16C1.08,124.985,2.5,89.942,2.42,54.9,13.705,50.515,24.848,45.735,36.405,42.089Z" transform="translate(0.72 10.952)"/><path d="M7.753,58.116C62.112,33.6,123.16,23.852,182.406,31.053A336.6,336.6,0,0,1,276.677,56.5c.258,26.62.09,53.244.467,79.864.721,32.561-5.841,64.94-16.28,95.67-11.311,33.872-29.585,65.264-52.542,92.554A255.759,255.759,0,0,1,143.376,377.9c-31.782-17.817-60.064-42.238-81.244-71.968A284.013,284.013,0,0,1,22.7,230.808C12.488,201.44,6.316,170.446,6.841,139.267,7.17,112.219,7.694,85.17,7.753,58.116Z" transform="translate(3.06 12.911)" fill="none" stroke="#debd19" stroke-miterlimit="10" stroke-width="0.1"/><path d="M7.753,58.116C62.112,33.6,123.16,23.852,182.406,31.053A336.6,336.6,0,0,1,276.677,56.5c.258,26.62.09,53.244.467,79.864.721,32.561-5.841,64.94-16.28,95.67-11.311,33.872-29.585,65.264-52.542,92.554A255.759,255.759,0,0,1,143.376,377.9c-31.782-17.817-60.064-42.238-81.244-71.968A284.013,284.013,0,0,1,22.7,230.808C12.488,201.44,6.316,170.446,6.841,139.267,7.17,112.219,7.694,85.17,7.753,58.116Z" transform="translate(3.06 12.911)" fill="#ffec00"/><path d="M117.944,34.3c2.52,3.173,3.618,7.043,4.164,10.995,1.08-3.465,1.862-7.015,2.82-10.514,3.694,2.917,6.424,7.744,11.5,8.255,4.189.466,7.406,3.194,10.651,5.6,5.056.3,10.179-.124,15.179,1.024-3.808,1.694-7.821,2.842-11.735,4.248,4.364,2.662,8.141,6.3,13,8.11,4.2,1.387,6.014,5.731,8.259,9.139C166.357,68.03,161,63.985,154.335,64.7c2.477,6.182,9.585,5.753,14.914,7.473,2.139,1.5,3.544,3.775,5.174,5.77-2.624-1.1-5.086-2.562-7.751-3.558-3.417-.429-6.849.284-10.224.739,5.076,2.185,10.527,3.912,14.638,7.795a47.091,47.091,0,0,1-16.965-4.077c5.063,6.669,10.128,13.5,13.555,21.182-2.957-1.757-5.78-3.722-8.729-5.484,2.418,5.385,6.588,9.61,12.4,11.184-3.247-.024-6.808.563-9.65-1.408-3.613-2.195-7.231-4.507-11.437-5.38,1.953,3.657,5.284,6.093,8.8,8.1,3.635,2.072,5.508,5.953,7.4,9.493-3.737-2.122-7.361-4.447-11.24-6.306.137,6.225,6.443,8.067,10.9,10.761q-3.177.674-6.356,1.306l1.413,3.239a45.2,45.2,0,0,0-12.833-1.121c4.25,2.857,8.293,6.107,12.881,8.422a68.129,68.129,0,0,0,8-1.217c-2.161,1.573-4.212,3.387-6.717,4.4-5.117-.132-9.683-2.941-14.65-3.919,2.858,2.376,5.819,4.627,8.666,7.021l-4.849.912c1.727,2.411,3.371,4.882,4.878,7.442-3.7-1.5-6.983-3.786-10.439-5.741-3.793-1.8-7.926-2.733-11.742-4.482,3.268,12.694,9.2,25.909,20.758,33.067,12.157,8.079,23.677,18.552,28.02,32.974,7.53-2.5,15.354-6.805,18.253-14.677,5.1-12.521.243-25.914-3.429-38.094-3.9-13.074,3.239-27.615,14.958-34.014-2.791,4.379-6.488,8.263-8.234,13.244-1.734,4.321-1.335,9.059-1.277,13.607a154.625,154.625,0,0,1,15.818-18.368c-1.947,5.953-5.415,11.184-8.287,16.695-2.233,3.92-1.709,8.537-1.427,12.84a178.793,178.793,0,0,1,12.176-14.793c-.882,5.119-3.261,9.725-5.383,14.4-4.617,13.515,4.579,27.82-.811,41.238-2.434,6.475-8.519,10.3-14.415,13.242,3.705,7.678.639,15.991.933,24.045-2.952-7.02-2.1-15.317-6.678-21.639.95,6.209,3.445,12.747.812,18.9-3.032,7.153-8.949,13.109-9.373,21.26-.462-4.005-1.71-8.19-.2-12.12,2.228-6.17,5.836-12.32,4.263-19.146-2.542,4.1-3.173,8.967-4.61,13.492-3.331-6.648-.02-13.845-.934-20.8-3.237,4.484-3.13,10.334-5.626,15.176-3.331,7.342-9.741,12.561-16.126,17.171-2.651,2.128-6.029,4.351-6.3,8.09-1.554,6.963,8.337,12.974,3.771,19.665-11.737,7.511-22.053,17.806-27.586,30.723-3.5,4.538-9.756,5.469-15.137,5.092-.25-8.578,5.86-14.9,11.7-20.275,7.55-5.867,14.714-12.8,19.675-20.976-6.845-9.681-13.9-20.667-12.928-33.072.36-9.355,9.456-15.713,8.6-25.4-2.439,5.671-3.827,12.371-9.494,15.843-5.316-6.141-7.889-14.17-13.564-20.018-3.908-4.452-10.508-4.35-14.791-8.292-8.348-6.833-17.026-14.365-21.147-24.6-3.331-.616-7.048-.438-9.931-2.459-6.506-5.1-13.977-8.788-21.166-12.79-3.7.2-1.853,4.123-1.332,6.351,2.208,6.294,2.287,13.209,5.515,19.16,1.261,3.924,6.236,4.851,7.648,8.692,1.789,4.951.255,10.206-1.849,14.784-6.774-3.021-9.84-10.028-13.323-16.061-4.327-6.446-3.721-14.559-5.306-21.863-3.543,3.609-6.765,7.888-11.767,9.553.107-5.4.7-10.765,1.137-16.14.054-6.789,3.8-12.705,5.626-19.075,2.9-7.922,3.68-16.621,7.9-24.031a8.5,8.5,0,0,1,12.01-3.178c6.4,4.317,12.537,9.311,19.81,12.09,5.221-2.885,9.382-7.313,14.3-10.664,3.327-3.425,6.037-7.43,9.456-10.794,6.863-7.165,11.268-16.362,13.563-25.951-4.725-.577-9.434-1.252-14.124-2.06-4.326-1-8.466,1.088-12.726,1.433-2.7-1.426-5.086-3.35-7.668-4.96.237-4.119,1.29-8.22,4.16-11.324,2.707-4.188,8.5-2.642,12.357-5.022,5.106-2.81,9.83-6.271,15.006-8.979-5.119-2.871-11.022-1.753-16.6-1.9,5.044-3.082,10.373-6.716,16.608-5.868C116.356,38.534,117.113,36.4,117.944,34.3Z" transform="translate(15.651 15.411)" fill="none" stroke="#000" stroke-miterlimit="10" stroke-width="0.1"/><path d="M117.944,34.3c2.52,3.173,3.618,7.043,4.164,10.995,1.08-3.465,1.862-7.015,2.82-10.514,3.694,2.917,6.424,7.744,11.5,8.255,4.189.466,7.406,3.194,10.651,5.6,5.056.3,10.179-.124,15.179,1.024-3.808,1.694-7.821,2.842-11.735,4.248,4.364,2.662,8.141,6.3,13,8.11,4.2,1.387,6.014,5.731,8.259,9.139C166.357,68.03,161,63.985,154.335,64.7c2.477,6.182,9.585,5.753,14.914,7.473,2.139,1.5,3.544,3.775,5.174,5.77-2.624-1.1-5.086-2.562-7.751-3.558-3.417-.429-6.849.284-10.224.739,5.076,2.185,10.527,3.912,14.638,7.795a47.091,47.091,0,0,1-16.965-4.077c5.063,6.669,10.128,13.5,13.555,21.182-2.957-1.757-5.78-3.722-8.729-5.484,2.418,5.385,6.588,9.61,12.4,11.184-3.247-.024-6.808.563-9.65-1.408-3.613-2.195-7.231-4.507-11.437-5.38,1.953,3.657,5.284,6.093,8.8,8.1,3.635,2.072,5.508,5.953,7.4,9.493-3.737-2.122-7.361-4.447-11.24-6.306.137,6.225,6.443,8.067,10.9,10.761q-3.177.674-6.356,1.306l1.413,3.239a45.2,45.2,0,0,0-12.833-1.121c4.25,2.857,8.293,6.107,12.881,8.422a68.129,68.129,0,0,0,8-1.217c-2.161,1.573-4.212,3.387-6.717,4.4-5.117-.132-9.683-2.941-14.65-3.919,2.858,2.376,5.819,4.627,8.666,7.021l-4.849.912c1.727,2.411,3.371,4.882,4.878,7.442-3.7-1.5-6.983-3.786-10.439-5.741-3.793-1.8-7.926-2.733-11.742-4.482,3.268,12.694,9.2,25.909,20.758,33.067,12.157,8.079,23.677,18.552,28.02,32.974,7.53-2.5,15.354-6.805,18.253-14.677,5.1-12.521.243-25.914-3.429-38.094-3.9-13.074,3.239-27.615,14.958-34.014-2.791,4.379-6.488,8.263-8.234,13.244-1.734,4.321-1.335,9.059-1.277,13.607a154.625,154.625,0,0,1,15.818-18.368c-1.947,5.953-5.415,11.184-8.287,16.695-2.233,3.92-1.709,8.537-1.427,12.84a178.793,178.793,0,0,1,12.176-14.793c-.882,5.119-3.261,9.725-5.383,14.4-4.617,13.515,4.579,27.82-.811,41.238-2.434,6.475-8.519,10.3-14.415,13.242,3.705,7.678.639,15.991.933,24.045-2.952-7.02-2.1-15.317-6.678-21.639.95,6.209,3.445,12.747.812,18.9-3.032,7.153-8.949,13.109-9.373,21.26-.462-4.005-1.71-8.19-.2-12.12,2.228-6.17,5.836-12.32,4.263-19.146-2.542,4.1-3.173,8.967-4.61,13.492-3.331-6.648-.02-13.845-.934-20.8-3.237,4.484-3.13,10.334-5.626,15.176-3.331,7.342-9.741,12.561-16.126,17.171-2.651,2.128-6.029,4.351-6.3,8.09-1.554,6.963,8.337,12.974,3.771,19.665-11.737,7.511-22.053,17.806-27.586,30.723-3.5,4.538-9.756,5.469-15.137,5.092-.25-8.578,5.86-14.9,11.7-20.275,7.55-5.867,14.714-12.8,19.675-20.976-6.845-9.681-13.9-20.667-12.928-33.072.36-9.355,9.456-15.713,8.6-25.4-2.439,5.671-3.827,12.371-9.494,15.843-5.316-6.141-7.889-14.17-13.564-20.018-3.908-4.452-10.508-4.35-14.791-8.292-8.348-6.833-17.026-14.365-21.147-24.6-3.331-.616-7.048-.438-9.931-2.459-6.506-5.1-13.977-8.788-21.166-12.79-3.7.2-1.853,4.123-1.332,6.351,2.208,6.294,2.287,13.209,5.515,19.16,1.261,3.924,6.236,4.851,7.648,8.692,1.789,4.951.255,10.206-1.849,14.784-6.774-3.021-9.84-10.028-13.323-16.061-4.327-6.446-3.721-14.559-5.306-21.863-3.543,3.609-6.765,7.888-11.767,9.553.107-5.4.7-10.765,1.137-16.14.054-6.789,3.8-12.705,5.626-19.075,2.9-7.922,3.68-16.621,7.9-24.031a8.5,8.5,0,0,1,12.01-3.178c6.4,4.317,12.537,9.311,19.81,12.09,5.221-2.885,9.382-7.313,14.3-10.664,3.327-3.425,6.037-7.43,9.456-10.794,6.863-7.165,11.268-16.362,13.563-25.951-4.725-.577-9.434-1.252-14.124-2.06-4.326-1-8.466,1.088-12.726,1.433-2.7-1.426-5.086-3.35-7.668-4.96.237-4.119,1.29-8.22,4.16-11.324,2.707-4.188,8.5-2.642,12.357-5.022,5.106-2.81,9.83-6.271,15.006-8.979-5.119-2.871-11.022-1.753-16.6-1.9,5.044-3.082,10.373-6.716,16.608-5.868C116.356,38.534,117.113,36.4,117.944,34.3Z" transform="translate(15.651 15.411)"/><path d="M85.285,50.134c4.827-.3-.387,5.879-2.892,3.516C81.333,51.87,83.81,50.393,85.285,50.134Z" transform="translate(36.902 22.519)" fill="none" stroke="#827a38" stroke-miterlimit="10" stroke-width="0.1"/><path d="M85.285,50.134c4.827-.3-.387,5.879-2.892,3.516C81.333,51.87,83.81,50.393,85.285,50.134Z" transform="translate(36.902 22.519)" fill="#827a38"/><path d="M88.35,50.941c2.238-.157,4.8-1.324,6.777.3,1.908.832,1.171,3.493-.208,4.509C92.21,54.969,90.323,52.8,88.35,50.941Z" transform="translate(39.693 22.638)" fill="none" stroke="#debd19" stroke-miterlimit="10" stroke-width="0.1"/><path d="M88.35,50.941c2.238-.157,4.8-1.324,6.777.3,1.908.832,1.171,3.493-.208,4.509C92.21,54.969,90.323,52.8,88.35,50.941Z" transform="translate(39.693 22.638)" fill="#debd19"/><path d="M104.864,56.837c1.383-1.726,2.916-3.322,4.379-4.98q.652,2.269,1.271,4.551A16.7,16.7,0,0,1,104.864,56.837Z" transform="translate(47.113 23.298)" fill="none" stroke="#debd19" stroke-miterlimit="10" stroke-width="0.1"/><path d="M104.864,56.837c1.383-1.726,2.916-3.322,4.379-4.98q.652,2.269,1.271,4.551A16.7,16.7,0,0,1,104.864,56.837Z" transform="translate(47.113 23.298)" fill="#debd19"/><path d="M73.853,55.9c3.71-1.325,2.465,5.1-.51,4.7C71.038,59.974,72.234,56.635,73.853,55.9Z" transform="translate(32.375 25.032)" fill="none" stroke="#debd19" stroke-miterlimit="10" stroke-width="0.1"/><path d="M73.853,55.9c3.71-1.325,2.465,5.1-.51,4.7C71.038,59.974,72.234,56.635,73.853,55.9Z" transform="translate(32.375 25.032)" fill="#debd19"/><path d="M91.462,60.33c1.162-2.153,4.75-.165,2.962,1.843C93.182,64.272,89.676,62.4,91.462,60.33Z" transform="translate(40.868 26.686)" fill="none" stroke="#debd19" stroke-miterlimit="10" stroke-width="0.1"/><path d="M91.462,60.33c1.162-2.153,4.75-.165,2.962,1.843C93.182,64.272,89.676,62.4,91.462,60.33Z" transform="translate(40.868 26.686)" fill="#debd19"/><path d="M98.582,60.3q2.726,1.605-.254,2.907Q95.584,61.607,98.582,60.3Z" transform="translate(43.587 27.092)" fill="none" stroke="#827a38" stroke-miterlimit="10" stroke-width="0.1"/><path d="M98.582,60.3q2.726,1.605-.254,2.907Q95.584,61.607,98.582,60.3Z" transform="translate(43.587 27.092)" fill="#827a38"/><path d="M100.257,63.014c4.426-.266-.819,5.441-2.992,3.339C96.45,64.581,98.888,63.377,100.257,63.014Z" transform="translate(43.626 28.307)" fill="none" stroke="#827a38" stroke-miterlimit="10" stroke-width="0.1"/><path d="M100.257,63.014c4.426-.266-.819,5.441-2.992,3.339C96.45,64.581,98.888,63.377,100.257,63.014Z" transform="translate(43.626 28.307)" fill="#827a38"/><path d="M97.5,73.476l3.9-2.243A43.254,43.254,0,0,1,88.968,92.727C91.02,86.031,93.479,79.257,97.5,73.476Z" transform="translate(39.971 32.003)" fill="none" stroke="#debd19" stroke-miterlimit="10" stroke-width="0.1"/><path d="M97.5,73.476l3.9-2.243A43.254,43.254,0,0,1,88.968,92.727C91.02,86.031,93.479,79.257,97.5,73.476Z" transform="translate(39.971 32.003)" fill="#debd19"/><path d="M114.4,88.35c1.442-1.729,4.663.557,3.209,2.427C116.156,92.506,112.934,90.221,114.4,88.35Z" transform="translate(51.228 39.418)" fill="none" stroke="#827a38" stroke-miterlimit="10" stroke-width="0.1"/><path d="M114.4,88.35c1.442-1.729,4.663.557,3.209,2.427C116.156,92.506,112.934,90.221,114.4,88.35Z" transform="translate(51.228 39.418)" fill="#827a38"/><path d="M79.278,94.835C84.386,92.474,90.68,92.079,95,96.25,89.769,95.65,84.532,95.156,79.278,94.835Z" transform="translate(35.618 41.818)" fill="none" stroke="#debd19" stroke-miterlimit="10" stroke-width="0.1"/><path d="M79.278,94.835C84.386,92.474,90.68,92.079,95,96.25,89.769,95.65,84.532,95.156,79.278,94.835Z" transform="translate(35.618 41.818)" fill="#debd19"/><path d="M45.965,98.33c2.967.328.88,5.834-1.625,4.538C42.985,101.422,44.154,98.741,45.965,98.33Z" transform="translate(19.656 44.177)" fill="none" stroke="#827a38" stroke-miterlimit="10" stroke-width="0.1"/><path d="M45.965,98.33c2.967.328.88,5.834-1.625,4.538C42.985,101.422,44.154,98.741,45.965,98.33Z" transform="translate(19.656 44.177)" fill="#827a38"/><path d="M45.647,111.1c1.852-3.609,3.453-7.337,5.077-11.051A118.49,118.49,0,0,1,63.58,113.777C57.623,112.751,51.7,111.468,45.647,111.1Z" transform="translate(20.508 44.948)" fill="none" stroke="#debd19" stroke-miterlimit="10" stroke-width="0.1"/><path d="M45.647,111.1c1.852-3.609,3.453-7.337,5.077-11.051A118.49,118.49,0,0,1,63.58,113.777C57.623,112.751,51.7,111.468,45.647,111.1Z" transform="translate(20.508 44.948)" fill="#debd19"/><path d="M92.623,101.268c1.957-2.3,5.022,1.3,2.961,3.174C93.616,106.682,90.574,103.145,92.623,101.268Z" transform="translate(41.307 45.164)" fill="none" stroke="#debd19" stroke-miterlimit="10" stroke-width="0.1"/><path d="M92.623,101.268c1.957-2.3,5.022,1.3,2.961,3.174C93.616,106.682,90.574,103.145,92.623,101.268Z" transform="translate(41.307 45.164)" fill="#debd19"/><path d="M62.334,116.252a31.19,31.19,0,0,1,6.13-13.984C67.167,107.176,66.178,112.6,62.334,116.252Z" transform="translate(28.005 45.947)" fill="none" stroke="#debd19" stroke-miterlimit="10" stroke-width="0.1"/><path d="M62.334,116.252a31.19,31.19,0,0,1,6.13-13.984C67.167,107.176,66.178,112.6,62.334,116.252Z" transform="translate(28.005 45.947)" fill="#debd19"/><path d="M100.908,109.184c2.852,3.418,3.7,7.86,5.433,11.847,1.647,3.894,4.022,7.423,5.733,11.291C104.5,127.442,100.418,118.024,100.908,109.184Z" transform="translate(45.318 49.054)" fill="none" stroke="#debd19" stroke-miterlimit="10" stroke-width="0.1"/><path d="M100.908,109.184c2.852,3.418,3.7,7.86,5.433,11.847,1.647,3.894,4.022,7.423,5.733,11.291C104.5,127.442,100.418,118.024,100.908,109.184Z" transform="translate(45.318 49.054)" fill="#debd19"/><path d="M45.32,126.184C50.162,126.446,43.047,130.464,45.32,126.184Z" transform="translate(20.154 56.692)" fill="none" stroke="#827a38" stroke-miterlimit="10" stroke-width="0.1"/><path d="M45.32,126.184C50.162,126.446,43.047,130.464,45.32,126.184Z" transform="translate(20.154 56.692)" fill="#827a38"/><path d="M158.073,129.206c4.743,10.4.833,25.139-10.221,29.8,2.568-4.633,6.112-8.759,7.827-13.835C157.509,140.041,157.3,134.524,158.073,129.206Z" transform="translate(66.427 58.049)" fill="none" stroke="#debd19" stroke-miterlimit="10" stroke-width="0.1"/><path d="M158.073,129.206c4.743,10.4.833,25.139-10.221,29.8,2.568-4.633,6.112-8.759,7.827-13.835C157.509,140.041,157.3,134.524,158.073,129.206Z" transform="translate(66.427 58.049)" fill="#debd19"/><path d="M77.785,133.655l4.173-.718c4.988,6.347,11.272,11.632,15.595,18.5C89.8,146.993,83.406,140.52,77.785,133.655Z" transform="translate(34.947 59.725)" fill="none" stroke="#debd19" stroke-miterlimit="10" stroke-width="0.1"/><path d="M77.785,133.655l4.173-.718c4.988,6.347,11.272,11.632,15.595,18.5C89.8,146.993,83.406,140.52,77.785,133.655Z" transform="translate(34.947 59.725)" fill="#debd19"/><path d="M108.3,138.565c4.687-2.748,1.643,6.971-.786,2.39Z" transform="translate(48.302 62.03)" fill="none" stroke="#debd19" stroke-miterlimit="10" stroke-width="0.1"/><path d="M108.3,138.565c4.687-2.748,1.643,6.971-.786,2.39Z" transform="translate(48.302 62.03)" fill="#debd19"/><path d="M100.7,150.723c4.3,1.216,8.812,2.922,11.283,6.916,3.769,5.716,6.308,12.293,11.662,16.83-.137,5.147-.875,10.315-.21,15.461.663,4.471,3.083,8.378,4.715,12.526,1.409,3.051-1.547,5.784-2.592,8.484-7.574-1.6-14.442-5.365-21.922-7.252-5.4-1.437-11.13-.651-16.452-2.464-4.822-1.744-9.772,2.484-14.516.207-4.932-1.5-8.142-5.717-10.533-10.032,9.781-4.193,20.021.043,30.032.516,8.609,2.379,17.236,6.219,26.391,4.31-1.7-6.372-6.906-10.8-9.636-16.65C104.435,170.563,102.047,160.655,100.7,150.723Z" transform="translate(27.916 67.716)" fill="none" stroke="#000" stroke-miterlimit="10" stroke-width="0.1"/><path d="M100.7,150.723c4.3,1.216,8.812,2.922,11.283,6.916,3.769,5.716,6.308,12.293,11.662,16.83-.137,5.147-.875,10.315-.21,15.461.663,4.471,3.083,8.378,4.715,12.526,1.409,3.051-1.547,5.784-2.592,8.484-7.574-1.6-14.442-5.365-21.922-7.252-5.4-1.437-11.13-.651-16.452-2.464-4.822-1.744-9.772,2.484-14.516.207-4.932-1.5-8.142-5.717-10.533-10.032,9.781-4.193,20.021.043,30.032.516,8.609,2.379,17.236,6.219,26.391,4.31-1.7-6.372-6.906-10.8-9.636-16.65C104.435,170.563,102.047,160.655,100.7,150.723Z" transform="translate(27.916 67.716)"/><path d="M111.289,152.026C116.12,152.138,109.126,156.42,111.289,152.026Z" transform="translate(49.807 68.302)" fill="none" stroke="#827a38" stroke-miterlimit="10" stroke-width="0.1"/><path d="M111.289,152.026C116.12,152.138,109.126,156.42,111.289,152.026Z" transform="translate(49.807 68.302)" fill="#827a38"/><path d="M132.567,156.762c2.094-.5,2.439,3.053.874,3.864C131.345,161.136,131.034,157.569,132.567,156.762Z" transform="translate(59.128 70.408)" fill="none" stroke="#debd19" stroke-miterlimit="10" stroke-width="0.1"/><path d="M132.567,156.762c2.094-.5,2.439,3.053.874,3.864C131.345,161.136,131.034,157.569,132.567,156.762Z" transform="translate(59.128 70.408)" fill="#debd19"/><path d="M107.976,175.775a12.888,12.888,0,0,1,3.327-10.3A16.889,16.889,0,0,1,107.976,175.775Z" transform="translate(48.473 74.344)" fill="none" stroke="#827a38" stroke-miterlimit="10" stroke-width="0.1"/><path d="M107.976,175.775a12.888,12.888,0,0,1,3.327-10.3A16.889,16.889,0,0,1,107.976,175.775Z" transform="translate(48.473 74.344)" fill="#827a38"/><path d="M110.555,182.437c2.46-1.353,4.285,2.874,2.462,4.425C110.667,188.067,108.553,183.918,110.555,182.437Z" transform="translate(49.311 81.846)" fill="none" stroke="#debd19" stroke-miterlimit="10" stroke-width="0.1"/><path d="M110.555,182.437c2.46-1.353,4.285,2.874,2.462,4.425C110.667,188.067,108.553,183.918,110.555,182.437Z" transform="translate(49.311 81.846)" fill="#debd19"/><path d="M114.493,200.386c2.3,1.586-1.8,5.9-3.994,4.864C109.864,203.045,112.478,200.78,114.493,200.386Z" transform="translate(49.601 90.028)" fill="none" stroke="#827a38" stroke-miterlimit="10" stroke-width="0.1"/><path d="M114.493,200.386c2.3,1.586-1.8,5.9-3.994,4.864C109.864,203.045,112.478,200.78,114.493,200.386Z" transform="translate(49.601 90.028)" fill="#827a38"/><path d="M157.028,206.568c6.652.146,12.939-2.294,19.421-3.375a34.231,34.231,0,0,1-18.048,7.165c-1.956.456-4.234.117-5.934,1.331-2.94,3.392-4.3,7.786-6.065,11.837,2.874-.531,5.743-1.109,8.642-1.512-2.8,3.032-6.531,4.74-10.178,6.49-4.31,7.1-7.7,16.684-16.866,18.626-9.306,2.63-19.534-8.321-15.162-17.257,1.356-3.431,5.285-2.966,8.277-3.244.05,2.144,2.419,5.491-.736,6.36q-3.235.617-6.5,1.061c.664,5.077,4.462,9.515,9.918,9.172,8.74.148,12.455-9.1,15.319-15.83l-6.475-.268c2.584-1.539,5.35-2.775,7.829-4.486,2.413-4.028,4.266-8.366,6.6-12.442-5.525-.531-11.28-2.338-16.757-.726-2.318.865-5.485,4.991-1.921,6.3,3.162.153,6.117-1.23,9.131-1.972-2.636,3.144-6,7.487-10.691,5.478-3.276-.628-3.241-4.5-2.491-7.031,1.315-3.8,5.247-5.854,8.913-6.789C141.177,203.573,149.082,206.682,157.028,206.568Z" transform="translate(50.227 91.29)" fill="none" stroke="#000" stroke-miterlimit="10" stroke-width="0.1"/><path d="M157.028,206.568c6.652.146,12.939-2.294,19.421-3.375a34.231,34.231,0,0,1-18.048,7.165c-1.956.456-4.234.117-5.934,1.331-2.94,3.392-4.3,7.786-6.065,11.837,2.874-.531,5.743-1.109,8.642-1.512-2.8,3.032-6.531,4.74-10.178,6.49-4.31,7.1-7.7,16.684-16.866,18.626-9.306,2.63-19.534-8.321-15.162-17.257,1.356-3.431,5.285-2.966,8.277-3.244.05,2.144,2.419,5.491-.736,6.36q-3.235.617-6.5,1.061c.664,5.077,4.462,9.515,9.918,9.172,8.74.148,12.455-9.1,15.319-15.83l-6.475-.268c2.584-1.539,5.35-2.775,7.829-4.486,2.413-4.028,4.266-8.366,6.6-12.442-5.525-.531-11.28-2.338-16.757-.726-2.318.865-5.485,4.991-1.921,6.3,3.162.153,6.117-1.23,9.131-1.972-2.636,3.144-6,7.487-10.691,5.478-3.276-.628-3.241-4.5-2.491-7.031,1.315-3.8,5.247-5.854,8.913-6.789C141.177,203.573,149.082,206.682,157.028,206.568Z" transform="translate(50.227 91.29)"/><path d="M72.167,206.57c6.132-3.548,13,.451,19.474.329.595,3.992,1.626,7.9,2.392,11.862-3.174-2.932-5.532-6.824-9.359-8.986-3.263-1.9-7.148-1.219-10.713-1a39.709,39.709,0,0,0,.245,5.553c5.655,4.408,13.5,5.283,18.481,10.689,4.867,4.911,5.018,14.211-.955,18.339-7.08,5.591-19.984,5.829-24.871-2.723-2.939-4.471-1.847-12.114,3.931-13.546,2.748-.746,3.917,2.528,5.57,4.042-2.642,1.456-5.381,2.721-8.143,3.933,2.49,8.571,14.166,11.264,20.667,5.6,3.36-2.557,3.91-8.189.466-10.908-5.49-4.254-13.09-4.546-18.419-9.073C66.877,216.964,67.135,209.329,72.167,206.57Z" transform="translate(29.331 92.146)" fill="none" stroke="#000" stroke-miterlimit="10" stroke-width="0.1"/><path d="M72.167,206.57c6.132-3.548,13,.451,19.474.329.595,3.992,1.626,7.9,2.392,11.862-3.174-2.932-5.532-6.824-9.359-8.986-3.263-1.9-7.148-1.219-10.713-1a39.709,39.709,0,0,0,.245,5.553c5.655,4.408,13.5,5.283,18.481,10.689,4.867,4.911,5.018,14.211-.955,18.339-7.08,5.591-19.984,5.829-24.871-2.723-2.939-4.471-1.847-12.114,3.931-13.546,2.748-.746,3.917,2.528,5.57,4.042-2.642,1.456-5.381,2.721-8.143,3.933,2.49,8.571,14.166,11.264,20.667,5.6,3.36-2.557,3.91-8.189.466-10.908-5.49-4.254-13.09-4.546-18.419-9.073C66.877,216.964,67.135,209.329,72.167,206.57Z" transform="translate(29.331 92.146)"/><path d="M108.151,205.2C112.541,203.112,108.155,210.049,108.151,205.2Z" transform="translate(48.59 92.01)" fill="none" stroke="#827a38" stroke-miterlimit="10" stroke-width="0.1"/><path d="M108.151,205.2C112.541,203.112,108.155,210.049,108.151,205.2Z" transform="translate(48.59 92.01)" fill="#827a38"/><path d="M96.373,218.221q3.543-1.21,2.367,2.364Q95.193,221.77,96.373,218.221Z" transform="translate(43.166 97.904)" fill="none" stroke="#827a38" stroke-miterlimit="10" stroke-width="0.1"/><path d="M96.373,218.221q3.543-1.21,2.367,2.364Q95.193,221.77,96.373,218.221Z" transform="translate(43.166 97.904)" fill="#827a38"/></g></g></svg>