<svg xmlns="http://www.w3.org/2000/svg" width="512" height="512"><defs><clipPath id="a"><path d="M0 0h512v512H0z"/></clipPath></defs><g clip-path="url(#a)"><path d="M111 56h145a73 73 0 01-10 3L114 88v10l138-31c6-1 11 1 17 2l129 27v-9L269 59a71 71 0 01-12-3h144v400H258a278 278 0 0064-51 293 293 0 0066-118c7-24 11-50 11-76l-1-91v-14L261 77c-6-1-12 0-17 2l-130 28v120c3 54 23 106 54 150 23 33 54 59 89 79H111z" fill="none" stroke="#fff" stroke-miterlimit="10" stroke-width=".1"/><path d="M256 56h1a71 71 0 0012 3l129 28v9L269 69c-6-1-11-3-17-2L114 98V88l132-29a73 73 0 0010-3z" fill="#008537"/><path d="M244 79c5-2 11-3 17-2l137 29v14c-34-14-69-24-106-27a350 350 0 00-144 16l-34 13v-15l130-28z" fill="#e20714"/><path d="M148 109a350 350 0 01144-16c37 3 72 13 106 27l1 91c0 26-4 52-11 76a293 293 0 01-66 118 278 278 0 01-64 51h-1c-35-20-66-46-89-79-31-44-51-96-54-150V122l34-13z"/><path d="M122 127c54-24 115-34 174-27a337 337 0 0195 25v80a285 285 0 01-69 188 256 256 0 01-65 54c-31-18-60-42-81-72a284 284 0 01-39-75c-10-30-17-61-16-92l1-81z" fill="#ffec00"/><path d="M245 106l4 11 3-11c3 3 6 8 11 8 4 1 7 4 11 6l15 1-12 4c5 3 8 7 13 8 4 2 6 6 8 10-5-4-10-8-17-7 2 6 10 6 15 8l5 5-8-3c-3-1-7 0-10 1 5 2 11 3 15 7a47 47 0 01-17-4c5 7 10 14 13 21l-8-5c2 5 6 10 12 11-3 0-7 1-10-1s-7-5-11-6c2 4 5 6 9 8l7 10c-4-2-7-5-11-6 0 6 6 8 11 10l-7 2 2 3a45 45 0 00-13-1l13 8a68 68 0 008-1l-7 4c-5 0-10-3-14-3l8 7h-5l5 8-10-6-12-4c3 12 9 26 21 33 12 8 23 18 28 33 7-3 15-7 18-15 5-12 0-26-3-38-4-13 3-28 15-34-3 4-7 8-9 13l-1 14a155 155 0 0116-19l-8 17c-3 4-2 9-2 13a179 179 0 0112-15l-5 15c-5 13 5 27-1 41-2 6-8 10-14 13 3 8 0 16 1 24-3-7-2-15-7-22 1 7 3 13 1 19-3 7-9 13-10 22v-13c2-6 6-12 4-19l-4 14c-3-7 0-14-1-21-3 4-3 10-6 15-3 8-9 13-16 17-2 2-6 5-6 8-2 7 8 13 4 20-12 8-22 18-28 31-3 4-10 5-15 5 0-9 6-15 12-20 7-6 14-13 19-21-7-10-14-21-13-33 1-10 10-16 9-26-2 6-4 13-9 16-6-6-8-14-14-20-4-4-11-4-15-8-8-7-17-15-21-25-3 0-7 0-10-2-6-5-14-9-21-13-4 0-2 4-1 6 2 7 2 13 5 19 1 4 6 5 8 9 2 5 0 10-2 15-7-3-10-10-13-16-5-7-4-15-6-22-3 4-7 8-12 10l2-17c0-6 3-12 5-19 3-8 4-16 8-24a9 9 0 0112-3c7 4 13 9 20 12l14-10 10-11c7-7 11-17 13-26l-14-2c-4-1-8 1-13 1l-7-5c0-4 1-8 4-11 3-4 8-3 12-5l15-9c-5-3-11-2-16-2 5-3 10-7 16-6l3-6z" fill="none" stroke="#000" stroke-miterlimit="10" stroke-width=".1"/><path d="M245 106l4 11 3-11c3 3 6 8 11 8 4 1 7 4 11 6l15 1-12 4c5 3 8 7 13 8 4 2 6 6 8 10-5-4-10-8-17-7 2 6 10 6 15 8l5 5-8-3c-3-1-7 0-10 1 5 2 11 3 15 7a47 47 0 01-17-4c5 7 10 14 13 21l-8-5c2 5 6 10 12 11-3 0-7 1-10-1s-7-5-11-6c2 4 5 6 9 8l7 10c-4-2-7-5-11-6 0 6 6 8 11 10l-7 2 2 3a45 45 0 00-13-1l13 8a68 68 0 008-1l-7 4c-5 0-10-3-14-3l8 7h-5l5 8-10-6-12-4c3 12 9 26 21 33 12 8 23 18 28 33 7-3 15-7 18-15 5-12 0-26-3-38-4-13 3-28 15-34-3 4-7 8-9 13l-1 14a155 155 0 0116-19l-8 17c-3 4-2 9-2 13a179 179 0 0112-15l-5 15c-5 13 5 27-1 41-2 6-8 10-14 13 3 8 0 16 1 24-3-7-2-15-7-22 1 7 3 13 1 19-3 7-9 13-10 22v-13c2-6 6-12 4-19l-4 14c-3-7 0-14-1-21-3 4-3 10-6 15-3 8-9 13-16 17-2 2-6 5-6 8-2 7 8 13 4 20-12 8-22 18-28 31-3 4-10 5-15 5 0-9 6-15 12-20 7-6 14-13 19-21-7-10-14-21-13-33 1-10 10-16 9-26-2 6-4 13-9 16-6-6-8-14-14-20-4-4-11-4-15-8-8-7-17-15-21-25-3 0-7 0-10-2-6-5-14-9-21-13-4 0-2 4-1 6 2 7 2 13 5 19 1 4 6 5 8 9 2 5 0 10-2 15-7-3-10-10-13-16-5-7-4-15-6-22-3 4-7 8-12 10l2-17c0-6 3-12 5-19 3-8 4-16 8-24a9 9 0 0112-3c7 4 13 9 20 12l14-10 10-11c7-7 11-17 13-26l-14-2c-4-1-8 1-13 1l-7-5c0-4 1-8 4-11 3-4 8-3 12-5l15-9c-5-3-11-2-16-2 5-3 10-7 16-6l3-6z"/><path d="M177 212l5-11a118 118 0 0113 14l-18-3z" fill="#ffec00"/><path d="M240 274c4 2 8 3 11 7 4 6 6 13 12 17l-1 16 5 12c1 3-1 6-3 9l-21-8c-6-1-12 0-17-2s-10 2-14 0c-5-1-9-6-11-10 10-4 20 0 30 1 9 2 17 6 26 4-1-6-6-11-9-17-5-9-7-19-8-29zM318 354c7 0 13-2 20-4a34 34 0 01-18 8l-6 1c-3 3-5 8-6 12l8-2-10 7c-4 7-8 16-17 18-9 3-19-8-15-17 1-3 5-3 8-3 0 2 3 5 0 6l-7 1c1 5 5 10 10 10 9 0 12-10 15-16l-6-1 8-4 6-13c-5 0-11-2-16 0-3 1-6 5-2 6l9-2c-3 3-6 8-11 6-3-1-3-5-2-7 1-4 5-6 8-7 8-2 16 1 24 1zM212 355c7-4 13 0 20 0l2 12c-3-3-5-7-9-9-3-2-7-1-11-1a40 40 0 001 5c5 5 13 6 18 11s5 14-1 19c-7 5-20 5-25-3-3-5-2-12 4-14 3-1 4 3 6 4l-8 4c2 9 14 11 20 6 4-3 4-8 1-11-6-4-13-5-19-9-4-4-4-12 1-14z"/></g></svg>