<svg xmlns="http://www.w3.org/2000/svg" xmlns:xlink="http://www.w3.org/1999/xlink" width="512" height="512" viewBox="0 0 512 512"><defs><clipPath id="b"><rect width="512" height="512"/></clipPath></defs><g id="a" clip-path="url(#b)"><g transform="translate(56.05 79.845)"><path d="M223.024-.441c-97.488,0-176.266,79.1-176.266,176.6,0,3.607,0,6.89.328,10.172H24.109a2.917,2.917,0,0,0-2.633,1.641c-.322.968-20.669,36.75-21.336,37.748-.322.968-.322,1.313.666,1.313H54.3c22,72.545,89.292,125.382,169.045,125.382,97.5,0,176.6-79.1,176.6-176.6C399.622,78.658,320.515-.441,223.024-.441ZM96.973,227.04h46.948l-22.652,39.389A141.745,141.745,0,0,1,96.973,227.04Zm126.055,85a134.619,134.619,0,0,1-94.869-38.716h38.089S275.865,79.978,276.531,78.983c.653-.647.328-1.293-.666-1.293H231.234c-.978,0-.978.325-1.32.647-.322.647-62.025,108-62.025,108H87.47a101.338,101.338,0,0,1-.341-10.176c0-75.167,60.725-136.22,135.9-136.22,38.411,0,72.876,16.067,97.816,41.68-10.832,18.053-58.755,99.792-65.32,111.6-3.611-8.528-21.008-6.887-30.192-7.211-3.945,6.565-22,41.03-22,41.03h19.038c8.863,0,9.847,9.174,6.243,15.1-3.624,5.892-17.728,31.183-17.728,31.183h46.282s56.789-99.146,88.95-155.272a133.577,133.577,0,0,1,13.13,58.115c0,74.823-61.053,135.873-136.22,135.873Z" transform="translate(0)" fill="#e3042e" fill-rule="evenodd"/></g></g></svg>