<svg xmlns="http://www.w3.org/2000/svg" xmlns:xlink="http://www.w3.org/1999/xlink" width="512" height="512" viewBox="0 0 512 512"><defs><clipPath id="b"><rect width="512" height="512"/></clipPath></defs><g id="a" clip-path="url(#b)"><g transform="translate(-33.09 16.826)"><g transform="translate(64.09 160.948)"><path d="M76.132,161.2a17.221,17.221,0,0,1,11.909,2.328,14.526,14.526,0,0,1,7,12.485c-.052,10.483.409,20.955.245,31.43a13.2,13.2,0,0,1-3.513,7.186c-2.618,2.262-5.69,4.366-9.273,4.513a16.571,16.571,0,0,1-14.4-4.907,12.758,12.758,0,0,1-3.429-6.694,71.915,71.915,0,0,1-.318-9.186c-.045-7.8-.182-15.6-.266-23.4a13.387,13.387,0,0,1,.57-4.638A14.914,14.914,0,0,1,76.132,161.2m.629,8.354a5.685,5.685,0,0,0-4.173,5.044c.241,10.36.325,20.724.426,31.084a5.553,5.553,0,0,0,4.02,4.974,8.584,8.584,0,0,0,6.973-.374,5.252,5.252,0,0,0,2.95-4.212c-.021-10.5-.245-20.993-.353-31.486a5.515,5.515,0,0,0-2.461-4.037A8.484,8.484,0,0,0,76.761,169.55Z" transform="translate(-64.09 -160.948)"/><path d="M1213.006,173.758c4.82.115,9.644-.1,14.467.028,3.38.049,6.938-.423,10.116,1.042,6.585,2.737,10,10.794,8.053,17.533-1.444,5.533-6.453,10.175-12.262,10.49-10.255.042-20.507-.063-30.759-.14a12.882,12.882,0,0,1-9.815-5.089,15.188,15.188,0,0,1-3.072-7.379,14.958,14.958,0,0,1,3.981-12.443,13.071,13.071,0,0,1,9.651-4.1c3.212.056,6.428.066,9.64.059m-10.238,7.886a5.017,5.017,0,0,0-2.569.874,7.55,7.55,0,0,0-.937,10.773,4.961,4.961,0,0,0,3.754,1.566c9.556.028,19.113.1,28.669.1a6.008,6.008,0,0,0,4.006-1.063,7.575,7.575,0,0,0,1.164-9.909c-1.056-1.744-3.272-2.324-5.184-2.3C1222.038,181.7,1212.4,181.619,1202.769,181.644Z" transform="translate(-796.185 -169.241)"/><path d="M470.277,443.32a14.753,14.753,0,0,1,12.258,3.747,13.491,13.491,0,0,1,4.429,9.654c.1,9.437.066,18.871.133,28.309a15.1,15.1,0,0,1-1.258,7.288,15.16,15.16,0,0,1-20.99,6.036,13.389,13.389,0,0,1-6.879-11.22c-.063-8.735-.22-17.47-.136-26.2.035-2.681-.294-5.425.535-8.022a14.343,14.343,0,0,1,11.909-9.591m-.7,8.441a5.613,5.613,0,0,0-3.785,4.967c.066,5.956.014,11.912.084,17.868.119,4.432-.2,8.882.182,13.31.786,3.191,4.478,4.673,7.5,4.275,2.622-.255,5.316-2.234,5.516-5.009.035-9.983-.059-19.965-.066-29.945a5.312,5.312,0,0,0-1.031-3.5A7.553,7.553,0,0,0,469.578,451.761Z" transform="translate(-320.183 -344.509)"/></g><g transform="translate(64.552 163.281)"><path d="M227.763,167.877c3.485-.468,7-.143,10.5-.154q44.76.708,89.516,1.279a30.725,30.725,0,0,1,21.08,8.445,31.521,31.521,0,0,1,9.972,22.451c.021,4.2.119,8.41.112,12.615-.063,4.083.2,8.225-.769,12.23a30.808,30.808,0,0,1-15.02,20.308c-3.558,2.073-7.62,2.947-11.524,4.114q-12.384,3.5-24.737,7.117a2.023,2.023,0,0,0-1.566,2.37c.126.807.877,1.258,1.461,1.737q20.747,15.435,41.623,30.693a2.9,2.9,0,0,0,1.356.675q37.912.257,75.835.374c.147-4.757-.024-9.518-.038-14.279-.024-24.691-.245-49.382-.161-74.074a8.773,8.773,0,0,0-.734-3.967c-.664-1.112-2.108-1.028-3.226-1.08-13.974.01-27.949-.1-41.927-.15a14.293,14.293,0,0,1-10.944-5.24,14.791,14.791,0,0,1-3.132-12.272,15.186,15.186,0,0,1,3.3-6.617,13.673,13.673,0,0,1,10.081-4.981c15.194.056,30.392.084,45.586.171a32.791,32.791,0,0,1,23.2,10.388c3.558,3.911,6.306,8.875,6.522,14.254.14,13.524-.049,27.04.017,40.564.136,10.846-.063,21.7.182,32.542-.143,13.394.437,26.781.259,40.176a14.259,14.259,0,0,1-12.16,13.758c-2.328.241-4.68.091-7.015.108q-43.155-.278-86.311-.44c-3-.017-6.138.245-8.987-.9a18.155,18.155,0,0,1-4.659-2.747c-15.411-11.405-30.9-22.709-46.331-34.083a32.181,32.181,0,0,1-11.14-15.83,30.979,30.979,0,0,1,16.173-37.5,45.314,45.314,0,0,1,7.4-2.478c8.84-2.545,17.7-5.03,26.544-7.56.884-.28,2.171-.622,2.136-1.79.22-5.6-.042-11.2.077-16.8-.031-.877.073-1.926-.647-2.576a3.306,3.306,0,0,0-2.23-.584q-43.879-.367-87.751-.933c-2.583.049-5.17-.192-7.749.017a2.081,2.081,0,0,0-1.622,2.328c.066,9.322.084,18.644.112,27.963-.192,11.807-7.976,22.944-18.819,27.491a30.556,30.556,0,0,1-12.461,2.513c-30.3-.161-60.6-.238-90.9-.384-3.146-.07-6.292-.035-9.437.021a2,2,0,0,0-1.975,2.171c-.042,15.844.07,31.692-.112,47.537-.038,7.4-6.4,13.859-13.618,14.719a15.731,15.731,0,0,1-13.59-4.607,14.881,14.881,0,0,1-4.1-10.8c.189-15.862.084-31.724.21-47.586A30.168,30.168,0,0,1,75.4,236.572c1.255-1.08,2.248-2.489,3.824-3.142A31.9,31.9,0,0,1,91.521,228a41.581,41.581,0,0,1,10.839-.717q47.685.241,95.374.7c1.028-.014,2.433.14,3.006-.937a12.983,12.983,0,0,0,.262-3.7c-.1-8.4-.077-16.8-.1-25.2a29.612,29.612,0,0,1,5.365-16.97,30.361,30.361,0,0,1,21.5-13.307m-1,8.564a22.5,22.5,0,0,0-14.216,10.29,23.413,23.413,0,0,0-3.38,12.139c-.014,8.155.084,16.309.073,24.464-.024,2.209.231,4.526-.685,6.613a10.162,10.162,0,0,1-9.063,6.274q-48.765-.325-97.531-.751a46.457,46.457,0,0,0-7.763.391,24.532,24.532,0,0,0-8.329,3.16A23.18,23.18,0,0,0,75.128,253.1c-.965,3.265-.8,6.711-.835,10.081q.063,21.5-.122,42.993a6.582,6.582,0,0,0,2.094,5.4,7.038,7.038,0,0,0,11.765-5.757c.147-15.614.115-31.228.182-46.841-.052-5.669,5.383-10.42,10.94-10.164,33.328.171,66.656.238,99.985.482a22.855,22.855,0,0,0,23.1-22.122c.1-9.437-.091-18.875-.087-28.312a9.978,9.978,0,0,1,9.193-9.846q47.161.561,94.326,1.087c2.255.024,4.645-.091,6.694,1.028a10.263,10.263,0,0,1,5.778,9.126c.021,5.946.094,11.895.028,17.84a10.011,10.011,0,0,1-6.7,9.2c-8.5,2.471-17.026,4.9-25.534,7.358-3.747,1.139-7.728,1.849-11.017,4.1a23.14,23.14,0,0,0-10.374,17.407,23.455,23.455,0,0,0,6.68,18.407,33.643,33.643,0,0,0,4.4,3.625q21.2,15.488,42.336,31.067a29.2,29.2,0,0,0,4.589,3.125,13.548,13.548,0,0,0,4.82.472q46.3.157,92.6.493c3.247.15,6.494-2.37,6.568-5.739.1-8.28-.08-16.564-.08-24.848-.136-11.077-.045-22.154-.164-33.23.017-17.938-.143-35.88-.035-53.821.2-4.058-1.975-7.784-4.722-10.6a24.946,24.946,0,0,0-17.641-7.4c-12.929-.077-25.859-.091-38.788-.136-2.115-.007-4.233-.15-6.341.028a6.374,6.374,0,0,0-5.495,4.824,6.553,6.553,0,0,0,1.066,5.544,6.426,6.426,0,0,0,5.505,2.59c14.107.122,28.215.122,42.322.234,3.146.1,6.477,1.244,8.455,3.813,2.289,2.849,2.733,6.669,2.7,10.2q-.037,47.738.329,95.479c-28.655-.192-57.313-.252-85.965-.447-1.174,0-1.957-1.038-2.884-1.611-14.488-10.678-29.036-21.276-43.479-32.014a10.272,10.272,0,0,1-3.929-7.91,10.093,10.093,0,0,1,4.645-8.668c1.618-1.087,3.59-1.363,5.414-1.943,7.826-2.3,15.68-4.5,23.524-6.746a42.068,42.068,0,0,0,7.634-2.594,21.852,21.852,0,0,0,12.384-19.557c.094-4.778,0-9.553.01-14.327-.052-3.037.168-6.124-.538-9.105a23.444,23.444,0,0,0-16.065-17.33c-3.834-1.185-7.893-.9-11.849-.982q-43.522-.493-87.038-1.164A32.87,32.87,0,0,0,226.764,176.441Z" transform="translate(-65.412 -167.624)"/></g></g></g></svg>