<svg xmlns="http://www.w3.org/2000/svg" xmlns:xlink="http://www.w3.org/1999/xlink" width="512" height="512" viewBox="0 0 512 512"><defs><clipPath id="b"><rect width="512" height="512"/></clipPath></defs><g id="a" clip-path="url(#b)"><g transform="translate(3.135 15.409)"><circle cx="224.994" cy="224.994" r="224.994" transform="translate(27.878 15.597)" fill="#231f20"/><g transform="translate(27.865 15.599)"><g transform="translate(135.245 254.028)"><path d="M37.015,24.583c-1.71,10-8.355,20.769-19.007,20.769a17.953,17.953,0,0,1-3.863-.453A16.523,16.523,0,0,1,3.338,36.976C.309,31.609-.1,23.985,2.246,16.6,5,7.914,11.775-2.244,21.84-2.244a15.566,15.566,0,0,1,3.5.412C36.057.744,38.931,13.281,37.015,24.583M26.5-6.581a34.373,34.373,0,0,0-8.025-.979A28.336,28.336,0,0,0-1.267.363C-8.911,7.42-12.713,18.031-10.961,27.375-9,37.955-.155,46.258,12.7,49.555a33.571,33.571,0,0,0,8.571,1.113c12.445,0,26.682-7.428,28.506-23.715a32.25,32.25,0,0,0-4.77-20.769C40.827-.317,34.615-4.623,26.5-6.581" transform="translate(11.383 7.559)" fill="#b09247"/></g><g transform="translate(200.786 261.698)"><path d="M37.961.378l-.175-.494-.525.052C29.8.677,22.189,1.079,14.566,1.079,7.426,1.079.246.739-6.729.059L-7.254.007-7.439.5c-1.525,4.327-2.4,6.727-3.935,10.7l-.3.824.834.093c.814.1,1.473.155,2.359.247l.391.031.216-.319c3.956-5.6,5.584-6.542,8.551-6.542.381,0,.752,0,1.154.031,1.453.082,1.978.113,3.42.175h.093c3.08.124,4.43.433,4.306,6.367,0,0-.041,26.95-.031,35.666a3.092,3.092,0,0,1-.834,2.339c-1.041,1.02-3.07,1.545-6.016,1.545-.227,0-.67-.031-1.082-.072l-.1-.01c-.33-.031-.659-.062-.907-.072L0,51.476l-.2,4.007.67.031c5.81.309,10.034.433,14.093.433h.371c4.44,0,8.9-.134,15.412-.525l.68-.041-.258-3.987-.68.031c-.227.021-.515.041-.845.072-.433.031-.927.082-1.226.082-6.748,0-6.82-2.905-6.851-3.853L21,12.061c-.175-5.9,1.185-6.233,4.286-6.367,1.473-.072,2.143-.124,3.358-.185l.752-.082c.4,0,.762-.021,1.123-.021,3,0,4.337,1.092,8.036,6.5l.247.34.443-.041c.793-.093,1.442-.155,2.143-.247l.9-.082-.33-.824c-1.473-3.843-2.431-6.284-4-10.673" transform="translate(11.674 0.116)" fill="#b09247"/></g><g transform="translate(70.207 225.326)"><path d="M41.917,41.531l-.361-.134-.3.247c-.865.659-1.432,1.1-2.411,1.854-4.657,3.564-7.438,5.573-10.611,5.573a10.576,10.576,0,0,1-4.389-1.1c-4.183-1.988-6.645-3.183-10.467-5.161-1.8-.948-2.926-1.587-3.286-2.782-.371-1.174.072-2.792,1.4-5.254L28.967,3.99A3.408,3.408,0,0,1,32.15,2.022a11.248,11.248,0,0,1,5.038,1.339l.628.288L39.547.117l-.608-.3A184.729,184.729,0,0,1,17.759-12.4l-.556-.371-2.163,3.3.536.381c4.718,3.1,4.893,5,3.657,7.016L1.512,29c-1.8,2.946-2.679,4.255-4.42,4.255-1.607,0-4.626-1.823-7.057-3.42l-.577-.4-2.349,3.6.556.361A280.025,280.025,0,0,0,33.428,57.53l.474.2.33-.381C38.682,51.915,41.01,49,45.049,43.7l.515-.7-.814-.34c-.958-.381-1.762-.69-2.833-1.133" transform="translate(12.89 12.771)" fill="#b09247"/></g><g transform="translate(257.119 247.163)"><path d="M41.255,12.417S40.132,9.327,40.1,9.244L39.74,8.152c-.855-2.452-1.525-4.4-1.061-5.656C39,1.621,39.627.879,41.574.127l.639-.278L40.76-3.819l-.628.247c-5.965,2.339-9.313,3.5-15.484,5.388l-.659.2,1.154,3.74,1.02-.288a6.256,6.256,0,0,1,1.782-.34c3.431,0,4.636,2.854,6.222,7.6L41.42,33.907c1.4,4.183,1.257,7.84-.381,10.879-1.854,3.441-5.522,5.913-10.93,7.335a26.493,26.493,0,0,1-6.4,1.061c-6.82,0-11.312-3.781-12.651-10.621-1.751-9.117-2.8-14.67-4.234-22.345l-.989-5.264c-.494-2.648-.01-4.172,3.987-5.12l.649-.144L9.587,5.824l-.68.155A178.831,178.831,0,0,1-11.831,9.687l-.855.113.319.834c.33.855.608,1.556.989,2.493l.185.474.495-.062c.484-.031.948-.052,1.36-.052,3.606,0,4.43,1.607,4.749,3.358.958,5.275,1.617,9.128,2.339,13.1l.01.134C-1.612,33.516-1.014,37-.18,41.572c1.37,7.531,4.2,12.63,8.6,15.556A20.7,20.7,0,0,0,20.1,60.27a36.071,36.071,0,0,0,9.2-1.319c8.582-2.2,14.752-6.212,17.915-11.549,2.606-4.43,2.915-9.725.937-15.412-2.174-6.233-5.285-14.928-6.9-19.574" transform="translate(12.686 3.819)" fill="#b09247"/></g><g transform="translate(42.031 65.795)"><path d="M235.585,193.565S178.336,222.257,110.5,222.452c-63.285.165-122.367-27.269-122.388-27.28-29.124-12.6-51.5-31.349-51.5-61.3A53.764,53.764,0,0,1-49.946,98.447l-.134-.237L64.221-30.276h.268a62.3,62.3,0,0,1,91.853,0h.258l113.435,127.5-.124.216A55.393,55.393,0,0,1,284.2,133.876c.8,32.493-32.3,53.643-48.615,59.69M280.13,95.552l-.031-.021v-.021L160.421-39.064h-.01l-.031-.031a71.341,71.341,0,0,0-99.95,0v.031H60.4L-60.134,96.758l-.041.041-.021.01a62.56,62.56,0,0,0-12.249,37.067c0,29.793,19.131,53.22,56.888,69.569,2.493,1.123,62.039,28.052,125.447,28.052h.628c66.664-.165,122.367-26.528,128.672-29.618a103.6,103.6,0,0,0,33.5-21.82c13.846-13.722,20.985-29.762,20.563-46.411a65.178,65.178,0,0,0-13.125-38.1" transform="translate(72.445 59.524)" fill="#b09247"/></g><g transform="translate(319.146 227.061)"><path d="M33.26,18.9c-4.08,0-8.5.958-12.8,1.885l-.278.052c-.814.185-1.648.361-2.462.525a53.79,53.79,0,0,1-10.168,1.36c-4.2,0-6.83-1.236-8-3.791C-2.086,15.389.366,11.1,5.486,8.476a21.1,21.1,0,0,1,9.859-2.421A36.6,36.6,0,0,1,26.08,8.033l.3.1.258-.165c.628-.412,1.092-.68,1.659-1.061l.577-.35L24.957.389c-1.1-1.731-2.194-3.461-3.564-5.625l-.361-.577-2.39,1.5.3,2.874-.33.041A45.353,45.353,0,0,0,2.993,3.016C-5.6,7.395-13.068,16.543-9.164,26.237-6.9,31.8-2.272,34.53,4.96,34.53A60.327,60.327,0,0,0,16.2,33.15c.773-.165,1.525-.319,2.318-.484a56.185,56.185,0,0,1,10.23-1.5c3.729,0,6.1,1.164,7.582,3.626a6.361,6.361,0,0,1,.7,5.038c-1.092,3.843-5.728,6.738-8.376,8.149a23.443,23.443,0,0,1-11.044,3.091c-5.069,0-10.261-2.1-16.761-6.82l-.33-.206-.33.144c-1.082.464-1.9.783-2.864,1.164l-.855.34.587.711C.7,50.993,2.787,53.537,6.815,58.225L7,58.441l.278.01c1.1.062,2.143.093,3.183.093a41.647,41.647,0,0,0,19.625-4.512C45.664,45.965,47.425,36.014,47.456,32.1v-.227a13.2,13.2,0,0,0-2.04-7.119C42.779,20.767,38.936,18.9,33.26,18.9" transform="translate(10.228 5.813)" fill="#b09247"/></g><g transform="translate(142.95 109.107)"><path d="M49.8,25.166H60.242v6.171l-.484.144A28.547,28.547,0,0,0,41.791,48.242l-.185.433H33.817Zm21.078,60.04.649-.082a28.987,28.987,0,0,0,18.884-9.066l.278-.288c1.01-1.174,1.545-1.854,1.566-2.287l-.062-.165-.082-.144a.586.586,0,0,0-.35-.165,1.85,1.85,0,0,0-1.113.69,25.69,25.69,0,0,1-18.688,7.974c-.093,0-.216,0-.4-.01l-.68-.021v-27.9H87.522c3.843.124,7.119,2.009,9.715,5.615a22.342,22.342,0,0,1,4,13.331,22.219,22.219,0,0,1-3.977,13.228c-2.617,3.42-5.532,5.264-9.045,5.656H70.874Zm.01-51.562.67-.021.4-.031A25.426,25.426,0,0,1,83.535,36.21a26.617,26.617,0,0,1,4.337,2.627l.124.093,1.216-.412-4.43-6.645-2.153,1.36-.371-.175a28.736,28.736,0,0,0-10.735-2.864l-.639-.062V25.166h18.08a7.124,7.124,0,0,1,5.306,3.482,14.528,14.528,0,0,1,2.349,8.211A14.62,14.62,0,0,1,94.27,45.09a7.354,7.354,0,0,1-5.192,3.575l-.052.01H70.884ZM60.242,48.675H48.694l.453-.989A24.365,24.365,0,0,1,59.191,36.972l1.051-.577Zm0,30.226-1.051-.587A23.964,23.964,0,0,1,46.88,57.627a26.474,26.474,0,0,1,.237-3.286l.093-.6H60.242ZM10.8,93.787l-.309-.041a3.647,3.647,0,0,1-3.07-1.731c-.855-1.607-.216-3.966,1.947-7.222.216-.3.484-.742.845-1.257l.67-1.01.515,1.092c11.147,22.108,33.791,35.841,59.123,35.841a67.121,67.121,0,0,0,50.408-22.747c1.823-2.091,1.978-2.462,1.185-3.266l-.093-.072h-.041l-.2-.021c-.3,0-.927.165-2.648,1.731C106.539,106.17,89.644,112.3,71.533,112.3A49.613,49.613,0,0,1,38.8,99.721a57.487,57.487,0,0,1-18.049-31.38l-.072-.3.185-.247c2.843-4.2,5.955-8.808,9.055-13.372l.484-.68h9.9l-.1.773a30.7,30.7,0,0,0-.175,3.132c0,11.878,7.912,22.407,19.718,26.177l.474.155.021,2.318c-.124,2.236-1.319,3.987-3.719,5.47a11.527,11.527,0,0,1-5.027,2.05l-.258.031v1.5H92.395c5.069,0,12.043-2,16.236-6.449a21.961,21.961,0,0,0,5.738-15.278,22.714,22.714,0,0,0-2.256-10.168l-.824-1.514-.093-.134c-.072-.124-.144-.247-.227-.371l-.134-.2c-.247-.371-.494-.721-.731-1.071-.093-.134-.206-.278-.34-.443l-.082-.1c-.268-.34-.525-.659-.824-.979l-.093-.134c-.041-.062-.1-.124-.155-.2s-.216-.185-.216-.185a21.761,21.761,0,0,0-9.632-6.068l-1.679-.515,1.566-.783a16.6,16.6,0,0,0,7.572-8.1l.227-.546a1.086,1.086,0,0,1,.134-.268l.072-.258.155-.464a18.84,18.84,0,0,0,.9-5.872A17.968,17.968,0,0,0,104,24.1c-2.545-2.988-6.614-4.131-9.571-4.234H37.712l-.773,1.247.34.175c2.2,1.041,3.431,2.081,3.832,3.276a2.979,2.979,0,0,1-.3,2.545v.021L19.436,57l.062-2.256a58.4,58.4,0,0,1,15.546-39.1A49.753,49.753,0,0,1,71.533-.548,73.432,73.432,0,0,1,113.606,12.33l.165.113,3.564-1.514L105.406-6.956l-7.912,4.79-.35-.155a67.076,67.076,0,0,0-26.62-5.419C34.25-7.739,4.735,20.787,4.735,55.855A62.176,62.176,0,0,0,7.352,73.441l.124.33L.655,83.218C-4.516,90.3-9.5,93.7-15.014,94.024l-.3.01v1.319H10.8Z" transform="translate(15.313 7.739)" fill="#b09247"/></g><path d="M233.15,316.653A204.966,204.966,0,0,1,8.216,272.663a205.029,205.029,0,0,1,0-290.125A205.27,205.27,0,0,1,342.331,47.75a204.975,204.975,0,0,1-43.959,224.913,204.056,204.056,0,0,1-65.222,43.99M312.372-31.483a224.985,224.985,0,0,0-318.167,0,224.96,224.96,0,0,0,0,318.167,224.96,224.96,0,0,0,318.167,0,224.91,224.91,0,0,0,0-318.167" transform="translate(71.696 97.375)" fill="#b09247"/></g></g></g></svg>