<svg xmlns="http://www.w3.org/2000/svg" xmlns:xlink="http://www.w3.org/1999/xlink" width="512" height="512" viewBox="0 0 512 512"><defs><clipPath id="b"><rect width="512" height="512"/></clipPath></defs><g id="a" clip-path="url(#b)"><g transform="translate(5.432 -15.096)"><g transform="translate(25.568 151.485)"><path d="M179.646,293.721a.721.721,0,0,1,.692.03c.12.12-.093.206-.474.19-.42-.017-.506-.1-.218-.218ZM71.011,293.36a.723.723,0,0,1,.692.03c.12.12-.093.205-.474.19-.42-.017-.506-.1-.218-.218Zm18.925-238.2a2.962,2.962,0,0,1,1.263,0c.347.091.063.165-.632.165s-.979-.074-.632-.165Zm10.466,0a2.963,2.963,0,0,1,1.263,0c.347.091.063.165-.632.165s-.979-.074-.632-.165Zm56.123.01a1.393,1.393,0,0,1,.9,0c.248.1.045.182-.451.182s-.7-.082-.451-.182Z" transform="translate(96.743 -54.72)" fill="#f1ab8e"/><path d="M37.145,111.034a.723.723,0,0,1,.692.03c.12.12-.093.205-.474.19-.42-.017-.506-.1-.218-.218Z" transform="translate(-13.751 127.584)" fill="#f0ab8d"/><path d="M86.2,111.118a3.908,3.908,0,0,1,1.444.009c.345.09-.022.161-.816.157s-1.076-.078-.627-.164Z" transform="translate(146.142 127.883)" fill="#7eb4de"/><path d="M94.96,56.318a4.273,4.273,0,0,1,1.028-.9c.1,0-.2.406-.667.9a4.273,4.273,0,0,1-1.028.9C94.194,57.22,94.494,56.814,94.96,56.318Z" transform="translate(173.193 -53.653)" fill="#ed9772"/><path d="M49.308,56.956a2.271,2.271,0,0,1,.632-.632c.572-.449.585-.436.136.136-.472.6-.768.792-.768.5Z" transform="translate(26.483 -51.721)" fill="#ed9671"/><path d="M115.508,55.058a26.38,26.38,0,0,1,3.429,0c.943.074.171.135-1.714.135S114.565,55.132,115.508,55.058Z" transform="translate(241.161 -55.002)" fill="#ef956f"/><path d="M169.928,293.7a9.6,9.6,0,0,1,2.165,0c.542.082.012.148-1.179.146s-1.635-.069-.986-.15Zm7.6.017a.72.72,0,0,1,.692.03c.12.12-.093.2-.474.19-.42-.017-.506-.1-.218-.218Zm2.5.009a1.392,1.392,0,0,1,.9,0c.248.1.045.182-.451.182s-.7-.082-.451-.182Zm-107.011-.392c2.531-.062,6.672-.062,9.2,0s.46.113-4.6.113S70.485,293.4,73.016,293.334Zm84.832-238.2c1.946-.065,5.031-.065,6.857,0s.234.119-3.538.118-5.265-.054-3.32-.119Zm95.8.03a1.392,1.392,0,0,1,.9,0c.248.1.045.182-.451.182s-.7-.082-.451-.182Zm9.045-.008a.726.726,0,0,1,.692.029c.12.12-.093.205-.474.19-.42-.017-.506-.1-.218-.218Z" transform="translate(100.31 -54.742)" fill="#ea8256"/><path d="M55.539,55.155a2.962,2.962,0,0,1,1.263,0c.347.091.063.165-.632.165s-.979-.074-.632-.165Z" transform="translate(46.327 -54.724)" fill="#ea8255"/><path d="M95.327,288.3c-.449-.572-.436-.585.136-.136a2.272,2.272,0,0,1,.632.632c0,.3-.3.106-.768-.5ZM69.36,285.775l-.875-.992.992.875c.928.818,1.158,1.11.875,1.11A6.253,6.253,0,0,1,69.36,285.775ZM284.1,56.958l-.875-.992.992.875c.928.818,1.158,1.11.875,1.11a6.245,6.245,0,0,1-.992-.992Z" transform="translate(89.052 -51.858)" fill="#e97848"/><path d="M55.489,57.352a9.011,9.011,0,0,1,1.173-1.173l1.173-1.06-1.06,1.173c-.988,1.093-1.286,1.339-1.286,1.06Z" transform="translate(46.65 -54.619)" fill="#e97747"/><path d="M144.184,293.715a5.139,5.139,0,0,1,1.624,0c.447.086.081.156-.812.156S143.737,293.8,144.184,293.715ZM67.5,55.157a2.066,2.066,0,0,1,1.083.013c.244.1-.043.174-.638.166s-.8-.088-.444-.18Zm149.77,0a2.963,2.963,0,0,1,1.263,0c.347.091.063.165-.632.165S216.92,55.249,217.268,55.158Z" transform="translate(85.265 -54.713)" fill="#3f90ce"/><path d="M115.617,55.141a23.4,23.4,0,0,1,3.248,0c.838.076.061.137-1.725.136s-2.472-.063-1.523-.138Z" transform="translate(241.435 -54.728)" fill="#e76832"/><path d="M87.579,111.408l-1.06-1.173,1.173,1.06c1.093.988,1.339,1.286,1.06,1.286A9.009,9.009,0,0,1,87.579,111.408Z" transform="translate(147.892 125.207)" fill="#2f87ca"/><path d="M155.7,286.087c-.449-.572-.436-.585.136-.136a2.271,2.271,0,0,1,.632.632c0,.3-.3.106-.768-.5ZM73.1,57.044a2.272,2.272,0,0,1,.632-.632c.572-.449.585-.436.136.136C73.4,57.15,73.1,57.341,73.1,57.044Z" transform="translate(104.106 -51.434)" fill="#e6632c"/><path d="M304.366,293.859c-6.233-.178-6.36-.2-8.689-1.345a18.3,18.3,0,0,1-7.545-7.682c-1.538-3.047-.207,1.094-30.678-95.455C242.8,142.927,229.391,100.458,227.666,95S224.4,84.94,224.251,84.773s-.454.239-.666.9-2.994,9.57-6.18,19.793-5.949,18.911-6.14,19.309c-.428.893-11.477,35.768-12.12,38.256-.257.992-3.238,10.535-6.626,21.205s-6.16,19.9-6.16,20.514a78.056,78.056,0,0,0,2.5,8.931c1.377,4.3,6.831,21.541,12.121,38.314,10.623,33.688,11.394,35.714,15.007,39.406l2.092,2.138-10.539-.11-10.539-.11-2.165-1.056a23.345,23.345,0,0,1-8.034-7.8c-1.3-2.3-3.808-9.6-9.132-26.6-2.066-6.6-3.866-12-4-12-.49,0-2.281,5.295-8.777,25.945-3.646,11.59-6.845,21.21-7.11,21.378s-5.973.307-12.686.31c-11.458,0-12.193-.034-12.012-.626.106-.347,2.784-8.833,5.951-18.857s10.33-32.761,15.918-50.526,13.06-41.477,16.606-52.691C186,125.116,195.25,95.734,198.138,86.36c3.686-11.97,6.219-18.889,8.066-22.037a17.928,17.928,0,0,1,12.581-8.735c4.083-.576,7.713-.722,8.5-.341a11.812,11.812,0,0,0,2.891.552,15.021,15.021,0,0,1,8.943,4.66c3.757,3.816,5.313,7.718,13.414,33.644,1.675,5.36,3.158,10.126,3.3,10.593s.387.71.552.541c.485-.5,3.326-9.075,6.638-20.046,1.7-5.619,3.647-11.719,4.335-13.555,2.823-7.537,5.953-11.96,9.868-13.944,3.408-1.727,5.6-2.015,15.37-2.02l8.974-.006-2.177,2.328a24.226,24.226,0,0,0-3.834,5.637c-1.727,3.449-2.333,5.271-10.63,31.917-2.781,8.932-7.366,23.549-10.189,32.482s-5.2,16.918-5.287,17.745c-.124,1.207.968,5.062,5.523,19.489,3.123,9.892,6,19.04,6.386,20.331,2.409,7.979,11.632,37.3,12.2,38.8.379.992,2.325,7.083,4.326,13.534,6.219,20.056,9.053,28.613,9.369,28.285.167-.173,6.337-19.479,13.712-42.9s18.932-60.125,25.682-81.567,14.543-46.2,17.318-55.04C370.362,66.361,372,62.833,376.9,58.8c2.837-2.33,4.833-2.886,11.2-3.117,6.805-.247,9.239.034,12.168,1.4,6.34,2.967,9.088,7.851,14.729,26.182,1.527,4.963,16.091,51.25,32.365,102.859s30.232,95.949,31.018,98.528,1.815,5.625,2.285,6.767l.856,2.075h-12.4c-10.28,0-12.487-.088-12.916-.517a15.734,15.734,0,0,1-1.5-3.7c-1.819-5.9-31.215-99.278-41.165-130.763-5.426-17.17-11.513-36.5-13.527-42.947-2.984-9.558-8.867-28.112-9.6-30.286-.115-.34-.294-.391-.533-.152-.3.3-9.9,30.247-11.9,37.115-.346,1.191-.809,2.571-1.028,3.068-.373.844-4.567,14.071-10.014,31.579-2.755,8.856-3.962,12.709-10.048,32.083-2.488,7.919-4.524,15.006-4.524,15.749a102.627,102.627,0,0,0,3.1,11.226c2.45,7.8,18.112,57.436,23.266,73.732a14.224,14.224,0,0,1,.839,3.519c-.231.375-23.99.377-24.58,0a10.632,10.632,0,0,1-1.294-3.152c-2.332-7.852-13.749-43.7-14.011-43.991-.166-.185-.4-.241-.514-.124-.212.212-3.679,11.11-7.552,23.74-2.195,7.156-4.8,14.155-6.04,16.227-3.068,5.126-7.178,7.677-12.914,8.016-1.092.065-4.831.038-8.31-.063ZM31.528,293a8.985,8.985,0,0,1,.715-2.113c.394-.89,1.35-3.712,2.125-6.272s3.932-12.613,7.016-22.339,9.368-29.7,13.965-44.392,12.23-38.969,16.962-53.957,11.775-37.4,15.653-49.805c9.626-30.8,13.676-43.437,14.774-46.114,2.055-5.012,5.709-9.3,9.408-11.05,1.946-.919,5.849-1.8,6.418-1.446a.849.849,0,0,0,.841-.213c.337-.279,1.51-.361,3.5-.243,1.648.1,4.125.182,5.5.187s3.529.119,4.778.253l2.271.243-1.636,1.82c-3.153,3.506-5.4,8.185-8.1,16.864-.833,2.68-5.141,16.4-9.572,30.5s-10.924,34.8-14.43,46.016-10.246,32.653-14.978,47.64-12.262,38.942-16.731,53.233c-12.081,38.633-12.674,40.481-13.194,41.108-.422.509-1.955.577-12.886.577-10.277,0-12.407-.085-12.407-.5Z" transform="translate(-31.528 -54.986)" fill="#e4591e"/><path d="M61.246,60.08a2.271,2.271,0,0,1,.632-.632c.572-.449.585-.436.136.136-.472.6-.768.792-.768.5Zm165.295,0a2.273,2.273,0,0,1,.632-.632c.572-.449.585-.436.136.136-.471.6-.768.792-.768.5ZM88.314,56.11a2.272,2.272,0,0,1,.632-.632c.572-.449.585-.436.136.136-.471.6-.768.792-.768.5Z" transform="translate(65.433 -54.482)" fill="#0f75c3"/><path d="M210.811,293.836a16.433,16.433,0,0,1-9.892-5.108c-2.83-3.306-4.382-7.288-10.314-26.467-3.941-12.742-19.838-63.433-26.85-85.625-3.775-11.944-3.79-12.006-3.323-13.714,1.078-3.945,11.827-37.471,12.1-37.749.386-.388.73.687,24.2,75.731,18.375,58.749,25.71,81.9,26.575,83.864a27.2,27.2,0,0,0,5.381,7.591c.728.639,1.266,1.215,1.2,1.279-.329.3-17.324.473-19.076.195ZM43.5,293c-.1-.264,2.165-7.857,5.036-16.873,7.209-22.637,20.266-63.868,42.619-134.59,22.346-70.7,22.991-72.683,24.674-75.97s5.717-7.415,8.473-8.677a27.1,27.1,0,0,1,11.063-1.836c1.5.1,4.018.2,5.606.222a38.706,38.706,0,0,1,4.437.292l1.549.255-1.844,2.165a31.029,31.029,0,0,0-5.386,9.383c-1.1,2.853-10.373,32.134-24.067,75.97-3.876,12.406-10.946,34.9-15.712,49.984S87.07,234.234,81.916,250.709c-13.185,42.147-13.236,42.3-13.879,42.551-.31.119-5.915.217-12.456.217-9.571,0-11.928-.094-12.076-.481Zm322.993.2c-.224-.146-5.7-16.993-12.162-37.439s-15.523-49.03-20.128-63.518-8.356-26.786-8.335-27.322,1.095-4.272,2.387-8.3,4.058-12.75,6.145-19.38,3.839-12.1,3.892-12.149c.1-.1,8.328,25.694,21.467,67.334,4.479,14.193,13.456,42.614,19.95,63.16s11.74,37.476,11.659,37.625c-.192.35-24.337.344-24.875,0ZM254.564,223.572c-1.219-3.434-11.239-35.56-11.493-36.849-.174-.882.145-2.325,1.234-5.594,1.616-4.847,3.742-11.606,20.284-64.5,17.342-55.445,15.983-51.707,20.385-56.153,3.275-3.31,5.593-4.43,10.066-4.863,4.754-.46,17.45-.429,17.742.044.13.21-.641,1.307-1.712,2.436-3.881,4.09-4.659,6-12.048,29.6-3.089,9.863-9,28.651-13.137,41.752-6.845,21.68-26.982,85.791-29.133,92.752a19.653,19.653,0,0,1-1.168,3.178c-.152.16-.611-.652-1.02-1.8Z" transform="translate(7.537 -54.962)" fill="#006cbf"/></g></g></g></svg>