<svg xmlns="http://www.w3.org/2000/svg" xmlns:xlink="http://www.w3.org/1999/xlink" width="512" height="512" viewBox="0 0 512 512"><defs><clipPath id="b"><rect width="512" height="512"/></clipPath></defs><g id="a" clip-path="url(#b)"><g transform="translate(31 61.266)"><path d="M106.629,302.862C46.548,235.452,10.551,143.755.957,33.663-1.97.083-1.82-.007,57.108.03l47.65.029L158.32,42.576c29.46,23.384,56.814,44.7,60.788,47.363,6.92,4.642,9.783,2.847,67.855-42.546L347.592,0h47.8c39.363,0,48.543.895,52.007,5.068,3.429,4.131,3.456,12.354.145,44.478-9.779,94.885-44.358,182.235-96.571,243.949-20.079,23.73-28.539,30.769-32.375,26.933-1.29-1.29,5.235-47.18,14.5-101.978,20.613-121.923,20.751-121.265-18.025-86.659-30.079,26.845-52.239,44.931-72.977,59.563L226.862,202.1l-14.332-8.4c-16.091-9.43-40.376-28.582-78.124-61.615-37.493-32.809-37.219-34.058-18.037,82.164,8.693,52.67,15.846,98.32,15.894,101.444.161,10.431-8.975,5.857-25.634-12.835Z" transform="translate(0)" fill="#005ea8"/><path d="M80.582,149.278C53.5,134.632,31.03,118.7,25.461,110.2c-4.419-6.744-14.674-63.833-14.674-81.69,0-4.475,1.663-8.137,3.7-8.137s14.084,7.9,26.781,17.562c27.749,21.109,55.411,37.627,63,37.615,7.091-.011,36.939-18.007,64.618-38.962C183,25.9,191.589,21.333,193.668,23.413c4.128,4.128-5.816,80.188-11.357,86.865-10,12.049-70.766,49.868-79.711,49.609-1.4-.037-11.307-4.815-22.02-10.609Z" transform="translate(121.565 229.58)" fill="#e5233b"/><path d="M94.32,153.634c-27.078-14.646-64.581-44-70.15-52.5C19.75,94.392,9.5,37.3,9.5,19.447c0-4.475,1.663-8.137,3.7-8.137s14.084,7.9,26.781,17.562C67.721,49.981,110.412,79.918,118,79.907c7.091-.011,50.358-27.132,78.038-48.087,14.118-10.688,22.712-15.254,24.791-13.175,4.128,4.128-5.816,80.188-11.357,86.865-10,12.049-84.186,58.994-93.129,58.734-1.4-.037-11.307-4.815-22.02-10.609Z" transform="translate(107.005 127.45)" fill="#fff"/></g></g></svg>