<svg xmlns="http://www.w3.org/2000/svg" xmlns:xlink="http://www.w3.org/1999/xlink" width="512" height="512" viewBox="0 0 512 512"><defs><linearGradient id="c" x1="0" y1="0" x2="0" y2="0" gradientUnits="objectBoundingBox"><stop offset="0" stop-color="#fff"/><stop offset=".1" stop-color="#e7e8e6"/><stop offset=".1" stop-color="#cdd0d0"/><stop offset=".2" stop-color="#b5bbbd"/><stop offset=".2" stop-color="#a5acaf"/><stop offset=".3" stop-color="#9ba3a7"/><stop offset=".3" stop-color="#98a0a4"/><stop offset=".4" stop-color="#828a8f"/><stop offset=".5" stop-color="#667075"/><stop offset=".6" stop-color="#535c63"/><stop offset=".7" stop-color="#475158"/><stop offset=".8" stop-color="#434d54"/><stop offset="1" stop-color="#475157"/></linearGradient><linearGradient id="d" x1="0" y1="0" x2="0" y2="0" gradientUnits="objectBoundingBox"><stop offset="0" stop-color="#0b1f2a"/><stop offset=".2" stop-color="#333f47"/><stop offset=".5" stop-color="#777f84"/><stop offset=".5" stop-color="#81898d"/><stop offset=".7" stop-color="#b3b8b8"/><stop offset=".8" stop-color="#d2d5d3"/><stop offset=".8" stop-color="#dee0dd"/><stop offset="1" stop-color="#fbfbfb"/></linearGradient><linearGradient id="a" x2="0" gradientUnits="objectBoundingBox"><stop offset="0" stop-color="#e1e3e1" stop-opacity=".4"/><stop offset=".1" stop-color="#c1c5c4" stop-opacity=".4"/><stop offset=".3" stop-color="#9ba1a2" stop-opacity=".4"/><stop offset=".5" stop-color="#7d8487" stop-opacity=".4"/><stop offset=".7" stop-color="#687074" stop-opacity="0"/><stop offset=".8" stop-color="#5b6469" stop-opacity="0"/><stop offset="1" stop-color="#576065" stop-opacity="0"/></linearGradient><linearGradient id="e" x1="-.1" y1="-.1" x2="-.1" y2="-.1" xlink:href="#a"/><linearGradient id="f" x1="-1.3" y1="-2.3" x2="-1.3" y2="-2.3" gradientUnits="objectBoundingBox"><stop offset="0" stop-color="#27343c"/><stop offset="1" stop-color="#00111e" stop-opacity="0"/></linearGradient><linearGradient id="g" x1="-7.7" y1="-.2" x2="-7.5" y2="-.2" gradientUnits="objectBoundingBox"><stop offset="0" stop-color="#02131f"/><stop offset=".1" stop-color="#02131f"/><stop offset=".9" stop-color="#02131f" stop-opacity="0"/><stop offset="1" stop-color="#02131f" stop-opacity="0"/></linearGradient><linearGradient id="h" x1="-.3" y1="-2.3" x2="-.3" y2="-2.3" gradientUnits="objectBoundingBox"><stop offset="0" stop-color="#02131f" stop-opacity=".8"/><stop offset=".2" stop-color="#02131f" stop-opacity=".8"/><stop offset=".9" stop-color="#02131f" stop-opacity="0"/><stop offset="1" stop-color="#02131f" stop-opacity="0"/></linearGradient><linearGradient id="i" x1="-.3" y1="-2.4" x2="-.3" y2="-2.4" gradientUnits="objectBoundingBox"><stop offset="0" stop-color="#02131f" stop-opacity=".8"/><stop offset=".1" stop-color="#02131f" stop-opacity=".8"/><stop offset="1" stop-color="#02131f" stop-opacity="0"/></linearGradient><linearGradient id="j" x1="-6.8" y1="-.1" x2="-6.6" y2="-.1" gradientUnits="objectBoundingBox"><stop offset="0" stop-color="#02131f"/><stop offset=".3" stop-color="#02131f"/><stop offset=".8" stop-color="#02131f" stop-opacity="0"/><stop offset="1" stop-color="#02131f" stop-opacity="0"/></linearGradient><linearGradient id="k" x1="-6.8" y1="-.1" x2="-6.6" y2="-.1" gradientUnits="objectBoundingBox"><stop offset="0" stop-color="#27343c"/><stop offset=".4" stop-color="#27343c"/><stop offset="1" stop-color="#3b474e" stop-opacity="0"/></linearGradient><linearGradient id="l" x1="0" y1="-.5" x2="0" y2="-.5" gradientUnits="objectBoundingBox"><stop offset="0" stop-color="#24303a" stop-opacity="0"/><stop offset="0" stop-color="#25323b" stop-opacity="0"/><stop offset=".1" stop-color="#27343c"/><stop offset="1" stop-color="#27343c"/></linearGradient><linearGradient id="m" x1="-35" y1="-6.9" x2="-33.9" y2="-6.9" gradientUnits="objectBoundingBox"><stop offset="0" stop-color="#a5abaf"/><stop offset=".3" stop-color="#a5abaf"/><stop offset="1" stop-color="#a5abaf" stop-opacity="0"/></linearGradient><linearGradient id="n" x1="-1" y1="0" x2="-1" y2="0" gradientUnits="objectBoundingBox"><stop offset="0" stop-color="#dee0dd"/><stop offset="0" stop-color="#c5c9c7"/><stop offset="0" stop-color="#9ea4a5"/><stop offset="0" stop-color="#82898c"/><stop offset="0" stop-color="#71797d"/><stop offset="0" stop-color="#6b7378"/><stop offset=".2" stop-color="#333f47"/><stop offset=".5" stop-color="#27343c"/><stop offset=".8" stop-color="#333f47"/><stop offset="1" stop-color="#434d54"/></linearGradient><linearGradient id="o" x1="-1.3" y1="-.1" x2="-1.3" y2="-.1" gradientUnits="objectBoundingBox"><stop offset="0" stop-color="#27343c"/><stop offset=".7" stop-color="#27343c"/><stop offset=".7" stop-color="#2b373f"/><stop offset=".7" stop-color="#36424a"/><stop offset=".7" stop-color="#49545b"/><stop offset=".8" stop-color="#646d73" stop-opacity="0"/><stop offset=".8" stop-color="#868d92" stop-opacity="0"/><stop offset=".8" stop-color="#b0b5b8" stop-opacity="0"/><stop offset=".8" stop-color="#e1e3e4" stop-opacity="0"/><stop offset=".8" stop-color="#fff" stop-opacity="0"/><stop offset="1" stop-color="#fff" stop-opacity="0"/></linearGradient><clipPath id="b"><path d="M0 0h512v512H0z"/></clipPath></defs><g clip-path="url(#b)"><path d="M392.5 196.8A195.6 195.6 0 11196.8 1.2a195.5 195.5 0 01195.7 195.6zM196.8 13.1a183.8 183.8 0 10183.8 183.7A183.3 183.3 0 00196.8 13.1z" transform="translate(59.2 59.2)" fill="url(#c)"/><path d="M188.3 4.5A183.8 183.8 0 10372 188.3 183.3 183.3 0 00188.3 4.5zm0 355.6A171.9 171.9 0 11360 188.3 171.8 171.8 0 01188.3 360z" transform="translate(67.7 67.7)" fill="url(#d)"/><path d="M200 395.6A195.6 195.6 0 104.4 200 195.5 195.5 0 00200 395.6zM200 0c110 0 200 90 200 200s-90 200-200 200S0 310 0 200 90 0 200 0z" transform="translate(56 56)" fill="url(#a)"/><path d="M69.8 256.6c0-102.5 83-186.9 186.2-186.9s186.3 83.8 186.3 187C442.3 359 359 442.2 256 442.2S69.7 359 69.7 256.6zm58-128.7a182 182 0 00-53.7 128.7 181.4 181.4 0 0053.2 128.1A184 184 0 00256 438c50 0 95.6-20 128.1-53.1 33.1-32.6 53.1-78.2 53.1-128.2s-20.6-95.6-53-128.7a179.6 179.6 0 00-256.3 0z" fill="#fff"/><path d="M180.2 352.7a172.4 172.4 0 01-122-294.4A172.4 172.4 0 11302 302a171.1 171.1 0 01-121.8 50.7zm0-5A166.9 166.9 0 1062 62.7a162.5 162.5 0 00-49.3 117.5 167.5 167.5 0 00167.5 167.5z" transform="translate(75.8 75.8)" fill="url(#e)"/><path d="M407.9 337.3C404.8 334.6 284 239 284 239L256 78.5a10.7 10.7 0 00-5.6 5l-20 156.3L106 335.4s-2.5 3.1-3.8 5c-.6 1.2-.6 3.1-.6 5l153.8-63.1 153.7 63c1.3-3 0-6.2-1.2-8z" fill="#fff"/><path d="M257.3 261l-1.3 28.8 141.3 56.8c5 2.5 8.7 1.3 12.4-1.2l-150.6-85a1.2 1.2 0 00-1.9.6z" fill="#565f64"/><path d="M56 57.7s8.1 14.4 17.5 24.4a144.4 144.4 0 0030.6 24.4l92 36.8c5 2.5 8.7 1.3 12.4-1.2L58 57a1.2 1.2 0 00-1.9.6z" transform="translate(201.2 203.3)" fill="url(#f)"/><path d="M409.1 339.8c0-.7-.6-1.3-1.2-2.6L279 243 261.6 254s1.3.7 1.9 0a15.6 15.6 0 019.4 0A14084 14084 0 01409 340.4z" fill="rgba(164,170,174,0.6)"/><path d="M404.8 334.1l-120-95-5.7 3.8 128.8 95a16.6 16.6 0 00-3.1-3.8z" fill="#333e46"/><path d="M259.1 251.6l-.6.7s0 1.2 1.3.6c.6-.7 18.7-10 25-13.8l-22-150c-.6-5.6-3-8.1-7.4-10l2.5 173.8z" fill="#565f64"/><path d="M248.5 89.1v8.1l-13.8 138.2a5.7 5.7 0 002.6 5l8 6.2L251 94.1l.6-11.9c-1.9 1.3-2.5 3.8-3.1 7zM241 249.1l-7.5-6.2-126.9 91.8s-3.7 2.6-4.3 5l4.3-2.4 133.2-83.8c2.4-1.3 3-2.5 1.2-4.4z" fill="rgba(164,170,174,0.6)"/><path d="M254.1 261c0-.6-.6-1.2-1.2-.6L101.6 346c3.8 2.5 7.5 3.1 12.5 1.3l141.3-57z" fill="#565f64"/><path d="M56.4 176.4l.6-.6-.6.6a.6.6 0 00.6.6h.6c.6-.6 18.8-10 25-13.7L80.1 145 60.7 13.3q0-3.8-1.8-5.6s9.3 126.2 9.3 140a40.8 40.8 0 01-11.8 28.7z" transform="translate(202.1 75.8)" fill="url(#g)"/><path d="M165.2 57.7c0-.6-.6-1.3-1.3-.6L12.8 142.7c3.7 2.5 7.5 3.1 12.5 1.3l141.3-57z" transform="translate(89 203.3)" fill="url(#h)"/><path d="M21.1 141.8l141.3-56.9-1.3-27.5a35.8 35.8 0 01-18.7 21.9c-8.8 5-92.5 46.2-122.5 60.6-1.9 1.3-4.4 1.9-5.6 2.5 2.5 1.3 4.3.6 6.8-.6z" transform="translate(93 204.8)" fill="url(#i)"/><path d="M59.2 179l-.6.6s0 1.2 1.3.6c.6-.6 18.7-10 25-13.8l-22-150c-.5-5.6-3-8-7.4-10L58 180.2z" transform="translate(199.9 72.7)" fill="url(#j)"/><path d="M59.2 179l-.6.6s0 1.2 1.3.6c.6-.6 18.7-10 25-13.8l-22-150c-.5-5.6-3-8-7.4-10L58 180.2z" transform="translate(199.9 72.7)" fill="url(#k)"/><path d="M28.7 187.3c-4.4-10-29.4-58.8-1.9-152.5H16.2c-5.6 18.7-10 30-12.5 46.9 0 0-1.2 6.2-1.9 13a142.2 142.2 0 00-.6 15c0 37.6 9.4 59.5 9.4 59.5 10 31.2 27.5 59.3 51.2 80.6a179.3 179.3 0 0078.8 36.9c-4.4-.7-79.4-32.5-111.9-99.4z" transform="translate(59.2 146.2)" fill="url(#l)"/><path d="M60.4 56.9h-5.6c.6 0 1.3 0 1.3.6l1.2 28.8h.6l1.3-28.8c0-.6.6-1.2 1.2-.6z" transform="translate(198 202.9)" fill="url(#m)"/><path d="M118.2 4c65.6 25 127.5 93.8 127.5 180.6 0 105-83.8 190.7-190 190.7v10a196.7 196.7 0 00195.6-195.7c0-86.2-55-158.7-133.1-185.6z" transform="translate(200.3 66.4)" fill="url(#n)"/><path d="M257.9 60.4z" fill="#fff"/><path d="M209.6 112.3C166 11.6 67.1 6 61.6 5.3h-.7c75.6 13.8 123.7 63.2 140.6 115v.7c7.5 20 11.3 41.3 11.9 64.4.6 21.9-4.4 46.2-13.8 68.7-.6 3.2-1.2 7-1.8 7h10c30-56.3 16.8-113.2 1.8-148.8z" transform="translate(213.9 70)" fill="url(#o)"/><path d="M69.8 256.6c0-102.5 83-186.9 186.2-186.9s186.3 83.8 186.3 187C442.3 359 359 442.2 256 442.2S69.7 359 69.7 256.6zm58-128.7a182 182 0 00-53.7 128.7 181.4 181.4 0 0053.2 128.1A184 184 0 00256 438c50 0 95.6-20 128.1-53.1 33.1-32.6 53.1-78.2 53.1-128.2s-20.6-95.6-53-128.7a179.6 179.6 0 00-256.3 0z" fill="#fbfbfb"/><path d="M105.4 336l127.5-91.9c6.8 3.8 18.1 8.8 19.3 8.8 1.3.6 1.3-.7 1.3-.7l-15.6-13a5.7 5.7 0 01-2.5-5l15-150.7c-.7.6-.7 1.9-1.3 2.5a5.6 5.6 0 00-.6 3.1l-21.9 150.6-120 94.4c-.6.6-1.2 1.3-1.2 1.9z" fill="#333f47"/></g></svg>