<svg xmlns="http://www.w3.org/2000/svg" xmlns:xlink="http://www.w3.org/1999/xlink" width="512" height="512" viewBox="0 0 512 512"><defs><linearGradient id="a" x1="-0.011" y1="-0.011" x2="0.005" y2="-0.011" gradientUnits="objectBoundingBox"><stop offset="0" stop-color="#fff"/><stop offset="0.1" stop-color="#e7e8e6"/><stop offset="0.1" stop-color="#cdd0d0"/><stop offset="0.2" stop-color="#b5bbbd"/><stop offset="0.2" stop-color="#a5acaf"/><stop offset="0.3" stop-color="#9ba3a7"/><stop offset="0.3" stop-color="#98a0a4"/><stop offset="0.4" stop-color="#828a8f"/><stop offset="0.5" stop-color="#667075"/><stop offset="0.6" stop-color="#535c63"/><stop offset="0.7" stop-color="#475158"/><stop offset="0.8" stop-color="#434d54"/><stop offset="1" stop-color="#475157"/></linearGradient><linearGradient id="b" x1="-0.044" y1="-0.044" x2="-0.027" y2="-0.044" gradientUnits="objectBoundingBox"><stop offset="0" stop-color="#0b1f2a"/><stop offset="0.2" stop-color="#333f47"/><stop offset="0.5" stop-color="#777f84"/><stop offset="0.5" stop-color="#81898d"/><stop offset="0.7" stop-color="#b3b8b8"/><stop offset="0.8" stop-color="#d2d5d3"/><stop offset="0.8" stop-color="#dee0dd"/><stop offset="1" stop-color="#fbfbfb"/></linearGradient><linearGradient id="c" x2="0.016" gradientUnits="objectBoundingBox"><stop offset="0" stop-color="#e1e3e1" stop-opacity="0.4"/><stop offset="0.1" stop-color="#c1c5c4" stop-opacity="0.4"/><stop offset="0.3" stop-color="#9ba1a2" stop-opacity="0.4"/><stop offset="0.5" stop-color="#7d8487" stop-opacity="0.4"/><stop offset="0.7" stop-color="#687074" stop-opacity="0"/><stop offset="0.8" stop-color="#5b6469" stop-opacity="0"/><stop offset="1" stop-color="#576065" stop-opacity="0"/></linearGradient><linearGradient id="d" x1="-0.08" y1="-0.08" x2="-0.062" y2="-0.08" xlink:href="#c"/><linearGradient id="e" x1="-1.32" y1="-2.323" x2="-1.279" y2="-2.323" gradientUnits="objectBoundingBox"><stop offset="0" stop-color="#27343c"/><stop offset="1" stop-color="#00111e" stop-opacity="0"/></linearGradient><linearGradient id="f" x1="-7.714" y1="-0.162" x2="-7.476" y2="-0.162" gradientUnits="objectBoundingBox"><stop offset="0" stop-color="#02131f"/><stop offset="0.1" stop-color="#02131f"/><stop offset="0.9" stop-color="#02131f" stop-opacity="0"/><stop offset="1" stop-color="#02131f" stop-opacity="0"/></linearGradient><linearGradient id="g" x1="-0.297" y1="-2.314" x2="-0.256" y2="-2.314" gradientUnits="objectBoundingBox"><stop offset="0" stop-color="#02131f" stop-opacity="0.8"/><stop offset="0.2" stop-color="#02131f" stop-opacity="0.8"/><stop offset="0.9" stop-color="#02131f" stop-opacity="0"/><stop offset="1" stop-color="#02131f" stop-opacity="0"/></linearGradient><linearGradient id="h" x1="-0.346" y1="-2.407" x2="-0.304" y2="-2.407" gradientUnits="objectBoundingBox"><stop offset="0" stop-color="#02131f" stop-opacity="0.8"/><stop offset="0.1" stop-color="#02131f" stop-opacity="0.8"/><stop offset="1" stop-color="#02131f" stop-opacity="0"/></linearGradient><linearGradient id="i" x1="-6.787" y1="-0.133" x2="-6.574" y2="-0.133" gradientUnits="objectBoundingBox"><stop offset="0" stop-color="#02131f"/><stop offset="0.3" stop-color="#02131f"/><stop offset="0.8" stop-color="#02131f" stop-opacity="0"/><stop offset="1" stop-color="#02131f" stop-opacity="0"/></linearGradient><linearGradient id="j" x1="-6.787" y1="-0.133" x2="-6.574" y2="-0.133" gradientUnits="objectBoundingBox"><stop offset="0" stop-color="#27343c"/><stop offset="0.4" stop-color="#27343c"/><stop offset="1" stop-color="#3b474e" stop-opacity="0"/></linearGradient><linearGradient id="k" x1="-0.031" y1="-0.496" x2="0.013" y2="-0.496" gradientUnits="objectBoundingBox"><stop offset="0" stop-color="#24303a" stop-opacity="0"/><stop offset="0" stop-color="#25323b" stop-opacity="0"/><stop offset="0.1" stop-color="#27343c"/><stop offset="1" stop-color="#27343c"/></linearGradient><linearGradient id="l" x1="-35" y1="-6.867" x2="-33.889" y2="-6.867" gradientUnits="objectBoundingBox"><stop offset="0" stop-color="#a5abaf"/><stop offset="0.3" stop-color="#a5abaf"/><stop offset="1" stop-color="#a5abaf" stop-opacity="0"/></linearGradient><linearGradient id="m" x1="-1.022" y1="-0.038" x2="-0.99" y2="-0.038" gradientUnits="objectBoundingBox"><stop offset="0" stop-color="#dee0dd"/><stop offset="0" stop-color="#c5c9c7"/><stop offset="0" stop-color="#9ea4a5"/><stop offset="0" stop-color="#82898c"/><stop offset="0" stop-color="#71797d"/><stop offset="0" stop-color="#6b7378"/><stop offset="0.2" stop-color="#333f47"/><stop offset="0.5" stop-color="#27343c"/><stop offset="0.8" stop-color="#333f47"/><stop offset="1" stop-color="#434d54"/></linearGradient><linearGradient id="n" x1="-1.326" y1="-0.076" x2="-1.288" y2="-0.076" gradientUnits="objectBoundingBox"><stop offset="0" stop-color="#27343c"/><stop offset="0.7" stop-color="#27343c"/><stop offset="0.7" stop-color="#2b373f"/><stop offset="0.7" stop-color="#36424a"/><stop offset="0.7" stop-color="#49545b"/><stop offset="0.8" stop-color="#646d73" stop-opacity="0"/><stop offset="0.8" stop-color="#868d92" stop-opacity="0"/><stop offset="0.8" stop-color="#b0b5b8" stop-opacity="0"/><stop offset="0.8" stop-color="#e1e3e4" stop-opacity="0"/><stop offset="0.8" stop-color="#fff" stop-opacity="0"/><stop offset="1" stop-color="#fff" stop-opacity="0"/></linearGradient><clipPath id="p"><rect width="512" height="512"/></clipPath></defs><g id="o" clip-path="url(#p)"><g transform="translate(55.582 55.941)"><path d="M392.468,196.843A195.625,195.625,0,1,1,196.843,1.218,195.517,195.517,0,0,1,392.468,196.843ZM196.843,13.093a183.75,183.75,0,1,0,183.75,183.75A183.25,183.25,0,0,0,196.843,13.093Z" transform="translate(3.575 3.216)" fill="url(#a)"/><path d="M188.273,4.523a183.75,183.75,0,1,0,183.75,183.75A183.25,183.25,0,0,0,188.273,4.523Zm0,355.625A171.875,171.875,0,1,1,360.148,188.273,171.778,171.778,0,0,1,188.273,360.148Z" transform="translate(12.145 11.786)" fill="url(#b)"/><path d="M200,395.625A195.625,195.625,0,1,0,4.375,200,195.517,195.517,0,0,0,200,395.625ZM200,0C310,0,400,90,400,200S310,400,200,400,0,310,0,200,90,0,200,0Z" transform="translate(0.418 0.059)" fill="url(#c)"/><path d="M3.827,190.7C3.827,88.2,86.952,3.827,190.077,3.827s186.25,83.75,186.25,186.875c0,102.5-83.125,185.625-186.25,185.625S3.827,293.2,3.827,190.7ZM61.952,61.952C28.827,95.077,8.2,140.7,8.2,190.7A181.439,181.439,0,0,0,61.327,318.827c33.125,32.5,78.75,53.125,128.75,53.125s95.625-20,128.125-53.125c33.125-32.5,53.125-78.125,53.125-128.125S350.7,95.077,318.2,61.952a179.582,179.582,0,0,0-256.25,0Z" transform="translate(10.341 9.982)" fill="#fff"/><path d="M180.154,352.654A172.357,172.357,0,0,1,58.279,58.279a172.357,172.357,0,1,1,243.75,243.75A171.132,171.132,0,0,1,180.154,352.654Zm0-5a166.875,166.875,0,1,0-118.125-285c-31.875,30.625-49.375,73.125-49.375,117.5a167.508,167.508,0,0,0,167.5,167.5Z" transform="translate(20.264 19.905)" fill="url(#d)"/><path d="M318.949,265.013c-3.125-2.5-123.75-98.125-123.75-98.125L167.074,6.263a10.675,10.675,0,0,0-5.625,5l-20,156.25L17.074,263.138s-2.5,3.125-3.75,5c-.625,1.25-.625,3.125-.625,5l153.75-63.125L320.2,273.138c1.25-3.125,0-6.25-1.25-8.125Z" transform="translate(33.344 16.296)" fill="#fff"/><path d="M56.917,57.7l-1.25,28.75,141.25,56.875c5,2.5,8.75,1.25,12.5-1.25l-150.625-85a1.2,1.2,0,0,0-1.875.625Z" transform="translate(144.751 147.362)" fill="#565f64"/><path d="M56.015,57.7s8.125,14.375,17.5,24.375c13.125,14.375,30.625,24.375,30.625,24.375l91.875,36.875c5,2.5,8.75,1.25,12.5-1.25l-150.625-85a1.2,1.2,0,0,0-1.875.625Z" transform="translate(145.653 147.362)" fill="url(#e)"/><path d="M204.733,148.889c0-.625-.625-1.25-1.25-2.5L74.733,52.014l-17.5,11.25s1.25.625,1.875,0a15.641,15.641,0,0,1,9.375,0c3.125,1.25,136.25,86.25,136.25,86.25Z" transform="translate(148.81 134.92)" fill="rgba(164,170,174,0.6)"/><path d="M187.729,145.97l-120-95L62.1,54.72l128.75,95A16.57,16.57,0,0,0,187.729,145.97Z" transform="translate(161.439 132.214)" fill="#333e46"/><path d="M59.243,178.937l-.625.625s0,1.25,1.25.625c.625-.625,18.75-10,25-13.75l-21.875-150c-.625-5.625-3.125-8.125-7.5-10l2.5,173.75Z" transform="translate(144.3 16.747)" fill="#565f64"/><path d="M63.5,14.181v8.125L49.753,160.431a5.684,5.684,0,0,0,2.5,5l8.125,6.25L66,19.181l.625-11.875c-1.875,1.25-2.5,3.75-3.125,6.875Z" transform="translate(129.415 19.002)" fill="rgba(164,170,174,0.6)"/><path d="M151.623,58.264l-7.5-6.25L17.248,143.889s-3.75,2.5-4.375,5l4.375-2.5,133.125-83.75c2.5-1.25,3.125-2.5,1.25-4.375Z" transform="translate(33.795 134.92)" fill="rgba(164,170,174,0.6)"/><path d="M165.2,57.7c0-.625-.625-1.25-1.25-.625L12.7,142.7c3.75,2.5,7.5,3.125,12.5,1.25l141.25-56.875Z" transform="translate(33.344 147.362)" fill="#565f64"/><path d="M56.363,176.4l.625-.625-.625.625a.612.612,0,0,0,.625.625h.625c.625-.625,18.75-10,25-13.75l-2.5-18.125L60.738,13.279q0-3.75-1.875-5.625s9.375,126.25,9.375,140A40.791,40.791,0,0,1,56.363,176.4Z" transform="translate(146.555 19.905)" fill="url(#f)"/><path d="M165.2,57.7c0-.625-.625-1.25-1.25-.625L12.7,142.7c3.75,2.5,7.5,3.125,12.5,1.25l141.25-56.875Z" transform="translate(33.344 147.362)" fill="url(#g)"/><path d="M21.14,141.782,162.39,84.907l-1.25-27.5c-2.5,7.5-6.875,15.625-18.75,21.875-8.75,5-92.5,46.25-122.5,60.625-1.875,1.25-4.375,1.875-5.625,2.5,2.5,1.25,4.375.625,6.875-.625Z" transform="translate(37.403 148.902)" fill="url(#h)"/><path d="M59.243,178.937l-.625.625s0,1.25,1.25.625c.625-.625,18.75-10,25-13.75l-21.875-150c-.625-5.625-3.125-8.125-7.5-10l2.5,173.75Z" transform="translate(144.3 16.747)" fill="url(#i)"/><path d="M59.243,178.937l-.625.625s0,1.25,1.25.625c.625-.625,18.75-10,25-13.75l-21.875-150c-.625-5.625-3.125-8.125-7.5-10l2.5,173.75Z" transform="translate(144.3 16.747)" fill="url(#j)"/><path d="M28.718,187.292c-4.375-10-29.375-58.75-1.875-152.5H16.218c-5.625,18.75-10,30-12.5,46.875,0,0-1.25,6.25-1.875,13.125a142.181,142.181,0,0,0-.625,15c0,37.5,9.375,59.375,9.375,59.375,10,31.25,27.5,59.375,51.25,80.625,20.625,18.125,52.5,31.875,78.75,36.875-4.375-.625-79.375-32.5-111.875-99.375Z" transform="translate(3.575 90.267)" fill="url(#k)"/><path d="M60.422,56.9H54.8c.625,0,1.25,0,1.25.625l1.25,28.75h.625l1.25-28.75c0-.625.625-1.25,1.25-.625Z" transform="translate(142.495 146.911)" fill="url(#l)"/><path d="M118.167,4c65.625,25,127.5,93.75,127.5,180.625,0,105-83.75,190.625-190,190.625v10c106.25,0,195.625-87.5,195.625-195.625,0-86.25-55-158.75-133.125-185.625Z" transform="translate(144.751 10.433)" fill="url(#m)"/><path d="M57.542,1.218h0Z" transform="translate(144.751 3.216)" fill="#fff"/><path d="M209.636,112.268C165.886,11.643,67.136,6.018,61.511,5.393h-.625c75.625,13.75,123.75,63.125,140.625,115v.625c7.5,20,11.25,41.25,11.875,64.375.625,21.875-4.375,46.25-13.75,68.75-.625,3.125-1.25,6.875-1.875,6.875h10C237.761,204.768,224.636,147.893,209.636,112.268Z" transform="translate(158.282 14.041)" fill="url(#n)"/><path d="M3.827,190.7C3.827,88.2,86.952,3.827,190.077,3.827s186.25,83.75,186.25,186.875c0,102.5-83.125,185.625-186.25,185.625S3.827,293.2,3.827,190.7ZM61.952,61.952C28.827,95.077,8.2,140.7,8.2,190.7A181.439,181.439,0,0,0,61.327,318.827c33.125,32.5,78.75,53.125,128.75,53.125s95.625-20,128.125-53.125c33.125-32.5,53.125-78.125,53.125-128.125S350.7,95.077,318.2,61.952a179.582,179.582,0,0,0-256.25,0Z" transform="translate(10.341 9.982)" fill="#fbfbfb"/><path d="M13.743,260.154l127.5-91.875c6.875,3.75,18.125,8.75,19.375,8.75,1.25.625,1.25-.625,1.25-.625l-15.625-13.125a5.684,5.684,0,0,1-2.5-5l15-150.625c-.625.625-.625,1.875-1.25,2.5a5.634,5.634,0,0,0-.625,3.125L134.993,163.9l-120,94.375c-.625.625-1.25,1.25-1.25,1.875Z" transform="translate(36.05 19.905)" fill="#333f47"/></g></g></svg>