<svg xmlns="http://www.w3.org/2000/svg" xmlns:xlink="http://www.w3.org/1999/xlink" width="512" height="512" viewBox="0 0 512 512"><defs><clipPath id="a"><rect width="512" height="512"/></clipPath></defs><g id="b" clip-path="url(#a)"><g transform="translate(55.492 -3.228)"><g transform="translate(74.719 93.612)"><path d="M164.422,92.807c0-35.5-29.239-63.907-65.16-63.907H19.9V157.968a23.875,23.875,0,0,1,3.342,2.924c9.189,10.025,9.607,26.732,1.671,37.175a72.718,72.718,0,0,1-5.012,5.848V228.14a8.737,8.737,0,0,0,2.506-1.671c.418-.418,1.253-.835,1.671-1.253s1.671-1.253,5.848-4.595c7.936-6.265,17.543-13.784,28.4-16.29,3.342-.835,5.012-1.253,7.1-1.253V65.239H88.82c17.125,0,30.074,12.531,30.074,28.4s-13.784,28.4-30.909,28.4H77.124V173.84l12.949,20.049c1.253-1.253,2.506-2.088,3.759-3.342l.418-.418.418-.418c10.025-8.354,20.885-12.113,34.251-12.113l.835-.835-15.872-22.555c29.239-6.265,50.541-31.327,50.541-61.4" transform="translate(-19.9 -28.9)"/><path d="M132.332,28.9H58.4V151.7l3.759-2.506a81.92,81.92,0,0,1,8.772-5.012l.418-.418.418-.418a45.778,45.778,0,0,1,18.8-3.759,47.7,47.7,0,0,1,13.784,2.088v-75.6h28.821c12.531,0,22.973,11.7,22.973,24.226a23.177,23.177,0,0,1-22.973,22.973H118.13v35.086l3.759,2.506.418.418,1.253.835H145.7c15.455,0,27.15,12.531,27.15,27.986a26.716,26.716,0,0,1-3.759,14.2c6.265,7.936,14.619,17.961,19.214,25.9v.418a56.078,56.078,0,0,1,5.012,12.531c15.872-11.278,26.315-29.239,26.315-49.288,0-24.644-8.772-42.187-38.01-55.971,11.7-10.86,19.214-25.9,19.214-42.187a57.6,57.6,0,0,0-15.455-38.846c-10.025-11.7-28.4-17.961-53.047-17.961" transform="translate(102.412 -28.9)"/></g><g transform="translate(0.331 215.579)"><path d="M58.139,104.441a45.553,45.553,0,0,1,2.506,4.595c1.253,2.924,2.506,5.012,3.759,5.43.418,0,1.253.418,1.671.418,2.924,0,6.683-1.671,9.607-3.759,1.671-1.253,1.253-2.088.418-3.342-.418-.418-.418-.835-.835-1.253a20.36,20.36,0,0,1-1.671-4.595c-.835-2.924-1.671-5.012-4.595-4.595a126.493,126.493,0,0,1-12.949.835s-1.671,0-2.088.835c-.418,1.253.835,2.088,2.088,3.342l2.088,2.089" transform="translate(162.441 66.396)"/><path d="M11.736,102.4h-.418c-2.506.835-5.43,4.177-5.43,5.848-.418,8.354-.835,9.189-2.924,11.7-.835.835-1.253,2.506-.418,2.924a64.931,64.931,0,0,0,9.607,3.342h0c.835-.418,1.253-2.088,2.924-7.936.835-2.924,2.088-6.683,2.924-9.607,0,0,0-.418-.835-1.671-.418-.835-3.759-4.595-5.43-4.595" transform="translate(-2.091 82.639)"/><path d="M388.708,229.772l-5.012-2.506c-5.848-3.342-9.189-9.189-12.531-14.619-1.253-2.088-2.506-4.595-4.177-6.265a19.691,19.691,0,0,0-4.177-4.177c-.835-1.253-2.088-2.506-2.088-2.924-5.43-14.619-11.278-32.162-12.531-51.376-.418-2.924-2.088-9.607-4.595-13.784-7.518-12.531-25.9-33.833-27.15-35.086l-2.088-2.088-.418-.418-33-27.568c-6.683-4.595-8.772-5.43-13.366-7.1a27.428,27.428,0,0,0-10.442-1.671,36.18,36.18,0,0,0-13.366,2.506,72.657,72.657,0,0,0-7.518,4.595c-4.177,2.506-8.772,5.43-13.366,7.1a96.382,96.382,0,0,1-11.7,4.177c-7.518,2.506-15.455,4.595-21.3,10.442-1.671,1.671-3.342,2.924-4.595,4.177-5.848,5.43-6.265,5.848-10.86,5.848-10.86,0-18.379,2.506-26.315,9.189-6.265,5.848-12.531,10.86-19.632,13.784a41.779,41.779,0,0,1-10.86,2.088c-5.848.418-6.683.418-11.7,1.671-7.936,1.671-16.29,8.354-23.391,13.784-2.506,1.671-5.43,4.177-6.683,5.012-.835.418-1.671,1.253-2.506,1.671-8.772,5.012-17.125,10.025-27.568,10.025h-.835A19.815,19.815,0,0,1,27.4,142.892c-2.088-7.936,0-16.29,6.683-22.973,2.924-2.924,6.683-5.848,10.025-8.772,5.43-4.595,10.442-8.772,14.2-13.784,4.177-5.43,3.759-15.037-.835-20.049S42.439,69.8,38.68,68.96h-.835c-.418,0-1.253,0-1.253-.418-2.506-.418-5.012-.835-7.1-1.253-6.265-1.671-10.86-6.265-16.29-9.189-2.924,2.924-3.342,6.265-3.342,10.025,1.253,8.354,7.936,16.708,15.455,20.049a1.458,1.458,0,0,1,.835.418,23.169,23.169,0,0,0,7.1,1.253h3.342a20.336,20.336,0,0,1,5.012.418,4.491,4.491,0,0,1,3.342,3.759,3.153,3.153,0,0,1-1.671,2.924c-1.253,1.253-2.506,2.088-3.759,3.342-6.683,5.43-13.366,10.86-18.8,17.543-7.518,7.936-7.518,21.72-4.177,30.492,4.177,11.7,16.29,18.379,26.315,19.632a23.817,23.817,0,0,0,5.43.418,58.911,58.911,0,0,0,17.125-2.924h.418c.418,0,.835,0,.835,1.253,0,2.506.418,5.012.418,7.936a52.326,52.326,0,0,0,.835,10.025,95.808,95.808,0,0,0,3.759,11.7,9.98,9.98,0,0,0,1.253,2.924c.418,1.671,0,3.759-1.253,4.595-4.177,3.759-12.531,6.683-14.2,7.1a42.959,42.959,0,0,1-7.1.418H48.287a3.61,3.61,0,0,0-2.506,1.253C44.528,213.9,43.275,217.242,41.6,221a32.333,32.333,0,0,1-2.924,6.683c-2.506,4.177-7.1,7.1-11.278,9.607-1.253.418-2.088,1.253-3.342,1.671h0a26.013,26.013,0,0,1-5.848,7.519c-1.671,1.671-4.177,2.088-6.265,2.088h0c-3.342,3.759-4.595,8.772-5.43,13.784a18.091,18.091,0,0,1-.418,2.088v.835h.418a28.748,28.748,0,0,1,5.43.835c2.506.418,5.012,1.253,7.518,1.253a10.066,10.066,0,0,0,6.265-1.671c3.342-1.671,5.012-4.595,6.683-7.1,1.253-1.671,2.088-3.759,3.759-5.43a4.743,4.743,0,0,1,3.342-1.253,12.2,12.2,0,0,1,3.759.835,12.2,12.2,0,0,0,3.759.835c5.848.418,11.278-3.342,14.2-5.43a12.712,12.712,0,0,0,3.342-3.342,52.906,52.906,0,0,1,5.43-4.595,19.373,19.373,0,0,1,8.772-1.671,60.812,60.812,0,0,1,12.949,1.671,32.244,32.244,0,0,0,6.265.835,17.3,17.3,0,0,0,9.607-2.506c3.342-1.671,6.683-3.759,9.189-5.012a38.648,38.648,0,0,1,4.177-2.089c4.595-2.506,8.772-9.607,10.025-12.531l3.759-8.772v-.418l-5.43-4.177-.418.418s-3.759,5.848-5.848,8.772c-9.607,13.366-25.479,15.037-38.01,15.037H82.538c-15.872,0-28.4,5.43-37.592,15.455a1.27,1.27,0,0,1-1.671,0c0-.418-.418-.835,0-1.253l.835-2.506c10.025-13.784,26.732-15.872,40.1-16.29,10.025-.835,17.125-2.506,23.391-5.43,7.936-4.177,14.2-13.366,16.29-20.467a56.772,56.772,0,0,0,2.924-14.619,114.486,114.486,0,0,1,2.088-11.7c0-.418.835-.835,1.253-.835h.418c.418,0,1.671.418,1.671,1.253-1.253,7.518-3.342,17.961.418,26.732,1.671,3.342,5.012,5.012,10.442,5.012a44.6,44.6,0,0,0,10.442-1.253,58.69,58.69,0,0,1,7.519-.835h2.924a64.565,64.565,0,0,1,12.949,1.671,48.963,48.963,0,0,0,11.278,1.671H190.3c1.253,0,2.506.418,4.177.418a11.06,11.06,0,0,0,7.1-2.088c1.253-.835.835-2.506.418-4.177v-.418c0-.418,0-.835-.418-.835-.835-2.506-1.671-5.848,0-7.519a1.458,1.458,0,0,0,.835-.418c.418,0,.835,0,.835.418,0,.835.418,1.253.418,2.089a29.165,29.165,0,0,0,3.342,8.354c3.759,5.012,10.025,9.607,17.125,13.366,4.595,3.342,10.442,8.772,10.86,16.708,0,3.342-3.342,5.848-5.848,7.518-4.177,2.088-10.025,4.595-14.2,4.177a8.3,8.3,0,0,1-4.595-1.671c-3.759-3.759-3.342-4.595-5.848-9.189a63.731,63.731,0,0,0-4.595-6.683,11.019,11.019,0,0,0-9.607-3.342c-3.759.418-7.518,1.253-12.113,2.088a2.775,2.775,0,0,0-2.088,1.671,2.573,2.573,0,0,0,.418,2.924c2.088,4.177,4.595,7.518,6.683,11.7l.835,1.671a2.977,2.977,0,0,0,2.506,1.253H190.3c2.088,0,3.342.418,4.177,1.671s1.253,2.089,2.088,3.342c1.671,2.924,2.924,5.43,5.848,7.519a14.6,14.6,0,0,0,9.189,3.342,17.765,17.765,0,0,0,4.595-.835c10.442-3.342,20.467-6.683,30.074-11.7h5.43c3.342-.418,6.683-.418,9.189-2.924,2.924-4.595,5.848-8.772,7.936-13.784,2.088-4.177,2.088-8.354,0-11.7-6.265-9.607-7.1-12.531-9.607-19.214h0c-.835-.418-1.253-.418-2.088-.835-1.671-.418-2.924-1.253-5.012-1.253H251.7a4.609,4.609,0,0,0-4.177,2.089h0l11.278,21.72a8.738,8.738,0,0,1,1.253,5.848c-.418,2.506-5.848,11.278-7.518,12.113a1.294,1.294,0,0,1-.835.418s-.835,0-.418-1.253c.835-3.342,2.506-12.113,2.088-14.619-.418-2.924-9.607-18.379-10.025-19.214v-.418c-1.253-2.506-2.924-4.595-2.924-7.518,0-1.253,1.253-2.088,2.088-2.506l5.012-1.253c3.759-.835,7.936-1.671,9.607-4.177,4.595-6.683,7.1-13.784,8.772-23.391,0-.418.418-1.253.835-1.253s.835,0,.835.835a34.459,34.459,0,0,1-6.265,26.732,3.13,3.13,0,0,0-.418,2.089,1.545,1.545,0,0,0,.835,1.253c2.088,1.253,10.025.418,15.455-2.506,4.177,0,8.354-.835,12.113-1.253,1.253-.418,2.506-.418,3.759-.835.418.418.835.418.835.835a24.934,24.934,0,0,0-6.265,13.366,19.3,19.3,0,0,0-2.924,2.924c-3.759,3.342-7.519,7.1-7.519,11.7a1.636,1.636,0,0,0,1.671,1.671c.418,0,1.253-.418,1.671-.418a3.765,3.765,0,0,1,2.088-.418q.627,0,1.253,1.253l-4.177,5.848c-1.671,2.506-.835,5.012-.418,7.936.418,1.253.418,2.506.835,3.759.835,2.924,4.595,4.595,7.519,4.595a56.7,56.7,0,0,0,15.037-3.759c.835-.418,1.671-.418,2.506-.835,5.012-2.089,12.113-2.506,20.467-1.253,6.683-.418,11.7-4.595,16.29-9.189q3.133,0,6.265,3.759c7.1,7.519,15.872,11.278,26.732,11.278h2.506c1.253-.418,1.253-.835,1.671-1.671a2.132,2.132,0,0,0-1.671-2.089l-6.265-3.342c-5.012-2.924-10.025-6.683-11.7-11.7-1.671-5.43-4.595-10.442-6.683-14.2-.418-.835-.835-1.253-1.253-2.089l-2.506-3.759h0c6.683,2.506,10.442,7.518,15.037,15.455,3.341,6.265,12.113,12.531,20.467,12.531a9.2,9.2,0,0,0,3.342-.418,1.8,1.8,0,0,0,1.671-1.671c.418,0,0-.835-.835-1.253M270.083,131.2c0,.835-.418,1.253-.835,1.253a.818.818,0,0,1-.835-.835c-1.671-8.772-2.924-13.366-4.595-17.125a23.321,23.321,0,0,0-2.088-3.342c-1.671-2.088-2.924-3.759-1.253-6.265a2.977,2.977,0,0,1,2.506-1.253,2.511,2.511,0,0,1,1.671.418q2.506,1.253,5.012,6.265c3.759,8.772.418,20.885.418,20.885m55.553,88.134a12.3,12.3,0,0,1-1.253,3.759c-1.253.835-5.848,1.671-7.936,1.671s-2.924-.418-3.342-1.253.418-2.088.418-2.088c.418-.418,2.924-5.848,7.936-7.518a7.76,7.76,0,0,1,3.341,0c1.671.835.835,5.012.835,5.43m15.037-34.669c-.418,2.088-.835,2.924-1.253,3.342s-.835,1.671-2.088,1.671c-1.671,0-1.671-2.088-1.671-2.088s0-5.43-1.253-7.519c-1.253-2.506-6.683-9.607-9.607-9.189-.835,0-2.924,1.253-4.595,3.342-1.671,2.506-1.671,2.506-2.506,2.924-.418.418-1.253,0-1.671-1.253s-.418-2.506,0-5.43a37.292,37.292,0,0,1,2.089-5.43s1.671-3.759,2.088-4.595a4.951,4.951,0,0,1,3.759-2.506c.418,0,2.506-.418,4.595,2.506,2.506,2.924,2.088,2.924,2.506,3.759a20.134,20.134,0,0,0,3.342,4.177,24.626,24.626,0,0,1,5.012,9.189,9.3,9.3,0,0,1,1.253,7.1" transform="translate(10.645 -58.1)"/><path d="M8.724,114.2a4.774,4.774,0,0,0,2.924,1.253,5.937,5.937,0,0,0,2.506-.835c4.595-2.506,9.189-10.86,9.607-11.278.418-1.253-1.253-2.506-2.924-4.177h-.418c-.835-.835-2.506-.418-3.342,0s-1.253.835-2.088,1.253a84.706,84.706,0,0,0-7.518,5.43A8.4,8.4,0,0,0,5.8,109.191a3.13,3.13,0,0,0,.418,2.088c.418.418,2.088,2.506,2.506,2.924" transform="translate(9.692 70.835)"/></g></g></g></svg>