<svg xmlns="http://www.w3.org/2000/svg" xmlns:xlink="http://www.w3.org/1999/xlink" width="512" height="512" viewBox="0 0 512 512"><defs><clipPath id="b"><rect width="512" height="512"/></clipPath></defs><g id="a" clip-path="url(#b)"><g transform="translate(-129.061 118.284)"><g transform="translate(160.061 52.4)"><path d="M365.533,137.716A85.316,85.316,0,1,1,280.216,52.4a85.316,85.316,0,0,1,85.316,85.316" transform="translate(-54.697 -52.4)" fill="#fbd600"/><g transform="translate(0 30.183)"><path d="M436.932,170.667h0c0-.4-.4-.4-.4-.8a3.042,3.042,0,0,0-.4-1.61h0a14.3,14.3,0,0,0-.8-4.024,6.85,6.85,0,0,0-5.232-4.024,3.074,3.074,0,0,0-.8-2.012,17.038,17.038,0,0,0-5.232-4.427c-.4-.4-.8-.8-1.207-.8l-.4-.4a6.491,6.491,0,0,0-3.622-1.207,7.642,7.642,0,0,0-6.036,3.22,7.461,7.461,0,0,1-.8-2.817,12.441,12.441,0,0,1-.8-3.22h0v-.4c-.4-1.61-2.012-5.232-6.037-6.037-1.207,0-2.415-.4-3.219-.4a15.226,15.226,0,0,1-3.219-.4,1.246,1.246,0,0,1,.4-.8,5.72,5.72,0,0,0,.8-2.415c.8-2.817,1.61-6.841.8-10.463.8,0,2.012.4,3.219.4A29.854,29.854,0,0,0,413.994,126h0c6.036-2.817,12.073-9.658,11.671-18.11v-.4c-.8-7.244-4.829-14.085-12.476-20.927a18.972,18.972,0,0,0,6.037-2.415c5.634-3.622,8.049-10.463,6.439-18.11v-.4a5.016,5.016,0,0,0-4.829-4.427,4.57,4.57,0,0,0-3.219,1.207l-.4.4-1.207,1.207a13.577,13.577,0,0,1-4.829,1.61c-1.207.4-2.817.8-4.427,1.207-6.841,2.415-11.268,6.037-12.878,10.866-1.207,2.817-.4,6.439,1.207,10.061v.4a38.3,38.3,0,0,0,7.646,8.451c3.622,3.622,7.244,6.841,8.049,10.866,0,.8.4,2.012-2.012,4.024a9.611,9.611,0,0,1-3.622.8,18.942,18.942,0,0,1-6.439-1.61h0c-2.817-1.61-6.037-3.622-8.854-5.634-4.829-3.22-9.658-6.439-15.293-8.451a29.519,29.519,0,0,0-8.049-2.012c-3.219-.8-6.036-1.207-8.049-2.817l-.4-.4a12.231,12.231,0,0,1-2.817-2.012c-2.817-2.012-6.037-4.427-9.658-5.232a17.71,17.71,0,0,0-4.024-.8c-1.61-.4-2.415-.4-2.817-.8-.8-.4-1.207-.8-2.012-1.207h0a55.279,55.279,0,0,0-8.049-5.232c-4.829-2.415-9.658-3.622-14.89-4.829-.4,0-.8-.8-1.61-1.61a23.852,23.852,0,0,0-3.22-3.219c-4.024-3.219-8.451-6.037-14.488-6.037h-1.61c-3.622.4-6.841,2.817-8.854,4.427-4.427,4.024-9.256,7.244-14.085,10.866-7.244,5.232-14.89,10.866-21.329,18.11-6.841,7.244-9.256,16.1-11.671,23.744a11.751,11.751,0,0,0-.8,3.622c-.4,2.012-1.207,4.427-1.61,6.439-2.817,10.866-5.232,21.329-15.293,27.768A5.737,5.737,0,0,0,216.8,160.2a6.231,6.231,0,0,0,3.22,4.427,8.658,8.658,0,0,0,4.024.8,3.654,3.654,0,0,0,1.207,2.817,5.741,5.741,0,0,0,4.427,2.012h0c6.841,0,12.073-4.024,16.1-8.049,1.61,1.207,3.622,2.817,6.037,3.22h1.61a20.174,20.174,0,0,1,6.841-.4c2.012.8,4.024,1.61,6.439,2.415,1.61.4,3.219,1.207,4.829,1.61l.8.4h.8c4.427,0,7.244-4.024,8.049-5.634v-.8c0-.4.4-.8.4-1.207h0l.4.8a15.88,15.88,0,0,0,2.415,6.037,6.489,6.489,0,0,0,5.232,2.415h2.415l.4.4a11.489,11.489,0,0,0,4.024,2.817,29.643,29.643,0,0,0,5.634,1.61,43.974,43.974,0,0,1,6.841,2.012h.4c1.61.4,3.622,1.207,5.232,1.207a10.377,10.377,0,0,0,6.439-2.415,11.465,11.465,0,0,0,4.024-6.439,1.479,1.479,0,0,0,1.207-.4c3.219-1.207,6.036-6.841,6.036-6.841.4-.4.4-.8.8-1.207a6.491,6.491,0,0,0,1.207-3.622,6.009,6.009,0,0,0-5.232-5.634h-8.049a3.628,3.628,0,0,0-2.012.4h0c-.4-.4-.8-1.61-1.61-2.012h5.232c3.622,0,7.244-.8,10.463-1.207a62.313,62.313,0,0,1,8.854-.4h.8a15.1,15.1,0,0,1,4.024.4c1.207,0,2.817.4,4.427.4h1.61a17.117,17.117,0,0,0,4.427-.8c0,.8.4,1.61.4,2.817l.4.8c.8,3.219,2.012,8.049,7.646,12.073l.8.4c2.817,1.61,4.427,2.817,8.451,3.622h4.427c5.232-1.207,10.866.4,15.293,3.622l.4.4,1.207,1.207a34.8,34.8,0,0,0,4.024,2.817,11.75,11.75,0,0,0,3.622.8h0a10.225,10.225,0,0,0,4.829-1.207h0c0,.4.4.4.4.8a22.114,22.114,0,0,0,2.817,3.622,10.687,10.687,0,0,0,7.646,2.817h5.232c.8,0,1.207,0,1.207-.4a4.958,4.958,0,0,0,2.817.8h1.207l4.829-1.61a7.158,7.158,0,0,0,3.219-2.817c.8-5.634,0-7.646-1.207-9.256ZM283.6,146.521l-.4-.4c0-.4-.4-.4-.4-.8a23.081,23.081,0,0,1-1.61-2.817c1.61,0,2.817.4,4.427.4Z" transform="translate(11.536 -58.388)" fill="#fbd600"/><path d="M382.764,154.472l-2.415-1.207c-2.012-1.207-3.622-3.622-5.232-6.439L372.7,143.2a18.594,18.594,0,0,0-2.817-2.817l-.4-.4c-2.817-7.646-5.634-16.5-6.439-25.756,0-2.415-1.61-6.439-3.219-9.256h0c-4.427-7.244-14.488-18.914-15.293-19.719l-1.207-1.207-.4-.4-18.11-14.89-.4-.4a27.3,27.3,0,0,0-8.049-4.427c-4.829-1.61-11.268-1.61-15.695.4h-.4a16.619,16.619,0,0,0-4.427,2.817c-2.012,1.207-4.024,2.817-6.439,3.219h-.8a23.268,23.268,0,0,1-5.634,2.012c-4.427,1.207-9.256,2.817-13.28,6.439l-2.415,2.415c-.8.8-2.012,1.61-2.415,2.012h-.8c-6.841,0-11.671,1.61-16.9,6.037h0c-3.219,2.817-6.036,5.232-9.256,6.439a15.01,15.01,0,0,1-4.829.8h0a30.5,30.5,0,0,0-6.439,1.207c-5.232,1.207-10.061,5.232-14.085,8.049-1.61,1.207-2.817,2.415-3.219,2.415-.4.4-.8.4-1.207.8-4.427,2.415-8.049,4.829-12.878,4.829h-.4c-2.415-.4-4.829-2.012-5.634-4.024-.8-2.817,0-5.634,2.415-8.049a27.707,27.707,0,0,1,5.232-4.427c3.219-2.817,6.036-5.232,8.049-8.049,3.622-4.427,3.219-11.671-.8-16.1-2.817-3.219-8.049-4.829-12.073-6.037H190.4a1.478,1.478,0,0,1-1.207-.4c-.8,0-1.61-.4-2.415-.4a12.089,12.089,0,0,1-4.427-2.415l-3.622-2.415-3.22-1.61L173.5,63.119a12.128,12.128,0,0,0-2.012,8.451v.4a19.3,19.3,0,0,0,10.866,14.085h0a.394.394,0,0,1,.4.4,11.75,11.75,0,0,0,3.622.8,55.92,55.92,0,0,0-8.451,8.451c-5.232,5.634-5.232,14.488-3.219,20.524,2.817,8.049,10.866,12.475,17.707,13.28,1.207,0,2.415.4,3.622.4a31.067,31.067,0,0,0,6.037-.8h0c0,2.817.4,4.829.4,6.037a38.244,38.244,0,0,0,2.415,7.244h0c-1.61.8-3.622,2.012-4.427,2.012-1.207,0-2.415.4-3.22.4h-1.61a5.993,5.993,0,0,0-3.622,1.61c-1.207,1.207-2.012,3.219-3.219,6.037a27.726,27.726,0,0,1-1.207,3.219c-.4.4-.8,1.207-1.207,1.61a9.3,9.3,0,0,0-2.817-2.817h0a5.45,5.45,0,0,0-6.841,0c-.4.4-.8.4-.8.8h-.4c-1.207.8-2.817,2.012-4.427,3.219-1.207.8-1.61,2.012-2.012,3.622a1.478,1.478,0,0,0-1.207.4c-2.415,1.207-5.232,4.024-5.634,6.841,0,1.207-.4,2.817-.4,3.622l-.4.4c-1.61,2.012-2.012,5.232,0,7.244,1.61,1.61,6.841,2.817,8.049,2.817h1.61a1.405,1.405,0,0,0,.8-.4h1.207c.8,0,1.61.4,2.415.4a20.2,20.2,0,0,0,4.829.8,11.14,11.14,0,0,0,5.232-1.207c2.817-1.207,4.024-3.622,5.232-5.634.4-.4.4-1.207.8-1.61h.4a5.968,5.968,0,0,0,2.817.4c4.427.4,8.451-2.415,10.463-4.024.8-.8,1.61-1.207,2.012-2.012.8-.8,1.61-1.207,2.012-2.012a5.967,5.967,0,0,1,2.817-.4,31.066,31.066,0,0,1,6.036.8,17.662,17.662,0,0,0,11.268-1.207,51.323,51.323,0,0,0,4.829-2.817h.4a8.8,8.8,0,0,0,2.012-1.207c3.219-1.61,5.634-5.634,7.244-8.451.8-1.61,2.012-4.024,2.012-4.829h.8a35.223,35.223,0,0,0,6.439-.8,12.415,12.415,0,0,1,3.622-.4h1.207c2.012,0,4.829.4,6.841.4,1.61,0,2.817.4,5.232.4H273.7a13.439,13.439,0,0,0,6.036-1.207c.4.4,1.207,1.61,1.61,2.012h-.4a7.15,7.15,0,0,0-4.024,1.61c-1.207-.8-3.622-.8-5.634-.4a20.44,20.44,0,0,0-6.841,1.207,5.817,5.817,0,0,0-4.024,2.817,4.949,4.949,0,0,0,.4,5.232c1.207,2.012,2.415,4.024,3.622,6.439l.4.8a5.441,5.441,0,0,0,4.829,2.415h1.207a.394.394,0,0,0,.4.4,15.251,15.251,0,0,0,4.024,5.232,12.7,12.7,0,0,0,7.646,2.817,11.142,11.142,0,0,0,3.622-.4,110.257,110.257,0,0,0,16.1-6.037h2.415a10.687,10.687,0,0,0,7.646-2.817l.4-.4v-.4c.8-1.207,2.012-2.817,2.817-4.024v.4h0c1.207,3.622,4.829,5.232,8.049,5.232h0c3.622,0,6.439-1.207,9.256-2.415h0c.4,0,.8-.4,1.207-.4h.4a15.637,15.637,0,0,1,8.854-.4h.8a17.693,17.693,0,0,0,9.256-4.024,22.782,22.782,0,0,0,17.3,7.244h2.415c2.415-.4,3.622-2.415,4.024-4.427v-1.207a1.478,1.478,0,0,0,1.207-.4,5.156,5.156,0,0,0,4.024-4.427c2.817-2.817,2.012-4.829,0-5.634ZM322.4,142.8a1.405,1.405,0,0,1-.8.4,36.284,36.284,0,0,0-3.622,4.024,23.72,23.72,0,0,1-1.61-3.219,19.923,19.923,0,0,0,5.232-1.61c.8.4.8,0,.8.4Z" transform="translate(-160.061 -59.9)" fill="#fbd600"/></g><g transform="translate(5.085 33.805)"><path d="M166.456,162.214h0c-1.61.4-3.219,2.415-3.219,3.22-.4,4.427-.4,4.829-1.61,6.439a1.224,1.224,0,0,0,0,1.61,26.029,26.029,0,0,0,5.232,1.61h0c.4,0,.8-1.207,1.61-4.024.4-1.61,1.207-3.622,1.61-5.232a1.246,1.246,0,0,0-.4-.8c-.8-.8-2.012-2.817-3.22-2.817Zm5.232,0a2.091,2.091,0,0,0,1.61.8,1.478,1.478,0,0,0,1.207-.4c2.415-1.207,4.829-5.634,5.232-6.037.4-.8-.4-1.61-1.61-2.415h0a1.8,1.8,0,0,0-2.012,0c-.4.4-.8.4-1.207.8-1.207.8-2.415,1.61-4.024,2.817a3.074,3.074,0,0,0-.8,2.012,1.478,1.478,0,0,0,.4,1.207s.8,1.207,1.207,1.207Zm205.242-6.841a10.471,10.471,0,0,0-2.817-1.207,18.9,18.9,0,0,1-6.841-8.049,16.313,16.313,0,0,1-2.012-3.622,10.671,10.671,0,0,0-2.012-2.415c-.8-.4-1.207-1.207-1.61-1.61-2.817-8.049-6.036-17.3-6.841-27.768a19.176,19.176,0,0,0-2.415-7.244c-4.024-6.841-14.085-18.11-14.488-18.914l-1.207-1.207-.4-.4-17.707-14.89a47.814,47.814,0,0,0-7.244-4.024,23.752,23.752,0,0,0-5.634-.8,21.048,21.048,0,0,0-7.244,1.207,35.4,35.4,0,0,0-4.024,2.415,30.472,30.472,0,0,1-7.244,3.622,35.415,35.415,0,0,1-6.037,2.012c-4.024,1.207-8.049,2.415-11.671,5.634l-2.415,2.415c-3.22,2.817-3.22,3.22-6.037,3.22a21.374,21.374,0,0,0-14.085,4.829c-3.219,3.219-6.841,6.037-10.866,7.244-1.61.8-3.622.8-5.634,1.207-2.817.4-3.219.4-6.037.8-4.427.8-8.854,4.427-12.476,7.244-1.207.8-2.817,2.415-3.622,2.817-.4.4-.8.4-1.207.8-4.829,2.817-9.256,5.232-14.89,5.232h-.4a10.425,10.425,0,0,1-9.256-7.244c-1.207-4.427,0-8.854,3.622-12.475,1.61-1.61,3.622-3.219,5.232-4.829a66.789,66.789,0,0,0,7.646-7.244c2.415-2.817,2.012-8.049-.4-10.866s-8.049-4.024-10.061-4.427h-1.207c-1.207-.4-2.415-.4-4.024-.8-3.22-.8-6.037-3.622-8.854-5.232a6.984,6.984,0,0,0-1.207,5.634c.4,4.427,4.427,8.854,8.451,10.866a.394.394,0,0,1,.4.4,14.3,14.3,0,0,0,4.024.8h1.61a5.1,5.1,0,0,1,2.415.4c.8.4,1.61.8,1.61,2.012a1.607,1.607,0,0,1-.8,1.61c-.8.4-1.207,1.207-2.012,1.61A57.184,57.184,0,0,0,178.932,93.8c-4.024,4.427-4.024,11.671-2.415,16.5,2.415,6.439,8.854,10.061,14.488,10.463.8,0,2.012.4,2.817.4a37.246,37.246,0,0,0,9.256-1.61h.4s.4,0,.4.8a18.045,18.045,0,0,0,.4,4.427c0,2.415.4,4.427.4,5.634.4,2.012,1.61,4.427,2.012,6.439a3.042,3.042,0,0,1,.4,1.61,1.935,1.935,0,0,1-.8,2.415,20.467,20.467,0,0,1-7.646,3.622c-1.207,0-2.817.4-3.622.4h-1.207c-.4,0-.8.4-1.207.4-.8.8-1.207,2.415-2.012,4.427a14.3,14.3,0,0,1-1.61,3.622c-1.61,2.415-3.622,3.622-6.036,5.232-.4.4-1.207.8-1.61,1.207h0a15.757,15.757,0,0,1-3.22,4.024,4.569,4.569,0,0,1-3.219,1.207h0a15.935,15.935,0,0,0-2.817,7.646,1.478,1.478,0,0,1-.4,1.207v.4h.4c.8,0,2.012.4,2.817.4a13.691,13.691,0,0,0,4.024.4,7.581,7.581,0,0,0,3.219-.8,8.809,8.809,0,0,0,3.622-4.024,12.23,12.23,0,0,1,2.012-2.817,3.074,3.074,0,0,1,2.012-.8,3.628,3.628,0,0,1,2.012.4c.8,0,1.207.4,2.012.4,3.219,0,6.036-2.012,7.646-2.817.8-.4,1.207-1.207,2.012-1.61A15.034,15.034,0,0,1,206.3,160.6c1.207-.8,2.817-.8,4.829-.8a35.445,35.445,0,0,1,6.841.8,8.86,8.86,0,0,0,3.219.4,11.14,11.14,0,0,0,5.232-1.207,51.316,51.316,0,0,0,4.829-2.817,8.8,8.8,0,0,0,2.012-1.207c2.415-1.207,4.829-5.232,5.634-6.841s2.012-4.829,2.012-4.829h0l-2.817-2.415v.4s-2.012,3.219-3.219,4.829c-5.232,7.244-13.683,8.049-20.524,8.049h-1.61c-8.451,0-15.293,2.817-20.122,8.451-.4.4-.8.4-.8,0v-.8a1.478,1.478,0,0,1,.4-1.207c5.232-7.646,14.488-8.451,21.732-8.854,5.232-.4,9.256-1.207,12.878-3.219a20.642,20.642,0,0,0,8.854-10.866,47.477,47.477,0,0,0,1.61-8.049c.4-2.012.8-4.427,1.207-6.439a.394.394,0,0,1,.4-.4h.4a.866.866,0,0,1,.8.8c-.8,4.024-1.61,9.658,0,14.488.8,2.012,2.817,2.817,5.634,2.817a31.567,31.567,0,0,0,5.634-.8,15.1,15.1,0,0,1,4.024-.4H257a35.439,35.439,0,0,1,6.841.8,31.067,31.067,0,0,0,6.037.8H273.1a6.8,6.8,0,0,0,4.024-1.207c.8-.4.4-1.207,0-2.415h0v-.4c-.4-1.207-.8-3.219,0-4.024h.4a.394.394,0,0,1,.4.4c0,.4.4.8.4,1.207a8.933,8.933,0,0,0,2.012,4.427c2.012,2.817,5.232,5.232,9.256,7.244,2.415,1.61,5.634,4.829,6.036,8.854,0,2.012-2.012,3.22-3.219,4.024a18.811,18.811,0,0,1-7.646,2.415c-1.207,0-2.415-.8-2.415-1.207-2.012-2.012-2.012-2.415-3.219-4.829l-2.415-3.622c-1.207-1.61-2.817-2.012-5.232-2.012a20.013,20.013,0,0,0-6.439,1.207c-.4,0-.8.4-1.207.8s0,1.207,0,1.61l3.622,6.037.4.8c.4.4.8.4,1.61.4h2.012a2.365,2.365,0,0,1,2.012.8c.4.4.8,1.207,1.207,1.61a10.219,10.219,0,0,0,3.219,4.024c1.207,1.207,3.22,1.61,5.232,1.61a5.1,5.1,0,0,0,2.415-.4,79.11,79.11,0,0,0,16.1-6.439h2.817a7.026,7.026,0,0,0,4.829-1.61,69.991,69.991,0,0,0,4.427-7.244c1.207-2.415,1.207-4.427,0-6.439-3.219-5.232-4.024-6.841-5.232-10.061h0c-.4,0-.8-.4-1.207-.4a5.816,5.816,0,0,0-2.817-.8h0c-1.207,0-2.012.4-2.012,1.207h0l6.037,11.671a4.276,4.276,0,0,1,.4,3.219c-.4,1.207-3.219,6.037-4.024,6.439a.394.394,0,0,0-.4.4s-.4,0,0-.8a65.212,65.212,0,0,0,1.207-8.049c-.4-1.61-5.232-10.061-5.634-10.463h0a7.151,7.151,0,0,1-1.61-4.024,1.285,1.285,0,0,1,1.207-1.207c.8-.4,1.61-.4,2.415-.8,2.012-.4,4.427-.8,5.232-2.012a28.755,28.755,0,0,0,4.829-12.878,1.405,1.405,0,0,1,.4-.8.394.394,0,0,1,.4.4,20.937,20.937,0,0,1-3.22,14.488c0,.4-.4.8-.4,1.207a1.405,1.405,0,0,0,.4.8c1.207.8,5.232.4,8.451-1.207a31.278,31.278,0,0,0,6.439-.8c.8,0,1.207-.4,2.012-.4a.394.394,0,0,1,.4.4,20.428,20.428,0,0,0-3.622,7.244l-1.61,1.61c-2.012,1.61-4.024,3.622-4.024,6.439a.788.788,0,0,0,.8.8c.4,0,.8,0,.8-.4.4,0,.8-.4,1.207-.4s.4.4.4.8l-2.415,3.22c-.8,1.207-.4,2.817,0,4.024.4.8,0,1.207.4,2.012.4,1.61,2.415,2.415,4.024,2.415,2.817,0,5.634-1.207,8.049-2.012.4,0,.8-.4,1.207-.4a18.835,18.835,0,0,1,10.866-.8c3.622-.4,6.439-2.415,8.854-4.829,1.207,0,2.415.8,3.622,2.012a19.131,19.131,0,0,0,14.488,6.037H371.3c.8,0,.8-.4.8-.8s-.4-.8-.8-1.207l-3.219-1.61c-2.817-1.61-5.634-3.622-6.439-6.439a33.747,33.747,0,0,0-3.622-7.646c-.4-.4-.4-.8-.8-1.207-.4-.8-.8-1.207-1.207-2.012h0c3.622,1.207,5.634,4.024,8.049,8.451,1.61,3.22,6.439,6.841,10.866,6.841h2.012a1.405,1.405,0,0,0,.4-.8c-.4,1.207-.4.8-.4.8Zm-64.39-53.121a.4.4,0,0,1-.8,0,41.072,41.072,0,0,0-2.415-9.256c-.4-.8-.8-1.207-1.207-2.012-.8-1.207-1.61-2.012-.8-3.219a2.091,2.091,0,0,1,1.61-.8h.8a7.635,7.635,0,0,1,2.817,3.219c2.012,5.232,0,12.073,0,12.073Zm30.183,47.487a3.143,3.143,0,0,1-.8,2.012,11.907,11.907,0,0,1-4.024.8,8.186,8.186,0,0,1-2.012-.4c-.4-.4,0-1.207,0-1.207a7.173,7.173,0,0,1,4.427-4.024,1.943,1.943,0,0,1,1.61,0c.8.4.8,2.415.8,2.817Zm8.049-18.914a8.186,8.186,0,0,1-.4,2.012c0,.4-.4.8-1.207.8s-.8-1.207-.8-1.207,0-2.817-.8-4.024-3.622-5.232-5.232-4.829a6.122,6.122,0,0,0-2.415,1.61c-.8,1.207-.8,1.61-1.207,1.61s-.8,0-.8-.8a6.354,6.354,0,0,1,0-2.817c.4-1.61.8-1.61,1.207-2.817a13.23,13.23,0,0,1,1.207-2.415,2.6,2.6,0,0,1,2.012-1.207,3.132,3.132,0,0,1,2.415,1.207c1.207,1.61,1.207,1.61,1.207,2.012a29.645,29.645,0,0,0,2.012,2.415,9.153,9.153,0,0,1,2.415,4.829,11.142,11.142,0,0,1,.4,3.622ZM280.345,154.97l1.207,2.415c.8,1.61,1.207,2.817,2.012,2.817h.8a9.476,9.476,0,0,0,5.232-2.012c.8-.8.4-1.207.4-2.012,0-.4-.4-.4-.4-.8a5.72,5.72,0,0,1-.8-2.415c-.4-1.61-.8-2.817-2.415-2.415a39.048,39.048,0,0,1-6.841.4,1.987,1.987,0,0,0-1.207.4c-.4.8.4,1.207,1.207,2.012C279.943,154.165,280.345,154.568,280.345,154.97Z" transform="translate(-161.325 -60.8)" fill="#e91d2d"/><path d="M429.708,169.858a2.419,2.419,0,0,1-.4-1.61c0-.8-.4-1.207-.4-2.012a5.817,5.817,0,0,0-.8-2.817,3.388,3.388,0,0,0-2.817-1.61,1.478,1.478,0,0,0-1.207.4c-1.61.8-2.817,1.61-2.415,3.622.8,2.817,1.207,4.829,2.012,7.244,0,.4.4,1.61.8,1.61h0l4.829-1.61a.394.394,0,0,0,.4-.4c1.207-.8.8-1.61,0-2.817Zm-6.841-11.671c-.8-1.207-2.817-2.415-4.024-3.219a5.554,5.554,0,0,1-1.61-1.207h-.4a1.478,1.478,0,0,0-1.207-.4,4.292,4.292,0,0,0-3.219,2.415c0,.8,1.207,2.415,2.817,4.427l.4.4a3.038,3.038,0,0,0,2.817,1.61h0A5.35,5.35,0,0,0,421.258,161c.4-.8,2.012-2.012,1.61-2.817Zm-112.682-7.244h-6.841s-1.61,3.22-1.61,4.829c.4,2.012,2.415,2.415,4.024,2.817a17.43,17.43,0,0,0,2.012.4,2.433,2.433,0,0,0,2.415-1.207c.8-2.415,1.61-4.427,1.61-6.036v-.4a3.042,3.042,0,0,0-1.61-.4Zm108.658,14.085h0c-2.817,0-4.829-2.012-6.439-4.427-.4-.8-1.207-1.207-1.61-2.012a15.033,15.033,0,0,0-2.817-2.415c-.8-.8-2.012-1.61-2.012-2.415a24.984,24.984,0,0,1-1.207-4.024,25.659,25.659,0,0,0-.8-2.817v-.4c-.4-1.207-1.207-2.817-2.817-3.22a6.85,6.85,0,0,1-2.817-.4c-2.415,0-5.232-.4-6.439-2.415-1.207-1.61-.8-3.22,0-4.829.4-.8.4-1.207.8-2.012.8-3.22,1.207-6.841.4-9.256,0-.4-.4-.8-.4-1.207-.4-1.207-.8-2.817-.4-3.22s.4-.4,1.207-.4a3.042,3.042,0,0,1,1.61.4c.4,0,.8,0,.8.4a17.3,17.3,0,0,0,4.829.8,31.345,31.345,0,0,0,8.451-1.61c4.829-2.415,9.658-7.646,9.256-14.085-.8-6.439-4.829-12.878-12.476-19.719l-.4-.4c-1.207-.8-2.414-2.012-2.414-2.817s2.415-1.61,4.024-2.012c.4,0,.8,0,.8-.4h.4a23.27,23.27,0,0,0,5.634-2.012c5.634-3.622,5.232-10.463,4.829-14.085v-.4c0-.4-.4-1.207-.8-1.207h-.4l-.4.4a7.065,7.065,0,0,1-2.012,1.61c-1.61,1.207-4.024,1.61-6.036,2.012-1.207.4-2.817.4-4.024.8-5.634,2.012-8.854,4.829-10.061,8.451a7.4,7.4,0,0,0,.8,6.439,61.856,61.856,0,0,0,6.841,7.646c4.024,4.024,8.049,7.646,9.256,13.28.4,3.22-.8,5.634-4.024,8.049a13.332,13.332,0,0,1-6.037,1.61,20.081,20.081,0,0,1-8.451-2.012,70.874,70.874,0,0,1-9.256-5.634,63.576,63.576,0,0,0-14.488-8.049A24.429,24.429,0,0,0,362.5,95c-3.622-.8-6.841-1.61-10.061-3.622-.8-.8-2.012-1.207-2.817-2.012-2.415-2.012-5.232-4.024-8.451-4.427-1.207-.4-2.415-.4-3.219-.8-1.61-.4-3.219-.4-4.829-1.61a7.066,7.066,0,0,1-2.012-1.61c-2.415-1.61-4.829-3.622-7.244-4.829a72.14,72.14,0,0,0-14.085-4.427,6.422,6.422,0,0,1-3.622-2.817l-2.415-2.415c-4.024-3.219-7.646-5.232-12.073-5.232h-1.207c-2.415,0-4.829,2.012-6.439,3.219-4.427,4.024-9.658,7.646-14.488,11.268-7.244,5.232-14.488,10.463-20.927,17.3-6.036,6.439-8.451,14.488-10.463,22.134a11.75,11.75,0,0,0-.8,3.622c-.4,2.012-1.207,4.427-1.61,6.439-2.817,11.268-5.634,22.939-17.3,30.183a.864.864,0,0,0,.4,1.61,9.539,9.539,0,0,0,9.658-3.22c2.817-3.622,4.427-6.841,8.049-10.463a1.405,1.405,0,0,1,.8-.4c.4,0,.4.4.4.8a8.35,8.35,0,0,1-2.415,4.024,21.322,21.322,0,0,0-2.415,4.024c-1.207,3.219-4.024,6.037-6.841,8.451a1.405,1.405,0,0,1-.8.4l-.4.4c0,.8.4,1.207,1.61,1.207h0c6.439,0,10.866-4.427,15.293-8.854a1.405,1.405,0,0,1,.8-.4h.8c.4,0,.8.8,1.61,1.207,1.61,1.207,2.817,2.415,4.829,2.817h0a36.825,36.825,0,0,1,6.439-.4h1.61c2.415.8,4.829,1.61,6.841,2.415,1.61.4,3.219,1.207,4.829,1.61h0c2.012,0,3.622-2.012,4.829-3.622a5.584,5.584,0,0,0,0-3.622,17.428,17.428,0,0,0-.4-2.012c.4-.4.8,0,1.61,0h1.61a1.188,1.188,0,0,0,.8-1.61c-.4-2.012-1.61-3.622-2.415-5.232a21.321,21.321,0,0,1-2.415-4.024,15.314,15.314,0,0,0-3.622-5.232c-1.61-2.012-3.22-3.622-3.622-5.634v-.8c0-.4.8,0,.8,0,.8.4,1.61,1.207,2.415,1.61,2.415,2.012,4.829,4.024,8.049,4.427a32.715,32.715,0,0,0,8.854.4c.8,0,1.207-.8,1.207-1.61a41.164,41.164,0,0,1-3.22-8.451c-.8-2.415-2.012-8.049-.8-12.878,0-.4.4-.4.8-.4h0c.4,0,.8.8.8,1.207v.4c.4,6.036.8,12.073,4.427,16.9.8,1.61,2.415,2.415,3.622,3.22a12.231,12.231,0,0,1,2.817,2.012,3.912,3.912,0,0,1,.4,3.622l-4.427,6.841a13.6,13.6,0,0,0-2.415,4.829c-.4,1.61,0,3.22,0,4.829v.4a.394.394,0,0,1-.4-.4q-3.018-4.829-1.207-8.451c.8-1.61,4.427-6.841,5.232-8.451.4-.4.8-1.207.4-1.61a12.052,12.052,0,0,0-4.024-1.61h0c-.8,0-1.207.8-1.61,1.207a.394.394,0,0,1-.4.4l-5.634,10.061v.4c-.4,1.207-.8,2.012-.4,3.219.4,1.61.8,3.22,1.207,4.427a1.478,1.478,0,0,0,.4,1.207c.4,1.61.8,3.622,1.61,4.427a3.074,3.074,0,0,0,2.012.8h3.219a4.018,4.018,0,0,1,2.012,1.61,7.065,7.065,0,0,0,2.012,1.61c1.61.4,3.622,1.207,5.232,1.61,2.415.8,4.829,1.207,7.244,2.012a14.3,14.3,0,0,0,4.024.8,4.369,4.369,0,0,0,3.622-1.61c2.012-1.61,2.415-2.817,2.817-5.232.4-2.012,1.207-2.012,2.415-2.012a2.42,2.42,0,0,0,1.61-.4,12.444,12.444,0,0,0,3.622-4.829,3.051,3.051,0,0,0,.8-1.61,1.478,1.478,0,0,0,.4-1.207c0-1.207-.8-1.207-1.207-1.207h-8.049c-2.415,0-3.622,2.415-4.427,4.427l-1.207,2.415a4.226,4.226,0,0,1-3.622,2.012c-.4,0-1.61-.4-2.012-.4-3.22-.8-6.439-1.61-8.049-4.829a3.867,3.867,0,0,1,.4-2.817,48.561,48.561,0,0,1,6.439-6.439,15.807,15.807,0,0,0,8.451-6.037c.4-.4.4-1.207.8-1.61.4-.8.4-1.61,1.61-2.415.4-.4.8,0,1.207.4.4,1.61-.4,3.219-.8,4.829,0,.4-.4.8-.4,1.207v.4h3.219a39.689,39.689,0,0,0,9.658-1.207c3.219-.4,6.439-1.207,9.658-1.207h1.207a16.509,16.509,0,0,1,4.427.4c1.207,0,2.817.4,4.024.4h1.61c4.024,0,7.244-2.012,8.049-5.232.8-2.415.8-6.841-.4-13.28v-.4h0c0-.4,0-.4.4-.8s.8,0,.8.4a60.581,60.581,0,0,1,2.817,13.28c.4,3.622,2.012,6.841,4.427,10.463a16.251,16.251,0,0,0,13.683,7.244c1.207,0,2.817-.4,4.024-.4h2.012c7.244,0,13.28,3.219,18.11,8.854v.4c0,.4-.4.4-.8.4l-.8-.4c-4.024-3.22-8.049-6.439-13.28-6.841-.8,0-2.012-.4-2.817-.4a16.508,16.508,0,0,0-4.427.4c-1.61,0-2.817.4-4.024.4a20.2,20.2,0,0,1-4.829-.8c-6.036-2.012-10.866-8.854-12.476-13.28a1.405,1.405,0,0,0-.8-.4h-.4c-.8.4-.8.8-.8,1.207a29.725,29.725,0,0,0,.8,4.829c.8,3.219,1.207,7.244,6.037,10.463,3.219,2.012,4.024,2.817,7.646,3.622h2.817a19.594,19.594,0,0,1,4.829-.4,22.967,22.967,0,0,1,14.085,4.829,7.065,7.065,0,0,1,2.012,1.61,12.231,12.231,0,0,0,2.817,2.012,5.1,5.1,0,0,0,2.415.4,4.919,4.919,0,0,0,3.622-1.207,2.419,2.419,0,0,1,1.61-.4c1.61,0,2.415,1.207,3.622,2.817.8.8,1.207,2.012,2.415,2.817a7.026,7.026,0,0,0,4.829,1.61h5.634c-.8-4.024-2.012-6.439-3.219-9.658ZM258.271,150.943a2.365,2.365,0,0,1-2.012.8,17.43,17.43,0,0,1-2.012-.4c-1.207-.8-1.61-2.012-2.012-4.024a1.479,1.479,0,0,1,.4-1.207h.8a4.8,4.8,0,0,1,3.622,2.012c.8-.4,2.012,1.207,1.207,2.817Zm2.012-25.353a3.051,3.051,0,0,1-1.61.8c-.4-.4-1.207-.8-1.207-1.61-.4-.8-.8-1.207-1.61-1.207h0a3.074,3.074,0,0,0-2.012.8c-.4.4-1.61,1.207-2.012,1.61-1.61,1.61-3.622,3.219-4.024,5.232,0,.8,0,.8-.4,1.207a3.074,3.074,0,0,1-.8,2.012h-.4c-.4,0-.4,0-.8-.4-.4,0-.4-.4-.4-.8a10.223,10.223,0,0,1,3.622-9.256c1.61-1.207,2.817-3.22,4.427-4.829.8-.8,1.207-1.61,2.012-2.415.4-.4,1.207,0,2.817,1.61a55.116,55.116,0,0,1,3.219,5.634,2.493,2.493,0,0,0-.8,1.61Zm30.183-42.256-2.012,2.012c-2.415,2.415-5.232,4.829-6.841,7.646a16.315,16.315,0,0,0-2.012,3.622l-.4.4h-.8c-.4-.4,0-4.024.4-5.634,1.207-3.622,4.427-7.646,8.854-10.866a2.42,2.42,0,0,1,1.61-.4,2.091,2.091,0,0,1,1.61.8A5.981,5.981,0,0,1,290.466,83.334Z" transform="translate(10.053 -59.59)" fill="#e91d2d"/></g></g></g></g></svg>