<svg xmlns="http://www.w3.org/2000/svg" width="512" height="512" viewBox="0 0 512 512"><defs><clipPath id="a"><path d="M0 0h512v512H0z"/></clipPath></defs><g clip-path="url(#a)"><path d="M332 256a76 76 0 11-76-76 76 76 0 0176 76" fill="#fbd600"/><g fill="#fbd600"><path d="M455 307l-1-1a3 3 0 000-1 13 13 0 00-1-4 6 6 0 00-4-4 3 3 0 00-1-1 15 15 0 00-5-4l-1-1a6 6 0 00-3-1 7 7 0 00-6 2 7 7 0 01-1-2 11 11 0 010-3 7 7 0 00-6-6h-2a14 14 0 01-3 0 1 1 0 010-1 5 5 0 001-2v-9h3a27 27 0 009-2c6-2 11-9 11-16-1-7-5-13-11-19a17 17 0 005-2c5-3 7-9 6-16v-1a4 4 0 00-5-4 4 4 0 00-3 2l-1 1a12 12 0 01-4 1l-4 1c-6 3-10 6-12 10-1 3 0 6 1 9a34 34 0 007 8c3 3 7 6 7 10 0 0 1 1-1 3a9 9 0 01-4 1 17 17 0 01-5-2l-8-5-14-7a26 26 0 00-7-2l-7-2v-1a11 11 0 01-3-1c-2-2-5-4-9-5a16 16 0 00-3-1l-3-1-1-1a49 49 0 00-8-4 57 57 0 00-13-5l-1-1a21 21 0 00-3-3c-4-3-8-5-13-5h-1c-4 0-7 2-8 4l-13 9-19 16c-6 7-8 15-10 22a10 10 0 00-1 3l-1 6c-3 9-5 18-14 24a5 5 0 00-2 4 6 6 0 003 4 8 8 0 003 1 3 3 0 001 3 5 5 0 004 1c6 0 11-3 15-7 1 1 3 3 5 3h2a18 18 0 016 0l5 2 5 1v1h1c4 0 6-4 7-5v-1l1-1v1a14 14 0 002 5 6 6 0 005 2h2a10 10 0 004 3 26 26 0 005 1 39 39 0 016 2 22 22 0 005 1 9 9 0 006-2 10 10 0 003-6 1 1 0 001 0c3-1 6-6 6-6v-1a6 6 0 001-3 5 5 0 00-4-5h-7a3 3 0 00-2 0l-2-2h5a74 74 0 009-1 55 55 0 018 0h1a13 13 0 014 0l3 1h2a15 15 0 004-1v2l1 1c0 3 1 7 6 11h1c3 2 4 3 8 3h3c5-1 10 1 14 4l2 1a31 31 0 003 2 10 10 0 003 1 9 9 0 005-1v1a20 20 0 002 3 10 10 0 007 3h5l1-1a4 4 0 002 1h2l4-2a6 6 0 003-2l-1-8zm-137-22v-1a21 21 0 01-2-2h4zM254 291l-2-1-5-6-2-3a17 17 0 00-2-2l-1-1c-2-7-5-14-6-23l-2-8-14-17-1-2-17-13v-1a24 24 0 00-7-3c-4-2-10-2-14 0a15 15 0 00-4 2l-6 3h-1a21 21 0 01-5 2l-12 6-2 2-2 2h-1c-6 0-10 1-15 5-2 3-5 5-8 6a13 13 0 01-4 1 27 27 0 00-6 1c-4 1-9 4-12 7l-3 2-1 1c-4 2-7 4-12 4a7 7 0 01-5-4 7 7 0 012-7 25 25 0 015-4 45 45 0 007-7c3-4 3-10-1-14-2-3-7-5-11-6h-1a1 1 0 01-1 0h-2a11 11 0 01-4-2l-3-3-3-1-2 3a11 11 0 00-2 7v1a17 17 0 0010 12v1a10 10 0 003 0 50 50 0 00-7 8c-5 5-5 13-3 18 3 7 10 11 16 12h3a28 28 0 005 0l1 5a34 34 0 002 6l-4 2h-4a5 5 0 00-4 2l-2 5a25 25 0 01-2 3l-1 2a8 8 0 00-2-3 5 5 0 00-6 0l-1 1-4 3c-1 0-2 1-2 3a1 1 0 00-1 0c-2 1-5 4-5 6v3l-1 1c-1 2-2 5 0 6 2 2 6 3 7 3h2a1 1 0 001-1h1l2 1a18 18 0 004 1 10 10 0 005-2l4-5 1-1a5 5 0 003 0c4 1 7-2 9-3l2-2 2-2a5 5 0 012 0 28 28 0 016 1 16 16 0 0010-2 46 46 0 004-2 8 8 0 002-1l7-8 1-4h1a31 31 0 006-1 11 11 0 013 0h7l5 1h3a12 12 0 005-1l2 1h-1a6 6 0 00-3 2h-5a18 18 0 00-6 1 5 5 0 00-4 2 4 4 0 001 5l3 5v1a5 5 0 004 2h2v1a14 14 0 003 4 11 11 0 007 3 10 10 0 003-1 98 98 0 0015-5h2a10 10 0 007-2v-1l3-4v1c1 3 4 4 7 4a20 20 0 008-2h1a14 14 0 018-1h1a16 16 0 008-3 20 20 0 0016 6h2a5 5 0 003-4v-1a1 1 0 001 0 5 5 0 004-4c2-2 2-4 0-5zm-54-10a32 32 0 00-4 4 21 21 0 01-1-3 18 18 0 005-2v1z"/></g><g fill="#e91d2d"><path d="M65 300l-3 3-1 6a1 1 0 000 1 23 23 0 004 2l2-4 1-4a1 1 0 000-1l-3-3zm5 0a2 2 0 001 1 1 1 0 001 0l5-6-2-2a2 2 0 00-1 0l-1 1-4 2a3 3 0 00-1 2 1 1 0 001 1l1 1zm182-6a9 9 0 00-2-1 17 17 0 01-6-7 15 15 0 01-2-3 9 9 0 00-2-2l-1-2c-3-7-6-15-7-24a17 17 0 00-2-7c-3-6-12-16-13-17l-1-1-16-13a43 43 0 00-6-4 21 21 0 00-5-1 19 19 0 00-7 1 31 31 0 00-3 3 27 27 0 01-7 3 31 31 0 01-5 2c-4 1-7 2-10 5l-2 2c-3 2-3 3-6 3a19 19 0 00-12 4c-3 3-6 5-10 6l-5 1-5 1c-4 1-8 4-11 7l-4 2-1 1c-4 2-8 4-13 4a9 9 0 01-9-6 11 11 0 014-11l4-4a59 59 0 007-7c2-2 2-7 0-10s-7-3-9-3h-1l-4-1-8-5a6 6 0 00-1 5c1 4 4 8 8 10a13 13 0 004 1h1a5 5 0 012 0l2 2a1 1 0 01-1 2l-2 1a51 51 0 00-9 9c-3 3-3 10-2 14 2 6 8 9 13 9l2 1a33 33 0 009-2v1a16 16 0 001 4v5l2 6a3 3 0 010 1 2 2 0 01-1 2 18 18 0 01-6 4h-5-1l-1 4a13 13 0 01-2 3c-1 3-3 4-5 5l-2 1a14 14 0 01-3 4 4 4 0 01-2 1 14 14 0 00-3 7 1 1 0 010 1h3a12 12 0 003 1 7 7 0 003-1 8 8 0 003-4 11 11 0 012-2 3 3 0 012-1 3 3 0 012 1h1c3 0 6-2 7-3l2-1a13 13 0 012-2l5-1a32 32 0 016 1 8 8 0 003 0 10 10 0 004-1 46 46 0 005-2 8 8 0 001-1c3-1 5-5 5-6l2-5-2-2-3 5c-5 6-12 7-18 7h-2c-7 0-13 2-18 7 0 1 0 1 0 0a1 1 0 010-1c5-7 13-8 19-8 5-1 9-1 12-3a18 18 0 008-10 42 42 0 001-7l1-6h1a1 1 0 011 1c-1 3-2 8 0 13 0 1 2 2 5 2a28 28 0 005-1 13 13 0 013 0h2a32 32 0 016 1 28 28 0 005 0h3a6 6 0 003-1v-2-4h1v1l1 1a8 8 0 001 4 22 22 0 009 6c2 2 5 4 5 8 0 2-2 3-3 4a17 17 0 01-7 2l-2-1-3-5-2-3c-1-1-2-2-5-2a18 18 0 00-5 1l-1 1v2l3 5v1h3a2 2 0 012 1l1 1a9 9 0 003 4 7 7 0 005 1 5 5 0 002 0 70 70 0 0014-6h3a6 6 0 004-1 62 62 0 004-7 5 5 0 000-6l-5-8-1-1a5 5 0 00-2-1l-2 2 5 10a4 4 0 011 3l-4 5v1-1a58 58 0 001-7l-5-9a6 6 0 01-2-4 1 1 0 011-1l3-1 4-1a26 26 0 005-12 1 1 0 010-1v1a19 19 0 01-3 13v1c2 1 5 1 8-1a28 28 0 006 0l1-1 1 1a18 18 0 00-3 6l-2 1-3 6a1 1 0 000 1h1l1-1v1l-2 3v3l1 2c0 2 2 2 3 2l7-2h1a17 17 0 0110-1c3 0 6-2 8-4a5 5 0 013 2 17 17 0 0013 5h2l-1-2-3-1c-2-1-5-3-5-6a30 30 0 00-4-6v-2l-1-1c3 1 5 3 7 7 1 3 5 6 9 6h2a1 1 0 001 0h-1zm-57-47h-1a37 37 0 00-2-8l-1-2-1-3a2 2 0 012-1 7 7 0 013 3c2 5 0 11 0 11zm27 42a3 3 0 01-1 2 11 11 0 01-4 1 7 7 0 01-1-1v-1a6 6 0 014-3 2 2 0 011 0l1 2zm7-17a7 7 0 010 2l-2 1v-1a9 9 0 00-1-4c-1-1-3-4-5-4a5 5 0 00-2 1l-1 2-1-1a6 6 0 010-2 17 17 0 012-3 12 12 0 011-2 2 2 0 011-1 3 3 0 013 1l1 2a26 26 0 001 2 8 8 0 013 4 10 10 0 010 3zm-63 22l1 2 2 3h1a8 8 0 005-2v-2-1a5 5 0 01-1-2l-2-2a35 35 0 01-6 0 2 2 0 00-1 1l1 1v2zM451 308a2 2 0 010-1v-2a5 5 0 00-1-3 3 3 0 00-3-1 1 1 0 00-1 0l-2 4 2 6 1 2 4-2v-3zm-6-10a14 14 0 00-3-3 5 5 0 01-2-1 1 1 0 00-1 0 4 4 0 00-3 2l3 4a3 3 0 002 1 5 5 0 003-1s2-1 1-2zm-100-7h-6l-1 5 3 2a15 15 0 002 1 2 2 0 002-2l2-5a3 3 0 00-2-1zm97 13c-3 0-5-2-6-4l-1-2a13 13 0 00-3-2l-2-2a22 22 0 01-1-4 23 23 0 000-2v-1a4 4 0 00-3-2 6 6 0 01-2-1c-3 0-5 0-6-2v-4l1-2v-8-1l-1-3h1a3 3 0 012 0 15 15 0 005 1 28 28 0 007-1c4-3 9-7 8-13 0-6-4-11-11-18l-2-2 3-2 1-1a21 21 0 005-1c5-4 5-10 5-13l-1-1h-1a6 6 0 01-1 1c-2 2-4 2-6 2l-3 1c-5 2-8 4-9 8a7 7 0 000 5 55 55 0 006 7c4 4 8 7 9 12 0 3-1 5-4 7a12 12 0 01-5 1 18 18 0 01-8-1 63 63 0 01-8-5 57 57 0 00-13-8 22 22 0 00-6-1 27 27 0 01-9-4l-3-1c-2-2-4-4-7-4l-3-1-4-1a6 6 0 01-2-2 67 67 0 00-7-4 64 64 0 00-12-4 6 6 0 01-3-3l-3-2c-3-3-6-4-10-4h-1l-6 2-13 11-19 15c-5 6-7 13-9 20a10 10 0 00-1 3l-1 6c-2 10-5 20-15 26a1 1 0 000 2 8 8 0 009-3l7-9a1 1 0 010-1l1 1a7 7 0 01-2 4 19 19 0 00-2 3l-7 8h-1l2 1c6 0 9-4 13-7a1 1 0 011-1h1l1 1 5 3a33 33 0 015-1h2l6 3 4 1c2 0 3-2 4-3a5 5 0 000-3 15 15 0 000-2h3a1 1 0 001-2l-3-4a19 19 0 01-2-4 14 14 0 00-3-5c-1-1-3-3-3-5h1l2 1c2 2 4 4 7 4a29 29 0 008 0l1-1a37 37 0 01-3-7c-1-3-2-8-1-12h1l1 1c0 6 0 11 4 15 0 2 2 2 3 3a11 11 0 012 2 3 3 0 011 3l-4 6a12 12 0 00-2 4v5h-1q-2-5-1-8l5-7v-2a11 11 0 00-3-1l-2 1-5 9v1l-1 2 2 4a1 1 0 000 1l1 4a3 3 0 002 1h3a4 4 0 012 1 6 6 0 002 2l4 1 7 2a13 13 0 003 1 4 4 0 003-2c2-1 3-2 3-4s1-2 2-2a2 2 0 001 0 11 11 0 004-5 3 3 0 000-1 1 1 0 001-1l-1-1h-7c-3 0-4 2-4 4l-1 2a4 4 0 01-4 2l-1-1c-3 0-6-1-8-4a3 3 0 011-3 43 43 0 015-5 14 14 0 008-6l1-1 1-2h1c1 2 0 3-1 4v2h3a35 35 0 009-1l8-1h1a15 15 0 014 0h5c4 0 7-1 7-4v-12-1h1a54 54 0 013 12l3 9a14 14 0 0013 7l3-1h2c6 0 12 3 16 8v1h-1c-4-3-7-6-12-6l-3-1a15 15 0 00-4 1h-3a18 18 0 01-4-1c-6-2-10-8-12-12h-1v1a26 26 0 000 4c1 3 1 7 6 10l7 3h2a17 17 0 014 0 20 20 0 0113 4 6 6 0 012 1 11 11 0 002 2 5 5 0 002 1 4 4 0 004-2 2 2 0 011 0l3 3 2 2a6 6 0 005 2h5a48 48 0 00-3-9zm-143-13a2 2 0 01-2 1 16 16 0 01-2 0l-1-4a1 1 0 010-1h1a4 4 0 013 2c1 0 2 1 1 2zm2-22a3 3 0 01-2 1l-1-2-1-1a3 3 0 00-2 1l-2 1c-1 2-3 3-3 5l-1 1a3 3 0 010 2h-1v-1h-1a9 9 0 013-9l4-4 2-2 3 1a49 49 0 013 5 2 2 0 00-1 2zm27-38l-2 2c-2 2-5 4-6 7a15 15 0 00-2 3h-1v-5c1-3 4-6 8-9a2 2 0 012-1 2 2 0 011 1 5 5 0 010 2z"/></g></g></svg>