<svg xmlns="http://www.w3.org/2000/svg" xmlns:xlink="http://www.w3.org/1999/xlink" width="512" height="512" viewBox="0 0 512 512"><defs><clipPath id="b"><rect width="512" height="512"/></clipPath></defs><g id="a" clip-path="url(#b)"><g transform="translate(-104.061 127.75)"><g transform="translate(160.061 52.4)"><path d="M346.574,128.237A75.837,75.837,0,1,1,270.737,52.4a75.837,75.837,0,0,1,75.837,75.837" transform="translate(-70.275 -52.4)" fill="#fbd600"/><g transform="translate(0 26.829)"><path d="M412.473,158.415h0c0-.358-.358-.358-.358-.715a2.7,2.7,0,0,0-.358-1.431h0a12.708,12.708,0,0,0-.716-3.577,6.089,6.089,0,0,0-4.65-3.577,2.733,2.733,0,0,0-.716-1.789,15.145,15.145,0,0,0-4.65-3.935c-.358-.358-.715-.715-1.073-.715l-.358-.358a5.77,5.77,0,0,0-3.219-1.073,6.793,6.793,0,0,0-5.366,2.862,6.632,6.632,0,0,1-.716-2.5,11.058,11.058,0,0,1-.715-2.862h0v-.358a7.239,7.239,0,0,0-5.366-5.366c-1.073,0-2.146-.358-2.862-.358a13.535,13.535,0,0,1-2.862-.358,1.108,1.108,0,0,1,.358-.715,5.084,5.084,0,0,0,.715-2.146c.716-2.5,1.431-6.081.716-9.3.715,0,1.789.358,2.862.358a26.536,26.536,0,0,0,8.943-1.789h0c5.366-2.5,10.732-8.585,10.374-16.1v-.358c-.715-6.439-4.293-12.52-11.089-18.6a16.864,16.864,0,0,0,5.366-2.146c5.008-3.219,7.154-9.3,5.724-16.1V65.05a4.459,4.459,0,0,0-4.293-3.935,4.062,4.062,0,0,0-2.862,1.073l-.358.358-1.073,1.073a12.068,12.068,0,0,1-4.293,1.431c-1.073.358-2.5.715-3.935,1.073-6.081,2.146-10.016,5.366-11.447,9.658-1.073,2.5-.358,5.724,1.073,8.943v.358a34.044,34.044,0,0,0,6.8,7.512c3.219,3.219,6.439,6.081,7.154,9.658,0,.715.358,1.789-1.789,3.577a8.543,8.543,0,0,1-3.219.715,16.837,16.837,0,0,1-5.724-1.431h0c-2.5-1.431-5.366-3.219-7.87-5.008-4.293-2.862-8.585-5.724-13.593-7.512a26.239,26.239,0,0,0-7.154-1.789c-2.862-.715-5.366-1.073-7.154-2.5l-.358-.358a10.873,10.873,0,0,1-2.5-1.789c-2.5-1.789-5.366-3.935-8.585-4.65a15.742,15.742,0,0,0-3.577-.715c-1.431-.358-2.146-.358-2.5-.715-.715-.358-1.073-.715-1.789-1.073h0a49.137,49.137,0,0,0-7.154-4.65,57.265,57.265,0,0,0-13.236-4.293c-.358,0-.715-.715-1.431-1.431a21.2,21.2,0,0,0-2.862-2.862C295.141,62.9,291.206,60.4,285.84,60.4h-1.431c-3.219.358-6.081,2.5-7.87,3.935-3.935,3.577-8.228,6.439-12.52,9.658-6.439,4.65-13.236,9.658-18.959,16.1-6.081,6.439-8.228,14.309-10.374,21.106a10.445,10.445,0,0,0-.715,3.219c-.358,1.789-1.073,3.935-1.431,5.724-2.5,9.658-4.65,18.959-13.593,24.683a5.1,5.1,0,0,0-2.146,4.293,5.539,5.539,0,0,0,2.862,3.935,7.7,7.7,0,0,0,3.577.715,3.248,3.248,0,0,0,1.073,2.5,5.1,5.1,0,0,0,3.935,1.789h0c6.081,0,10.732-3.577,14.309-7.154,1.431,1.073,3.219,2.5,5.366,2.862h1.431a17.933,17.933,0,0,1,6.081-.358c1.789.715,3.577,1.431,5.724,2.146,1.431.358,2.862,1.073,4.293,1.431l.715.358h.715c3.935,0,6.439-3.577,7.154-5.008v-.715c0-.358.358-.715.358-1.073h0l.358.715a14.116,14.116,0,0,0,2.146,5.366,5.768,5.768,0,0,0,4.65,2.146h2.146l.358.358a10.213,10.213,0,0,0,3.577,2.5,26.35,26.35,0,0,0,5.008,1.431,39.087,39.087,0,0,1,6.081,1.789h.358a21.843,21.843,0,0,0,4.65,1.073,9.224,9.224,0,0,0,5.724-2.146,10.191,10.191,0,0,0,3.577-5.724,1.314,1.314,0,0,0,1.073-.358c2.862-1.073,5.366-6.081,5.366-6.081.358-.358.358-.715.715-1.073a5.77,5.77,0,0,0,1.073-3.22,5.342,5.342,0,0,0-4.65-5.008H309.45a3.225,3.225,0,0,0-1.789.358h0c-.358-.358-.715-1.431-1.431-1.789h4.65a73.738,73.738,0,0,0,9.3-1.073,55.389,55.389,0,0,1,7.87-.358h.715a13.42,13.42,0,0,1,3.577.358c1.073,0,2.5.358,3.935.358h1.431a15.215,15.215,0,0,0,3.935-.715c0,.715.358,1.431.358,2.5l.358.715c.715,2.862,1.789,7.154,6.8,10.732l.715.358c2.5,1.431,3.935,2.5,7.512,3.219h3.935c4.65-1.073,9.659.358,13.593,3.22l.358.358,1.073,1.073a30.936,30.936,0,0,0,3.577,2.5,10.444,10.444,0,0,0,3.219.715h0a9.089,9.089,0,0,0,4.293-1.073h0c0,.358.358.358.358.715a19.657,19.657,0,0,0,2.5,3.219,9.5,9.5,0,0,0,6.8,2.5h4.65c.716,0,1.073,0,1.073-.358a4.407,4.407,0,0,0,2.5.715h1.073l4.293-1.431a6.363,6.363,0,0,0,2.862-2.5c.715-5.008,0-6.8-1.073-8.228ZM276.182,136.952l-.358-.358c0-.358-.358-.358-.358-.715a20.516,20.516,0,0,1-1.431-2.5c1.431,0,2.5.358,3.935.358Z" transform="translate(-13.834 -58.611)" fill="#fbd600"/><path d="M358.019,143.964l-2.146-1.073c-1.789-1.073-3.219-3.219-4.65-5.724l-2.146-3.22a16.528,16.528,0,0,0-2.5-2.5l-.358-.358c-2.5-6.8-5.008-14.667-5.724-22.894,0-2.146-1.431-5.724-2.862-8.228h0c-3.935-6.439-12.878-16.813-13.593-17.528l-1.073-1.073-.358-.358-16.1-13.236-.358-.358a24.266,24.266,0,0,0-7.154-3.935c-4.293-1.431-10.016-1.431-13.951.358h-.358a14.772,14.772,0,0,0-3.935,2.5c-1.789,1.073-3.577,2.5-5.724,2.862h-.715a20.683,20.683,0,0,1-5.008,1.789c-3.935,1.073-8.228,2.5-11.8,5.724l-2.146,2.146c-.715.715-1.789,1.431-2.146,1.789h-.715c-6.081,0-10.374,1.431-15.024,5.366h0c-2.862,2.5-5.366,4.65-8.228,5.724a13.342,13.342,0,0,1-4.293.715h0a27.115,27.115,0,0,0-5.724,1.073c-4.65,1.073-8.943,4.65-12.52,7.154-1.431,1.073-2.5,2.146-2.862,2.146-.358.358-.715.358-1.073.715-3.935,2.146-7.154,4.293-11.447,4.293h-.358a6.69,6.69,0,0,1-5.008-3.577A7.06,7.06,0,0,1,188.1,97.1a24.628,24.628,0,0,1,4.65-3.935,44.971,44.971,0,0,0,7.154-7.154c3.219-3.935,2.862-10.374-.715-14.309-2.5-2.862-7.154-4.293-10.732-5.366h-1.431a1.314,1.314,0,0,1-1.073-.358c-.715,0-1.431-.358-2.146-.358a10.746,10.746,0,0,1-3.935-2.146l-3.219-2.146L173.793,59.9,172,62.762a10.781,10.781,0,0,0-1.789,7.512v.358a17.155,17.155,0,0,0,9.658,12.52h0a.35.35,0,0,1,.358.358,10.445,10.445,0,0,0,3.219.715,49.707,49.707,0,0,0-7.512,7.512c-4.65,5.008-4.65,12.878-2.862,18.244,2.5,7.154,9.658,11.089,15.74,11.8,1.073,0,2.146.358,3.219.358a27.615,27.615,0,0,0,5.366-.715h0c0,2.5.358,4.293.358,5.366a34,34,0,0,0,2.146,6.439h0c-1.431.715-3.219,1.789-3.935,1.789-1.073,0-2.146.358-2.862.358h-1.431a5.327,5.327,0,0,0-3.219,1.431c-1.073,1.073-1.789,2.862-2.862,5.366a24.646,24.646,0,0,1-1.073,2.862c-.358.358-.715,1.073-1.073,1.431a8.264,8.264,0,0,0-2.5-2.5h0a4.844,4.844,0,0,0-6.081,0c-.358.358-.715.358-.715.715h-.358c-1.073.715-2.5,1.789-3.935,2.862-1.073.715-1.431,1.789-1.789,3.219a1.314,1.314,0,0,0-1.073.358c-2.146,1.073-4.65,3.577-5.008,6.081,0,1.073-.358,2.5-.358,3.22l-.358.358c-1.431,1.789-1.789,4.65,0,6.439,1.431,1.431,6.081,2.5,7.154,2.5h1.431a1.249,1.249,0,0,0,.715-.358h1.073c.715,0,1.431.358,2.146.358a17.957,17.957,0,0,0,4.293.715,9.9,9.9,0,0,0,4.65-1.073c2.5-1.073,3.577-3.219,4.65-5.008.358-.358.358-1.073.715-1.431h.358a5.3,5.3,0,0,0,2.5.358c3.935.358,7.512-2.146,9.3-3.577.715-.715,1.431-1.073,1.789-1.789.715-.715,1.431-1.073,1.789-1.789a5.3,5.3,0,0,1,2.5-.358,27.614,27.614,0,0,1,5.366.715,15.7,15.7,0,0,0,10.016-1.073,45.62,45.62,0,0,0,4.293-2.5h.358a7.82,7.82,0,0,0,1.789-1.073c2.862-1.431,5.008-5.008,6.439-7.512.715-1.431,1.789-3.577,1.789-4.293h.715a31.309,31.309,0,0,0,5.724-.715,11.036,11.036,0,0,1,3.219-.358h1.073c1.789,0,4.293.358,6.081.358,1.431,0,2.5.358,4.65.358h3.22a11.945,11.945,0,0,0,5.366-1.073c.358.358,1.073,1.431,1.431,1.789h-.358a6.356,6.356,0,0,0-3.577,1.431c-1.073-.715-3.219-.715-5.008-.358a18.169,18.169,0,0,0-6.081,1.073,5.171,5.171,0,0,0-3.577,2.5,4.4,4.4,0,0,0,.358,4.65c1.073,1.789,2.146,3.577,3.219,5.724l.358.715a4.837,4.837,0,0,0,4.293,2.146h1.073a.35.35,0,0,0,.358.358,13.556,13.556,0,0,0,3.577,4.65,11.293,11.293,0,0,0,6.8,2.5,9.9,9.9,0,0,0,3.219-.358,98.006,98.006,0,0,0,14.309-5.366h2.146a9.5,9.5,0,0,0,6.8-2.5l.358-.358v-.358c.715-1.073,1.789-2.5,2.5-3.577v.358h0c1.073,3.219,4.293,4.65,7.154,4.65h0a19.973,19.973,0,0,0,8.228-2.146h0c.358,0,.715-.358,1.073-.358h.358a13.9,13.9,0,0,1,7.87-.358h.715a15.727,15.727,0,0,0,8.228-3.577,20.251,20.251,0,0,0,15.382,6.439h2.146a4.551,4.551,0,0,0,3.577-3.935v-1.073a1.314,1.314,0,0,0,1.073-.358,4.583,4.583,0,0,0,3.577-3.935c2.5-2.5,1.789-4.293,0-5.008ZM304.361,133.59a1.249,1.249,0,0,1-.715.358,32.248,32.248,0,0,0-3.219,3.577A21.083,21.083,0,0,1,299,134.664a17.71,17.71,0,0,0,4.65-1.431c.715.358.715,0,.715.358Z" transform="translate(-160.061 -59.9)" fill="#fbd600"/></g><g transform="translate(4.52 30.048)"><path d="M165.886,150.946h0c-1.431.358-2.862,2.146-2.862,2.862-.358,3.935-.358,4.293-1.431,5.724a1.088,1.088,0,0,0,0,1.431,23.137,23.137,0,0,0,4.65,1.431h0c.358,0,.715-1.073,1.431-3.577.358-1.431,1.073-3.22,1.431-4.65a1.108,1.108,0,0,0-.358-.715c-.715-.715-1.789-2.5-2.862-2.5Zm4.65,0a1.858,1.858,0,0,0,1.431.715,1.314,1.314,0,0,0,1.073-.358c2.146-1.073,4.293-5.008,4.65-5.366.358-.715-.358-1.431-1.431-2.146h0a1.6,1.6,0,0,0-1.789,0c-.358.358-.715.358-1.073.715-1.073.715-2.146,1.431-3.577,2.5a2.732,2.732,0,0,0-.715,1.789,1.314,1.314,0,0,0,.358,1.073s.715,1.073,1.073,1.073Zm182.438-6.081a9.307,9.307,0,0,0-2.5-1.073,16.8,16.8,0,0,1-6.081-7.154,14.5,14.5,0,0,1-1.789-3.219,9.485,9.485,0,0,0-1.789-2.146c-.715-.358-1.073-1.073-1.431-1.431-2.5-7.154-5.366-15.382-6.081-24.683a17.045,17.045,0,0,0-2.146-6.439c-3.577-6.081-12.52-16.1-12.878-16.813L317.2,80.832l-.358-.358L301.1,67.239a42.5,42.5,0,0,0-6.439-3.577,21.113,21.113,0,0,0-5.008-.715,18.709,18.709,0,0,0-6.439,1.073,31.468,31.468,0,0,0-3.577,2.146,27.085,27.085,0,0,1-6.439,3.219,31.48,31.48,0,0,1-5.366,1.789c-3.577,1.073-7.154,2.146-10.374,5.008l-2.146,2.146c-2.862,2.5-2.862,2.862-5.366,2.862a19,19,0,0,0-12.52,4.293c-2.862,2.862-6.081,5.366-9.658,6.439-1.431.715-3.219.715-5.008,1.073-2.5.358-2.862.358-5.366.715-3.935.715-7.87,3.935-11.089,6.439-1.073.715-2.5,2.146-3.219,2.5-.358.358-.715.358-1.073.715-4.293,2.5-8.228,4.65-13.236,4.65h-.358a9.267,9.267,0,0,1-8.228-6.439,11.085,11.085,0,0,1,3.219-11.089c1.431-1.431,3.219-2.862,4.65-4.293a59.367,59.367,0,0,0,6.8-6.439c2.146-2.5,1.789-7.154-.358-9.658s-7.154-3.577-8.943-3.935h-1.073c-1.073-.358-2.146-.358-3.577-.715-2.862-.715-5.366-3.219-7.87-4.65a6.208,6.208,0,0,0-1.073,5.008c.358,3.935,3.935,7.87,7.512,9.658a.35.35,0,0,1,.358.358,12.71,12.71,0,0,0,3.577.715h1.431a4.537,4.537,0,0,1,2.146.358c.715.358,1.431.715,1.431,1.789a1.428,1.428,0,0,1-.715,1.431c-.715.358-1.073,1.073-1.789,1.431a50.83,50.83,0,0,0-8.943,8.585c-3.577,3.935-3.577,10.374-2.146,14.667,2.146,5.724,7.87,8.943,12.878,9.3.715,0,1.789.358,2.5.358a33.108,33.108,0,0,0,8.228-1.431h.358s.358,0,.358.715a16.039,16.039,0,0,0,.358,3.935c0,2.146.358,3.935.358,5.008.358,1.789,1.431,3.935,1.789,5.724a2.7,2.7,0,0,1,.358,1.431,1.72,1.72,0,0,1-.715,2.146,18.193,18.193,0,0,1-6.8,3.219c-1.073,0-2.5.358-3.219.358h-1.073c-.358,0-.715.358-1.073.358-.715.715-1.073,2.146-1.789,3.935a12.708,12.708,0,0,1-1.431,3.219c-1.431,2.146-3.219,3.22-5.366,4.65-.358.358-1.073.715-1.431,1.073h0a14.006,14.006,0,0,1-2.862,3.577,4.062,4.062,0,0,1-2.862,1.073h0a14.164,14.164,0,0,0-2.5,6.8,1.314,1.314,0,0,1-.358,1.073v.358h.358c.715,0,1.789.358,2.5.358a12.169,12.169,0,0,0,3.577.358,6.739,6.739,0,0,0,2.862-.715,7.83,7.83,0,0,0,3.219-3.577,10.871,10.871,0,0,1,1.789-2.5,2.732,2.732,0,0,1,1.789-.715,3.225,3.225,0,0,1,1.789.358c.715,0,1.073.358,1.789.358,2.862,0,5.366-1.789,6.8-2.5.715-.358,1.073-1.073,1.789-1.431a13.364,13.364,0,0,1,2.5-2.146c1.073-.715,2.5-.715,4.293-.715a31.506,31.506,0,0,1,6.081.715,7.876,7.876,0,0,0,2.862.358,9.9,9.9,0,0,0,4.65-1.073,45.614,45.614,0,0,0,4.293-2.5,7.82,7.82,0,0,0,1.789-1.073c2.146-1.073,4.293-4.65,5.008-6.081s1.789-4.293,1.789-4.293h0l-2.5-2.146v.358s-1.789,2.862-2.862,4.293c-4.65,6.439-12.162,7.154-18.244,7.154h-1.431c-7.512,0-13.593,2.5-17.886,7.512-.358.358-.715.358-.715,0V151.3a1.314,1.314,0,0,1,.358-1.073c4.65-6.8,12.878-7.512,19.317-7.87,4.65-.358,8.228-1.073,11.447-2.862a18.349,18.349,0,0,0,7.87-9.658,42.2,42.2,0,0,0,1.431-7.154c.358-1.789.715-3.935,1.073-5.724a.35.35,0,0,1,.358-.358h.358a.769.769,0,0,1,.715.715c-.715,3.577-1.431,8.585,0,12.878.715,1.789,2.5,2.5,5.008,2.5a28.06,28.06,0,0,0,5.008-.715,13.419,13.419,0,0,1,3.577-.358h1.431a31.5,31.5,0,0,1,6.081.715,27.615,27.615,0,0,0,5.366.715h2.862a6.043,6.043,0,0,0,3.577-1.073c.715-.358.358-1.073,0-2.146h0v-.358c-.358-1.073-.715-2.862,0-3.577h.358a.35.35,0,0,1,.358.358c0,.358.358.715.358,1.073a7.94,7.94,0,0,0,1.789,3.935,22.053,22.053,0,0,0,8.228,6.439c2.146,1.431,5.008,4.293,5.366,7.87,0,1.789-1.789,2.862-2.862,3.577a16.72,16.72,0,0,1-6.8,2.146c-1.073,0-2.146-.715-2.146-1.073-1.789-1.789-1.789-2.146-2.862-4.293l-2.146-3.219c-1.073-1.431-2.5-1.789-4.65-1.789A17.789,17.789,0,0,0,253.527,142c-.358,0-.715.358-1.073.715s0,1.073,0,1.431l3.219,5.366.358.715c.358.358.715.358,1.431.358h1.789a2.1,2.1,0,0,1,1.789.715c.358.358.715,1.073,1.073,1.431a9.084,9.084,0,0,0,2.862,3.577,6.6,6.6,0,0,0,4.65,1.431,4.538,4.538,0,0,0,2.146-.358,70.32,70.32,0,0,0,14.309-5.724h2.5a6.245,6.245,0,0,0,4.293-1.431,62.218,62.218,0,0,0,3.935-6.439,5.48,5.48,0,0,0,0-5.724c-2.862-4.65-3.577-6.081-4.65-8.943h0c-.358,0-.715-.358-1.073-.358a5.17,5.17,0,0,0-2.5-.715h0c-1.073,0-1.789.358-1.789,1.073h0l5.366,10.374a3.8,3.8,0,0,1,.358,2.862c-.358,1.073-2.862,5.366-3.577,5.724a.35.35,0,0,0-.358.358s-.358,0,0-.715a57.97,57.97,0,0,0,1.073-7.154c-.358-1.431-4.65-8.943-5.008-9.3h0a6.356,6.356,0,0,1-1.431-3.577,1.142,1.142,0,0,1,1.073-1.073c.715-.358,1.431-.358,2.146-.715,1.789-.358,3.935-.715,4.65-1.789a25.56,25.56,0,0,0,4.293-11.447,1.249,1.249,0,0,1,.358-.715.35.35,0,0,1,.358.358,18.611,18.611,0,0,1-2.862,12.878c0,.358-.358.715-.358,1.073a1.249,1.249,0,0,0,.358.715c1.073.715,4.65.358,7.512-1.073a27.8,27.8,0,0,0,5.724-.715c.715,0,1.073-.358,1.789-.358a.35.35,0,0,1,.358.358,18.158,18.158,0,0,0-3.219,6.439l-1.431,1.431c-1.789,1.431-3.577,3.219-3.577,5.724a.7.7,0,0,0,.715.715c.358,0,.715,0,.715-.358.358,0,.715-.358,1.073-.358s.358.358.358.715L301.1,142.36c-.715,1.073-.358,2.5,0,3.577.358.715,0,1.073.358,1.789.358,1.431,2.146,2.146,3.577,2.146,2.5,0,5.008-1.073,7.154-1.789.358,0,.715-.358,1.073-.358a16.743,16.743,0,0,1,9.658-.715c3.219-.358,5.724-2.146,7.87-4.293a4.945,4.945,0,0,1,3.219,1.789,17.005,17.005,0,0,0,12.878,5.366h1.073c.715,0,.715-.358.715-.715s-.358-.715-.715-1.073l-2.862-1.431c-2.5-1.431-5.008-3.22-5.724-5.724a30,30,0,0,0-3.219-6.8c-.358-.358-.358-.715-.715-1.073-.358-.715-.715-1.073-1.073-1.789h0c3.219,1.073,5.008,3.577,7.154,7.512,1.431,2.862,5.724,6.081,9.658,6.081h1.789a1.249,1.249,0,0,0,.358-.715c-.358,1.073-.358.715-.358.715ZM295.738,97.645a.358.358,0,0,1-.716,0,36.51,36.51,0,0,0-2.146-8.228c-.358-.715-.715-1.073-1.073-1.789-.715-1.073-1.431-1.789-.715-2.862a1.859,1.859,0,0,1,1.431-.715h.715a6.787,6.787,0,0,1,2.5,2.862c1.789,4.65,0,10.732,0,10.732Zm26.829,42.211a2.793,2.793,0,0,1-.715,1.789,10.584,10.584,0,0,1-3.577.715,7.277,7.277,0,0,1-1.789-.358c-.358-.358,0-1.073,0-1.073a6.376,6.376,0,0,1,3.935-3.577,1.727,1.727,0,0,1,1.431,0c.715.358.715,2.146.715,2.5Zm7.154-16.813a7.277,7.277,0,0,1-.358,1.789c0,.358-.358.715-1.073.715s-.715-1.073-.715-1.073a8.594,8.594,0,0,0-.715-3.577c-.715-1.073-3.219-4.65-4.65-4.293a5.442,5.442,0,0,0-2.146,1.431c-.715,1.073-.715,1.431-1.073,1.431s-.715,0-.715-.715a5.648,5.648,0,0,1,0-2.5,17.436,17.436,0,0,1,1.073-2.5,11.76,11.76,0,0,1,1.073-2.146,2.31,2.31,0,0,1,1.789-1.073,2.784,2.784,0,0,1,2.146,1.073c1.073,1.431,1.073,1.431,1.073,1.789a26.351,26.351,0,0,0,1.789,2.146,8.136,8.136,0,0,1,2.146,4.293,9.9,9.9,0,0,1,.358,3.219Zm-62.6,21.463,1.073,2.146c.715,1.431,1.073,2.5,1.789,2.5h.715a8.423,8.423,0,0,0,4.65-1.789c.715-.715.358-1.073.358-1.789,0-.358-.358-.358-.358-.715a5.084,5.084,0,0,1-.715-2.146c-.358-1.431-.715-2.5-2.146-2.146a34.709,34.709,0,0,1-6.081.358,1.766,1.766,0,0,0-1.073.358c-.358.715.358,1.073,1.073,1.789C266.763,143.791,267.121,144.149,267.121,144.507Z" transform="translate(-161.325 -60.8)" fill="#e91d2d"/><path d="M406.184,157.785a2.15,2.15,0,0,1-.358-1.431c0-.715-.358-1.073-.358-1.789a5.17,5.17,0,0,0-.715-2.5,3.012,3.012,0,0,0-2.5-1.431,1.314,1.314,0,0,0-1.073.358c-1.431.715-2.5,1.431-2.146,3.219.716,2.5,1.073,4.293,1.789,6.439,0,.358.358,1.431.715,1.431h0l4.293-1.431a.35.35,0,0,0,.358-.358c1.073-.715.715-1.431,0-2.5ZM400.1,147.411a14.008,14.008,0,0,0-3.577-2.862,4.936,4.936,0,0,1-1.431-1.073h-.358a1.314,1.314,0,0,0-1.073-.358,3.815,3.815,0,0,0-2.862,2.146c0,.715,1.073,2.146,2.5,3.935l.358.358a2.7,2.7,0,0,0,2.5,1.431h0a4.755,4.755,0,0,0,2.5-1.073c.358-.715,1.789-1.789,1.431-2.5Zm-100.162-6.439H293.86s-1.431,2.862-1.431,4.293c.358,1.789,2.146,2.146,3.577,2.5a15.493,15.493,0,0,0,1.789.358,2.163,2.163,0,0,0,2.146-1.073c.715-2.146,1.431-3.935,1.431-5.366v-.358a2.7,2.7,0,0,0-1.431-.358Zm96.585,12.52h0c-2.5,0-4.293-1.789-5.724-3.935-.358-.715-1.073-1.073-1.431-1.789a13.362,13.362,0,0,0-2.5-2.146c-.715-.715-1.789-1.431-1.789-2.146a22.208,22.208,0,0,1-1.073-3.577,22.809,22.809,0,0,0-.716-2.5v-.358a4.005,4.005,0,0,0-2.5-2.862,6.088,6.088,0,0,1-2.5-.358c-2.146,0-4.65-.358-5.724-2.146-1.073-1.431-.716-2.862,0-4.293.358-.715.358-1.073.715-1.789.716-2.862,1.073-6.081.358-8.228,0-.358-.358-.715-.358-1.073-.358-1.073-.715-2.5-.358-2.862s.358-.358,1.073-.358a2.7,2.7,0,0,1,1.431.358c.358,0,.716,0,.716.358a15.373,15.373,0,0,0,4.293.715,27.863,27.863,0,0,0,7.512-1.431c4.293-2.146,8.585-6.8,8.228-12.52-.716-5.724-4.293-11.447-11.089-17.528l-.358-.358c-1.073-.715-2.146-1.789-2.146-2.5s2.146-1.431,3.577-1.789c.358,0,.716,0,.716-.358h.358a20.684,20.684,0,0,0,5.008-1.789c5.008-3.219,4.65-9.3,4.293-12.52v-.358c0-.358-.358-1.073-.716-1.073h-.358l-.358.358a6.28,6.28,0,0,1-1.789,1.431c-1.431,1.073-3.577,1.431-5.366,1.789-1.073.358-2.5.358-3.577.715-5.008,1.789-7.87,4.293-8.943,7.512a6.576,6.576,0,0,0,.715,5.724,54.985,54.985,0,0,0,6.081,6.8c3.577,3.577,7.154,6.8,8.228,11.8.358,2.862-.716,5.008-3.577,7.154a11.851,11.851,0,0,1-5.366,1.431,17.85,17.85,0,0,1-7.512-1.789,63,63,0,0,1-8.227-5.008,56.512,56.512,0,0,0-12.878-7.154,21.715,21.715,0,0,0-6.439-1.789,26.841,26.841,0,0,1-8.943-3.219c-.715-.715-1.789-1.073-2.5-1.789-2.146-1.789-4.65-3.577-7.512-3.935-1.073-.358-2.146-.358-2.862-.715-1.431-.358-2.862-.358-4.293-1.431a6.28,6.28,0,0,1-1.789-1.431,67.106,67.106,0,0,0-6.439-4.293,64.125,64.125,0,0,0-12.52-3.935,5.708,5.708,0,0,1-3.219-2.5l-2.146-2.146c-3.577-2.862-6.8-4.65-10.732-4.65h-1.073c-2.146,0-4.293,1.789-5.724,2.862-3.935,3.577-8.585,6.8-12.878,10.016-6.439,4.65-12.878,9.3-18.6,15.382-5.366,5.724-7.512,12.878-9.3,19.675a10.445,10.445,0,0,0-.715,3.219c-.358,1.789-1.073,3.935-1.431,5.724-2.5,10.016-5.008,20.39-15.382,26.829a.768.768,0,0,0,.358,1.431,8.479,8.479,0,0,0,8.585-2.862c2.5-3.219,3.935-6.081,7.154-9.3a1.249,1.249,0,0,1,.715-.358c.358,0,.358.358.358.715a7.422,7.422,0,0,1-2.146,3.577,18.952,18.952,0,0,0-2.146,3.577c-1.073,2.862-3.577,5.366-6.081,7.512a1.249,1.249,0,0,1-.715.358l-.358.358c0,.715.358,1.073,1.431,1.073h0c5.724,0,9.658-3.935,13.593-7.87a1.249,1.249,0,0,1,.715-.358h.715c.358,0,.715.715,1.431,1.073,1.431,1.073,2.5,2.146,4.293,2.5h0a32.734,32.734,0,0,1,5.724-.358h1.431c2.146.715,4.293,1.431,6.081,2.146,1.431.358,2.862,1.073,4.293,1.431h0c1.789,0,3.219-1.789,4.293-3.219a4.963,4.963,0,0,0,0-3.219,15.491,15.491,0,0,0-.358-1.789c.358-.358.715,0,1.431,0h1.431a1.056,1.056,0,0,0,.715-1.431c-.358-1.789-1.431-3.219-2.146-4.65a18.952,18.952,0,0,1-2.146-3.577,13.612,13.612,0,0,0-3.219-4.65c-1.431-1.789-2.862-3.219-3.219-5.008V121.3c0-.358.715,0,.715,0,.715.358,1.431,1.073,2.146,1.431,2.146,1.789,4.293,3.577,7.154,3.935a29.08,29.08,0,0,0,7.87.358c.715,0,1.073-.715,1.073-1.431a36.591,36.591,0,0,1-2.862-7.512c-.715-2.146-1.789-7.154-.715-11.447,0-.358.358-.358.715-.358h0c.358,0,.715.715.715,1.073v.358c.358,5.366.715,10.732,3.935,15.024.715,1.431,2.146,2.146,3.219,2.862a10.873,10.873,0,0,1,2.5,1.789,3.477,3.477,0,0,1,.358,3.219l-3.935,6.081a12.089,12.089,0,0,0-2.146,4.293c-.358,1.431,0,2.862,0,4.293v.358a.35.35,0,0,1-.358-.358q-2.683-4.293-1.073-7.512c.715-1.431,3.935-6.081,4.65-7.512.358-.358.715-1.073.358-1.431a10.713,10.713,0,0,0-3.577-1.431h0c-.715,0-1.073.715-1.431,1.073a.35.35,0,0,1-.358.358l-5.008,8.943v.358c-.358,1.073-.715,1.789-.358,2.862.358,1.431.715,2.862,1.073,3.935a1.314,1.314,0,0,0,.358,1.073c.358,1.431.715,3.22,1.431,3.935a2.732,2.732,0,0,0,1.789.715H281.7a3.571,3.571,0,0,1,1.789,1.431,6.28,6.28,0,0,0,1.789,1.431c1.431.358,3.219,1.073,4.65,1.431,2.146.715,4.293,1.073,6.439,1.789a12.709,12.709,0,0,0,3.577.715A3.884,3.884,0,0,0,303.161,156c1.789-1.431,2.146-2.5,2.5-4.65.358-1.789,1.073-1.789,2.146-1.789a2.151,2.151,0,0,0,1.431-.358,11.062,11.062,0,0,0,3.219-4.293,2.712,2.712,0,0,0,.715-1.431,1.314,1.314,0,0,0,.358-1.073c0-1.073-.715-1.073-1.073-1.073h-7.154c-2.146,0-3.219,2.146-3.935,3.935l-1.073,2.146a3.757,3.757,0,0,1-3.219,1.789c-.358,0-1.431-.358-1.789-.358-2.862-.715-5.724-1.431-7.154-4.293a3.438,3.438,0,0,1,.358-2.5,43.166,43.166,0,0,1,5.724-5.724,14.051,14.051,0,0,0,7.512-5.366c.358-.358.358-1.073.715-1.431.358-.715.358-1.431,1.431-2.146.358-.358.715,0,1.073.358.358,1.431-.358,2.862-.715,4.293,0,.358-.358.715-.358,1.073v.358h2.862a35.279,35.279,0,0,0,8.585-1.073c2.862-.358,5.724-1.073,8.585-1.073h1.073a14.675,14.675,0,0,1,3.935.358c1.073,0,2.5.358,3.577.358h1.431c3.577,0,6.439-1.789,7.154-4.65.715-2.146.715-6.081-.358-11.8v-.358h0c0-.358,0-.358.358-.715s.715,0,.715.358a53.849,53.849,0,0,1,2.5,11.8c.358,3.219,1.789,6.081,3.935,9.3A14.445,14.445,0,0,0,360.4,142.4c1.073,0,2.5-.358,3.577-.358h1.789c6.439,0,11.8,2.862,16.1,7.87v.358c0,.358-.358.358-.715.358l-.716-.358c-3.577-2.862-7.154-5.724-11.8-6.081-.716,0-1.789-.358-2.5-.358a14.674,14.674,0,0,0-3.935.358c-1.431,0-2.5.358-3.577.358a17.956,17.956,0,0,1-4.293-.715c-5.366-1.789-9.658-7.87-11.089-11.8a1.249,1.249,0,0,0-.715-.358h-.358c-.715.358-.715.715-.715,1.073a26.421,26.421,0,0,0,.715,4.293c.715,2.862,1.073,6.439,5.366,9.3,2.862,1.789,3.577,2.5,6.8,3.219h2.5a17.417,17.417,0,0,1,4.293-.358,20.415,20.415,0,0,1,12.52,4.293,6.279,6.279,0,0,1,1.789,1.431,10.872,10.872,0,0,0,2.5,1.789,4.537,4.537,0,0,0,2.146.358A4.373,4.373,0,0,0,383.29,156a2.151,2.151,0,0,1,1.431-.358c1.431,0,2.146,1.073,3.219,2.5.716.715,1.073,1.789,2.146,2.5a6.245,6.245,0,0,0,4.293,1.431h5.008a48.275,48.275,0,0,0-2.862-8.585ZM253.8,140.972a2.1,2.1,0,0,1-1.789.715,15.5,15.5,0,0,1-1.789-.358c-1.073-.715-1.431-1.789-1.789-3.577a1.314,1.314,0,0,1,.358-1.073h.715a4.268,4.268,0,0,1,3.219,1.789c.715-.358,1.789,1.073,1.073,2.5Zm1.789-22.536a2.712,2.712,0,0,1-1.431.715c-.358-.358-1.073-.715-1.073-1.431-.358-.715-.715-1.073-1.431-1.073h0a2.732,2.732,0,0,0-1.789.715c-.358.358-1.431,1.073-1.789,1.431-1.431,1.431-3.219,2.862-3.577,4.65,0,.715,0,.715-.358,1.073a2.732,2.732,0,0,1-.715,1.789h-.358c-.358,0-.358,0-.715-.358-.358,0-.358-.358-.358-.715A9.087,9.087,0,0,1,245.21,117c1.431-1.073,2.5-2.862,3.935-4.293.715-.715,1.073-1.431,1.789-2.146.358-.358,1.073,0,2.5,1.431A48.993,48.993,0,0,1,256.3,117a2.216,2.216,0,0,0-.715,1.431Zm26.829-37.561-1.789,1.789c-2.146,2.146-4.65,4.293-6.081,6.8a14.5,14.5,0,0,0-1.789,3.219l-.358.358h-.715c-.358-.358,0-3.577.358-5.008,1.073-3.219,3.935-6.8,7.87-9.658a2.151,2.151,0,0,1,1.431-.358,1.858,1.858,0,0,1,1.431.715A5.317,5.317,0,0,1,282.413,80.875Z" transform="translate(-15.285 -59.769)" fill="#e91d2d"/></g></g></g></g></svg>