<svg xmlns="http://www.w3.org/2000/svg" xmlns:xlink="http://www.w3.org/1999/xlink" width="512" height="512" viewBox="0 0 512 512"><defs><clipPath id="b"><rect width="512" height="512"/></clipPath></defs><g id="a" clip-path="url(#b)"><g transform="translate(27.002 -0.002)"><path d="M302.919,125.37a2.769,2.769,0,0,1,1.481.3c.55.295.174,1.186-3.958,9.354-10.481,20.713-20.466,42.266-28.072,60.593l-2.938,7.079,1.279,2.359c17.2,31.764,47.789,93.025,50.532,101.187a11.971,11.971,0,0,1,.169,7.412c-2.306,6.933-29.239,60.892-50.265,100.7-16.725,31.669-37.494,69.4-41.652,75.666a13.657,13.657,0,0,1-4.009,4.242c-1.187.621-3.6.629-3.84.011-.1-.256,1.415-3.556,3.362-7.331,9.271-17.976,20.782-42.781,28.9-62.272l3-7.208-4.867-9.137c-17.529-32.908-43.944-86.044-46.765-94.071-1.167-3.32-1.193-4.911-.129-8.079,2.873-8.558,29.733-62.172,54.205-108.2,17.854-33.58,35.185-64.752,38.556-69.344a7.409,7.409,0,0,1,5.01-3.261Zm-39.28-15.213c-18.869,0-37.8.213-42.973.652-6.839.581-8.863,1.567-12.2,5.938-6.3,8.264-49.442,81.663-67.253,114.425-8.5,15.63-29.552,56.245-33.722,65.05-4.862,10.266-5.332,15.006-2.262,22.75,3.188,8.043,21.3,43.207,37.843,73.476,11.282,20.64,31.576,55.689,49.277,85.1,15.309,25.438,17.608,28.748,21.162,30.474,2.45,1.19,6.095,1.54,19.286,1.85,24.67.58,67.137.216,75.211-.645,3.637-.388,5.455-1.1,7.559-2.967,2.578-2.285,5.1-6.252,22.788-35.791,32.738-54.682,50.634-86.925,75.1-135.322,7.658-15.147,9.3-19.06,9.78-23.3a23.036,23.036,0,0,0-1.446-9.389c-1.877-5.24-22.79-46.1-36.741-71.79-13.543-24.935-41.637-73.233-59.47-102.238-9.893-16.092-10.7-16.823-19.367-17.6-4.908-.441-23.711-.665-42.58-.669Z" transform="translate(-34 -54)"/></g></g></svg>