<?xml version="1.0" encoding="UTF-8"?>
<svg width="512" height="512" version="1.1" viewBox="0 0 135.47 135.47" xmlns="http://www.w3.org/2000/svg"><g transform="translate(2.8314e-8 2.4848)"><ellipse cx="67.623" cy="65.252" rx="67.287" ry="67.737" fill="#fff" stroke-width=".28976"/><path d="m59.521 132.5c-21.596-2.4709-42.236-16.932-52.133-36.527-7.1657-14.188-9.3231-32.016-5.573-46.054 0.79096-2.9607 0.82681-2.9964 1.225-1.22 2.3018 10.27 4.3496 14.423 9.6923 19.658 4.6933 4.5991 10.444 8.6132 30.624 21.377 25.301 16.003 29.75 19.379 34.153 25.917 2.2743 3.3772 4.2873 8.8898 4.7681 13.058 0.34335 2.9762 0.54893 2.8756-7.8321 3.8357-6.1739 0.70724-8.4077 0.70048-14.924-0.0452zm44.378-15.025c-0.69947-10.178-5.3543-19.639-14.118-28.699-6.7676-6.9956-14.355-11.962-30.195-19.766-19.036-9.3779-28.545-16.782-32.791-25.531-2.5655-5.287-3.3428-8.4091-3.397-13.644-0.10995-10.613 6.7473-20.284 17.141-24.174 4.2323-1.5842 12.503-2.1779 17.435-1.2515 5.5712 1.0465 10.899 3.843 15.213 7.9852 5.6864 5.4604 8.5165 12.255 10.32 24.776l0.78189 5.4292 8.7823 0.35845v-20.156c0-11.086 0.20588-20.155 0.4575-20.153 0.91129 6e-3 8.8242 4.311 12.452 6.7747 4.9068 3.3321 12.04 10.16 15.816 15.138 3.9859 5.2554 9.3113 16.075 11.202 22.76 7.2322 25.565-1.7599 53.626-22.574 70.447-3.0024 2.4264-5.6256 4.4164-5.8293 4.4224-0.2038 7e-3 -0.51654-2.1165-0.69523-4.7166z" fill="#db0812" stroke-width=".60998"/></g></svg>
