<svg xmlns="http://www.w3.org/2000/svg" xmlns:xlink="http://www.w3.org/1999/xlink" width="512" height="512" viewBox="0 0 512 512"><defs><clipPath id="b"><rect width="512" height="512"/></clipPath></defs><g id="a" clip-path="url(#b)"><path d="M224.592,350.32c-1.778-3.321-2.479-23.422-2-57.207.409-28.648.371-52.085-.084-52.084-1.6.005-32.443,24.2-53.833,42.229-11.886,10.018-31.113,28.141-42.728,40.272-22.456,23.455-28.143,25.841-35.4,14.852-3.5-5.3-2.933-6.444,9.878-20.062,16.9-17.962,51.544-47.291,89.871-76.079,29.4-22.085,41.259-34.479,28.811-30.121-3.266,1.144-10.47,2.11-16.008,2.147-14.193.1-17.352-6.524-15.431-32.336,1.777-23.881,4.348-31.214,14.715-41.962,13.957-14.469,26.908-8.194,15.033,7.284-6.313,8.228-8.165,13.905-9.429,28.9-1.321,15.677,1.18,20.754,8.337,16.923,5.906-3.161,7.742-10.771,9.838-40.773,1.6-22.91,5.221-30.768,14.177-30.768,2.624,0,5.371,1.565,6.1,3.477s.409,20.218-.721,40.679-1.4,37.2-.593,37.2,9.387-4.982,19.073-11.07,30.47-18.285,46.187-27.1c22.74-12.759,28-16.727,25.752-19.435-1.908-2.3-2.258-10.82-1.079-26.288,1.93-25.317-.124-28.425-11.08-16.763-4.668,4.968-6.02,10.028-7.171,26.826-1.028,15-2.769,22.418-6.316,26.928-5.089,6.469-13.163,8.224-16.084,3.5-.928-1.5-.858-15.42.155-30.93,1.62-24.795,2.559-28.917,7.778-34.136a20.157,20.157,0,0,1,14.337-5.935c5.468,0,9.444-1.668,11.386-4.777,1.641-2.627,6.536-6.015,10.879-7.529,6.718-2.342,8.64-2.009,12.883,2.234,4.285,4.285,4.987,8.542,4.987,30.261,0,13.9,1.1,25.955,2.447,26.787s7.924-1.235,14.619-4.593,14.346-5.763,17-5.345c4.719.743,9.036,5.3,9.114,9.612.092,5.079-15.738,16-29.531,20.367-8.207,2.6-25.791,10.518-39.075,17.594s-27.013,14.366-30.509,16.2-17.8,10.519-31.78,19.3l-25.424,15.964-.357,45.736c-.2,25.155.867,52.809,2.362,61.453,2.137,12.354,2.011,16.57-.59,19.7C240.3,357.236,227.927,356.552,224.592,350.32ZM55.781,317.7c-1.8-2.918-10.487-52.336-16.755-95.353-6.59-45.223-7.987-47.68-15.046-26.466-3.038,9.128-7.6,18.474-10.131,20.767C9.007,221.026,2.125,219.982.04,214.551c-.994-2.591,16.66-58.17,25.1-79.03,3.735-9.227,10.951-11.454,17.121-5.284,1.988,1.988,4.97,12.571,6.627,23.517s4.845,28.484,7.084,38.971c4.338,20.318,4.931,24.172,5.868,38.136l.6,8.9,2-10.17c1.1-5.593,3.92-21.039,6.26-34.323,5.6-31.8,20.184-88.746,28.37-110.8,3.592-9.676,10.473-28.438,15.291-41.694C125.378,12.483,130.357,3.949,138.741,1c4.985-1.753,8.309-1.262,13.213,1.951,9.773,6.4,8.661,16.327-3.475,31.013-11,13.308-26.854,49.374-35.707,81.217-3.11,11.187-7.793,26.06-10.406,33.052a220.549,220.549,0,0,0-11.147,45.883c-.628,4.9-1.68,9.789-2.338,10.854s-1.828,8.757-2.6,17.093-2.019,18.016-2.772,21.512-3.119,19.513-5.257,35.594c-4.732,35.59-6.593,40.679-14.88,40.679C59.928,319.847,56.512,318.879,55.781,317.7Zm48.45-65.871c-2.406-3.894,2.582-60.581,5.872-66.726,6.463-12.072,16.566-14.028,18.56-3.595,1.808,9.459-5,64.465-8.5,68.684C117.032,253.954,106.232,255.063,104.23,251.824ZM141.822,230.6c-2.893-4.68,1.528-59.01,5.277-64.86,2.959-4.618,23.786-13.7,31.419-13.7,1.391,0,3.293,2.408,4.227,5.351,1.286,4.05-.594,7.7-7.731,15.008-8.954,9.17-9.514,10.741-11.1,31.173-.932,11.988-3.2,23.356-5.121,25.671C154.87,233.974,144.42,234.807,141.822,230.6Zm118.6-54.141c-1.56-1.88-2.316-7.284-1.68-12.01s1.911-17.624,2.832-28.662c1.385-16.588,2.753-21.149,7.887-26.282,5.175-5.175,6.863-5.671,10.113-2.974,2.634,2.186,3.451,5.767,2.514,11.028-.763,4.285-1.583,16.943-1.823,28.13-.526,24.528-.972,25.9-9.943,30.536C264.421,179.279,262.792,179.317,260.423,176.462ZM118.9,150.947c-4.357-3.186-4.373-3.725-.3-9.943,6.109-9.324,13.153-12.685,16.963-8.094,4,4.826,1.27,12.672-6.1,17.5C124.471,153.686,122.769,153.773,118.9,150.947Zm151.47-68.758c0-7.158,10.436-15.459,16.506-13.13,9.273,3.558.3,19.428-10.986,19.428C271.715,88.486,270.375,86.957,270.375,82.189Z" transform="translate(56 78.291)" fill="#cc0001"/></g></svg>