<?xml version="1.0" standalone="no"?>
<!DOCTYPE svg PUBLIC "-//W3C//DTD SVG 20010904//EN"
 "http://www.w3.org/TR/2001/REC-SVG-20010904/DTD/svg10.dtd">
<svg version="1.0" xmlns="http://www.w3.org/2000/svg"
 width="700.000000pt" height="700.000000pt" viewBox="0 0 700.000000 700.000000"
 preserveAspectRatio="xMidYMid meet">
<metadata>
Created by potrace 1.11, written by Peter Selinger 2001-2013
</metadata>
<g transform="translate(0.000000,700.000000) scale(0.100000,-0.100000)"
fill="#000000" stroke="none">
<path d="M2441 5755 c-85 -16 -138 -34 -232 -81 -66 -33 -196 -130 -234 -175
-111 -131 -166 -238 -206 -399 -17 -71 -18 -166 -19 -1957 l0 -1883 22 -1 c30
0 1543 0 1586 0 l32 1 0 1435 0 1435 930 0 930 0 0 820 0 820 -1367 -1 c-1100
-1 -1383 -3 -1442 -14z"/>
<path d="M5160 3864 c-47 -25 -132 -70 -190 -101 -58 -31 -143 -76 -190 -101
-47 -24 -112 -59 -145 -77 -33 -18 -118 -63 -190 -100 -71 -37 -157 -82 -190
-100 -66 -36 -185 -99 -315 -167 -186 -98 -286 -152 -315 -169 l-30 -18 2
-208 c1 -114 4 -511 7 -882 3 -371 8 -676 10 -679 6 -6 1625 -6 1631 0 3 3 4
599 3 1326 l-3 1321 -85 -45z"/>
</g>
</svg>
